<?xml version="1.0" encoding="utf-8"?>
<!-- Generator: Adobe Illustrator 25.2.1, SVG Export Plug-In . SVG Version: 6.00 Build 0)  -->
<svg version="1.1" id="Ebene_1" xmlns="http://www.w3.org/2000/svg" xmlns:xlink="http://www.w3.org/1999/xlink" x="0px" y="0px"
	 viewBox="0 0 1124.5 620.4" style="enable-background:new 0 0 1124.5 620.4;" xml:space="preserve">
<style type="text/css">
	.st0{fill:#FFCD9F;}
</style>
<g>
	<g>
		<g id="Gruppe_251" transform="translate(0 20.31) rotate(-7)">
			<g id="Gruppe_250" transform="translate(0 0)">
				<path id="Pfad_236" class="st0" d="M272.5,85.6C419.6,56.7,581.9,61.9,737.6,72c75.6,4.9,152.7,15.2,212.3,40.3
					c73.7,30.9,111,80,131.1,128.5c28.5,68.5,18.3,151.7-89.8,192.6c-73.4,27.8-174.7,28.7-247.4,57.1
					c-48.1,18.7-78.1,47.3-112.5,73.1C564,614.7,482.7,644.2,398.2,648c-84.6,3.3-163.8-20.1-236.9-42.8
					c-38.8-12-78.5-24.5-106.1-43.1c-18.8-13.2-34.5-30.2-46.1-50c-50.3-78.4-70.4-164.2-30.4-244.3S125.2,114.5,272.5,85.6"/>
			</g>
		</g>
	</g>
</g>
</svg>
