<?xml version="1.0" encoding="utf-8"?>
<!-- Generator: Adobe Illustrator 25.1.0, SVG Export Plug-In . SVG Version: 6.00 Build 0)  -->
<svg version="1.1" id="Ebene_1" xmlns="http://www.w3.org/2000/svg" xmlns:xlink="http://www.w3.org/1999/xlink" x="0px" y="0px"
	 viewBox="0 0 1200 1200" style="enable-background:new 0 0 1200 1200;" xml:space="preserve">
<style type="text/css">
	.st0{clip-path:url(#SVGID_2_);}
	.st1{fill:#FFCD9F;}
</style>
<g>
	<defs>
		
			<rect id="SVGID_1_" x="31.4" y="307.8" transform="matrix(0.9925 -0.1219 0.1219 0.9925 -68.6497 77.5873)" width="1137.2" height="584.4"/>
	</defs>
	<clipPath id="SVGID_2_">
		<use xlink:href="#SVGID_1_"  style="overflow:visible;"/>
	</clipPath>
	<g id="Gruppe_251" transform="translate(0 20.31) rotate(-7)" class="st0">
		<g id="Gruppe_250" transform="translate(0 0)">
			<path id="Pfad_236" class="st1" d="M271.3,377.9c147.1-28.9,309.4-23.7,465.1-13.6c75.6,4.9,152.7,15.2,212.3,40.3
				c73.7,30.9,111,80,131.1,128.5c28.5,68.5,18.3,151.7-89.8,192.6c-73.4,27.8-174.7,28.7-247.4,57.1
				c-48.1,18.7-78.1,47.3-112.5,73.1C562.8,907,481.5,936.5,397,940.3c-84.6,3.3-163.8-20.1-236.9-42.8
				c-38.8-12-78.5-24.5-106.1-43.1c-18.8-13.2-34.5-30.2-46.1-50C-42.4,726-62.5,640.2-22.5,560.1S124,406.8,271.3,377.9"/>
		</g>
	</g>
</g>
</svg>
