<?xml version="1.0" encoding="utf-8"?>
<!-- Generator: Adobe Illustrator 25.2.1, SVG Export Plug-In . SVG Version: 6.00 Build 0)  -->
<svg version="1.1" id="Ebene_1" xmlns="http://www.w3.org/2000/svg" xmlns:xlink="http://www.w3.org/1999/xlink" x="0px" y="0px"
	 viewBox="0 0 704.3 1200" style="enable-background:new 0 0 704.3 1200;" xml:space="preserve">
<style type="text/css">
	.st0{fill:#FFCD9F;}
	.st1{fill:#9BD2C3;}
</style>
<path class="st0" d="M430.2,535.3c-3.6-10.2-18.4-17-26.6-7c-1.6,1.9-3,3.8-4.3,5.9c-6.6,1.9-11.3,7.9-11.4,15.1
	c-1.5,23.7-1.3,47.5,0.8,71.2c0.8,11.8,2.3,23.5,4.4,35.1c1.5,11.3,9.3,20.8,20.1,24.6c7,1.9,14.3-1.1,18-7.3
	C454.2,629.7,445.6,579.5,430.2,535.3z M425,651.9c0.1,0.2,0.3,0.4,0.4,0.6C425.2,652.4,425.1,652.1,425,651.9z"/>
<path class="st1" d="M36.9,128.1L37.7,50c-0.1-5-2.4-9.4-6-12.3c-1-7.8-7.7-14-15.8-14.1C7.2,23.7,0.1,30.7,0,39.5
	C1.7,69,3.4,98.6,5.1,128.1c0.1,8.7,7.2,15.8,15.9,15.9C29.7,143.8,36.7,136.8,36.9,128.1z"/>
<path class="st1" d="M142.1,141.1c1-16.3,1.1-32.7,0.3-49.1c-1-15.3,1.3-30.6,6.7-44.9c2.3-8.5-2.7-17.2-11.1-19.5
	c-3.7-0.9-7.4-0.5-10.6,1c-2.9-3-6.9-4.8-11.3-5c-8.7,0.1-15.8,7.2-15.9,15.9l10.1,101.6c0.2,8.7,7.2,15.7,15.9,15.9
	C134.9,156.8,141.9,149.8,142.1,141.1z"/>
<path class="st1" d="M384,178.4c0.5-1,1-2,1.3-3.1c15.1-40,19.3-83.3,12.1-125.4c-2.4-8.4-11.1-13.4-19.6-11.1
	c-0.5,0.2-1,0.3-1.5,0.6c-0.6-0.2-1.1-0.5-1.8-0.7c-8.5-2.2-17.2,2.7-19.6,11.1c-5.5,25.2-9.2,50.9-11.1,76.6
	c-1.5,19.9-3.7,48.1,18.1,58.4C369.8,189.1,379.6,186.2,384,178.4z M377.2,157.9c0,0-0.1,0-0.1,0L377.2,157.9
	C377.2,157.9,377.2,157.9,377.2,157.9z"/>
<path class="st1" d="M617.9,156.6c9.4,9.5,24.8,9.6,34.3,0.1c0.4-0.4,0.7-0.7,1.1-1.1c6.9-9.2,11.4-20,13.1-31.4
	c2.5-10.9,4.1-22,4.6-33.1c1-22.3-2.4-44.7-10.1-65.7c-2.5-8.5-11.5-13.4-20.1-10.8c-2.4,0.7-4.7,2-6.5,3.8c-5,4.5-8.6,10.5-10.5,17
	c-7.9,1.2-14,7.8-14.2,15.9c-2.7,23.1-2.9,46.4-0.7,69.6C608.2,133.5,611.3,145.9,617.9,156.6z M630.4,133.4
	C630.4,133.5,630.4,133.5,630.4,133.4C630.2,134.4,627.7,135.2,630.4,133.4z"/>
<path class="st1" d="M151.6,380.7c7.9,1.2,15.4-3.7,17.5-11.4c6.5-44.6,7.4-89.9,2.6-134.8c-0.2-7.1-4.9-13.2-11.7-15.3
	c-6.9-1.9-14.3,1.1-18,7.3l-3.7,7.3c-3.6,6.5-2.3,14.4,2.8,19.5c-5.3,2.4-8.9,7.6-9.2,13.7c-0.3,32.8,1.6,65.5,5.9,98.1
	C138,373,143.8,379.6,151.6,380.7z"/>
<path class="st1" d="M393.2,439.5c11.2-2.6,19.8-11.6,22-22.8c6.1-19.6,8.8-40.2,7.8-60.7c-1.2-23.9-6.8-47.3-16.7-69
	c-2.5-4.3-7-7.1-11.8-7.7c-2.9-4.3-7.7-7.1-13.2-7.1c-8.7,0-15.7,7.1-15.9,15.8c-1.6,22.7-2.3,45.4-2.1,68.1
	c0.1,11.1,0.5,22.3,1,33.4c-0.3,10.9,0.8,21.8,3.3,32.4C370.6,433.3,381.5,440.8,393.2,439.5z"/>
<path class="st1" d="M522.3,398.3c10.8-2.9,18.6-12.3,19.3-23.4c1.7-11.4,2.5-23,3.1-34.5c1.2-22.4,0.9-44.8-0.9-67.1
	c-0.1-6.3-4-12-9.8-14.5c-5.9-2.5-12.8-1.2-17.4,3.3c-0.5,0.6-1.1,1.1-1.6,1.7c-0.1,0-0.2,0-0.3,0c-8.7,0.1-15.8,7.2-15.9,15.9
	c-1.7,34.5-0.6,69,3.3,103.3c0.3,9,7.8,16.1,16.8,15.8C520,398.8,521.2,398.6,522.3,398.3z"/>
<path class="st1" d="M78.9,513.2c2.2-8.4-2.7-17.1-11.1-19.5c-8.5-2-17.1,2.9-19.6,11.2c-1.8,5.3-3.4,10.7-4.8,16.2
	c-3,8.4-5,17.2-6,26c0,0.9,0.1,1.7,0.2,2.6c-4.4,30-3.5,60.6,2.7,90.5c1.6,11,9.1,20.3,19.5,24.3c14,4.3,24.3-6.7,28.4-18.7
	c7.8-21.8,11.2-45,9.8-68.2c-1.3-21.2-8.6-41.5-20.9-58.6C77.6,517,78.2,515.1,78.9,513.2z M57.8,636.5c0,0.3-0.1,0.5-0.2,0.8
	C57.6,637,57.7,636.7,57.8,636.5z"/>
<path class="st1" d="M667.6,489.2c-1.8-4.5-5.5-8.1-10.4-9.6c-8.6-2.2-17.3,2.7-19.7,11.1c-5.2,20.1-7.1,40.9-5.7,61.6
	c1.7,19.5,10.3,37.7,24.4,51.3c6.4,6.2,16.6,6,22.7-0.4c1.8-1.9,3.1-4.1,3.8-6.6c9.1-31.2,10.4-64.2,3.9-96.1
	C684.4,492.2,675.9,487.3,667.6,489.2z"/>
<path class="st1" d="M178.4,859.4c0.2-1.4,0.4-2.8,0.6-4.2l0,0c0,0,0-0.1,0-0.1c5.9-43.2,6.7-87.1,2-130.5
	c-0.2-7.1-4.9-13.2-11.7-15.3c-6.9-1.9-14.3,1.1-18,7.3l-3.6,7.2c-3.6,6.5-2.3,14.4,2.8,19.5c-5.3,2.5-9.1,7.7-9.3,13.8
	c-0.3,32.8,1.6,65.5,5.9,98.1c0.2,7.9,6,14.5,13.8,15.6C168.8,872,176.3,867.1,178.4,859.4z"/>
<path class="st1" d="M284.5,850.8c9.4-2.9,16.2-11,17.5-20.7c3.1-14.7,3.8-29.8,2-44.7c-2.1-17.6-7.4-34.7-15.7-50.4
	c-4.6-7.6-14.4-10-22-5.5c-2.2,1.3-4.1,3.2-5.5,5.5c-0.2,0.3-0.4,0.7-0.6,1c-3.9,1.9-7,5.4-8.3,9.9c-4.4,15.3-6.3,31.2-5.6,47.1
	c0.4,8.4,1.4,16.7,3.1,24.9c1.1,7.8,3.8,15.2,7.9,21.9C263.3,848.7,274,853.1,284.5,850.8z M283.2,821.9
	C283.3,821.9,283.3,821.9,283.2,821.9C283.7,822.9,283.6,822.9,283.2,821.9z M270.6,824.2c-0.1,0.5-0.1,0.8,0,0.9
	C270.3,824.9,270.3,824.6,270.6,824.2z"/>
<path class="st1" d="M531.6,888.3c10.8-2.9,18.6-12.3,19.3-23.4c1.7-11.4,2.5-23,3.1-34.5c1.2-22.4,0.9-44.8-0.9-67.1
	c-0.1-6.3-4-12-9.8-14.5c-5.9-2.5-12.8-1.2-17.4,3.3c-0.5,0.6-1.1,1.1-1.6,1.7c-0.1,0-0.2,0-0.3,0c-8.7,0.1-15.7,7.1-15.9,15.9
	c-1.7,34.5-0.6,69,3.3,103.3c0.3,9,7.8,16.1,16.8,15.8C529.3,888.8,530.5,888.6,531.6,888.3z"/>
<path class="st1" d="M86.3,1009c0.6-1.9,1.2-3.9,1.8-5.8c2.2-8.4-2.7-17.1-11.1-19.5c-8.5-2-17.1,2.9-19.6,11.2
	c-1.8,5.3-3.4,10.7-4.8,16.2c-3,8.4-5,17.2-6,26c0,0.9,0.1,1.7,0.2,2.6c-4.4,30-3.5,60.6,2.7,90.5c1.6,11,9.1,20.3,19.5,24.3
	c14,4.3,24.3-6.7,28.4-18.7c7.8-21.8,11.2-45,9.8-68.2C106,1046.4,98.7,1026.1,86.3,1009z M67.1,1126.5c0,0.3-0.1,0.5-0.2,0.8
	C66.9,1127,67,1126.8,67.1,1126.5z"/>
<path class="st1" d="M310.7,1026c-0.1-2.7-0.8-5.3-2.1-7.8c-2.1-3.6-5.5-6.2-9.5-7.3c-4.1-1.1-8.5-0.5-12.3,1.6
	c-3.4,2.2-6,5.7-7.1,9.7c-3.5,23-1.8,46.5,5,68.7c2.4,8.5,11.2,13.3,19.7,10.9c6.8-1.9,11.4-8.1,11.5-15.1
	c1.4-19.9-0.3-39.9-4.8-59.4C311,1026.8,310.9,1026.4,310.7,1026z M310.5,1062.6C310.5,1063,310.5,1063,310.5,1062.6L310.5,1062.6z"
	/>
<path class="st1" d="M558.1,1026c-1.6-4.9-5.5-8.9-10.8-10.5c-8.5-2.2-17.1,2.8-19.6,11.2c-7,34.2,2.6,67.4,13.5,99.6
	c2.6,8.5,11.6,13.2,20.1,10.6c5.1-1.6,9-5.5,10.6-10.6c9.4-28.8,9.8-59.7,1.3-88.7C571.2,1030.7,564.9,1026.2,558.1,1026z"/>
<path class="st1" d="M695.9,990.6c-2.2-8.3-10.7-13.2-19-11.3c-1.8-4.5-5.5-8.1-10.4-9.6c-8.6-2.2-17.3,2.7-19.7,11.1
	c-5.2,20.1-7.1,40.9-5.7,61.6c1.7,19.5,10.3,37.7,24.4,51.3c6.4,6.2,16.6,6,22.7-0.4c1.8-1.9,3.1-4.1,3.8-6.6
	C701.1,1055.5,702.4,1022.5,695.9,990.6z"/>
</svg>
