<?xml version="1.0" encoding="utf-8"?>
<!-- Generator: Adobe Illustrator 25.2.1, SVG Export Plug-In . SVG Version: 6.00 Build 0)  -->
<svg version="1.1" id="Ebene_1" xmlns="http://www.w3.org/2000/svg" xmlns:xlink="http://www.w3.org/1999/xlink" x="0px" y="0px"
	 viewBox="0 0 965.2 655.8" style="enable-background:new 0 0 965.2 655.8;" xml:space="preserve">
<style type="text/css">
	.st0{fill:#9BD2C3;}
</style>
<g>
	<g>
		<g id="Gruppe_249" transform="matrix(0.848, 0.53, -0.53, 0.848, 94.025, 11.461)">
			<g id="Gruppe_248" transform="translate(-4.291 -5.822)">
				<path id="Pfad_234" class="st0" d="M326.4-191.9c123.4-37.7,258.1-35.8,387.3-27.9c62.7,3.8,126.4,14,175,41.9
					C948.8-143.4,978-86.6,993-30.1c21.1,79.8,9.6,177.9-81.8,228.8c-62.1,34.6-146.3,38.2-207.8,73.4
					c-40.7,23.3-66.7,57.6-96.2,88.8c-48.2,50.9-116,98.4-197.1,105.4c-70.5,6.1-135.5-19.5-195.4-44.3
					c-31.8-13.1-64.3-26.8-86.7-48c-17.6-16.7-27.8-37.1-36.5-57.6C52.6,225.4,39.1,125,75.4,29.8S202.8-154.2,326.4-191.9"/>
			</g>
		</g>
	</g>
</g>
</svg>
