<?xml version="1.0" encoding="utf-8"?>
<!-- Generator: Adobe Illustrator 25.2.1, SVG Export Plug-In . SVG Version: 6.00 Build 0)  -->
<svg version="1.1" id="Ebene_1" xmlns="http://www.w3.org/2000/svg" xmlns:xlink="http://www.w3.org/1999/xlink" x="0px" y="0px"
	 viewBox="0 0 666.5 1200" style="enable-background:new 0 0 666.5 1200;" xml:space="preserve">
<style type="text/css">
	.st0{fill:#9BD2C3;}
</style>
<g id="Gruppe_64" transform="translate(0 91.12)">
	<g>
		<g>
			<g id="Gruppe_63">
				<g>
					<path class="st0" d="M232.8,57.4c0.6-1.1,1.1-2.2,1.4-3.4c8.5-26.9,9-55.8,1.2-82.9c-2.4-8.4-11.1-13.3-19.6-11.1
						c-2.8,0.8-5.2,2.4-7.1,4.4c-3.9-4.1-9.9-6-15.8-4.4c-8.1,2.5-12.9,11-10.9,19.5c2.6,15.7,5,31.4,7.7,47
						c1.4,14.8,9.2,28.3,21.2,37C218.6,67.9,228.4,65.2,232.8,57.4z"/>
					<path class="st0" d="M494.7,64.5c15.5-46.5,17.6-96.4,6.1-144C496-99.4,465.3-91,470.1-71c2.1,8.7,3.6,17.4,4.6,26.2
						c-0.6-0.1-1.2-0.1-1.8-0.1c-8.6,0.2-15.6,7.2-15.8,15.9c-1.3,18.6-3.1,37.2-3.8,55.9c-2,16.4,3.5,32.8,14.8,44.7
						c6.4,6.1,16.6,5.9,22.8-0.5C492.7,69.2,494,67,494.7,64.5z"/>
					<path class="st0" d="M25.4,322.9c7.6,4.2,17.2,1.7,21.8-5.8c30.8-41.5,17.3-95.4-1.8-138.5c-4.6-7.6-14.4-10-22-5.4
						c-2.2,1.3-4.1,3.2-5.4,5.4c-5,7.8-7.3,17-6.7,26.2c0,1.1,0.2,2.1,0.4,3.1c-5.2,3.3-8.7,8.7-9.6,14.9
						c-1.8,13.6-2.4,27.2-1.9,40.9C-1.2,286.3,8.2,308.2,25.4,322.9z M32.3,251.5c0.1-3,0.2-6.1,0.3-9.2c1.3,9.4,1.5,18.9,0,28
						C32.2,264.1,32.1,257.8,32.3,251.5z"/>
					<path class="st0" d="M259.6,298.6c9.4-2.9,16.2-11,17.5-20.7c3.1-14.7,3.8-29.8,2-44.7c-2.1-17.6-7.4-34.7-15.7-50.4
						c-4.6-7.6-14.4-10-22-5.5c-2.2,1.3-4.1,3.2-5.5,5.5c-0.2,0.3-0.4,0.7-0.6,1c-3.9,1.9-7,5.4-8.3,9.9
						c-4.4,15.3-6.3,31.2-5.6,47.1c0.4,8.4,1.4,16.7,3.1,24.9c1.1,7.8,3.8,15.2,7.9,21.9C238.4,296.5,249.1,300.9,259.6,298.6z
						 M245.6,272c-0.1,0.5-0.1,0.8,0,0.9C245.3,272.7,245.4,272.4,245.6,272z M258.3,269.7C258.3,269.7,258.3,269.7,258.3,269.7
						C258.7,270.7,258.6,270.7,258.3,269.7z"/>
					<path class="st0" d="M624.7,319.7c6.9,1.8,14.2-1.1,18-7.2c19.3-45.1,19.3-96.1,0-141.2c-4.5-7.6-14.3-10.1-21.9-5.6
						c-1.1,0.7-2.2,1.5-3.1,2.4c-6,6.7-10.9,14.3-14.6,22.5c-2.9,5.4-2.5,11.8,0.6,16.7c-4.7,19.3-6.4,39.2-5.1,59.1
						C599.9,285,601.8,314.9,624.7,319.7z M635.5,291.5c-0.1,0-0.2-0.3-0.5-0.7C635.6,291.1,635.8,291.4,635.5,291.5z"/>
					<path class="st0" d="M148.6,461.3c-10.7,33.7-9.2,70.1,4.2,102.8c2.1,6.8,8.2,11.5,15.3,11.7c7.1-0.2,13.2-4.9,15.3-11.7
						c9.2-26.9,9.8-56,1.7-83.3c-1.1-3.9-3.5-7-6.7-9c0.2-0.7,0.4-1.4,0.7-2.1c2.3-8.5-2.7-17.2-11.1-19.6
						C159.7,448,151.1,452.9,148.6,461.3z"/>
					<path class="st0" d="M261.9,460.3c-3.4,2.2-6.1,5.7-7.1,9.7c-3.5,23-1.8,46.5,5,68.7c2.4,8.5,11.2,13.3,19.7,10.9
						c6.8-1.9,11.4-8.1,11.5-15.1c1.4-19.9-0.3-39.9-4.8-59.4c-0.1-0.5-0.3-0.9-0.4-1.3c-0.1-2.7-0.8-5.3-2.1-7.8
						c-2.1-3.6-5.5-6.2-9.5-7.3C270.1,457.6,265.7,458.2,261.9,460.3z M285.5,510.4C285.6,510.8,285.5,510.8,285.5,510.4
						L285.5,510.4z"/>
					<path class="st0" d="M522.3,463.3c-8.5-2.2-17.1,2.8-19.6,11.2c-7,34.2,2.6,67.4,13.5,99.6c2.6,8.5,11.6,13.2,20.1,10.6
						c5.1-1.6,9-5.5,10.6-10.6c9.4-28.8,9.8-59.7,1.3-88.7c-2-6.9-8.3-11.5-15.1-11.6C531.5,468.9,527.6,464.9,522.3,463.3z"/>
					<path class="st0" d="M34.7,813c7.6,4.2,17.2,1.7,21.8-5.8c30.8-41.5,17.3-95.4-1.8-138.5c-4.6-7.6-14.4-10-22-5.4
						c-2.2,1.3-4.1,3.2-5.4,5.4c-5,7.8-7.3,17-6.7,26.2c0,1.1,0.2,2.1,0.4,3.1c-5.2,3.3-8.7,8.7-9.6,14.9
						c-1.8,13.6-2.4,27.2-1.9,40.9C8.1,776.4,17.5,798.3,34.7,813z M41.6,741.6c0.1-3,0.2-6.1,0.3-9.2c1.3,9.4,1.5,18.9,0,28
						C41.5,754.1,41.4,747.8,41.6,741.6z"/>
					<path class="st0" d="M386.8,867.4c11.2-2.6,19.8-11.6,22-22.8c6.1-19.6,8.8-40.2,7.8-60.7c-1.2-23.9-6.8-47.3-16.7-69
						c-2.5-4.3-7-7.1-11.8-7.7c-2.9-4.3-7.7-7.1-13.2-7.1c-8.7,0-15.7,7.1-15.9,15.8c-1.6,22.7-2.3,45.4-2.1,68.1
						c0.1,11.1,0.5,22.3,1,33.4c-0.3,10.9,0.8,21.8,3.3,32.4C364.2,861.2,375.1,868.7,386.8,867.4z"/>
					<path class="st0" d="M652,802.5c19.3-45.1,19.3-96.1,0-141.2c-4.5-7.6-14.3-10.1-21.9-5.6c-1.1,0.7-2.2,1.5-3.1,2.4
						c-6,6.7-10.9,14.3-14.6,22.5c-2.9,5.4-2.5,11.8,0.6,16.7c-4.7,19.3-6.4,39.2-5.1,59.1c1.3,18.6,3.2,48.5,26.1,53.3
						C640.9,811.5,648.2,808.6,652,802.5z M644.8,781.5c-0.1,0-0.2-0.3-0.5-0.7C644.9,781.1,645.1,781.4,644.8,781.5z"/>
					<path class="st0" d="M187.7,961.8c0.2-0.7,0.4-1.4,0.7-2.1c2.3-8.5-2.7-17.2-11.1-19.6c-8.3-2.1-16.9,2.8-19.4,11.2
						c-10.7,33.7-9.2,70.1,4.2,102.8c2.1,6.8,8.2,11.5,15.3,11.7c7.1-0.2,13.2-4.9,15.3-11.7c9.2-26.9,9.8-56,1.7-83.3
						C193.3,967,190.9,963.9,187.7,961.8z"/>
					<path class="st0" d="M397.2,956.1c-1.6,1.9-3,3.8-4.3,5.9c-6.5,1.9-11.3,7.9-11.4,15.1c-1.5,23.7-1.3,47.5,0.8,71.2
						c0.8,11.8,2.3,23.5,4.4,35.1c1.5,11.3,9.3,20.8,20.1,24.6c7,1.9,14.3-1.1,18-7.3c23-43.2,14.4-93.4-1-137.6
						C420.2,952.9,405.4,946.1,397.2,956.1z M418.6,1079.8c0.1,0.2,0.3,0.4,0.4,0.6C418.9,1080.2,418.7,1080,418.6,1079.8z"/>
				</g>
			</g>
		</g>
	</g>
</g>
</svg>
