<?xml version="1.0" encoding="utf-8"?>
<!-- Generator: Adobe Illustrator 25.2.1, SVG Export Plug-In . SVG Version: 6.00 Build 0)  -->
<svg version="1.1" id="Ebene_1" xmlns="http://www.w3.org/2000/svg" xmlns:xlink="http://www.w3.org/1999/xlink" x="0px" y="0px"
	 viewBox="0 0 1118.1 1200" style="enable-background:new 0 0 1118.1 1200;" xml:space="preserve">
<style type="text/css">
	.st0{fill:#9BD2C3;}
</style>
<g id="Gruppe_32" transform="translate(12.562 157.464)">
	<g>
		<g>
			<g id="Gruppe_31" transform="translate(-12.562 -157.464)">
				<g id="Gruppe_30" transform="translate(0 0)">
					<path id="Pfad_26" class="st0" d="M309.7,44.4C454.3-14.9,613.9-4.3,767,16.4c74.3,10,150.1,31.3,208.7,82.6
						c72.5,63.5,109.1,164.4,128.9,263.9c28,140.6,18,311.6-88.3,395.6c-72.2,57.1-171.7,58.9-243.3,117.2
						c-47.3,38.5-76.7,97.1-110.6,150.1c-55.1,86.4-133.6,165.8-229.2,173.6c-83.2,6.8-161-41.4-233-88
						c-38.1-24.7-77.1-50.3-104.4-88.6C75.3,991.2,60,956.6,50.4,920.2C1.3,759.1-18.5,582.9,20.9,418.5S164.9,103.7,309.7,44.4"/>
				</g>
			</g>
		</g>
	</g>
</g>
</svg>
