<?xml version="1.0" encoding="utf-8"?>
<!-- Generator: Adobe Illustrator 25.1.0, SVG Export Plug-In . SVG Version: 6.00 Build 0)  -->
<svg version="1.1" id="Ebene_1" xmlns="http://www.w3.org/2000/svg" xmlns:xlink="http://www.w3.org/1999/xlink" x="0px" y="0px"
	 viewBox="0 0 1200 1200" style="enable-background:new 0 0 1200 1200;" xml:space="preserve">
<style type="text/css">
	.st0{clip-path:url(#SVGID_2_);}
	.st1{fill:#9BD2C3;}
	.st2{fill:#FFCD9F;}
</style>
<g id="Gruppe_64" transform="translate(0 91.12)">
	<g>
		<defs>
			<rect id="SVGID_1_" x="250" y="-90.8" width="700.1" height="1199.3"/>
		</defs>
		<clipPath id="SVGID_2_">
			<use xlink:href="#SVGID_1_"  style="overflow:visible;"/>
		</clipPath>
		<g id="Gruppe_63" class="st0">
			<g id="Gruppe_33" transform="translate(0.002 -85.948)">
				<path id="Pfad_28" class="st1" d="M250,63.3c1.7,29.5,3.4,59.1,5.1,88.6c0.1,8.7,7.2,15.8,15.9,15.9c8.7-0.2,15.7-7.2,15.9-15.9
					l0.8-78.1c-0.1-8.7-7.2-15.8-15.9-15.9c-8.7,0.2-15.7,7.2-15.9,15.9c-0.3,26-0.5,52.1-0.8,78.1h31.8
					c-1.7-29.6-3.4-59.1-5.1-88.6c-0.1-8.7-7.2-15.8-15.9-15.9C257.2,47.5,250.1,54.5,250,63.3"/>
			</g>
			<g id="Gruppe_34" transform="translate(7.619 -85.945)">
				<path id="Pfad_29" class="st1" d="M342.6,63.3l10.1,101.6c0.2,8.7,7.2,15.7,15.9,15.9c8.7-0.2,15.7-7.2,15.9-15.9
					c1-16.3,1.1-32.7,0.3-49.1c-1-15.3,1.3-30.6,6.7-44.9c2.3-8.5-2.7-17.2-11.1-19.5c-8.4-2.1-17,2.8-19.6,11.1
					c-13.3,32.6-4.8,68.3-8.1,102.3h31.8L374.4,63.3c-0.2-8.7-7.2-15.7-15.9-15.9C349.8,47.5,342.7,54.6,342.6,63.3"/>
			</g>
			<g id="Gruppe_35" transform="translate(15.02 -85.782)">
				<path id="Pfad_30" class="st1" d="M432.6,65.3c2.6,15.7,5,31.4,7.7,47c1.4,14.8,9.2,28.3,21.2,37c7.7,4.4,17.5,1.7,21.9-6.1
					c0.6-1.1,1.1-2.2,1.4-3.4c8.5-26.9,9-55.8,1.2-82.9c-2.4-8.4-11.1-13.3-19.6-11.1c-8.4,2.5-13.3,11.2-11.1,19.6
					c0.9,3,1.6,6.1,2.3,9.2c0.3,1.3,0.5,2.6,0.8,3.9c0.1,0.7,1.3,6.4,0.4,2.4c1,5.8,1.3,11.6,0.9,17.5c-0.1,2.9-0.2,5.8-0.4,8.8
					c-0.1,1.6-0.3,3.1-0.5,4.7c0.8-3.8-0.1,0.6-0.2,1.1c-1,6.2-2.5,12.3-4.5,18.3l23.4-9.4c-1.4-0.9-1.2-0.7,0.7,0.7
					c-0.5-0.4-1-0.9-1.5-1.4c-0.5-0.5-0.9-1-1.3-1.5c1.4,1.9,1.6,2.1,0.7,0.7c-0.6-1.1-1.2-2.1-1.8-3.2s-0.3-0.6,0.5,1.4
					c-0.3-0.7-0.5-1.3-0.8-2c-1.7-5.3-2.9-10.7-3.7-16.2l-7.2-43.5c-2.4-8.4-11.1-13.4-19.6-11.1C435.4,48.3,430.6,56.8,432.6,65.3"
					/>
			</g>
			<g id="Gruppe_36" transform="translate(26.964 -85.16)">
				<path id="Pfad_31" class="st1" d="M577.9,72.8c-5.5,25.2-9.2,50.9-11.1,76.6c-1.5,19.9-3.7,48.1,18.1,58.4
					c7.9,4.3,17.7,1.4,22.1-6.4c0.5-1,1-2,1.3-3.1c15.1-40,19.3-83.3,12.1-125.4c-2.4-8.4-11.1-13.4-19.6-11.1
					c-8.3,2.5-13.2,11.1-11.1,19.6c5.6,36.6,1.5,74.1-12.1,108.6l23.4-9.5c-4.8-2.3-0.4,0.2-0.8,0.4c-0.4,0.3-2.2-4.6-1-1.3
					c-0.7-1.9-1.2-3.9-1.5-5.9c0.4,2.8,0-1.4,0-2c-0.1-9.7,0.4-19.3,1.5-29c1.8-20.6,5-41.1,9.4-61.4c2.1-8.4-2.8-17.1-11.1-19.6
					C589,59.5,580.3,64.4,577.9,72.8"/>
			</g>
			<g id="Gruppe_37" transform="translate(35.922 -86.427)">
				<path id="Pfad_32" class="st1" d="M686.8,57.4c-1.3,18.6-3.1,37.2-3.8,55.9c-2,16.4,3.5,32.8,14.8,44.7
					c6.4,6.1,16.6,5.9,22.8-0.5c1.8-1.9,3.1-4.1,3.8-6.6c15.5-46.5,17.6-96.4,6.1-144c-4.8-19.9-35.5-11.5-30.7,8.5
					c10,42.1,7.9,86.1-6.1,127l26.6-7c-3.1-2.6-5-6.5-5.3-10.5c-0.6-5.8-0.6-11.7,0-17.5c1.1-16.7,2.3-33.4,3.4-50
					c-0.1-8.7-7.1-15.8-15.8-15.9C694,41.7,687,48.7,686.8,57.4"/>
			</g>
			<g id="Gruppe_38" transform="translate(46.323 -85.049)">
				<path id="Pfad_33" class="st1" d="M813.3,74.2c-2.7,23.1-2.9,46.4-0.7,69.6c-0.7,12.6,2.4,25,9,35.7c9.4,9.5,24.8,9.6,34.3,0.1
					c0.4-0.4,0.7-0.7,1.1-1.1c6.9-9.2,11.4-20,13.1-31.4c2.5-10.9,4.1-22,4.6-33.1c1-22.3-2.4-44.7-10.1-65.7
					c-2.5-8.5-11.5-13.4-20.1-10.8c-2.4,0.7-4.7,2-6.5,3.8c-6.1,5.5-10.1,13-11.4,21.1c-2,8.4,2.8,17,11.1,19.5
					c8.5,2.3,17.2-2.7,19.6-11.1c0.3-1.7,0.6-3.3,1.2-5c0.4-0.8,0.9-1,2.1-2l-26.6-7c11.2,30.2,12,63.3,2.1,93.9
					c-0.6,1.9-1.6,3.8-2,5.7c-0.2,0.9-3.3,1.9,1-0.7l3.4-0.8c6.8,7.5,9.4,8.9,7.9,4.1c-0.1-1.4-0.3-2.8-0.7-4.2
					c-1.3-8.9-2-17.9-2.4-26.9c-0.8-18-0.2-36,1.8-53.9c-0.1-8.8-7.1-15.8-15.9-15.9C820.5,58.5,813.5,65.5,813.3,74.2"/>
			</g>
			<g id="Gruppe_39" transform="translate(3.936 -67.981)">
				<path id="Pfad_34" class="st1" d="M297.8,281.8c-4.2-7.8-13.8-11-21.8-7.3c-6.6,3-11.2,9.1-12.2,16.3
					c-1.8,13.6-2.4,27.2-1.9,40.9c-1.4,22.6,8,44.5,25.2,59.2c7.6,4.2,17.2,1.7,21.8-5.8c30.8-41.5,17.3-95.4-1.8-138.5
					c-4.6-7.6-14.4-10-22-5.4c-2.2,1.3-4.1,3.2-5.4,5.4c-5,7.8-7.3,17-6.7,26.2c0.2,8.7,7.2,15.7,15.9,15.9
					c8.8-0.1,15.8-7.1,15.9-15.9c-0.7-3.6,0.2-7.2,2.3-10.1h-27.4c15,33.9,25.3,74.7,1.8,106.4l21.8-5.7c1.4,1.1-3.5-4.4-2.3-2.6
					c-0.9-1.4-1.8-2.8-2.5-4.3l-0.7-1.5c0.4,1,0.4,0.9,0-0.1c-1-2.7-1.8-5.5-2.3-8.3c-0.6-2.3-1-4.7-1.1-7
					c-0.5-6.7-0.6-13.4-0.4-20.1c0.1-4.4,0.3-8.9,0.5-13.3c0.1-2,0.3-4,0.4-6c0.1-0.8,0.1-1.6,0.2-2.4c1.1-6.1-1.5-4-7.6,6.4h-8.4
					l0.7,0.2L270,297l0.4,0.8c4.5,7.5,14.2,10.1,21.8,5.7C299.6,299,302.1,289.4,297.8,281.8"/>
			</g>
			<g id="Gruppe_40" transform="translate(10.023 -68.663)">
				<path id="Pfad_35" class="st1" d="M371.9,273.5c-0.3,32.8,1.6,65.5,5.9,98.1c0.2,7.9,6,14.5,13.8,15.6
					c7.9,1.2,15.4-3.7,17.5-11.4c6.5-44.6,7.4-89.9,2.6-134.8c-0.2-7.1-4.9-13.2-11.7-15.3c-6.9-1.9-14.3,1.1-18,7.3l-3.7,7.3
					c-4.2,7.6-1.7,17.2,5.7,21.8c7.6,4.3,17.3,1.8,21.8-5.7l3.7-7.2l-29.6-8c4.8,42,4.3,84.5-1.5,126.3l31.2,4.2
					c-4.3-32.5-6.3-65.3-5.9-98.1c-0.4-8.8-7.8-15.6-16.5-15.3C378.8,258.6,372.2,265.2,371.9,273.5"/>
			</g>
			<g id="Gruppe_41" transform="translate(18.437 -69.505)">
				<path id="Pfad_36" class="st1" d="M474.2,263.2c-4.4,15.3-6.3,31.2-5.6,47.1c0.4,8.4,1.4,16.7,3.1,24.9
					c1.1,7.8,3.8,15.2,7.9,21.9c6,8.9,16.7,13.3,27.2,11c9.4-2.9,16.2-11,17.5-20.7c3.1-14.7,3.8-29.8,2-44.7
					c-2.1-17.6-7.4-34.7-15.7-50.4c-4.6-7.6-14.4-10-22-5.5c-2.2,1.3-4.1,3.2-5.5,5.5c-4.6,8-7.2,17-7.8,26.2
					c0,8.8,7.2,15.9,15.9,15.9c8.7-0.2,15.7-7.2,15.9-15.9l0.1-1.6c-0.2,1.3-0.2,1.4,0,0.3c0.2-1.1,0.6-2.6,1-3.9
					c0.3-0.7,0.8-2.2,0.1-0.6c0.6-1.5,1.4-2.9,2.2-4.3h-27.5c1,1.9,1.9,3.7,2.9,5.6c0.2,0.5,2,4.5,0.9,1.9c1.4,3.4,2.6,6.8,3.7,10.3
					c1,3.3,1.9,6.6,2.6,9.9c0.4,1.8,0.8,3.6,1.1,5.4c0,0.1,0.8,5.1,0.4,2c0.9,7,1.1,14,0.8,21.1c-0.1,1.8-0.2,3.6-0.4,5.5
					c0,0.1-0.6,5.1-0.2,2c-0.1,0.8-2.3,10-2,10.3c-1.6-1.4,8-5.2,8.4-5.2c2,0,3.9,1.1,4.9,2.8l-0.7-1.2c0.6,1.6,0.5,1.6-0.1-0.2
					c-0.5-1.5-0.9-2.9-1.3-4.4c-1-3.8-1.8-7.6-2.5-11.4c0-0.3-0.7-5-0.4-2.4c-0.3-2.1-0.5-4.4-0.7-6.6c-1.3-14.1,0.2-28.4,4.3-42
					c2.2-8.5-2.7-17.1-11.1-19.6C485.3,250,476.7,254.9,474.2,263.2"/>
			</g>
			<g id="Gruppe_42" transform="translate(27.764 -67.068)">
				<path id="Pfad_37" class="st1" d="M587.6,292.9c-1.6,22.7-2.3,45.4-2.1,68.1c0.1,11.1,0.5,22.3,1,33.4
					c-0.3,10.9,0.8,21.8,3.3,32.4c3,11.4,13.9,18.9,25.6,17.6c11.2-2.6,19.8-11.6,22-22.8c6.1-19.6,8.8-40.2,7.8-60.7
					c-1.2-23.9-6.8-47.3-16.7-69c-3.2-5.5-9.5-8.5-15.8-7.6c-6.3,0.9-11.5,5.3-13.3,11.4c-1.5,4-3,8.1-4.6,12.1
					c-2.3,8.5,2.7,17.2,11.2,19.6c8.4,2.1,17.1-2.8,19.6-11.1c1.6-4,3.1-8.1,4.6-12.1l-29.1,3.8c7.7,17.5,11.9,36.2,12.4,55.3
					c0.4,9.5-0.2,19-1.6,28.4c-0.8,4.6-1.7,9.2-2.9,13.7c-0.7,2.8-3.2,9.3-3,10c3.2-2.9,7.5-2.8,12.8,0.3c1.6,3.1,2,3.8,1.4,1.9
					c-0.3-0.8-0.5-1.7-0.6-2.6c0.2,1.7,0.2,1-0.1-1.9c-0.3-5.3-0.7-10.7-1-16c-0.7-11.5-1.1-23.1-1.2-34.7
					c-0.3-23.2,0.4-46.3,2.1-69.4c-0.1-8.7-7.2-15.8-15.9-15.9C594.8,277.1,587.8,284.2,587.6,292.9"/>
			</g>
			<g id="Gruppe_43" transform="translate(37.901 -67.701)">
				<path id="Pfad_38" class="st1" d="M710.9,285.2c-1.7,34.5-0.6,69,3.3,103.3c0.3,9,7.8,16.1,16.8,15.8c1.1,0,2.3-0.2,3.4-0.5
					c10.8-2.9,18.6-12.3,19.3-23.4c1.7-11.4,2.5-23,3.1-34.5c1.2-22.4,0.9-44.8-0.9-67.1c-0.1-6.3-4-12-9.8-14.5
					c-5.9-2.5-12.8-1.2-17.4,3.3c-10.5,10.8-15.8,25.6-14.5,40.7c0.3,8.6,7.2,15.5,15.8,15.8c8.8-0.1,15.8-7.1,15.9-15.9
					c-0.3-2.2-0.3-4.5-0.2-6.8c-0.3,1.4-0.3,1.2,0.1-0.8c0.2-1.1,0.5-2.2,0.9-3.3c0.7-1.8,0.8-2.1,0.2-0.9c0.5-1,1-2,1.6-3
					c1.1-1.6,1.3-1.9,0.4-0.9c0.7-0.9,1.5-1.7,2.3-2.5l-27.1-11.2c1.5,18.7,1.9,37.5,1.3,56.3c-0.3,9.4-0.9,18.8-1.7,28.1
					c-0.2,2.2-0.4,4.3-0.6,6.5c0-0.2-0.7,5.8-0.3,3.6c0,0.2-1,4.2-1,4.2c0.2-0.9,0.7-1.7,1.5-2.3c4.5-1.9,5.3-2.5,2.6-2l20.1,15.3
					c-3.9-34.3-5-68.8-3.3-103.3c-0.1-8.7-7.2-15.8-15.9-15.9C718.1,269.4,711,276.5,710.9,285.2"/>
			</g>
			<g id="Gruppe_44" transform="translate(47.2 -68.985)">
				<path id="Pfad_39" class="st1" d="M824,269.6c-6,21.4-8.3,43.6-6.9,65.8c1.3,18.6,3.2,48.5,26.1,53.3c6.9,1.8,14.2-1.1,18-7.2
					c19.3-45.1,19.3-96.1,0-141.2c-4.5-7.6-14.3-10.1-21.9-5.6c-1.1,0.7-2.2,1.5-3.1,2.4c-6,6.7-10.9,14.3-14.6,22.5
					c-4.1,7.6-1.6,17.2,5.7,21.8c7.6,4.4,17.3,1.8,21.8-5.7c2.4-5.8,5.7-11.2,9.8-16.1l-25-3.2c14.4,34.9,14.4,74.1,0,109.1l18-7.3
					c-5.1-1.1,3.3,1.7,2.1,2.3c-0.2,0.1-2-4.1-1.4-2.5c-0.9-3-1.5-6.1-2-9.1c-1.2-7.5-1.9-15.1-1.9-22.6c-0.2-16.2,1.9-32.4,6.3-48
					c2.1-8.5-3.2-17.1-11.7-19.2C834.8,256.8,826.5,261.5,824,269.6"/>
			</g>
			<g id="Gruppe_45" transform="translate(3.662 -50.585)">
				<path id="Pfad_40" class="st1" d="M294.5,493.3c-14.4,43.6-17.2,90.3-7.9,135.3c1.6,11,9.1,20.3,19.5,24.3
					c14,4.3,24.3-6.7,28.4-18.7c7.8-21.8,11.2-45,9.8-68.2c-1.5-24.5-11-47.8-27-66.3c-6.3-6.2-16.4-6.2-22.6,0.1
					c-0.9,0.9-1.7,2-2.4,3.1c-4.5,10.4-7.3,21.4-8.6,32.6c0.1,8.8,7.1,15.8,15.9,15.9c8.7-0.2,15.8-7.2,16-15.9
					c0.6-5.7,2.1-11.3,4.3-16.6l-25,3.2c11.4,13.7,17.8,30.9,18,48.7c0.4,10.8-0.6,21.6-2.8,32.1c-1.1,5.1-2.4,10.2-3.8,15.3
					c-1.1,2.4-1.9,4.9-2.3,7.5c-0.5-4.2,14.6,1.6,14.3-2c-0.4-7-3.4-17.4-4.1-25.8c-1-11-1.3-22.1-0.8-33.1c1-21.5,5-42.8,11.8-63.2
					c2.2-8.4-2.7-17.1-11.1-19.5C305.6,480.1,297,485,294.5,493.3"/>
			</g>
			<g id="Gruppe_46" transform="translate(12.486 -49.176)">
				<path id="Pfad_41" class="st1" d="M401.8,510.5c-10.7,33.7-9.2,70.1,4.2,102.8c2.1,6.8,8.2,11.5,15.3,11.7
					c7.1-0.2,13.2-4.9,15.3-11.7c9.2-26.9,9.8-56,1.7-83.3c-2.4-8.4-11.1-13.4-19.6-11.2c-8.4,2.5-13.3,11.1-11.1,19.6
					c3.5,10.7,5.1,22,4.6,33.3c-0.2,11.3-2.3,22.5-6.3,33h30.7c-3-7.2-5.5-14.5-7.3-22.1c-0.9-3.8-1.6-7.6-2.1-11.4
					c0.3,2.6-0.2-2.6-0.3-3.2c-0.2-1.9-0.3-3.9-0.4-5.8c-0.9-14.7,1-29.4,5.8-43.3c2.3-8.5-2.7-17.2-11.1-19.6
					C412.9,497.2,404.3,502.1,401.8,510.5"/>
			</g>
			<g id="Gruppe_47" transform="translate(20.551 -48.513)">
				<path id="Pfad_42" class="st1" d="M499.9,518.5c-3.5,23-1.8,46.5,5,68.7c2.4,8.5,11.2,13.3,19.7,10.9
					c6.8-1.9,11.4-8.1,11.5-15.1c1.4-19.9-0.3-39.9-4.8-59.4c-2.1-7.6-9.6-12.5-17.5-11.4c-7.9,1-13.8,7.7-13.8,15.6
					c0.1,3.3,0.2,6.6,0.3,9.8c0.1,8.7,7.2,15.8,15.9,15.9c8.7-0.1,15.8-7.2,15.9-15.9c-0.1-3.3-0.2-6.6-0.3-9.8l-31.2,4.2
					c1,4.5,1.9,9,2.6,13.6c0.2,1,1,4.6,0.1,0.4c0.2,0.9,0.2,1.9,0.3,2.9c0.3,2.3,0.5,4.6,0.6,6.9c0.7,9,0.7,18.1,0,27.1l31.2-4.2
					c-1.5-4.6-2.7-9.2-3.7-13.9c-0.3-1.4-0.6-2.9-0.8-4.4c-0.3-1.1-0.5-2.2-0.5-3.3c0.3,2.2,0.3,2.7,0.2,1.5
					c-0.1-0.6-0.1-1.1-0.2-1.7c-0.1-1.3-0.3-2.6-0.4-3.9c-0.4-4.8-0.5-9.6-0.4-14.4c0-2.4,0.2-4.8,0.4-7.2c0.1-1.1,0.2-2.2,0.3-3.3
					c0.1-1.1,0.8-6.1,0.1-1.3c1-4.1,0.4-8.5-1.6-12.3c-2.1-3.6-5.5-6.2-9.5-7.3c-4.1-1.1-8.5-0.5-12.3,1.6
					C503.6,511,500.9,514.5,499.9,518.5"/>
			</g>
			<g id="Gruppe_48" transform="translate(29.469 -47.22)">
				<path id="Pfad_43" class="st2" d="M608.4,534.3c-1.5,23.7-1.3,47.5,0.8,71.2c0.8,11.8,2.3,23.5,4.4,35.1
					c1.5,11.3,9.3,20.8,20.1,24.6c7,1.9,14.3-1.1,18-7.3c23-43.2,14.4-93.4-1-137.6c-3.6-10.2-18.4-17-26.6-7
					c-8.5,9.8-12,23-9.5,35.8c2.4,8.4,11.1,13.4,19.6,11.1c8.3-2.5,13.2-11.1,11.1-19.6c0-1.7,0.4-3.4,1.3-4.8l-26.6-7
					c12.5,35.7,22.9,78.1,4.2,113.1l18-7.3c1.6,0.4,2.9,1.5,3.7,3c-0.3-0.4-0.5-0.9-0.8-1.3c0.7,2.6-0.4-1.8-0.5-2.3
					c-0.8-3.6-1.3-7.4-1.7-11.1c-1.3-9.8-2.2-19.5-2.8-29.4c-1.2-19.6-1.2-39.3,0.1-59c-0.1-8.7-7.2-15.8-15.9-15.9
					C615.5,518.5,608.5,525.5,608.4,534.3"/>
			</g>
			<g id="Gruppe_49" transform="translate(39.391 -48.173)">
				<path id="Pfad_44" class="st1" d="M729,522.7c-7,34.2,2.6,67.4,13.5,99.6c2.6,8.5,11.6,13.2,20.1,10.6c5.1-1.6,9-5.5,10.6-10.6
					c9.4-28.8,9.8-59.7,1.3-88.7c-2.4-8.4-11.1-13.3-19.5-11.1c-8.4,2.5-13.3,11.1-11.1,19.6c0.9,3.2,1.8,6.4,2.5,9.7
					c0.4,1.6,0.7,3.3,1,4.9c0.1,0.5,0.8,5.1,0.4,2.3c0.8,6.3,1.2,12.7,1,19c0,3.1-0.2,6.1-0.5,9.2c-0.1,1.7-0.3,3.3-0.5,5
					c0.3-2.7-0.4,2.4-0.4,2.4c-1.2,6.6-2.8,13-4.9,19.3h30.7c-5.1-14.2-9.3-28.8-12.6-43.6c-0.4-1.9-0.8-3.9-1.1-5.8
					c-0.1-0.5-0.7-5.1-0.4-2.5c-0.4-3.6-0.7-7.2-0.9-10.9c-0.1-3.6-0.1-7.3,0.2-10.9c0.1-1.7,0.3-3.3,0.5-5
					c-0.2,1.4-0.1,1.2,0.2-0.8c0.2-1.1,0.4-2.2,0.6-3.3c2.2-8.4-2.8-17.1-11.1-19.6C740.1,509.3,731.5,514.3,729,522.7"/>
			</g>
			<g id="Gruppe_50" transform="translate(48.439 -51.663)">
				<path id="Pfad_45" class="st1" d="M839.1,480.2c-5.2,20.1-7.1,40.9-5.7,61.6c1.7,19.5,10.3,37.7,24.4,51.3
					c6.4,6.2,16.6,6,22.7-0.4c1.8-1.9,3.1-4.1,3.8-6.6c9.1-31.2,10.4-64.2,3.9-96.1c-2.3-8.5-11.1-13.5-19.6-11.2
					c-8.3,2.5-13.2,11.1-11.1,19.6c5.1,26.3,3.7,53.5-3.9,79.2l26.6-7c-1.5-1.3-3-2.7-4.3-4.2c-0.7-0.8-1.3-1.5-1.9-2.3
					c0.8,1,0.9,1.1,0.3,0.2c-2.1-3.1-4-6.4-5.5-9.9c1.2,2.8-0.6-1.7-0.6-1.9c-0.7-1.9-1.2-3.9-1.7-5.9c-0.4-1.5-0.7-3-1-4.5
					c-0.2-1-0.4-2-0.5-3c0.2,1.7,0.2,1.6,0-0.3c-0.8-16.9,0.8-33.7,4.9-50.1c2.1-8.4-2.8-17.1-11.1-19.6
					C850.2,466.9,841.5,471.8,839.1,480.2"/>
			</g>
			<g id="Gruppe_51" transform="translate(4.644 -30.749)">
				<path id="Pfad_46" class="st1" d="M306.4,734.6c-4.2-7.8-13.8-11-21.8-7.3c-6.6,3-11.2,9.1-12.2,16.3
					c-1.8,13.6-2.4,27.2-1.9,40.9c-1.4,22.6,8,44.5,25.2,59.2c7.6,4.2,17.2,1.7,21.8-5.8c30.8-41.5,17.3-95.4-1.8-138.5
					c-4.6-7.6-14.4-10-22-5.4c-2.2,1.3-4.1,3.2-5.4,5.4c-5,7.8-7.3,17-6.7,26.2c0.2,8.7,7.2,15.7,15.9,15.9
					c8.8-0.1,15.8-7.1,15.9-15.9c-0.7-3.6,0.2-7.2,2.3-10.1h-27.4c15,33.9,25.3,74.7,1.8,106.4l21.8-5.7c1.4,1.1-3.5-4.4-2.3-2.6
					c-0.9-1.4-1.8-2.8-2.5-4.3l-0.7-1.5c0.4,1,0.4,0.9,0-0.1c-1-2.7-1.8-5.5-2.3-8.3c-0.6-2.3-1-4.7-1.1-7
					c-0.5-6.7-0.6-13.4-0.4-20.1c0.1-4.4,0.3-8.9,0.5-13.3c0.1-2,0.3-4,0.4-6c0.1-0.8,0.1-1.6,0.2-2.4c1.1-6.1-1.5-4-7.6,6.4h-8.4
					l0.7,0.2l-9.5-7.3l0.4,0.8c4.5,7.5,14.2,10.1,21.8,5.7C308.2,751.8,310.7,742.2,306.4,734.6"/>
			</g>
			<g id="Gruppe_52" transform="translate(10.732 -31.43)">
				<path id="Pfad_47" class="st1" d="M380.5,726.3c-0.3,32.8,1.6,65.5,5.9,98.1c0.2,7.9,6,14.5,13.8,15.6
					c7.9,1.2,15.4-3.7,17.5-11.4c6.5-44.6,7.4-89.9,2.6-134.8c-0.2-7.1-4.9-13.2-11.7-15.3c-6.9-1.9-14.3,1.1-18,7.3L387,693
					c-4.2,7.6-1.7,17.2,5.7,21.8c7.6,4.3,17.3,1.8,21.8-5.7l3.7-7.2l-29.6-8c4.8,42,4.3,84.5-1.5,126.3l31.2,4.2
					c-4.3-32.5-6.3-65.3-5.9-98.1c-0.4-8.8-7.8-15.6-16.5-15.3C387.5,711.4,380.8,718,380.5,726.3"/>
			</g>
			<g id="Gruppe_53" transform="translate(19.146 -32.272)">
				<path id="Pfad_48" class="st1" d="M482.8,716c-4.4,15.3-6.3,31.2-5.6,47.1c0.4,8.4,1.4,16.7,3.1,24.9c1.1,7.8,3.8,15.2,7.9,21.9
					c6,8.9,16.7,13.3,27.2,11c9.4-2.9,16.2-11,17.5-20.7c3.1-14.7,3.8-29.8,2-44.7c-2.1-17.6-7.4-34.7-15.7-50.4
					c-4.6-7.6-14.4-10-22-5.5c-2.2,1.3-4.1,3.2-5.5,5.5c-4.6,8-7.2,17-7.8,26.2c0,8.8,7.2,15.9,15.9,15.9
					c8.7-0.2,15.7-7.2,15.9-15.9l0.1-1.6c-0.2,1.3-0.2,1.4,0,0.3s0.6-2.6,1-3.9c0.3-0.7,0.8-2.2,0.1-0.6c0.6-1.5,1.4-2.9,2.2-4.3
					h-27.5c1,1.9,1.9,3.7,2.9,5.6c0.2,0.5,2,4.5,0.9,1.9c1.4,3.4,2.6,6.8,3.7,10.3c1,3.3,1.9,6.6,2.6,9.9c0.4,1.8,0.8,3.6,1.1,5.4
					c0,0.1,0.8,5.1,0.4,2c0.9,7,1.1,14,0.8,21.1c-0.1,1.8-0.2,3.6-0.4,5.5c0,0.1-0.6,5.1-0.2,2c-0.1,0.8-2.3,10-2,10.3
					c-1.6-1.4,8-5.2,8.4-5.2c2,0,3.9,1.1,4.9,2.8l-0.7-1.2c0.6,1.6,0.5,1.6-0.1-0.2c-0.5-1.5-0.9-2.9-1.3-4.4
					c-1-3.8-1.8-7.6-2.5-11.4c0-0.3-0.7-5-0.4-2.4c-0.3-2.1-0.5-4.4-0.7-6.6c-1.3-14.1,0.2-28.4,4.3-42c2.2-8.5-2.7-17.1-11.1-19.6
					C493.9,702.8,485.3,707.7,482.8,716"/>
			</g>
			<g id="Gruppe_54" transform="translate(28.473 -29.836)">
				<path id="Pfad_49" class="st1" d="M596.2,745.7c-1.6,22.7-2.3,45.4-2.1,68.1c0.1,11.1,0.5,22.3,1,33.4
					c-0.3,10.9,0.8,21.8,3.3,32.4c3,11.4,13.9,18.9,25.6,17.6c11.2-2.6,19.8-11.6,22-22.8c6.1-19.6,8.8-40.2,7.8-60.7
					c-1.2-23.9-6.8-47.3-16.7-69c-3.2-5.5-9.5-8.5-15.8-7.6c-6.3,0.9-11.5,5.3-13.3,11.4c-1.5,4-3,8.1-4.6,12.1
					c-2.3,8.5,2.7,17.2,11.2,19.6c8.4,2.1,17.1-2.8,19.6-11.1c1.6-4,3.1-8.1,4.6-12.1l-29.1,3.8c7.7,17.5,11.9,36.2,12.4,55.3
					c0.4,9.5-0.2,19-1.6,28.4c-0.8,4.6-1.7,9.2-2.9,13.7c-0.7,2.8-3.2,9.3-3,10c3.2-2.9,7.5-2.8,12.8,0.3c1.6,3.1,2,3.8,1.4,1.9
					c-0.3-0.8-0.5-1.7-0.6-2.6c0.2,1.7,0.2,1-0.1-1.9c-0.3-5.3-0.7-10.7-1-16c-0.7-11.5-1.1-23.1-1.2-34.7
					c-0.3-23.2,0.4-46.3,2.1-69.4c-0.1-8.7-7.2-15.8-15.9-15.9C603.4,729.9,596.4,737,596.2,745.7"/>
			</g>
			<g id="Gruppe_55" transform="translate(38.609 -30.469)">
				<path id="Pfad_50" class="st1" d="M719.5,738c-1.7,34.5-0.6,69,3.3,103.3c0.3,9,7.8,16.1,16.8,15.8c1.1,0,2.3-0.2,3.4-0.5
					c10.8-2.9,18.6-12.3,19.3-23.4c1.7-11.4,2.5-23,3.1-34.5c1.2-22.4,0.9-44.8-0.9-67.1c-0.1-6.3-4-12-9.8-14.5
					c-5.9-2.5-12.8-1.2-17.4,3.3c-10.5,10.8-15.8,25.6-14.5,40.7c0.3,8.6,7.2,15.5,15.8,15.8c8.8-0.1,15.8-7.1,15.9-15.9
					c-0.3-2.2-0.3-4.5-0.2-6.8c-0.3,1.4-0.3,1.2,0.1-0.8c0.2-1.1,0.5-2.2,0.9-3.3c0.7-1.8,0.8-2.1,0.2-0.9c0.5-1,1-2,1.6-3
					c1.1-1.6,1.3-1.9,0.4-0.9c0.7-0.9,1.5-1.7,2.3-2.5l-27.1-11.2c1.5,18.7,1.9,37.5,1.3,56.3c-0.3,9.4-0.9,18.8-1.7,28.1
					c-0.2,2.2-0.4,4.3-0.6,6.5c0-0.2-0.7,5.8-0.3,3.6c0,0.2-1,4.2-1,4.2c0.2-0.9,0.7-1.7,1.5-2.3c4.5-1.9,5.3-2.5,2.6-2l20.1,15.3
					c-3.9-34.3-5-68.8-3.3-103.3c-0.1-8.7-7.2-15.8-15.9-15.9C726.7,722.2,719.7,729.2,719.5,738"/>
			</g>
			<g id="Gruppe_56" transform="translate(47.909 -31.752)">
				<path id="Pfad_51" class="st1" d="M832.6,722.4c-6,21.4-8.3,43.6-6.9,65.8c1.3,18.6,3.2,48.5,26.1,53.3c6.9,1.8,14.2-1.1,18-7.2
					c19.3-45.1,19.3-96.1,0-141.2c-4.5-7.6-14.3-10.1-21.9-5.6c-1.1,0.7-2.2,1.5-3.1,2.4c-6,6.7-10.9,14.3-14.6,22.5
					c-4.1,7.6-1.6,17.2,5.7,21.8c7.6,4.4,17.3,1.8,21.8-5.7c2.4-5.8,5.7-11.2,9.8-16.1l-25-3.2c14.4,34.9,14.4,74.1,0,109.1l18-7.3
					c-5.1-1.1,3.3,1.7,2.1,2.3c-0.2,0.1-2-4.1-1.4-2.5c-0.9-3-1.5-6.1-2-9.1c-1.2-7.5-1.9-15.1-1.9-22.6c-0.2-16.2,1.9-32.4,6.3-48
					c2.1-8.5-3.2-17.1-11.7-19.2C843.4,709.6,835.1,714.3,832.6,722.4"/>
			</g>
			<g id="Gruppe_57" transform="translate(4.371 -13.352)">
				<path id="Pfad_52" class="st1" d="M303.1,946.1c-14.4,43.6-17.2,90.3-7.9,135.3c1.6,11,9.1,20.3,19.5,24.3
					c14,4.3,24.3-6.7,28.4-18.7c7.8-21.8,11.2-45,9.8-68.2c-1.5-24.5-11-47.8-27-66.3c-6.3-6.2-16.4-6.2-22.6,0.1
					c-0.9,0.9-1.7,2-2.4,3.1c-4.5,10.4-7.3,21.4-8.6,32.6c0.1,8.8,7.1,15.8,15.9,15.9c8.7-0.2,15.8-7.2,16-15.9
					c0.6-5.7,2.1-11.3,4.3-16.6l-25,3.2c11.4,13.7,17.8,30.9,18,48.7c0.4,10.8-0.6,21.6-2.8,32.1c-1.1,5.1-2.4,10.2-3.8,15.3
					c-1.1,2.4-1.9,4.9-2.3,7.5c-0.5-4.2,14.6,1.6,14.3-2c-0.4-7-3.4-17.4-4.1-25.8c-1-11-1.3-22.1-0.8-33.1c1-21.5,5-42.8,11.8-63.2
					c2.2-8.4-2.7-17.1-11.1-19.5C314.2,932.9,305.6,937.8,303.1,946.1"/>
			</g>
			<g id="Gruppe_58" transform="translate(13.194 -11.944)">
				<path id="Pfad_53" class="st1" d="M410.4,963.3c-10.7,33.7-9.2,70.1,4.2,102.8c2.1,6.8,8.2,11.5,15.3,11.7
					c7.1-0.2,13.2-4.9,15.3-11.7c9.2-26.9,9.8-56,1.7-83.3c-2.4-8.4-11.1-13.4-19.6-11.2c-8.4,2.5-13.3,11.1-11.1,19.6
					c3.5,10.7,5.1,22,4.6,33.3c-0.2,11.3-2.3,22.5-6.3,33h30.7c-3-7.2-5.5-14.5-7.3-22.1c-0.9-3.8-1.6-7.6-2.1-11.4
					c0.3,2.6-0.2-2.6-0.3-3.2c-0.2-1.9-0.3-3.9-0.4-5.8c-0.9-14.7,1-29.4,5.8-43.3c2.3-8.5-2.7-17.2-11.1-19.6
					C421.5,950,412.9,954.9,410.4,963.3"/>
			</g>
			<g id="Gruppe_59" transform="translate(21.26 -11.281)">
				<path id="Pfad_54" class="st1" d="M508.5,971.3c-3.5,23-1.8,46.5,5,68.7c2.4,8.5,11.2,13.3,19.7,10.9
					c6.8-1.9,11.4-8.1,11.5-15.1c1.4-19.9-0.3-39.9-4.8-59.4c-2.1-7.6-9.6-12.5-17.5-11.4c-7.9,1-13.8,7.7-13.8,15.6
					c0.1,3.3,0.2,6.5,0.3,9.8c0.1,8.7,7.2,15.8,15.9,15.9c8.7-0.1,15.8-7.2,15.9-15.9c-0.1-3.3-0.2-6.6-0.3-9.8l-31.2,4.2
					c1,4.5,1.9,9,2.6,13.6c0.2,1,1,4.6,0.1,0.4c0.2,0.9,0.2,1.9,0.3,2.9c0.3,2.3,0.5,4.6,0.6,6.9c0.7,9,0.7,18.1,0,27.1l31.2-4.2
					c-1.5-4.6-2.7-9.2-3.7-13.9c-0.3-1.4-0.6-2.9-0.8-4.4c-0.3-1.1-0.5-2.2-0.5-3.3c0.3,2.2,0.3,2.7,0.2,1.5
					c-0.1-0.6-0.1-1.1-0.2-1.7c-0.1-1.3-0.3-2.6-0.4-3.9c-0.4-4.8-0.5-9.6-0.4-14.4c0-2.4,0.2-4.8,0.4-7.2c0.1-1.1,0.2-2.2,0.3-3.3
					c0.1-1.1,0.8-6.1,0.1-1.3c1-4.1,0.4-8.5-1.6-12.3c-2.1-3.6-5.5-6.2-9.5-7.3c-4.1-1.1-8.5-0.5-12.3,1.6
					C512.2,963.8,509.6,967.3,508.5,971.3"/>
			</g>
			<g id="Gruppe_60" transform="translate(30.177 -9.987)">
				<path id="Pfad_55" class="st1" d="M617,987.1c-1.5,23.7-1.3,47.5,0.8,71.2c0.8,11.8,2.3,23.5,4.4,35.1
					c1.5,11.3,9.3,20.8,20.1,24.6c7,1.9,14.3-1.1,18-7.3c23-43.2,14.4-93.4-1-137.6c-3.6-10.2-18.4-17-26.6-7
					c-8.5,9.8-12,23-9.5,35.8c2.4,8.4,11.1,13.4,19.6,11.1c8.3-2.5,13.2-11.1,11.1-19.6c0-1.7,0.4-3.4,1.3-4.8l-26.6-7
					c12.5,35.7,22.9,78.1,4.2,113.1l18-7.3c1.6,0.4,2.9,1.5,3.7,3c-0.3-0.4-0.5-0.9-0.8-1.3c0.7,2.6-0.4-1.8-0.5-2.3
					c-0.8-3.6-1.3-7.4-1.7-11.1c-1.3-9.8-2.2-19.5-2.8-29.4c-1.2-19.6-1.2-39.3,0.1-59c-0.1-8.7-7.2-15.8-15.9-15.9
					C624.2,971.3,617.1,978.3,617,987.1"/>
			</g>
			<g id="Gruppe_61" transform="translate(40.099 -10.941)">
				<path id="Pfad_56" class="st1" d="M737.6,975.5c-7,34.2,2.6,67.4,13.5,99.6c2.6,8.5,11.6,13.2,20.1,10.6
					c5.1-1.6,9-5.5,10.6-10.6c9.4-28.8,9.8-59.7,1.3-88.7c-2.4-8.4-11.1-13.3-19.5-11.1c-8.4,2.5-13.3,11.1-11.1,19.6
					c0.9,3.2,1.8,6.4,2.5,9.7c0.4,1.6,0.7,3.3,1,4.9c0.1,0.5,0.8,5.1,0.4,2.3c0.8,6.3,1.2,12.7,1,19c0,3.1-0.2,6.1-0.5,9.2
					c-0.1,1.7-0.3,3.3-0.5,5c0.3-2.7-0.4,2.4-0.4,2.4c-1.2,6.6-2.8,13-4.9,19.3h30.7c-5.1-14.2-9.3-28.8-12.6-43.6
					c-0.4-1.9-0.8-3.9-1.1-5.8c-0.1-0.5-0.7-5.1-0.4-2.5c-0.4-3.6-0.7-7.2-0.9-10.9c-0.1-3.6-0.1-7.3,0.2-10.9
					c0.1-1.7,0.3-3.3,0.5-5c-0.2,1.4-0.1,1.2,0.2-0.8c0.2-1.1,0.4-2.2,0.6-3.3c2.2-8.4-2.8-17.1-11.1-19.6
					C748.7,962.1,740.1,967.1,737.6,975.5"/>
			</g>
			<g id="Gruppe_62" transform="translate(49.147 -14.43)">
				<path id="Pfad_57" class="st1" d="M847.7,933c-5.2,20.1-7.1,40.9-5.7,61.6c1.7,19.5,10.3,37.7,24.4,51.3
					c6.4,6.2,16.6,6,22.7-0.4c1.8-1.9,3.1-4.1,3.8-6.6c9.1-31.2,10.4-64.2,3.9-96.1c-2.3-8.5-11.1-13.5-19.6-11.2
					c-8.3,2.5-13.2,11.1-11.1,19.6c5.1,26.3,3.7,53.5-3.9,79.2l26.6-7c-1.5-1.3-3-2.7-4.3-4.2c-0.7-0.8-1.3-1.5-1.9-2.3
					c0.8,1,0.9,1.1,0.3,0.2c-2.1-3.1-4-6.4-5.5-9.9c1.2,2.8-0.6-1.7-0.6-1.9c-0.7-1.9-1.2-3.9-1.7-5.9c-0.4-1.5-0.7-3-1-4.5
					c-0.2-1-0.4-2-0.5-3c0.2,1.7,0.2,1.6,0-0.3c-0.8-16.9,0.8-33.7,4.9-50.1c2.1-8.4-2.8-17.1-11.1-19.6
					C858.8,919.7,850.1,924.6,847.7,933"/>
			</g>
		</g>
	</g>
</g>
</svg>
