<?xml version="1.0" encoding="utf-8"?>
<!-- Generator: Adobe Illustrator 25.2.1, SVG Export Plug-In . SVG Version: 6.00 Build 0)  -->
<svg version="1.1" id="Ebene_1" xmlns="http://www.w3.org/2000/svg" xmlns:xlink="http://www.w3.org/1999/xlink" x="0px" y="0px"
	 viewBox="0 0 1200 1200" style="enable-background:new 0 0 1200 1200;" xml:space="preserve">
<style type="text/css">
	.st0{fill:#FFCD9F;}
	.st1{fill:#9BD2C3;}
</style>
<g id="Gruppe_246" transform="translate(0 126.343)">
	<g>
		<g>
			<g id="Gruppe_245" transform="translate(0 -126.343)">
				<g>
					<path class="st0" d="M240.9,780.6c-0.1-1.4-0.4-2.8-0.9-4.2c-2.1-6.5-7.5-11.4-14.2-12.9c-6.9-1.2-13.9,0.7-19.1,5.3
						c-4,3.5-6.8,8.3-7.9,13.5c-2.3,9.7-0.3,20,5.6,28.2c3,4.2,7.4,7,12.4,8.1c3.5,0.8,7.1,0.6,10.5-0.6c3-1.1,5.8-2.9,8.1-5.1
						c4.3-4.4,6.9-10.2,7.3-16.4c0.3-5.3-0.3-10.6-1.7-15.7C240.9,780.8,240.9,780.7,240.9,780.6z"/>
				</g>
				<g>
					<path class="st1" d="M697.6,642c-2.2-6.7-7.8-11.8-14.7-13.2c-3.3-0.7-6.8-0.5-10,0.5c-2.9,1-5.6,2.6-7.8,4.7
						c-3.2,3.2-5.4,7.3-6.3,11.7c-1.8,8.3-0.8,17,2.9,24.6c1.9,4,5,7.3,8.8,9.5c5.7,3.1,12.6,3,18.2-0.2c5-3,8.5-7.9,9.7-13.5
						c0.7-4.6,0.5-9.4-0.5-13.9C698.7,648.9,698.6,645.4,697.6,642z M675.3,645.3l0.2-0.5C675.5,645,675.4,645.2,675.3,645.3z"/>
					<path class="st1" d="M1001.7,649.4c-2.2-3.7-5.6-6.4-9.7-7.6c-3.8-1-7.8-0.7-11.5,0.7c-4.6,1.4-8.9,3.5-12.9,6.2
						c-5.3,3.5-9.1,8.8-10.7,14.9c-0.8,3.5-0.8,7.1-0.1,10.6c0.8,3.4,2.5,6.5,4.8,9c1.1,1.1,2.4,2,3.7,2.6c2.3,6,7.4,10.4,13.8,11.8
						c5.7,1.1,11.6,0,16.5-3.1c5-3.2,8.7-8.1,10.4-13.9c1.4-5.9,1.4-12.1,0-18.1C1005.4,657.9,1004,653.5,1001.7,649.4z M982.4,675
						c-0.2,0.2-0.4,0.3-0.6,0.5L982.4,675z"/>
					<path class="st1" d="M1151.1,672.9c-0.8-2.4-1.8-4.7-3.1-6.8c-2.2-3.6-5.6-6.2-9.6-7.6c-3.1-0.9-6.4-0.9-9.5,0
						c-1.9,0.6-3.8,1.5-5.4,2.6c-2.7,1-5,2.9-6.5,5.3c-2.7,4.2-4.8,8.7-6.2,13.5c-1.7,6-1,12.5,1.8,18.1c0.1,0.2,0.2,0.5,0.4,0.8
						c5.4,9.9,17.8,13.5,27.7,8.1c4.8-3.3,8.4-8.1,10.1-13.6c1.5-4,2.1-8.3,1.7-12.6C1152.3,678,1151.8,675.4,1151.1,672.9z"/>
					<path class="st1" d="M238.4,1158.2c-1-1.1-2.3-1.9-3.6-2.4c-2.3-6-7.4-10.4-13.8-11.9c-5.7-1.1-11.6,0-16.5,3.1
						c-5,3.2-8.7,8.1-10.4,13.9c-1.4,5.9-1.4,12.1,0,18.1c0.6,4.6,2,9.1,4.3,13.2c2.2,3.7,5.6,6.4,9.7,7.6c3.8,1,7.8,0.7,11.5-0.7
						c4.6-1.5,8.9-3.7,12.9-6.4c5.2-3.5,9-8.8,10.6-14.9c0.8-3.5,0.8-7.1,0.1-10.6C242.4,1163.8,240.7,1160.7,238.4,1158.2z
						 M218,1166.3l-0.6,0.5C217.6,1166.6,217.8,1166.4,218,1166.3C218,1166.3,218,1166.3,218,1166.3z"/>
					<path class="st1" d="M248.6,912.2c0.3-1.6,0.5-3.2,0.5-4.8c0-3.3-0.8-6.5-2.3-9.4c-0.5-1-1.1-1.9-1.8-2.8
						c-0.6-0.8-1.3-1.6-2-2.3c-2.4-2.1-5.2-3.7-8.3-4.6c-5.5-1.4-11.3-0.7-16.4,1.9c-2.1,1-4,2.4-5.7,4.1c-1.7,1.6-3.2,3.5-4.2,5.7
						c-1.5,3.2-2.4,6.6-2.7,10.1c-0.2,2.6,0.1,5.2,0.7,7.8c1.2,5,3.7,9.6,7.3,13.4c4.3,4.6,10.2,7.4,16.5,7.8
						c3.4,0.2,6.8-0.7,9.8-2.3c2.8-1.6,5.2-3.9,7-6.6c3.4-5.1,3.8-11.5,1.4-16.9C248.5,912.9,248.6,912.5,248.6,912.2z"/>
					<path class="st1" d="M100.4,1012c-0.4-2.3-1.2-4.4-2.2-6.4c-1.5-2.8-3.7-5.2-6.3-6.9c-0.6-0.4-1.2-0.7-1.9-1
						c-10.1-4.6-22.1-0.2-26.7,9.9c-2.2,4.8-3.4,10-3.4,15.3c0,1.8,0.1,3.7,0.4,5.5c0.1,1.7,0.5,3.4,1,5c1.5,5.1,4.9,9.3,9.4,12
						c5.9,3.1,13,3,18.7-0.4c5-3,8.7-7.8,10.3-13.4c1.1-4.1,1.4-8.2,1.1-12.4C100.9,1016.9,100.8,1014.4,100.4,1012z"/>
					<path class="st1" d="M101,642c-2.2-6.7-7.8-11.8-14.7-13.2c-3.3-0.7-6.8-0.5-10,0.5c-2.9,1-5.6,2.6-7.8,4.7
						c-3.2,3.2-5.4,7.3-6.3,11.7c-1.8,8.3-0.8,17,2.9,24.6c1.8,4,4.9,7.3,8.7,9.5c5.7,3.1,12.6,3,18.2-0.2c5-3,8.5-7.9,9.7-13.5
						c0.7-4.6,0.5-9.2-0.4-13.7C102.1,649.1,102.1,645.5,101,642z M78.8,645.3l0.2-0.5C79,645,78.9,645.2,78.8,645.3z"/>
					<path class="st1" d="M502.9,829.4c0.4,2.3,1.2,4.4,2.2,6.4c1.5,2.8,3.7,5.2,6.3,6.9c0.6,0.3,1.2,0.7,1.9,1
						c10.1,4.6,22,0.2,26.7-9.9c2.2-4.8,3.4-10,3.4-15.3c0-1.8-0.1-3.7-0.4-5.5c-0.1-1.7-0.5-3.4-1-5c-1.5-5.1-4.9-9.3-9.4-12
						c-5.9-3.1-13-3-18.7,0.4c-5,3-8.7,7.8-10.3,13.4c-1.1,4.1-1.4,8.2-1.1,12.4C502.4,824.6,502.6,827.1,502.9,829.4z"/>
					<path class="st1" d="M544.7,915.8c-4.8-5.8-11.9-9.2-19.4-9.4c-8-0.2-15.5,3.9-19.7,10.7c-2.2,4.5-3.2,9.3-3,14.1
						c-1.3,3.3-1.9,6.8-1.6,10.5c0.2,8,3.1,15.7,8.3,21.8c5.8,5.6,14.1,7.9,22,6c7.2-1.6,13.3-6.2,16.9-12.6
						c3.4-6,4.9-12.8,4.4-19.7C552.3,929.4,549.5,921.9,544.7,915.8z"/>
					<path class="st1" d="M509.3,334.9c5.8,5.7,14.1,8,22,6.1c7.2-1.6,13.3-6.2,16.9-12.6c3.4-6,4.9-12.8,4.4-19.7
						c-0.3-7.8-3.1-15.3-7.9-21.4c-4.8-5.8-11.9-9.2-19.4-9.4c-8-0.2-15.5,3.9-19.7,10.7c-2.2,4.5-3.2,9.3-3,14
						c-1.3,3.3-1.9,6.8-1.6,10.5C501.2,321.1,504.1,328.8,509.3,334.9z"/>
					<path class="st1" d="M527,583.6c2.9-1,5.6-2.6,7.8-4.7c3.2-3.2,5.4-7.3,6.3-11.7c1.8-8.3,0.8-17-2.9-24.6
						c-1.9-4-4.9-7.2-8.7-9.4c-5.7-3.1-12.6-3-18.2,0.2c-5,3-8.5,7.9-9.7,13.5c-0.8,4.5-0.6,9.1,0.4,13.6c-0.8,3.4-0.8,7,0.3,10.4
						c2.2,6.7,7.8,11.8,14.7,13.2C520.3,584.8,523.8,584.6,527,583.6z M524.6,567.5l-0.2,0.5C524.4,567.9,524.5,567.7,524.6,567.5z"
						/>
					<path class="st1" d="M554.4,44.4c-0.8-2.4-1.8-4.7-3.1-6.8c-2.2-3.6-5.6-6.2-9.6-7.6c-3.1-0.9-6.4-0.9-9.5,0
						c-1.9,0.6-3.8,1.5-5.4,2.6c-2.7,1-5,2.9-6.5,5.3c-2.7,4.2-4.8,8.7-6.2,13.5c-1.7,6-1,12.5,1.8,18.1c0.1,0.3,0.3,0.5,0.4,0.8
						c5.4,9.9,17.8,13.5,27.7,8.1c4.8-3.3,8.4-8.1,10.1-13.6c1.5-4,2.1-8.3,1.7-12.6C555.6,49.5,555.1,46.9,554.4,44.4z"/>
					<path class="st1" d="M198.4,563.7c2.2,3.7,5.6,6.4,9.7,7.6c3.8,1,7.8,0.7,11.5-0.7c4.6-1.5,8.9-3.7,12.9-6.4
						c5.2-3.5,9-8.8,10.6-14.9c0.8-3.5,0.8-7.1,0.1-10.6c-0.8-3.4-2.5-6.5-4.8-9c-1-1-2.2-1.8-3.6-2.3c-2.3-6-7.4-10.5-13.8-12
						c-5.7-1.1-11.6,0-16.5,3.1c-5,3.2-8.7,8.1-10.4,13.9c-1.4,5.9-1.4,12.1,0,18.1C194.7,555.1,196.1,559.6,198.4,563.7z
						 M218,537.8l-0.6,0.5C217.6,538.1,217.8,537.9,218,537.8C218,537.8,218,537.8,218,537.8z"/>
					<path class="st1" d="M248.6,283.6c0.3-1.6,0.5-3.2,0.5-4.8c0-3.3-0.8-6.5-2.3-9.4c-0.5-1-1.1-1.9-1.8-2.8
						c-0.6-0.8-1.3-1.6-2-2.3c-2.4-2.1-5.2-3.7-8.3-4.6c-5.5-1.4-11.3-0.7-16.4,1.9c-2.1,1-4,2.4-5.7,4.1c-1.7,1.6-3.2,3.5-4.2,5.7
						c-1.5,3.2-2.4,6.6-2.7,10.1c-0.2,2.6,0.1,5.2,0.7,7.8c1.2,5,3.7,9.6,7.3,13.4c4.3,4.6,10.2,7.4,16.5,7.8
						c3.4,0.2,6.8-0.7,9.8-2.3c2.8-1.6,5.2-3.9,7-6.6c3.4-5.1,3.8-11.5,1.4-16.9C248.5,284.4,248.6,284,248.6,283.6z"/>
					<path class="st1" d="M957,320.4c2.4,2.1,5.2,3.7,8.3,4.6c5.5,1.3,11.4,0.6,16.4-2c2.1-1.1,4-2.5,5.6-4.1
						c1.7-1.6,3.2-3.6,4.2-5.7c1.6-3.2,2.5-6.6,2.8-10.1c0.2-2.6-0.1-5.2-0.7-7.8c-1.2-5-3.7-9.6-7.3-13.4
						c-4.3-4.6-10.2-7.4-16.5-7.8c-3.4-0.2-6.8,0.7-9.8,2.3c-2.9,1.6-5.3,3.9-7,6.6c-3.4,5.1-3.8,11.5-1.3,17
						c-0.1,0.4-0.2,0.8-0.3,1.2c-0.3,1.6-0.5,3.2-0.5,4.8c0,3.3,0.8,6.5,2.3,9.4c0.5,0.9,1.1,1.9,1.8,2.7
						C955.6,318.9,956.3,319.7,957,320.4z"/>
					<path class="st1" d="M1128.1,341c7.2-1.6,13.3-6.2,16.9-12.6c3.4-6,4.9-12.8,4.4-19.7c-0.3-7.8-3.1-15.3-7.9-21.4
						c-4.8-5.8-11.9-9.2-19.4-9.4c-8-0.2-15.5,3.9-19.7,10.7c-2.2,4.5-3.2,9.3-3,14c-1.3,3.3-1.9,6.8-1.6,10.5
						c0.2,8,3.1,15.7,8.3,21.8C1111.9,340.6,1120.2,342.9,1128.1,341z"/>
					<path class="st1" d="M1123.7,583.6c2.9-1,5.6-2.6,7.8-4.7c3.2-3.2,5.4-7.3,6.3-11.7c1.8-8.3,0.8-17-2.9-24.6
						c-1.9-4-4.9-7.2-8.7-9.4c-5.7-3.1-12.6-3-18.2,0.2c-5,3-8.5,7.9-9.7,13.5c-0.8,4.5-0.6,9.1,0.4,13.6c-0.8,3.4-0.8,7,0.3,10.4
						c2.2,6.7,7.8,11.8,14.7,13.2C1117,584.8,1120.5,584.6,1123.7,583.6z M1121.2,567.5l-0.2,0.5
						C1121,567.9,1121.1,567.7,1121.2,567.5z"/>
					<path class="st1" d="M1113,70.3c5.4,9.9,17.8,13.5,27.7,8.1c4.8-3.3,8.4-8.1,10.1-13.6c1.5-4,2.1-8.3,1.7-12.6
						c-0.2-2.7-0.7-5.3-1.4-7.8c-0.8-2.4-1.8-4.7-3.1-6.8c-2.2-3.6-5.6-6.2-9.6-7.6c-3.1-0.9-6.4-0.9-9.5,0
						c-1.9,0.6-3.8,1.5-5.4,2.6c-2.7,1-5,2.9-6.5,5.3c-2.7,4.2-4.8,8.7-6.2,13.5c-1.7,6-1,12.5,1.8,18.1
						C1112.7,69.7,1112.8,70,1113,70.3z"/>
					<path class="st1" d="M813.5,190.1c3.5,0.8,7.1,0.6,10.5-0.6c3-1.1,5.8-2.9,8.1-5.1c4.3-4.4,6.9-10.2,7.3-16.4
						c0.3-5.3-0.3-10.6-1.7-15.7c0-0.1,0-0.1-0.1-0.2c-0.1-1.4-0.4-2.8-0.9-4.2c-2.1-6.5-7.5-11.4-14.2-12.9
						c-6.9-1.2-13.9,0.7-19.1,5.3c-4,3.5-6.8,8.3-7.9,13.5c-2.3,9.7-0.3,20,5.6,28.2C804.1,186.2,808.5,189,813.5,190.1z"/>
					<path class="st1" d="M697.1,383.6c-0.4-2.3-1.2-4.4-2.2-6.4c-1.5-2.8-3.7-5.2-6.3-6.9c-0.6-0.4-1.2-0.7-1.9-1
						c-10.1-4.6-22.1-0.2-26.7,9.9c-2.2,4.8-3.4,10-3.4,15.3c0,1.8,0.1,3.7,0.4,5.5c0.1,1.7,0.5,3.4,1,5c1.5,5.1,4.9,9.3,9.4,12
						c5.9,3.1,13,3,18.7-0.4c5-3,8.7-7.8,10.3-13.4c1.1-4.1,1.4-8.2,1.1-12.4C697.6,388.4,697.4,386,697.1,383.6z"/>
					<path class="st1" d="M658.1,153.7c1,2.8,2.4,5.4,4.1,7.8c2.1,2.7,4.8,4.8,7.9,6.1c3.6,1.5,7.5,1.8,11.3,1
						c1.6-0.4,3.2-0.9,4.7-1.7c0.6-0.3,1.3-0.7,1.9-1.1c2.7-1.9,5.1-4.3,6.9-7.1c1.4-2.3,2.4-5,2.8-7.7c0.5-3.3,0.6-6.5,0.1-9.8
						c0.3-1.5,0.4-3.1,0.4-4.6c-0.1-3.5-1-6.9-2.6-10c-1.6-3-4-5.5-6.8-7.4c-2-1.3-4.1-2.3-6.4-2.8c-2.8-0.7-5.7-0.8-8.6-0.4
						c-5.2,0.6-9.9,3-13.4,6.9c-2.3,2.6-3.9,5.7-4.8,9c-0.7,2.8-0.9,5.7-0.6,8.5C655.5,144.9,656.5,149.4,658.1,153.7z"/>
				</g>
			</g>
		</g>
	</g>
</g>
</svg>
