<?xml version="1.0" encoding="utf-8"?>
<!-- Generator: Adobe Illustrator 25.1.0, SVG Export Plug-In . SVG Version: 6.00 Build 0)  -->
<svg version="1.1" id="Ebene_1" xmlns="http://www.w3.org/2000/svg" xmlns:xlink="http://www.w3.org/1999/xlink" x="0px" y="0px"
	 viewBox="0 0 1200 1200" style="enable-background:new 0 0 1200 1200;" xml:space="preserve">
<style type="text/css">
	.st0{clip-path:url(#SVGID_2_);}
	.st1{fill:#9BD2C3;}
	.st2{fill:#FFCD9F;}
</style>
<g id="Gruppe_246" transform="translate(0 126.343)">
	<g>
		<defs>
			<rect id="SVGID_1_" x="47.3" y="-126.3" width="1105.4" height="1200.2"/>
		</defs>
		<clipPath id="SVGID_2_">
			<use xlink:href="#SVGID_1_"  style="overflow:visible;"/>
		</clipPath>
		<g id="Gruppe_245" transform="translate(0 -126.343)" class="st0">
			<g id="Gruppe_187" transform="translate(44.174 37.778)">
				<path id="Pfad_175" class="st1" d="M792.8,625.6c2,2.2,3.5,4.9,4.3,7.8c0.7,3,0.8,6.1,0.1,9.1c-0.9,4.1-2.9,7.8-5.8,10.7
					c-7.2,7.1-18.5,8-26.8,2.2c-2.2-1.5-4.2-3.4-5.9-5.6c-1.7-2.2-3.1-4.7-4.1-7.3c-1.6-4.8-1.9-10-0.9-14.9
					c0.8-4.3,2.4-8.4,4.8-12.1c2.7-5.2,7.2-9.1,12.6-11.1c6.8-1.8,14,0.5,18.5,5.8c2.3,2.6,3.9,5.7,4.8,9.1c0.6,2.8,1.1,5.7,1.2,8.6
					c0,3.1-1.2,6.1-3.4,8.4c-2.2,2.2-5.3,3.4-8.4,3.4c-3.1,0-6.1-1.2-8.4-3.4c-2.1-2.3-3.3-5.3-3.4-8.4c0-0.9-0.2-1.7-0.3-2.6
					c0.1,1.1,0.3,2.1,0.4,3.2c-0.2-1.6-0.6-3.1-1.1-4.6l1.2,2.8c-0.3-0.8-0.7-1.5-1.2-2.1l1.9,2.4c-0.5-0.6-1-1.1-1.6-1.6l2.4,1.9
					c-0.5-0.3-1-0.6-1.5-0.9l2.8,1.2c-0.5-0.2-1.1-0.4-1.7-0.5l3.1,0.5c-0.4,0-0.9,0-1.3,0l3.2-0.4c-0.4,0.1-0.9,0.2-1.3,0.4
					l2.8-1.2c-0.4,0.2-0.8,0.4-1.2,0.7l2.4-1.9c-0.7,0.6-1.4,1.3-2,2l1.9-2.4c-1.6,2.1-3,4.5-4,6.9l1.2-2.8
					c-0.8,1.8-1.3,3.6-1.7,5.5l0.4-3.2c-0.2,1.6-0.2,3.2,0,4.8c-0.1-1.1-0.3-2.1-0.4-3.2c0.2,1.2,0.5,2.4,1,3.5l-1-2.8
					c0.4,1.1,1,2.1,1.7,3.1l-1.9-2.4c0.7,0.9,1.6,1.8,2.5,2.5l-2.4-1.9c0.8,0.6,1.7,1.1,2.6,1.5l-2.8-1.2c0.8,0.3,1.6,0.5,2.5,0.7
					l-3.2-0.4c0.8,0.1,1.7,0.1,2.5,0l-3.2,0.4c0.6-0.1,1.1-0.3,1.7-0.5l-2.8,1.2c0.7-0.3,1.3-0.7,1.9-1.1l-2.4,1.9
					c0.7-0.5,1.3-1.1,1.9-1.8l-1.9,2.4c0.5-0.7,1-1.4,1.3-2.2l-1.2,2.8c0.3-0.8,0.6-1.6,0.7-2.4l-0.4,3.2c0.1-0.7,0.1-1.4,0-2.1
					l0.4,3.2c-0.1-0.6-0.2-1.2-0.5-1.7l1.2,2.8c-0.2-0.4-0.4-0.8-0.7-1.2l1.9,2.4l-0.2-0.3c-2.1-2.3-3.3-5.3-3.4-8.4
					c0-3.1,1.2-6.1,3.4-8.4c2.2-2.2,5.3-3.4,8.4-3.4c3.1-0.1,6.2,1.2,8.4,3.4"/>
			</g>
			<g id="Gruppe_188" transform="translate(35.33 51.327)">
				<path id="Pfad_176" class="st1" d="M652.5,838.4c9.7,8.8,12.4,23,6.5,34.7c-4.2,6.8-11.7,10.9-19.7,10.7
					c-7.5-0.2-14.6-3.6-19.4-9.4c-4.8-6.1-7.6-13.6-8-21.4c-0.5-6.9,1-13.7,4.4-19.7c3.6-6.4,9.7-11,16.9-12.6
					c7.9-1.9,16.2,0.4,22,6c5.2,6.1,8.1,13.8,8.3,21.9c0.8,8.4-3.3,16.5-10.5,21c-5.7,3.2-12.9,1.3-16.2-4.2
					c-3.2-5.7-1.3-12.9,4.3-16.2c0.4-0.2,0.7-0.5,1.1-0.7l-2.4,1.9c0.5-0.5,1-1,1.5-1.5l-1.9,2.4c0.4-0.6,0.8-1.2,1-1.8l-1.2,2.8
					c0.4-1,0.6-2,0.8-3l-0.4,3.2c0.2-1.9,0.2-3.8,0-5.6l0.4,3.2c-0.4-2.5-1.1-5-2.1-7.3c0.4,1,0.8,1.9,1.2,2.8
					c-0.5-1.2-1.1-2.3-1.9-3.4l1.9,2.4c-0.5-0.7-1.2-1.3-1.8-1.9l2.4,1.9c-0.7-0.6-1.6-1-2.4-1.4l2.8,1.2c-0.9-0.3-1.8-0.6-2.7-0.7
					l3.2,0.4c-1.1-0.1-2.2-0.1-3.3,0l3.2-0.4c-1.3,0.2-2.5,0.5-3.7,1l2.8-1.2c-1.2,0.5-2.3,1.2-3.4,1.9l2.5-1.9
					c-0.9,0.8-1.8,1.7-2.5,2.6l1.9-2.4c-0.9,1.2-1.6,2.4-2.2,3.7l1.2-2.8c-0.8,1.9-1.3,3.8-1.6,5.8c0.1-1.1,0.3-2.1,0.4-3.2
					c-0.3,2.6-0.3,5.1,0,7.7c-0.2-1.1-0.3-2.2-0.4-3.2c0.3,2.4,0.9,4.8,1.8,7l-1.2-2.8c0.7,1.5,1.5,3,2.4,4.3l-1.9-2.4
					c0.9,1.1,1.9,2.2,3,3.1l-2.4-1.9c1,0.7,2,1.2,3.1,1.7l-2.8-1.2c1.1,0.4,2.2,0.8,3.4,1l-3.1-0.4c1.2,0.1,2.3,0.1,3.5,0l-3.2,0.5
					c1-0.2,2-0.5,2.9-0.8l-2.8,1.2c0.7-0.3,1.4-0.7,2.1-1.2l-2.4,1.9c0.7-0.5,1.3-1.1,1.8-1.7l-1.9,2.4c0.6-0.8,1.1-1.6,1.4-2.4
					l-1.2,2.8c0.3-0.9,0.6-1.8,0.7-2.8l-0.4,3.2c0.2-1.4,0.2-2.9,0-4.3l0.4,3.2c-0.3-1.8-0.8-3.5-1.5-5.1l1.2,2.8
					c-0.7-1.6-1.5-3-2.5-4.4l1.9,2.4c-0.6-0.8-1.3-1.6-2.1-2.3c-4.6-4.6-4.6-12.1,0-16.8C640.4,833.9,647.8,833.9,652.5,838.4"/>
			</g>
			<g id="Gruppe_189" transform="translate(35.774 43.835)">
				<path id="Pfad_177" class="st1" d="M660.6,718c0.6,2.5,1,4.9,1.4,7.4c0.5,3.4,0.4,6.8-0.1,10.2c-0.4,2.7-1.4,5.4-2.8,7.7
					c-1.8,2.8-4.2,5.2-6.9,7.1c-0.6,0.4-1.3,0.8-1.9,1.1c-1.5,0.8-3.1,1.3-4.7,1.7c-3.8,0.8-7.7,0.5-11.3-1
					c-3.1-1.3-5.8-3.4-7.9-6.1c-1.7-2.4-3.1-5-4.1-7.8c-1.6-4.3-2.6-8.8-3.1-13.3c-0.3-2.8-0.1-5.7,0.6-8.5c0.9-3.3,2.5-6.4,4.8-9
					c3.5-3.9,8.2-6.3,13.4-6.9c2.9-0.4,5.8-0.3,8.6,0.4c2.3,0.5,4.4,1.5,6.4,2.8c2.8,1.9,5.2,4.4,6.8,7.4c1.6,3.1,2.5,6.5,2.6,9.9
					c0,1.8-0.1,3.6-0.5,5.4c-0.1,0.8-0.3,1.6-0.6,2.3c-1.1,3.3-2.9,6.3-5.4,8.7c-2.3,2.2-5.3,3.4-8.4,3.5c-3.1,0-6.1-1.2-8.4-3.4
					c-2.2-2.2-3.4-5.3-3.4-8.4c0-3.1,1.2-6.1,3.4-8.4c0.3-0.3,0.6-0.7,0.9-1.1l-1.9,2.4c0.5-0.6,0.9-1.3,1.2-2l-1.2,2.8
					c0.4-1,0.7-2,0.8-3l-0.4,3.2c0.1-0.9,0.1-1.8,0-2.8c0.1,1.1,0.3,2.1,0.4,3.2c-0.1-0.9-0.4-1.8-0.7-2.6l1.2,2.8
					c-0.4-0.8-0.8-1.6-1.4-2.3l1.9,2.4c-0.4-0.5-0.9-1-1.5-1.4l2.4,1.9c-0.6-0.5-1.3-0.9-2.1-1.2l2.8,1.2c-0.7-0.3-1.5-0.5-2.3-0.6
					l3.2,0.4c-1-0.1-2.1-0.1-3.1,0l3.2-0.4c-0.9,0.1-1.8,0.4-2.7,0.7l2.8-1.2c-0.8,0.4-1.6,0.8-2.4,1.4l2.4-1.9
					c-0.6,0.5-1.2,1.1-1.7,1.7l1.9-2.4c-0.4,0.6-0.8,1.3-1.1,2l1.2-2.8c-0.4,1-0.6,1.9-0.7,3l0.4-3.2c-0.2,1.5-0.2,3,0,4.5l-0.4-3.1
					c0.5,3.6,1.5,7.1,2.9,10.5l-1.2-2.8c0.5,1.1,1,2.1,1.7,3l-1.9-2.4c0.4,0.6,1,1.1,1.5,1.6l-2.4-1.9c0.5,0.4,1,0.7,1.6,0.9
					l-2.8-1.3c0.5,0.2,1.1,0.4,1.7,0.5l-3.1-0.5c0.5,0,1,0,1.4,0l-3.2,0.4c0.7-0.1,1.4-0.2,2.1-0.4l-2.8,1.2
					c0.8-0.3,1.6-0.8,2.3-1.3l-2.4,1.8c0.7-0.6,1.3-1.2,1.9-1.9l-1.9,2.4c0.5-0.7,1-1.5,1.4-2.3l-1.2,2.8c0.5-1.2,0.8-2.4,1-3.6
					l-0.4,3.2c0.2-1.8,0.1-3.6-0.1-5.4c0.1,1.1,0.3,2.1,0.4,3.2c-0.3-2-0.7-3.9-1.1-5.9c-0.8-3.1-0.4-6.4,1.2-9.1
					c1.6-2.6,4.1-4.6,7-5.4c3.1-0.8,6.4-0.4,9.1,1.2C657.8,712.5,659.8,715.1,660.6,718"/>
			</g>
			<g id="Gruppe_190" transform="translate(35.965 37.011)">
				<path id="Pfad_178" class="st1" d="M660.9,611.6c1.9,5.6,2.4,11.6,1.5,17.5c-1.2,5.6-4.7,10.5-9.7,13.5
					c-5.6,3.2-12.5,3.3-18.2,0.2c-3.8-2.2-6.9-5.5-8.8-9.5c-3.7-7.6-4.7-16.3-2.9-24.6c0.9-4.4,3.1-8.5,6.3-11.7
					c2.2-2.1,4.9-3.7,7.8-4.7c3.2-1,6.7-1.2,10-0.5c6.9,1.4,12.5,6.5,14.7,13.2c2.1,6.9,0.2,14.4-4.8,19.6c-4.6,4.6-12.1,4.6-16.8,0
					c-4.5-4.7-4.5-12.1,0-16.8c0.2-0.2,0.4-0.4,0.5-0.6l-1.9,2.4c0.4-0.6,0.8-1.2,1-1.8l-1.2,2.8c0.2-0.7,0.4-1.3,0.5-2
					c-0.1,1.1-0.3,2.1-0.4,3.2c0.1-0.7,0.1-1.4,0-2.1l0.4,3.2c-0.1-0.7-0.3-1.3-0.5-2l1.2,2.8c-0.2-0.5-0.5-1-0.8-1.4l1.9,2.4
					c-0.4-0.5-0.9-1-1.4-1.4l2.4,1.9c-0.5-0.4-1.1-0.7-1.7-1l2.8,1.2c-0.8-0.3-1.5-0.5-2.4-0.7l3.2,0.4c-0.7-0.1-1.3-0.1-2,0
					l3.2-0.4c-0.6,0.1-1.3,0.3-1.9,0.5l2.8-1.2c-0.7,0.3-1.3,0.7-1.9,1.1l2.4-1.9c-0.5,0.5-1,1-1.5,1.5l1.9-2.4
					c-0.6,0.8-1,1.6-1.4,2.5l1.2-2.8c-0.6,1.4-0.9,2.9-1.1,4.5l0.4-3.2c-0.3,2.3-0.3,4.6,0,7c-0.1-1.1-0.2-2.1-0.4-3.1
					c0.3,2,0.8,4,1.5,5.9l-1.2-2.8c0.5,1.3,1.2,2.4,2,3.5l-1.9-2.4c0.5,0.7,1.2,1.4,1.9,2l-2.4-1.9c0.5,0.4,1.1,0.7,1.7,1l-2.8-1.2
					c0.5,0.2,1,0.3,1.5,0.4l-3.2-0.4c0.6,0.1,1.1,0.1,1.7,0l-3.1,0.4c0.5-0.1,1-0.2,1.5-0.4l-2.8,1.2c0.6-0.3,1.2-0.6,1.7-1
					l-2.4,1.9c0.5-0.4,1-0.9,1.4-1.5l-1.8,2.4c0.5-0.7,0.9-1.4,1.3-2.2l-1.2,2.8c0.4-0.9,0.6-1.9,0.8-2.8l-0.4,3.2
					c0.1-1.3,0.1-2.6,0-3.9l0.4,3.2c-0.4-2.2-1-4.5-1.7-6.6c-1.7-6.3,2-12.8,8.3-14.6C652.6,601.7,659.1,605.4,660.9,611.6"/>
			</g>
			<g id="Gruppe_191" transform="translate(53.529 37.768)">
				<path id="Pfad_179" class="st1" d="M908.1,645.4c-2.3-2.5-4-5.6-4.8-9c-0.7-3.5-0.7-7.1,0.1-10.6c1.6-6.1,5.4-11.4,10.7-14.9
					c4-2.7,8.3-4.8,12.9-6.2c3.7-1.4,7.7-1.7,11.5-0.7c4.1,1.2,7.5,3.9,9.7,7.6c2.3,4.1,3.7,8.5,4.3,13.1c1.4,6,1.4,12.2,0,18.1
					c-1.7,5.8-5.4,10.7-10.4,13.9c-4.9,3.1-10.8,4.2-16.5,3.1c-7-1.6-12.5-6.8-14.4-13.7c-1-4.8-1.5-9.6-1.6-14.4l0.4,3.2
					c-0.2-1.2-0.4-2.3-0.8-3.4l1.2,2.8l-0.2-0.4c-1.5-2.8-1.9-6-1.2-9.1c0.8-3,2.8-5.5,5.5-7.1c2.8-1.6,6.1-2,9.1-1.2
					c3,0.8,5.6,2.7,7.1,5.5c0.9,1.8,1.6,3.8,2.1,5.7c0.4,2,0.6,4,0.7,6c0.1,2.3,0,4.6,0.3,6.8l-0.4-3c0.1,1.1,0.4,2.2,0.8,3.2
					l-1.2-2.8c0.3,0.6,0.6,1.2,1,1.8l-1.9-2.4c0.4,0.5,0.8,1,1.3,1.4l-2.4-1.9c0.5,0.4,1,0.7,1.5,0.9l-2.8-1.2
					c0.6,0.3,1.3,0.4,2,0.5l-3.1-0.4c0.8,0.1,1.7,0.1,2.5,0l-3.2,0.4c1-0.2,1.9-0.4,2.9-0.8l-2.8,1.2c0.9-0.4,1.8-1,2.6-1.6
					l-2.4,1.9c0.8-0.6,1.6-1.3,2.2-2.1l-1.9,2.4c0.6-0.8,1.2-1.8,1.6-2.8l-1.2,2.8c0.5-1.3,0.9-2.7,1.1-4.1l-0.4,3.2
					c0.3-2.3,0.2-4.7-0.1-7c0.1,1.1,0.3,2.1,0.4,3.2c-0.4-3.7-1.3-7.2-2.5-10.7l1.2,2.8c-0.3-0.7-0.7-1.4-1.2-2.1l1.8,2.4
					c-0.3-0.4-0.7-0.8-1.1-1.1l2.4,1.9c-0.3-0.2-0.6-0.4-1-0.6l2.8,1.2c-0.4-0.2-0.8-0.3-1.3-0.3l3.2,0.4c-0.4,0-0.7,0-1.1,0
					l3.2-0.4c-2.2,0.4-4.4,1.2-6.4,2.1l2.8-1.2c-2.4,1-4.7,2.3-6.8,3.8l2.4-1.9c-1,0.8-1.9,1.7-2.8,2.7l1.9-2.4
					c-0.7,0.9-1.3,1.9-1.7,3l1.2-2.8c-0.4,0.9-0.6,1.9-0.8,2.9l0.4-3.2c-0.1,1-0.1,2,0,3l-0.6-3.2c0.1,0.7,0.3,1.4,0.5,2l-1.2-2.8
					c0.3,0.6,0.6,1.3,1.1,1.8l-1.9-2.4l0.3,0.3c2.1,2.3,3.3,5.3,3.4,8.4c0,3.1-1.2,6.1-3.4,8.4c-2.2,2.2-5.3,3.4-8.4,3.4
					C913.3,648.9,910.3,647.7,908.1,645.4"/>
			</g>
			<g id="Gruppe_192" transform="translate(62.587 38.748)">
				<path id="Pfad_180" class="st1" d="M1050.9,640l0.5-0.6l-1.9,2.4c0.6-0.9,1.2-1.8,1.6-2.8l-1.2,2.8c1.5-3.8,2.2-7.7,4-11.4
					c2.5-5.1,7-8.9,12.4-10.6c3.1-0.9,6.4-0.9,9.5,0c4,1.4,7.4,4,9.6,7.6c1.3,2.1,2.3,4.4,3.1,6.8c0.7,2.5,1.2,5.1,1.4,7.8
					c0.4,4.3-0.2,8.6-1.7,12.6c-1.7,5.5-5.3,10.3-10.1,13.6c-9.9,5.4-22.3,1.8-27.7-8.1c-0.2-0.3-0.3-0.6-0.4-0.8
					c-2.8-5.6-3.5-12.1-1.8-18.1c1.4-4.8,3.5-9.3,6.2-13.5c1.6-2.6,4.1-4.6,7.1-5.5c3.1-0.8,6.4-0.4,9.1,1.2
					c5.6,3.4,7.5,10.6,4.3,16.2c-1.4,2.2-2.6,4.5-3.7,6.8l1.2-2.8c-0.8,1.9-1.4,3.9-1.7,5.9c0.1-1.1,0.3-2.1,0.4-3.2
					c-0.1,1.2-0.1,2.4,0,3.7l-0.4-3.1c0.1,0.9,0.4,1.7,0.7,2.5l-1.2-2.8c0.4,0.9,0.9,1.8,1.5,2.6l-1.9-2.4c0.6,0.8,1.3,1.5,2.1,2.1
					l-2.4-1.9c0.6,0.4,1.2,0.8,1.9,1.1l-2.8-1.2c0.7,0.3,1.3,0.5,2,0.6l-3.2-0.4c0.6,0.1,1.1,0.1,1.7,0l-3.1,0.4
					c0.6-0.1,1.2-0.3,1.7-0.5l-2.8,1.2c0.5-0.2,1-0.5,1.5-0.8l-2.4,1.9c0.8-0.6,1.4-1.3,2-2.1l-1.9,2.4c0.8-1.1,1.4-2.2,1.9-3.4
					l-1.2,2.9c0.7-1.8,1.3-3.7,1.5-5.6l-0.4,3.2c0.2-1.8,0.2-3.6,0-5.4l0.4,3.1c-0.3-1.9-0.8-3.8-1.5-5.6l1.2,2.8
					c-0.4-0.9-0.9-1.8-1.5-2.6l1.9,2.4c-0.4-0.4-0.8-0.8-1.2-1.2l2.4,1.9c-0.3-0.2-0.7-0.4-1.1-0.5l2.8,1.1
					c-0.4-0.1-0.7-0.2-1.1-0.2l3.2,0.4c-0.3,0-0.7,0-1,0l3.2-0.4c-0.5,0.1-1,0.2-1.5,0.4l2.8-1.2c-0.6,0.3-1.2,0.6-1.7,0.9l2.4-1.9
					c-0.7,0.6-1.4,1.2-2,2l1.8-2.4c-0.6,0.8-1.1,1.6-1.4,2.4l1.2-2.8c-0.8,2.1-1.3,4.3-2,6.5c-1.1,3.8-3.1,7.3-5.8,10.3
					c-4.6,4.6-12.1,4.6-16.8,0C1046.4,652.1,1046.4,644.7,1050.9,640"/>
			</g>
			<g id="Gruppe_193" transform="translate(8.582 58.848)">
				<path id="Pfad_181" class="st1" d="M229.8,955.4c2.3,2.5,4,5.6,4.8,9c0.7,3.5,0.7,7.1-0.1,10.6c-1.6,6.1-5.4,11.4-10.6,14.9
					c-4,2.7-8.3,4.9-12.9,6.4c-3.7,1.4-7.7,1.7-11.5,0.7c-4.1-1.2-7.5-3.9-9.7-7.6c-2.3-4.1-3.7-8.6-4.3-13.2
					c-1.4-6-1.4-12.2,0-18.1c1.7-5.8,5.4-10.7,10.4-13.9c4.9-3.1,10.8-4.2,16.5-3.1c7,1.6,12.5,6.8,14.4,13.7
					c1,4.8,1.5,9.6,1.5,14.5l-0.4-3.2c0.2,1.2,0.4,2.3,0.8,3.4l-1.2-2.8l0.2,0.4c1.5,2.8,1.9,6,1.2,9.1c-0.8,3-2.8,5.5-5.5,7.1
					c-2.8,1.6-6.1,2.1-9.2,1.3c-3-0.8-5.6-2.8-7.1-5.5c-0.9-1.8-1.6-3.7-2.1-5.7c-0.4-2-0.6-4-0.7-6c-0.1-2.3,0-4.6-0.3-6.8l0.4,3.2
					c-0.1-1.1-0.4-2.2-0.8-3.2l1.2,2.8c-0.3-0.6-0.6-1.2-1-1.8l1.9,2.4c-0.4-0.6-0.9-1.1-1.4-1.5l2.4,1.9c-0.5-0.3-0.9-0.6-1.5-0.9
					l2.8,1.2c-0.6-0.3-1.3-0.4-2-0.5l3.2,0.4c-0.8-0.1-1.7-0.1-2.5,0l3.1-0.4c-1,0.2-1.9,0.4-2.9,0.8l2.8-1.2
					c-0.9,0.4-1.8,0.9-2.6,1.5l2.4-1.9c-0.8,0.6-1.6,1.3-2.2,2.1l1.9-2.4c-0.7,0.9-1.2,1.8-1.6,2.9l1.2-2.8
					c-0.5,1.3-0.9,2.7-1.1,4.1l0.4-3.2c-0.2,2.3-0.2,4.7,0.1,7c-0.1-1-0.3-2.1-0.4-3.1c0.4,3.7,1.3,7.3,2.5,10.7
					c-0.4-1-0.8-1.9-1.2-2.8c0.3,0.7,0.7,1.4,1.2,2.1l-1.9-2.4c0.3,0.4,0.7,0.8,1.1,1.1l-2.4-1.9c0.3,0.2,0.6,0.4,1,0.6l-2.8-1.2
					c0.4,0.2,0.8,0.3,1.3,0.3l-3.2-0.4c0.4,0,0.7,0,1.1,0l-3.2,0.4c2.2-0.4,4.4-1.2,6.4-2.1l-2.8,1.2c2.4-1,4.7-2.2,6.8-3.8
					l-2.4,1.9c1-0.8,2-1.7,2.8-2.7l-1.9,2.4c0.7-0.9,1.3-1.9,1.7-3l-1.2,2.8c0.4-1,0.7-1.9,0.9-3l-0.4,3.2c0.1-1,0.1-2,0-3l0.4,3.2
					c-0.1-0.7-0.3-1.4-0.5-2l1.2,2.8c-0.3-0.6-0.6-1.3-1-1.8l1.9,2.4l-0.3-0.3c-2.2-2.2-3.4-5.2-3.5-8.3c0-3.1,1.2-6.1,3.4-8.4
					c2.2-2.3,5.3-3.5,8.5-3.5C224.5,951.9,227.6,953.1,229.8,955.4"/>
			</g>
			<g id="Gruppe_194" transform="translate(8.582 67.329)">
				<path id="Pfad_182" class="st1" d="M229.8,1090.9c2.3,2.5,4,5.6,4.8,9c0.7,3.5,0.7,7.1-0.1,10.6c-1.6,6.1-5.4,11.4-10.6,14.9
					c-4,2.7-8.3,4.9-12.9,6.4c-3.7,1.4-7.7,1.7-11.5,0.7c-4.1-1.2-7.5-3.9-9.7-7.6c-2.3-4.1-3.7-8.6-4.3-13.2
					c-1.4-6-1.4-12.2,0-18.1c1.7-5.8,5.4-10.7,10.4-13.9c4.9-3.1,10.8-4.2,16.5-3.1c7,1.6,12.5,6.8,14.4,13.7
					c1,4.8,1.5,9.6,1.5,14.5l-0.4-3.2c0.2,1.2,0.4,2.3,0.8,3.4l-1.2-2.8l0.2,0.4c1.5,2.8,1.9,6,1.2,9.1c-0.8,3-2.8,5.5-5.5,7.1
					c-2.8,1.6-6.1,2.1-9.2,1.3c-3-0.8-5.6-2.8-7.1-5.5c-0.9-1.8-1.6-3.7-2.1-5.7c-0.4-2-0.6-4-0.7-6c-0.1-2.3,0-4.6-0.3-6.8l0.4,3.2
					c-0.1-1.1-0.4-2.2-0.8-3.2l1.2,2.8c-0.3-0.6-0.6-1.2-1-1.8l1.9,2.4c-0.4-0.6-0.9-1.1-1.4-1.5l2.4,1.9c-0.5-0.3-0.9-0.6-1.5-0.9
					l2.8,1.2c-0.6-0.3-1.3-0.4-2-0.5l3.2,0.4c-0.8-0.1-1.7-0.1-2.5,0l3.1-0.4c-1,0.2-1.9,0.4-2.9,0.8l2.8-1.2
					c-0.9,0.4-1.8,0.9-2.6,1.5l2.4-1.9c-0.8,0.6-1.6,1.3-2.2,2.1l1.9-2.4c-0.7,0.9-1.2,1.8-1.6,2.9l1.2-2.8
					c-0.5,1.3-0.9,2.7-1.1,4.1l0.4-3.2c-0.2,2.3-0.2,4.7,0.1,7c-0.1-1-0.3-2.1-0.4-3.1c0.4,3.7,1.3,7.3,2.5,10.7
					c-0.4-1-0.8-1.9-1.2-2.8c0.3,0.7,0.7,1.4,1.2,2.1l-1.9-2.4c0.3,0.4,0.7,0.8,1.1,1.1l-2.4-1.9c0.3,0.2,0.6,0.4,1,0.6l-2.8-1.2
					c0.4,0.2,0.8,0.3,1.3,0.3l-3.2-0.4c0.4,0,0.7,0,1.1,0l-3.2,0.4c2.2-0.4,4.4-1.2,6.4-2.1l-2.8,1.2c2.4-1,4.7-2.2,6.8-3.8
					l-2.4,1.9c1-0.8,2-1.7,2.8-2.7l-1.9,2.4c0.7-0.9,1.3-1.9,1.7-3l-1.2,2.8c0.4-1,0.7-1.9,0.9-3l-0.4,3.2c0.1-1,0.1-2,0-3l0.4,3.2
					c-0.1-0.7-0.3-1.4-0.5-2l1.2,2.8c-0.3-0.6-0.6-1.3-1-1.8l1.9,2.4l-0.3-0.3c-2.2-2.2-3.4-5.2-3.5-8.3c0-3.1,1.2-6.1,3.4-8.4
					c2.2-2.3,5.3-3.5,8.5-3.5C224.5,1087.4,227.6,1088.6,229.8,1090.9"/>
			</g>
			<g id="Gruppe_195" transform="translate(9.323 52.26)">
				<path id="Pfad_183" class="st1" d="M238.3,859.4c3.3,5.8,3.1,12.9-0.6,18.5c-1.8,2.7-4.2,5-7,6.6c-3,1.6-6.4,2.5-9.8,2.3
					c-6.3-0.4-12.2-3.2-16.5-7.8c-3.6-3.8-6.1-8.4-7.3-13.4c-0.6-2.6-0.9-5.2-0.7-7.8c0.3-3.5,1.2-6.9,2.7-10.1
					c1-2.2,2.5-4.1,4.2-5.7c1.7-1.7,3.6-3.1,5.7-4.1c5.1-2.6,10.9-3.3,16.4-1.9c3.1,0.9,5.9,2.5,8.3,4.6c0.7,0.7,1.4,1.5,2,2.3
					c0.7,0.9,1.3,1.8,1.8,2.8c1.5,2.9,2.3,6.1,2.3,9.4c0,1.6-0.2,3.2-0.5,4.8c-0.1,0.7-0.3,1.4-0.5,2c-1,3-2.7,5.7-4.9,8
					c-2.3,2.3-5.2,3.8-8.3,4.6c-3.1,0.8-6.3,0.3-9.1-1.2c-2.7-1.6-4.6-4.1-5.5-7.1c-0.8-3.1-0.4-6.4,1.2-9.2
					c1.5-2.7,4.1-4.7,7.1-5.6c0.4-0.1,0.9-0.2,1.3-0.3l-2.8,1.2c0.5-0.2,0.9-0.5,1.3-0.8l-2.4,1.9c0.4-0.3,0.8-0.7,1.1-1.1l-1.9,2.4
					c0.4-0.6,0.8-1.2,1.1-1.9l-1.2,2.8c0.3-0.8,0.5-1.6,0.6-2.4l-0.4,3.2c0.1-0.8,0.1-1.7,0-2.5c0.1,1.1,0.3,2.1,0.4,3.2
					c-0.1-0.8-0.3-1.5-0.5-2.2c0.4,1,0.8,1.9,1.2,2.8c-0.2-0.6-0.6-1.2-1-1.7l1.9,2.4c-0.3-0.4-0.7-0.8-1.2-1.2l2.4,1.9
					c-0.6-0.5-1.2-0.8-1.9-1.1l2.8,1.2c-0.7-0.3-1.4-0.5-2.1-0.6l3.2,0.4c-1-0.1-1.9-0.1-2.9,0l3.2-0.4c-1,0.1-1.9,0.4-2.8,0.8
					l2.8-1.2c-1,0.4-2,1-2.9,1.7l2.4-1.9c-0.7,0.5-1.3,1.2-1.9,1.9l1.9-2.4c-0.6,0.7-1,1.6-1.4,2.4l1.2-2.8
					c-0.4,1.1-0.8,2.2-0.9,3.4c0.1-1.1,0.3-2.1,0.4-3.2c-0.2,1.3-0.2,2.6,0,3.9l-0.4-3.2c0.2,1.6,0.6,3.1,1.3,4.6l-1.2-2.8
					c0.6,1.5,1.4,2.8,2.4,4.1l-1.9-2.4c0.8,1,1.7,1.9,2.6,2.6l-2.4-1.8c1,0.8,2,1.4,3.2,1.9l-2.8-1.2c0.9,0.4,1.8,0.6,2.7,0.7
					l-3.2-0.4c0.7,0.1,1.3,0.1,2,0l-3.2,0.4c0.6-0.1,1.1-0.2,1.7-0.4l-2.8,1.2c0.6-0.3,1.2-0.6,1.7-1l-2.4,1.9
					c0.5-0.4,1-0.9,1.4-1.4l-1.8,2.4c0.4-0.5,0.7-1.1,1-1.7l-1.2,2.8c0.2-0.6,0.4-1.2,0.5-1.8c-0.1,1.1-0.3,2.1-0.4,3.2
					c0-0.4,0-0.8,0-1.2l0.4,3.2c-0.1-0.5-0.2-1-0.4-1.5l1.2,2.8c-0.1-0.2-0.2-0.4-0.3-0.6c-1.6-2.8-2-6.1-1.2-9.2
					c0.9-3,2.8-5.5,5.5-7.1C227.8,851.9,235,853.8,238.3,859.4"/>
			</g>
			<g id="Gruppe_196" transform="translate(8.869 44.941)">
				<path id="Pfad_184" class="st2" d="M232.1,735.9c1.4,5.1,2,10.4,1.7,15.7c-0.4,6.2-3,12-7.3,16.4c-2.3,2.2-5.1,4-8.1,5.1
					c-3.4,1.2-7,1.4-10.5,0.6c-5-1.1-9.4-3.9-12.4-8.1c-5.9-8.2-7.9-18.5-5.6-28.2c1.1-5.2,3.9-10,7.9-13.5
					c5.2-4.6,12.2-6.5,19.1-5.3c6.7,1.5,12.1,6.4,14.2,12.9c2.3,6.5,0.7,13.7-4.1,18.7c-4.7,4.6-12.1,4.6-16.8,0
					c-4.5-4.7-4.5-12.1,0-16.8c0.2-0.2,0.4-0.4,0.5-0.6l-1.9,2.4c0.3-0.4,0.5-0.8,0.7-1.3l-1.2,2.8c0.2-0.5,0.3-0.9,0.4-1.4
					c-0.1,1.1-0.3,2.1-0.4,3.2c0.1-0.6,0.1-1.2,0-1.8l0.4,3.2c-0.1-0.7-0.3-1.5-0.6-2.2l1.2,2.8c-0.3-0.7-0.7-1.3-1.2-2l1.9,2.4
					c-0.4-0.5-0.9-0.9-1.4-1.3l2.4,1.9c-0.4-0.3-0.8-0.5-1.3-0.8l2.8,1.2c-0.7-0.3-1.4-0.5-2.1-0.6l3.2,0.4c-0.7-0.1-1.5-0.1-2.2,0
					l3.1-0.4c-0.9,0.1-1.7,0.4-2.6,0.7l2.8-1.2c-1,0.4-1.9,0.9-2.8,1.6l2.4-1.9c-0.8,0.7-1.6,1.4-2.3,2.3l1.9-2.4
					c-0.7,0.9-1.2,2-1.7,3l1.2-2.8c-0.6,1.4-0.9,2.9-1.1,4.5c0.1-1.1,0.3-2.1,0.4-3.2c-0.3,2.3-0.3,4.5,0,6.8l-0.4-3.2
					c0.3,2,0.8,4,1.6,5.8l-1.2-2.8c0.6,1.3,1.3,2.5,2.1,3.7l-1.9-2.4c0.6,0.7,1.2,1.4,2,2l-2.4-1.9c0.6,0.5,1.3,0.9,2,1.2l-2.8-1.2
					c0.7,0.3,1.5,0.5,2.3,0.6l-3.2-0.4c0.7,0.1,1.4,0.1,2.1,0l-3.1,0.4c0.7-0.1,1.4-0.3,2-0.6l-2.8,1.2c0.7-0.3,1.3-0.7,1.9-1.1
					l-2.4,1.9c0.8-0.7,1.6-1.4,2.2-2.2l-1.9,2.4c0.7-0.9,1.2-1.8,1.7-2.8l-1.2,2.8c0.5-1.3,0.8-2.6,1-3.9c-0.1,1.1-0.3,2.1-0.4,3.2
					c0.2-2.2,0.2-4.4-0.1-6.5c0.1,1.1,0.3,2.1,0.4,3.2c-0.4-2-0.8-4-1.2-5.9c-0.8-3.1-0.4-6.4,1.2-9.1c1.6-2.7,4.1-4.6,7.1-5.5
					C223.8,726,230.3,729.6,232.1,735.9"/>
			</g>
			<g id="Gruppe_197" transform="translate(9.035 37.778)">
				<path id="Pfad_185" class="st2" d="M231.3,625.6c2,2.2,3.5,4.9,4.3,7.8c0.7,3,0.8,6.1,0.1,9.1c-0.8,4.1-2.9,7.8-5.8,10.7
					c-7.2,7.1-18.5,8-26.8,2.2c-2.2-1.5-4.2-3.4-5.9-5.6c-1.7-2.2-3.1-4.7-4.1-7.3c-1.6-4.8-1.9-10-0.9-14.9
					c0.8-4.3,2.4-8.4,4.8-12.1c2.7-5.2,7.2-9.1,12.6-11.1c6.8-1.8,14,0.5,18.5,5.8c2.3,2.6,3.9,5.7,4.8,9.1c0.6,2.8,1.1,5.7,1.2,8.6
					c0,3.1-1.2,6.1-3.4,8.4c-2.2,2.2-5.3,3.4-8.4,3.4c-3.1,0-6.1-1.2-8.4-3.4c-2.1-2.3-3.3-5.3-3.4-8.4c0-0.9-0.2-1.7-0.3-2.6
					c0.1,1.1,0.3,2.1,0.4,3.2c-0.2-1.6-0.6-3.1-1.1-4.6l1.2,2.8c-0.3-0.8-0.7-1.5-1.2-2.1l1.9,2.4c-0.5-0.6-1-1.1-1.6-1.6l2.4,1.9
					c-0.5-0.3-1-0.6-1.5-0.9l2.8,1.2c-0.5-0.2-1.1-0.4-1.7-0.5l3.1,0.5c-0.4,0-0.9,0-1.3,0l3.2-0.4c-0.4,0.1-0.9,0.2-1.3,0.4
					l2.8-1.2c-0.4,0.2-0.8,0.4-1.2,0.7l2.4-1.9c-0.7,0.6-1.4,1.3-2,2l1.9-2.4c-1.6,2.1-3,4.4-4,6.9l1.2-2.8
					c-0.8,1.8-1.3,3.6-1.7,5.5l0.4-3.2c-0.2,1.6-0.2,3.2,0,4.8c-0.1-1.1-0.3-2.1-0.4-3.2c0.2,1.2,0.5,2.4,1,3.5l-1-2.8
					c0.4,1.1,1,2.1,1.7,3.1l-1.9-2.4c0.7,0.9,1.6,1.8,2.5,2.5l-2.4-1.9c0.8,0.6,1.7,1.1,2.6,1.5l-2.8-1.2c0.8,0.3,1.6,0.5,2.5,0.7
					l-3.2-0.4c0.8,0.1,1.7,0.1,2.5,0l-3.2,0.4c0.6-0.1,1.1-0.3,1.7-0.5l-2.8,1.2c0.7-0.3,1.3-0.7,1.9-1.1l-2.4,1.9
					c0.7-0.5,1.3-1.1,1.9-1.8l-1.9,2.4c0.5-0.7,1-1.4,1.3-2.2l-1.2,2.8c0.3-0.8,0.6-1.6,0.7-2.4l-0.4,3.2c0.1-0.7,0.1-1.4,0-2.1
					l0.4,3.2c-0.1-0.6-0.2-1.2-0.5-1.7l1.2,2.8c-0.2-0.4-0.4-0.8-0.7-1.2l1.9,2.4l-0.2-0.3c-2.1-2.3-3.3-5.3-3.4-8.4
					c0-3.1,1.2-6.1,3.4-8.4c2.2-2.2,5.3-3.4,8.4-3.4c3.1-0.1,6.2,1.2,8.4,3.4"/>
			</g>
			<g id="Gruppe_198" transform="translate(0.744 58.643)">
				<path id="Pfad_186" class="st1" d="M100,959c0.5,4.7,0.2,9.4-1,14c-1.6,5.6-5.3,10.4-10.3,13.4c-5.7,3.4-12.8,3.5-18.7,0.4
					c-4.5-2.7-7.9-6.9-9.4-12c-0.5-1.6-0.9-3.3-1-5c-0.3-1.8-0.4-3.7-0.4-5.5c0-5.3,1.2-10.5,3.4-15.3c4.6-10.1,16.6-14.5,26.7-9.9
					c0.7,0.3,1.3,0.6,1.9,1c2.6,1.7,4.8,4.1,6.3,6.9c1,2,1.8,4.1,2.2,6.4c0.7,4.9,0.6,10-0.4,14.8c-0.8,3-2.8,5.5-5.5,7.1
					c-2.8,1.6-6.1,2-9.1,1.2c-2.9-0.8-5.5-2.8-7-5.4c-1.5-2.8-1.9-6-1.2-9.1c0.1-0.6,0.2-1.2,0.3-1.7l-0.4,3.2
					c0.3-2.3,0.3-4.5,0.1-6.8l0.4,3.2c-0.2-1.1-0.4-2.2-0.8-3.2l1.2,2.8c-0.3-0.7-0.6-1.3-1-1.9L78,960c-0.3-0.4-0.7-0.8-1.1-1.1
					l2.4,1.9c-0.5-0.4-1.1-0.7-1.7-1l2.8,1.2c-0.5-0.2-1-0.3-1.5-0.4l3.2,0.4c-0.6-0.1-1.3-0.1-1.9,0l3.2-0.4
					c-0.6,0.1-1.3,0.3-1.9,0.5l2.8-1.2c-0.9,0.4-1.7,0.9-2.4,1.4l2.4-1.9c-0.6,0.5-1.2,1.1-1.7,1.7l1.9-2.4
					c-0.6,0.9-1.1,1.8-1.6,2.7l1.2-2.8c-0.6,1.6-1,3.3-1.3,5l0.4-3.2c-0.4,2.6-0.4,5.2-0.1,7.8l-0.4-3.2c0.2,1.4,0.6,2.8,1.1,4.1
					l-1.2-2.8c0.3,0.8,0.8,1.6,1.3,2.3l-1.9-2.4c0.4,0.5,0.8,0.9,1.3,1.3l-2.4-1.9c0.4,0.3,0.9,0.6,1.4,0.8l-2.9-1.2
					c0.5,0.2,1.1,0.4,1.7,0.5l-3.2-0.4c0.6,0.1,1.3,0.1,1.9,0l-3.2,0.4c0.6-0.1,1.3-0.3,1.9-0.5l-2.8,1.2c0.7-0.3,1.4-0.8,2-1.2
					l-2.4,1.9c0.6-0.5,1.2-1.1,1.7-1.7l-1.9,2.4c0.6-0.8,1.1-1.6,1.5-2.4l-1.2,2.8c0.5-1.4,0.9-2.8,1.1-4.3
					c-0.1,1.1-0.3,2.1-0.4,3.2c0.2-2.6,0.2-5.3,0-7.9c0-3.1,1.2-6.1,3.4-8.4c2.2-2.2,5.3-3.4,8.4-3.4c3.1,0,6.1,1.2,8.4,3.4
					c2.1,2.3,3.3,5.3,3.4,8.4"/>
			</g>
			<g id="Gruppe_199" transform="translate(0.191 51.327)">
				<path id="Pfad_187" class="st1" d="M91,838.4c9.7,8.8,12.4,23,6.5,34.7c-4.2,6.8-11.7,10.9-19.7,10.7
					c-7.5-0.2-14.6-3.6-19.4-9.4c-4.8-6.1-7.6-13.6-8-21.4c-0.5-6.9,1-13.7,4.4-19.7c3.6-6.4,9.7-11,16.9-12.6
					c7.9-1.9,16.2,0.4,22,6c5.2,6.1,8.1,13.8,8.3,21.9c0.8,8.4-3.3,16.5-10.5,21c-5.7,3.2-12.9,1.3-16.2-4.2
					c-3.2-5.7-1.3-12.9,4.3-16.2c0.4-0.2,0.7-0.5,1.1-0.7l-2.4,1.9c0.5-0.5,1-1,1.5-1.5l-1.9,2.4c0.4-0.6,0.8-1.2,1-1.8l-1.2,2.8
					c0.4-1,0.6-2,0.8-3l-0.4,3.2c0.2-1.9,0.2-3.8,0-5.6l0.4,3.2c-0.4-2.5-1.1-5-2.1-7.3l1.2,2.8c-0.5-1.2-1.1-2.3-1.9-3.4l1.9,2.4
					c-0.5-0.7-1.2-1.3-1.8-1.9l2.4,1.9c-0.7-0.6-1.6-1-2.4-1.4l2.8,1.2c-0.9-0.3-1.8-0.6-2.7-0.7l3.2,0.4c-1.1-0.1-2.2-0.1-3.3,0
					l3.2-0.4c-1.3,0.2-2.5,0.5-3.7,1l2.8-1.2c-1.2,0.5-2.3,1.2-3.4,1.9l2.5-1.9c-0.9,0.8-1.8,1.7-2.5,2.6l1.9-2.4
					c-0.9,1.2-1.6,2.4-2.2,3.7l1.2-2.8c-0.8,1.9-1.3,3.8-1.6,5.8c0.1-1.1,0.3-2.1,0.4-3.2c-0.3,2.6-0.3,5.1,0,7.7
					c-0.2-1.1-0.3-2.2-0.4-3.2c0.3,2.4,0.9,4.8,1.8,7l-1.2-2.8c0.7,1.5,1.5,3,2.4,4.3l-1.9-2.4c0.9,1.1,1.9,2.2,3,3.1l-2.4-1.9
					c1,0.7,2,1.2,3.1,1.7l-2.8-1.2c1.1,0.4,2.2,0.8,3.4,1l-3.1-0.4c1.2,0.1,2.3,0.1,3.5,0l-3.2,0.5c1-0.2,2-0.5,2.9-0.8l-2.8,1.2
					c0.7-0.3,1.4-0.7,2.1-1.2l-2.4,1.9c0.7-0.5,1.3-1.1,1.8-1.7l-1.9,2.4c0.6-0.8,1.1-1.6,1.4-2.4l-1.2,2.8c0.3-0.9,0.6-1.8,0.7-2.8
					l-0.4,3.2c0.2-1.4,0.2-2.9,0-4.3l0.4,3.2c-0.3-1.8-0.8-3.5-1.5-5.1l1.2,2.8c-0.7-1.6-1.5-3-2.5-4.4l1.9,2.4
					c-0.6-0.8-1.3-1.6-2.1-2.3c-4.6-4.6-4.6-12.1,0-16.8C78.9,833.9,86.3,833.9,91,838.4"/>
			</g>
			<g id="Gruppe_200" transform="translate(0.635 43.835)">
				<path id="Pfad_188" class="st1" d="M99.1,718c0.6,2.5,1,4.9,1.4,7.4c0.5,3.4,0.4,6.8-0.1,10.2c-0.4,2.7-1.3,5.4-2.8,7.7
					c-1.8,2.9-4.2,5.3-7,7.2c-0.6,0.4-1.3,0.8-1.9,1.1c-1.5,0.8-3.1,1.3-4.7,1.7c-3.8,0.8-7.7,0.5-11.3-1c-3.1-1.3-5.9-3.5-7.9-6.2
					c-1.7-2.4-3.1-5-4.1-7.8c-1.6-4.3-2.6-8.8-3.1-13.3c-0.3-2.8-0.1-5.7,0.6-8.5c0.9-3.3,2.5-6.4,4.8-9c3.5-3.9,8.2-6.3,13.4-6.9
					c2.9-0.4,5.8-0.3,8.6,0.4c2.3,0.5,4.4,1.5,6.4,2.8c2.8,1.9,5.2,4.4,6.8,7.4c1.6,3.1,2.5,6.5,2.6,9.9c0,1.8-0.1,3.6-0.5,5.4
					c-0.1,0.8-0.3,1.6-0.6,2.3c-1.1,3.3-2.9,6.3-5.4,8.7c-2.3,2.2-5.3,3.4-8.4,3.5c-3.1,0-6.1-1.2-8.4-3.4c-2.2-2.2-3.4-5.3-3.4-8.4
					c0-3.1,1.2-6.1,3.4-8.4c0.3-0.3,0.6-0.7,0.9-1.1l-1.9,2.4c0.5-0.6,0.9-1.3,1.2-2l-1.2,2.8c0.4-1,0.7-2,0.8-3l-0.4,3.2
					c0.1-0.9,0.1-1.8,0-2.8c0.1,1.1,0.3,2.1,0.4,3.2c-0.1-0.9-0.3-1.8-0.7-2.6L78,724c-0.4-0.8-0.8-1.6-1.4-2.3l1.9,2.4
					c-0.4-0.5-0.9-1-1.5-1.4l2.4,1.9c-0.6-0.5-1.3-0.9-2.1-1.2l2.8,1.2c-0.7-0.3-1.5-0.5-2.3-0.6l3.2,0.4c-1-0.1-2.1-0.1-3.1,0
					l3.2-0.4c-0.9,0.1-1.8,0.4-2.7,0.7l2.8-1.2c-0.8,0.4-1.6,0.8-2.4,1.4l2.4-1.9c-0.6,0.5-1.2,1.1-1.7,1.7l1.9-2.4
					c-0.4,0.6-0.8,1.3-1.1,2l1.2-2.8c-0.4,1-0.6,1.9-0.7,3l0.4-3.2c-0.2,1.5-0.2,3,0,4.5l-0.4-3.1c0.5,3.6,1.5,7.1,2.9,10.5
					l-1.2-2.8c0.5,1.1,1,2.1,1.7,3l-1.9-2.4c0.5,0.6,1,1.1,1.5,1.6l-2.4-1.9c0.5,0.4,1,0.7,1.6,0.9l-2.8-1.3
					c0.5,0.2,1.1,0.4,1.7,0.5l-3.1-0.5c0.5,0,1,0,1.4,0l-3.2,0.4c0.7-0.1,1.4-0.2,2.1-0.4l-2.8,1.2c0.8-0.3,1.6-0.8,2.3-1.3
					l-2.4,1.8c0.7-0.6,1.3-1.2,1.9-1.9l-1.9,2.4c0.5-0.7,1-1.5,1.4-2.3l-1.2,2.8c0.5-1.2,0.8-2.4,1-3.6l-0.4,3.2
					c0.2-1.8,0.1-3.6-0.1-5.4c0.1,1.1,0.3,2.1,0.4,3.2c-0.3-2-0.7-3.9-1.1-5.9c-0.8-3.1-0.4-6.4,1.2-9.1c1.6-2.6,4.1-4.6,7-5.4
					c3.1-0.8,6.4-0.4,9.1,1.2C96.3,712.5,98.2,715.1,99.1,718"/>
			</g>
			<g id="Gruppe_201" transform="translate(0.826 37.011)">
				<path id="Pfad_189" class="st1" d="M99.4,611.6c1.9,5.6,2.4,11.6,1.5,17.5c-1.2,5.6-4.7,10.5-9.7,13.5
					c-5.6,3.2-12.5,3.3-18.2,0.2c-3.8-2.2-6.9-5.5-8.7-9.5c-3.7-7.6-4.7-16.3-2.9-24.6c0.9-4.4,3.1-8.5,6.3-11.7
					c2.2-2.1,4.9-3.7,7.8-4.7c3.2-1,6.7-1.2,10-0.5c6.9,1.4,12.5,6.5,14.7,13.2c2.1,6.9,0.2,14.4-4.8,19.6c-4.6,4.6-12.1,4.6-16.8,0
					c-4.5-4.7-4.5-12.1,0-16.8c0.2-0.2,0.3-0.4,0.5-0.6l-1.9,2.4c0.4-0.6,0.8-1.2,1-1.8l-1.2,2.8c0.2-0.7,0.4-1.3,0.5-2
					c-0.1,1.1-0.3,2.1-0.4,3.2c0.1-0.7,0.1-1.4,0-2.1l0.4,3.2c-0.1-0.7-0.3-1.3-0.5-2l1.2,2.8c-0.2-0.5-0.5-1-0.8-1.4l1.9,2.4
					c-0.4-0.5-0.9-1-1.4-1.4l2.4,1.9c-0.5-0.4-1.1-0.7-1.7-1l2.8,1.2c-0.8-0.3-1.5-0.5-2.4-0.7l3.2,0.4c-0.7-0.1-1.3-0.1-2,0
					l3.2-0.4c-0.6,0.1-1.3,0.3-1.9,0.5l2.8-1.2c-0.7,0.3-1.3,0.7-1.9,1.1l2.4-1.9c-0.5,0.5-1,1-1.5,1.5l1.9-2.4
					c-0.6,0.8-1,1.6-1.4,2.5l1.2-2.8c-0.6,1.4-0.9,2.9-1.1,4.5l0.4-3.2c-0.3,2.3-0.3,4.6,0,7c-0.1-1.1-0.2-2.1-0.4-3.1
					c0.3,2,0.8,4,1.5,5.9l-1.2-2.8c0.5,1.3,1.2,2.4,2,3.5l-1.9-2.4c0.5,0.7,1.2,1.4,1.9,2l-2.4-1.9c0.5,0.4,1.1,0.7,1.7,1l-2.8-1.2
					c0.5,0.2,1,0.3,1.5,0.4l-3.2-0.4c0.6,0.1,1.1,0.1,1.7,0l-3.1,0.4c0.5-0.1,1-0.2,1.5-0.4l-2.8,1.2c0.6-0.3,1.2-0.6,1.7-1
					l-2.4,1.9c0.5-0.4,1-0.9,1.4-1.5l-1.8,2.4c0.5-0.7,0.9-1.4,1.3-2.2l-1.2,2.8c0.4-0.9,0.6-1.9,0.8-2.8l-0.4,3.2
					c0.1-1.3,0.1-2.6,0-3.9l0.4,3.2c-0.4-2.2-1-4.5-1.7-6.6c-1.7-6.3,2-12.8,8.3-14.6C91.1,601.7,97.5,605.4,99.4,611.6"/>
			</g>
			<g id="Gruppe_202" transform="translate(0 66.658)">
				<path id="Pfad_190" class="st1" d="M86.4,1096.1c-0.2,0.2-0.4,0.4-0.5,0.6l1.9-2.4c-0.6,0.9-1.2,1.8-1.6,2.8l1.2-2.8
					c-1.5,3.8-2.2,7.7-4,11.4c-2.5,5.1-7,8.9-12.4,10.6c-3.1,0.9-6.4,0.9-9.5,0c-4-1.4-7.4-4.1-9.6-7.6c-1.3-2.1-2.3-4.4-3.1-6.8
					c-0.7-2.5-1.2-5.1-1.4-7.8c-0.4-4.3,0.2-8.6,1.7-12.6c1.7-5.5,5.3-10.3,10.1-13.6c9.9-5.4,22.3-1.8,27.7,8.1
					c0.1,0.3,0.3,0.5,0.4,0.8c2.8,5.6,3.5,12.1,1.8,18.1c-1.4,4.8-3.5,9.3-6.2,13.5c-1.6,2.6-4.1,4.6-7.1,5.5
					c-3.1,0.8-6.4,0.4-9.1-1.2c-5.6-3.4-7.5-10.6-4.3-16.2c1.4-2.2,2.6-4.5,3.7-6.8l-1.2,2.8c0.8-1.9,1.4-3.9,1.7-5.9l-0.4,3.2
					c0.1-1.2,0.1-2.4,0-3.7l0.4,3.2c-0.1-0.9-0.4-1.7-0.7-2.5l1.2,2.8c-0.4-0.9-0.9-1.8-1.5-2.6l1.9,2.4c-0.6-0.8-1.3-1.5-2.1-2.1
					l2.4,1.9c-0.6-0.4-1.2-0.8-1.9-1.1l2.8,1.2c-0.7-0.3-1.3-0.5-2-0.6l3.2,0.4c-0.6-0.1-1.1-0.1-1.7,0l3.2-0.4
					c-0.6,0.1-1.2,0.3-1.7,0.5l2.8-1.2c-0.5,0.2-1,0.5-1.4,0.8l2.4-1.9c-0.8,0.6-1.4,1.3-2,2.1l1.9-2.4c-0.8,1.1-1.4,2.2-1.9,3.4
					l1.2-2.8c-0.8,1.8-1.3,3.7-1.5,5.6l0.4-3.2c-0.2,1.8-0.2,3.6,0,5.4l-0.5-3.2c0.3,1.9,0.8,3.8,1.5,5.6c-0.4-1-0.8-1.9-1.2-2.8
					c0.4,0.9,0.9,1.8,1.5,2.6l-1.9-2.4c0.4,0.4,0.8,0.8,1.2,1.2l-2.4-1.9c0.3,0.2,0.7,0.4,1.1,0.6l-2.8-1.2c0.3,0.1,0.7,0.2,1.1,0.3
					l-3.2-0.4c0.4,0,0.7,0,1.1,0l-3.2,0.4c0.5-0.1,1-0.2,1.4-0.4l-2.8,1.2c0.6-0.2,1.2-0.6,1.7-0.9l-2.4,1.9c0.7-0.6,1.4-1.3,2-2
					l-1.9,2.4c0.6-0.7,1.1-1.5,1.4-2.4l-1.2,2.8c0.8-2.1,1.3-4.3,2-6.5c1.2-3.8,3.2-7.4,5.9-10.3c4.6-4.6,12.1-4.6,16.8,0
					C91,1084,91,1091.4,86.4,1096.1"/>
			</g>
			<g id="Gruppe_203" transform="translate(18.39 46.248)">
				<path id="Pfad_191" class="st1" d="M346.6,781c-2.3-2.5-4-5.6-4.8-9c-0.7-3.5-0.7-7.1,0.1-10.6c1.6-6.1,5.4-11.4,10.7-14.9
					c4-2.7,8.3-4.8,12.9-6.2c3.7-1.4,7.7-1.7,11.5-0.7c4,1.3,7.5,3.9,9.7,7.6c2.3,4.1,3.7,8.5,4.3,13.1c1.4,6,1.4,12.2,0,18.1
					c-1.7,5.8-5.4,10.7-10.4,13.9c-4.9,3.1-10.8,4.2-16.5,3.1c-7-1.6-12.5-6.8-14.4-13.7c-1-4.8-1.5-9.6-1.6-14.5l0.4,3.2
					c-0.2-1.2-0.4-2.3-0.8-3.4l1.2,2.8l-0.2-0.4c-1.5-2.8-1.9-6-1.2-9.1c0.8-3,2.8-5.5,5.5-7.1c2.8-1.6,6.1-2,9.1-1.2
					c3,0.8,5.6,2.7,7.1,5.5c0.9,1.8,1.6,3.8,2.1,5.7c0.4,2,0.6,4,0.7,6c0.1,2.3,0,4.6,0.3,6.8l-0.4-3c0.1,1.1,0.4,2.2,0.8,3.2
					l-1.2-2.8c0.3,0.6,0.6,1.2,1,1.8l-1.9-2.4c0.4,0.5,0.8,1,1.3,1.4l-2.4-1.9c0.5,0.4,1,0.7,1.5,0.9l-2.8-1.2
					c0.6,0.3,1.3,0.4,2,0.5l-3.1-0.4c0.8,0.1,1.7,0.1,2.5,0l-3.2,0.4c1-0.2,1.9-0.4,2.9-0.8l-2.8,1.2c0.9-0.4,1.8-1,2.6-1.6
					l-2.4,1.9c0.8-0.6,1.6-1.3,2.2-2.1l-1.9,2.4c0.6-0.8,1.2-1.8,1.6-2.8l-1.2,2.8c0.5-1.3,0.9-2.7,1.1-4.1
					c-0.1,1.1-0.3,2.1-0.4,3.2c0.2-2.3,0.2-4.7-0.1-7c0.1,1.1,0.3,2.1,0.4,3.2c-0.4-3.7-1.3-7.2-2.5-10.7l1.2,2.8
					c-0.3-0.7-0.7-1.4-1.2-2.1l1.9,2.4c-0.3-0.4-0.7-0.8-1.1-1.1l2.4,1.9c-0.3-0.2-0.6-0.4-1-0.6l2.8,1.2c-0.4-0.2-0.8-0.3-1.3-0.3
					l3.2,0.4c-0.4,0-0.7,0-1.1,0l3.2-0.4c-2.2,0.4-4.4,1.2-6.4,2.1l2.8-1.2c-2.4,1-4.7,2.2-6.8,3.8l2.4-1.9c-1,0.8-1.9,1.7-2.8,2.7
					l1.9-2.4c-0.7,0.9-1.3,1.9-1.7,3l1.2-2.8c-0.4,0.9-0.6,1.9-0.8,2.9l0.4-3.2c-0.1,1-0.1,2,0,3l-0.6-3.2c0.1,0.7,0.3,1.4,0.5,2
					l-1.2-2.8c0.3,0.6,0.6,1.3,1.1,1.8l-1.9-2.4l0.3,0.3c2.1,2.3,3.3,5.3,3.4,8.4c0,3.1-1.2,6.1-3.4,8.4c-2.2,2.2-5.3,3.4-8.4,3.4
					C351.8,784.4,348.8,783.2,346.6,781"/>
			</g>
			<g id="Gruppe_204" transform="translate(18.39 37.768)">
				<path id="Pfad_192" class="st1" d="M346.6,645.4c-2.3-2.5-4-5.6-4.8-9c-0.7-3.5-0.7-7.1,0.1-10.6c1.6-6.1,5.4-11.4,10.7-14.9
					c4-2.7,8.3-4.8,12.9-6.2c3.7-1.4,7.7-1.7,11.5-0.7c4,1.3,7.5,3.9,9.7,7.6c2.3,4.1,3.7,8.5,4.3,13.1c1.4,6,1.4,12.2,0,18.1
					c-1.7,5.8-5.4,10.7-10.4,13.9c-4.9,3.1-10.8,4.2-16.5,3.1c-7-1.6-12.5-6.8-14.4-13.7c-1-4.8-1.5-9.6-1.6-14.4l0.4,3.2
					c-0.2-1.2-0.4-2.3-0.8-3.4l1.2,2.8l-0.2-0.4c-1.5-2.8-1.9-6-1.2-9.1c0.8-3,2.8-5.5,5.5-7.1c2.8-1.6,6.1-2,9.1-1.2
					c3,0.8,5.6,2.7,7.1,5.5c0.9,1.8,1.6,3.8,2.1,5.7c0.4,2,0.6,4,0.7,6c0.1,2.3,0,4.6,0.3,6.8l-0.4-3c0.1,1.1,0.4,2.2,0.8,3.2
					l-1.2-2.8c0.3,0.6,0.6,1.2,1,1.8l-1.9-2.4c0.4,0.5,0.8,1,1.3,1.4l-2.4-1.9c0.5,0.4,1,0.7,1.5,0.9l-2.8-1.2
					c0.6,0.3,1.3,0.4,2,0.5l-3.1-0.4c0.8,0.1,1.7,0.1,2.5,0l-3.2,0.4c1-0.2,1.9-0.4,2.9-0.8l-2.8,1.2c0.9-0.4,1.8-1,2.6-1.6
					l-2.4,1.9c0.8-0.6,1.6-1.3,2.2-2.1l-1.9,2.4c0.6-0.8,1.2-1.8,1.6-2.8l-1.2,2.8c0.5-1.3,0.9-2.7,1.1-4.1
					c-0.1,1.1-0.3,2.1-0.4,3.2c0.2-2.3,0.2-4.7-0.1-7c0.1,1.1,0.3,2.1,0.4,3.2c-0.4-3.7-1.3-7.2-2.5-10.7l1.2,2.8
					c-0.3-0.7-0.7-1.4-1.2-2.1l1.9,2.4c-0.3-0.4-0.7-0.8-1.1-1.1l2.4,1.9c-0.3-0.2-0.6-0.4-1-0.6l2.8,1.2c-0.4-0.2-0.8-0.3-1.3-0.3
					l3.2,0.4c-0.4,0-0.7,0-1.1,0l3.2-0.4c-2.2,0.4-4.4,1.2-6.4,2.1l2.8-1.2c-2.4,1-4.7,2.3-6.8,3.8l2.4-1.9c-1,0.8-1.9,1.7-2.8,2.7
					l1.9-2.4c-0.7,0.9-1.3,1.9-1.7,3l1.2-2.8c-0.4,0.9-0.6,1.9-0.8,2.9l0.4-3.2c-0.1,1-0.1,2,0,3l-0.6-3.2c0.1,0.7,0.3,1.4,0.5,2
					l-1.2-2.8c0.3,0.6,0.6,1.3,1.1,1.8l-1.9-2.4l0.3,0.3c2.1,2.3,3.3,5.3,3.4,8.4c0,3.1-1.2,6.1-3.4,8.4c-2.2,2.2-5.3,3.4-8.4,3.4
					C351.8,648.9,348.8,647.7,346.6,645.4"/>
			</g>
			<g id="Gruppe_205" transform="translate(18.026 53.147)">
				<path id="Pfad_193" class="st1" d="M337.7,876.7c-3.3-5.8-3.1-12.9,0.6-18.4c1.7-2.7,4.1-5,7-6.6c3-1.6,6.4-2.5,9.8-2.3
					c6.3,0.4,12.2,3.2,16.5,7.8c3.6,3.8,6.1,8.4,7.3,13.4c0.6,2.6,0.9,5.2,0.7,7.8c-0.3,3.5-1.2,6.9-2.8,10.1
					c-1,2.2-2.5,4.1-4.2,5.7c-1.6,1.6-3.5,3-5.6,4.1c-5,2.6-10.9,3.3-16.4,2c-3.1-0.9-5.9-2.5-8.3-4.6c-0.7-0.7-1.4-1.5-2-2.3
					c-0.7-0.8-1.3-1.8-1.8-2.7c-1.5-2.9-2.3-6.1-2.3-9.4c0-1.6,0.2-3.2,0.5-4.8c0.1-0.7,0.3-1.4,0.5-2c1-3,2.7-5.7,4.9-8
					c2.3-2.3,5.2-3.8,8.3-4.6c3.1-0.8,6.3-0.3,9.1,1.2c2.7,1.6,4.6,4.1,5.5,7.1c0.8,3.1,0.4,6.4-1.2,9.2c-1.6,2.7-4.1,4.6-7.1,5.5
					c-0.4,0.1-0.9,0.2-1.3,0.4l2.8-1.2c-0.5,0.2-0.9,0.5-1.4,0.8l2.4-1.9c-0.4,0.3-0.8,0.7-1.1,1.1l1.9-2.4
					c-0.4,0.6-0.8,1.2-1.1,1.9l1.2-2.8c-0.3,0.8-0.5,1.6-0.6,2.4l0.4-3.2c-0.1,0.8-0.1,1.7,0,2.5c-0.2-1.1-0.3-2.1-0.4-3.2
					c0.1,0.7,0.3,1.4,0.6,2.1l-1.2-2.8c0.2,0.6,0.6,1.2,1,1.7l-1.9-2.4c0.3,0.4,0.7,0.8,1.2,1.2l-2.4-1.9c0.6,0.5,1.2,0.8,1.9,1.1
					L356,877c0.7,0.3,1.4,0.5,2.1,0.6l-3.2-0.4c1,0.1,1.9,0.1,2.9,0l-3.2,0.4c1-0.1,1.9-0.4,2.8-0.8l-2.8,1.2c1-0.4,2-1,2.9-1.7
					l-2.4,1.9c0.7-0.6,1.3-1.2,1.9-1.9l-1.9,2.4c0.5-0.7,1-1.6,1.4-2.4l-1.2,2.8c0.4-1.1,0.8-2.2,0.9-3.4c-0.1,1.1-0.2,2.1-0.4,3.2
					c0.2-1.3,0.2-2.6,0-3.9l0.4,3.2c-0.2-1.6-0.6-3.1-1.3-4.6l1.2,2.8c-0.6-1.5-1.4-2.8-2.4-4.1l1.9,2.4c-0.8-1-1.6-1.9-2.5-2.6
					l2.4,1.9c-1-0.8-2.1-1.4-3.3-1.9l2.8,1.2c-0.9-0.4-1.8-0.6-2.7-0.7l3.2,0.4c-0.7-0.1-1.3-0.1-2,0l3.2-0.4
					c-0.6,0.1-1.1,0.2-1.7,0.4l2.8-1.2c-0.6,0.3-1.2,0.6-1.7,1l2.4-1.9c-0.5,0.4-1,0.9-1.4,1.4l1.9-2.4c-0.4,0.5-0.7,1.1-1,1.7
					l1.2-2.8c-0.2,0.6-0.4,1.2-0.5,1.8c0.1-1.1,0.3-2.1,0.4-3.2c0,0.4,0,0.8,0,1.2l-0.4-3.2c0.1,0.5,0.2,1,0.4,1.5l-1.2-2.8
					c0.1,0.2,0.2,0.4,0.3,0.6c1.6,2.8,2,6.1,1.2,9.1c-0.8,3-2.8,5.5-5.5,7.1C348.2,884.1,341,882.2,337.7,876.7"/>
			</g>
			<g id="Gruppe_206" transform="translate(18.442 60.222)">
				<path id="Pfad_194" class="st1" d="M343.9,1000.4c-1.4-5.1-2-10.3-1.7-15.6c0.4-6.2,3-12,7.3-16.4c2.3-2.2,5.1-4,8.1-5.1
					c3.4-1.2,7-1.4,10.5-0.6c5,1.1,9.4,3.9,12.4,8.1c5.8,8.1,7.8,18.4,5.5,28.2c-1.1,5.2-3.9,10-7.9,13.5c-5.2,4.6-12.2,6.5-19,5.3
					c-6.7-1.5-12.1-6.4-14.2-12.9c-2.3-6.5-0.7-13.7,4.1-18.7c4.7-4.6,12.1-4.6,16.8,0c4.5,4.7,4.5,12.1,0,16.8
					c-0.2,0.2-0.4,0.4-0.5,0.6l1.9-2.4c-0.3,0.4-0.5,0.8-0.7,1.3l1.2-2.8c-0.2,0.5-0.3,0.9-0.4,1.4c0.1-1.1,0.3-2.1,0.4-3.2
					c-0.1,0.6-0.1,1.2,0,1.8l-0.4-3.2c0.1,0.7,0.3,1.5,0.6,2.2l-1.2-2.8c0.3,0.7,0.7,1.3,1.2,2l-1.9-2.4c0.4,0.5,0.8,0.9,1.3,1.3
					l-2.4-1.9c0.4,0.3,0.8,0.5,1.3,0.8l-2.8-1.2c0.7,0.3,1.4,0.5,2.1,0.6l-3.2-0.4c0.7,0.1,1.5,0.1,2.2,0l-3.1,0.4
					c0.9-0.1,1.7-0.4,2.6-0.7l-2.8,1.2c1-0.4,1.9-0.9,2.8-1.6l-2.4,1.9c0.8-0.7,1.6-1.4,2.3-2.3l-1.9,2.4c0.7-0.9,1.2-2,1.7-3
					l-1.3,2.8c0.6-1.4,0.9-2.9,1.1-4.5c-0.1,1.1-0.3,2.1-0.4,3.1c0.3-2.3,0.3-4.5,0-6.8l0.4,3.2c-0.3-2-0.8-3.9-1.6-5.8l1.2,2.8
					c-0.6-1.3-1.3-2.5-2.1-3.7l1.9,2.4c-0.6-0.7-1.2-1.4-2-2l2.4,1.9c-0.6-0.5-1.3-0.9-2-1.2l2.8,1.2c-0.7-0.3-1.5-0.5-2.3-0.6
					l3.2,0.4c-0.7-0.1-1.4-0.1-2.1,0l3.2-0.4c-0.7,0.1-1.4,0.3-2.1,0.6l2.8-1.2c-0.6,0.3-1.2,0.7-1.8,1.2l2.4-1.9
					c-0.8,0.6-1.6,1.4-2.2,2.2l1.9-2.4c-0.7,0.9-1.2,1.8-1.7,2.8l1.2-2.8c-0.5,1.2-0.9,2.6-1,3.9c0.1-1.1,0.3-2.1,0.4-3.2
					c-0.2,2.2-0.2,4.4,0.2,6.5l-0.4-3.2c0.3,2,0.7,4,1.2,5.9c0.8,3.1,0.4,6.4-1.2,9.1c-1.6,2.7-4.1,4.6-7.1,5.5
					C352.1,1010.3,345.6,1006.6,343.9,1000.4"/>
			</g>
			<g id="Gruppe_207" transform="translate(18.302 67.404)">
				<path id="Pfad_195" class="st1" d="M344.7,1110.7c-2-2.2-3.5-4.9-4.3-7.8c-0.7-3-0.8-6.1-0.1-9.1c0.9-4.1,2.9-7.8,5.8-10.7
					c7.2-7.1,18.6-8.1,26.9-2.2c2.2,1.5,4.2,3.4,5.9,5.6c1.7,2.2,3.1,4.7,4.1,7.3c1.6,4.8,1.9,10,0.9,14.9
					c-0.8,4.3-2.4,8.4-4.8,12.1c-2.7,5.2-7.2,9.1-12.6,11.1c-6.8,1.8-14-0.5-18.5-5.8c-2.3-2.6-3.9-5.7-4.8-9.1
					c-0.7-2.8-1.1-5.7-1.3-8.6c0-3.1,1.2-6.1,3.4-8.4c2.2-2.2,5.3-3.4,8.4-3.4c3.1,0,6.1,1.2,8.4,3.4c2.1,2.3,3.3,5.3,3.4,8.4
					c0,0.9,0.2,1.7,0.3,2.6c0.1-1.1-0.1-2.1-0.2-3.2c0.2,1.6,0.6,3.1,1.1,4.6l-1.2-2.8c0.3,0.8,0.7,1.5,1.2,2.1l-1.9-2.4
					c0.5,0.6,1,1.1,1.6,1.6l-2.4-1.9c0.5,0.3,1,0.6,1.5,0.9l-2.8-1.2c0.5,0.2,1.1,0.4,1.7,0.5l-3.2-0.4c0.4,0,0.9,0,1.3,0l-3.2,0.4
					c0.4-0.1,0.8-0.2,1.3-0.4l-2.8,1.2c0.4-0.2,0.8-0.4,1.2-0.7l-2.4,1.9c0.7-0.6,1.4-1.3,2-2l-1.8,2.5c1.6-2.1,3-4.5,4-7l-1.2,2.8
					c0.7-1.8,1.3-3.7,1.6-5.7l-0.5,3.2c0.2-1.6,0.2-3.2,0-4.8c0.1,1.1,0.3,2.1,0.4,3.2c-0.2-1.2-0.5-2.4-1-3.5l1.2,2.8
					c-0.5-1.1-1.1-2.1-1.8-3.1l1.9,2.4c-0.8-0.9-1.6-1.8-2.5-2.5l2.4,1.9c-0.8-0.6-1.7-1.2-2.6-1.6l2.8,1.2
					c-0.8-0.3-1.6-0.5-2.4-0.6l3.2,0.4c-0.8-0.1-1.7-0.1-2.5,0l3.2-0.4c-0.6,0.1-1.1,0.3-1.7,0.5l2.8-1.2c-0.7,0.3-1.3,0.7-1.9,1.1
					l2.4-1.9c-0.7,0.5-1.4,1.1-2,1.8l1.9-2.4c-0.5,0.7-1,1.4-1.3,2.2l1.2-2.8c-0.3,0.8-0.6,1.6-0.7,2.4l0.4-3.2
					c-0.1,0.7-0.1,1.4,0,2.1l-0.5-3.2c0.1,0.6,0.2,1.2,0.5,1.7l-1.2-2.9c0.2,0.4,0.4,0.8,0.7,1.2l-1.9-2.3l0.2,0.3
					c2.1,2.3,3.3,5.3,3.4,8.4c0,3.1-1.2,6.1-3.4,8.4c-2.2,2.2-5.3,3.4-8.4,3.4C349.9,1114.2,346.9,1113,344.7,1110.7"/>
			</g>
			<g id="Gruppe_208" transform="translate(26.8 46.749)">
				<path id="Pfad_196" class="st1" d="M475.8,777.1c-0.5-4.7-0.2-9.4,1-14c1.6-5.6,5.3-10.4,10.3-13.4c5.7-3.4,12.8-3.5,18.7-0.4
					c4.5,2.7,7.9,6.9,9.4,12c0.5,1.6,0.9,3.3,1,5c0.3,1.8,0.4,3.7,0.4,5.5c0,5.3-1.2,10.5-3.4,15.3c-4.7,10.1-16.6,14.5-26.7,9.9
					c-0.7-0.3-1.3-0.7-1.9-1c-2.6-1.7-4.8-4.1-6.3-6.9c-1-2-1.8-4.1-2.2-6.4c-0.7-4.9-0.6-10,0.4-14.8c0.8-3,2.8-5.5,5.5-7.1
					c2.8-1.6,6.1-2,9.1-1.2c3,0.8,5.5,2.8,7.1,5.5c1.5,2.8,1.9,6,1.2,9.1c-0.1,0.6-0.2,1.2-0.3,1.7l0.4-3.2
					c-0.3,2.3-0.3,4.5-0.1,6.8l-0.4-3.2c0.2,1.1,0.4,2.2,0.8,3.2l-1.2-2.8c0.3,0.7,0.6,1.4,1.1,2l-1.9-2.4c0.3,0.4,0.7,0.8,1.1,1.1
					l-2.4-1.9c0.5,0.4,1.1,0.7,1.7,1l-2.8-1.2c0.5,0.2,1,0.3,1.5,0.4l-3.2-0.4c0.6,0.1,1.3,0.1,1.9,0l-3.2,0.4
					c0.6-0.1,1.3-0.3,1.9-0.5l-2.8,1.2c0.9-0.4,1.7-0.9,2.4-1.4l-2.4,1.9c0.6-0.5,1.2-1.1,1.7-1.7l-1.9,2.4c0.6-0.9,1.2-1.9,1.6-2.9
					l-1.2,2.8c0.6-1.6,1-3.3,1.2-5l-0.4,3.2c0.4-2.6,0.4-5.2,0.1-7.8l0.4,3.2c-0.2-1.4-0.5-2.8-1-4.1l1.2,2.8
					c-0.3-0.8-0.8-1.6-1.3-2.3l1.9,2.4c-0.4-0.5-0.8-0.9-1.3-1.3l2.4,1.9c-0.4-0.3-0.9-0.6-1.4-0.8l2.8,1.2
					c-0.5-0.2-1.1-0.4-1.7-0.5l3.2,0.4c-0.6-0.1-1.3-0.1-1.9,0l3.2-0.4c-0.6,0.1-1.3,0.3-1.9,0.5l2.8-1.2c-0.7,0.3-1.4,0.8-2,1.2
					l2.4-1.9c-0.6,0.5-1.2,1.1-1.7,1.7l1.8-2.3c-0.6,0.8-1.1,1.6-1.5,2.4l1.2-2.8c-0.5,1.4-0.9,2.8-1.1,4.3c0.1-1.1,0.3-2.1,0.4-3.2
					c-0.2,2.6-0.2,5.3,0,7.9c0,3.1-1.2,6.1-3.4,8.4c-2.2,2.2-5.3,3.4-8.4,3.4c-3.1,0-6.1-1.3-8.3-3.5c-2.1-2.3-3.3-5.3-3.4-8.4"/>
			</g>
			<g id="Gruppe_209" transform="translate(26.723 53.376)">
				<path id="Pfad_197" class="st1" d="M485.4,898.4c-9.7-8.8-12.3-23-6.5-34.7c4.2-6.8,11.7-10.9,19.7-10.7
					c7.5,0.2,14.6,3.6,19.4,9.4c4.8,6.1,7.6,13.6,7.9,21.4c0.5,6.9-1,13.7-4.4,19.7c-3.6,6.4-9.7,11-16.9,12.6
					c-7.9,1.9-16.2-0.4-22-6c-5.2-6.1-8.1-13.8-8.3-21.8c-0.8-8.4,3.3-16.5,10.4-21c5.7-3.2,12.9-1.3,16.2,4.3
					c3.2,5.7,1.3,12.9-4.3,16.2c-0.4,0.2-0.7,0.4-1.1,0.6l2.4-1.7c-0.5,0.5-1,1-1.5,1.5l1.9-2.4c-0.4,0.6-0.8,1.2-1,1.9l1.2-2.8
					c-0.4,1-0.6,2-0.8,3l0.4-3.2c-0.2,1.9-0.2,3.8,0,5.6l-0.4-3.2c0.4,2.5,1.1,5,2,7.3l-1.2-2.9c0.5,1.2,1.1,2.3,1.9,3.4l-1.9-2.4
					c0.5,0.7,1.2,1.3,1.8,1.9l-2.4-1.9c0.7,0.6,1.6,1,2.4,1.4l-2.8-1.2c0.9,0.4,1.8,0.6,2.7,0.8l-3.2-0.5c1.1,0.1,2.2,0.1,3.3,0
					l-3.2,0.5c1.3-0.2,2.5-0.5,3.7-1l-2.8,1.2c1.2-0.5,2.3-1.2,3.4-1.9l-2.5,1.7c0.9-0.8,1.8-1.6,2.5-2.6l-1.9,2.4
					c0.9-1.2,1.6-2.4,2.2-3.7l-1.1,2.9c0.7-1.9,1.3-3.8,1.5-5.8c-0.1,1.1-0.3,2.1-0.4,3.2c0.3-2.6,0.3-5.1,0-7.7
					c0.1,1.1,0.3,2.1,0.4,3.2c-0.3-2.4-0.9-4.8-1.8-7l1.2,2.8c-0.6-1.5-1.5-2.9-2.4-4.3l1.9,2.4c-0.9-1.1-1.9-2.2-3-3.1l2.4,1.9
					c-1-0.7-2-1.2-3.1-1.7l2.8,1.2c-1.1-0.4-2.2-0.8-3.4-1l3.2,0.4c-1.2-0.1-2.3-0.1-3.5,0l3.1-0.5c-1,0.1-1.9,0.4-2.9,0.8l2.8-1.2
					c-0.7,0.3-1.4,0.7-2.1,1.2l2.4-1.9c-0.7,0.5-1.3,1.1-1.8,1.7l1.9-2.3c-0.6,0.8-1.1,1.6-1.4,2.4l1.2-2.8
					c-0.3,0.9-0.6,1.8-0.7,2.8l0.4-3.1c-0.2,1.4-0.2,2.8,0,4.3l-0.4-3.1c0.3,1.8,0.8,3.5,1.5,5.1l-1.2-2.8c0.7,1.5,1.5,3,2.5,4.3
					l-1.9-2.3c0.6,0.8,1.3,1.6,2.1,2.3c4.6,4.6,4.6,12.1,0,16.8C497.5,902.9,490.1,902.9,485.4,898.4"/>
			</g>
			<g id="Gruppe_210" transform="translate(27.448 38.748)">
				<path id="Pfad_198" class="st1" d="M489.4,640c0.2-0.2,0.4-0.4,0.5-0.6l-1.9,2.4c0.6-0.9,1.2-1.8,1.6-2.8l-1.2,2.8
					c1.5-3.8,2.2-7.7,4-11.4c2.5-5.1,7-8.9,12.4-10.6c3.1-0.9,6.4-0.9,9.5,0c4,1.4,7.4,4,9.6,7.6c1.3,2.1,2.3,4.4,3.1,6.8
					c0.7,2.5,1.2,5.1,1.4,7.8c0.4,4.3-0.2,8.6-1.7,12.6c-1.7,5.5-5.3,10.3-10.1,13.6c-9.9,5.4-22.3,1.8-27.7-8.1
					c-0.1-0.3-0.3-0.5-0.4-0.8c-2.8-5.6-3.5-12.1-1.8-18.1c1.4-4.8,3.5-9.3,6.2-13.5c1.6-2.6,4.1-4.6,7.1-5.5
					c3.1-0.8,6.4-0.4,9.1,1.2c5.6,3.4,7.5,10.6,4.3,16.2c-1.4,2.2-2.6,4.5-3.7,6.8l1.2-2.8c-0.8,1.9-1.4,3.9-1.7,5.9l0.4-3.2
					c-0.1,1.2-0.1,2.4,0,3.7l-0.4-3.1c0.1,0.9,0.4,1.7,0.7,2.5l-1.2-2.8c0.4,0.9,0.9,1.8,1.5,2.6l-1.9-2.4c0.6,0.8,1.3,1.5,2.1,2.1
					l-2.4-1.9c0.6,0.4,1.2,0.8,1.9,1.1l-2.8-1.2c0.7,0.3,1.3,0.5,2,0.6l-3.2-0.4c0.6,0.1,1.1,0.1,1.7,0l-3.1,0.4
					c0.6-0.1,1.2-0.3,1.7-0.5l-2.8,1.2c0.5-0.2,1-0.5,1.5-0.8l-2.4,1.9c0.8-0.6,1.4-1.3,2-2.1l-1.9,2.4c0.8-1.1,1.4-2.2,1.9-3.4
					l-1.2,2.9c0.7-1.8,1.3-3.7,1.5-5.6l-0.4,3.2c0.2-1.8,0.2-3.6,0-5.4l0.4,3.1c-0.3-1.9-0.8-3.8-1.5-5.6l1.2,2.8
					c-0.4-0.9-0.9-1.8-1.5-2.6l1.9,2.4c-0.4-0.4-0.8-0.8-1.2-1.2l2.4,1.9c-0.3-0.2-0.7-0.4-1.1-0.5l2.8,1.1
					c-0.4-0.1-0.7-0.2-1.1-0.2l3.2,0.4c-0.3,0-0.7,0-1,0l3.2-0.4c-0.5,0.1-1,0.2-1.5,0.4l2.8-1.2c-0.6,0.3-1.2,0.6-1.7,0.9l2.4-1.9
					c-0.7,0.6-1.4,1.2-2,2l1.8-2.4c-0.6,0.8-1.1,1.6-1.5,2.4l1.2-2.8c-0.8,2.1-1.3,4.3-2,6.5c-1.1,3.8-3.1,7.3-5.8,10.3
					c-4.6,4.6-12.1,4.6-16.8,0C484.9,652.1,484.9,644.7,489.4,640"/>
			</g>
			<g id="Gruppe_211" transform="translate(18.026 16.136)">
				<path id="Pfad_199" class="st1" d="M337.7,285.3c-3.3-5.8-3.1-12.9,0.6-18.4c1.7-2.7,4.1-5,7-6.6c3-1.6,6.4-2.5,9.8-2.3
					c6.3,0.4,12.2,3.2,16.5,7.8c3.6,3.8,6.1,8.4,7.3,13.4c0.6,2.6,0.9,5.2,0.7,7.8c-0.3,3.5-1.2,6.9-2.8,10.1
					c-1,2.2-2.5,4.1-4.2,5.7c-1.6,1.6-3.5,3-5.6,4.1c-5,2.6-10.9,3.3-16.4,2c-3.1-0.9-5.9-2.5-8.3-4.6c-0.7-0.7-1.4-1.5-2-2.3
					c-0.7-0.8-1.3-1.8-1.8-2.7c-1.5-2.9-2.3-6.1-2.3-9.4c0-1.6,0.2-3.2,0.5-4.8c0.1-0.7,0.3-1.4,0.5-2c1-3,2.7-5.7,4.9-8
					c2.3-2.3,5.2-3.8,8.3-4.6c3.1-0.8,6.3-0.3,9.1,1.2c2.7,1.6,4.6,4.1,5.5,7.1c0.8,3.1,0.4,6.4-1.2,9.2c-1.6,2.7-4.1,4.6-7.1,5.5
					c-0.4,0.1-0.9,0.2-1.3,0.4l2.8-1.2c-0.5,0.2-0.9,0.5-1.4,0.8l2.4-1.9c-0.4,0.3-0.8,0.7-1.1,1.1l1.9-2.4
					c-0.4,0.6-0.8,1.2-1.1,1.9l1.2-2.8c-0.3,0.8-0.5,1.6-0.6,2.4l0.4-3.2c-0.1,0.8-0.1,1.7,0,2.5c-0.2-1.1-0.3-2.1-0.4-3.2
					c0.1,0.7,0.3,1.4,0.6,2.1L359,287c0.2,0.6,0.6,1.2,1,1.7l-1.9-2.4c0.3,0.4,0.7,0.8,1.2,1.2l-2.4-1.9c0.6,0.5,1.2,0.8,1.9,1.1
					l-2.8-1.2c0.7,0.3,1.4,0.5,2.1,0.6l-3.2-0.4c1,0.1,1.9,0.1,2.9,0l-3.2,0.4c1-0.1,1.9-0.4,2.8-0.8l-2.8,1.2c1-0.4,2-1,2.9-1.7
					l-2.4,1.9c0.7-0.6,1.3-1.2,1.9-1.9l-1.9,2.4c0.5-0.7,1-1.6,1.4-2.4l-1.2,2.8c0.4-1.1,0.8-2.2,0.9-3.4c-0.1,1.1-0.2,2.1-0.4,3.2
					c0.2-1.3,0.2-2.6,0-3.9l0.4,3.2c-0.2-1.6-0.6-3.1-1.3-4.6l1.2,2.8c-0.6-1.5-1.4-2.8-2.4-4.1l1.9,2.4c-0.8-1-1.6-1.9-2.5-2.6
					l2.4,1.9c-1-0.8-2.1-1.4-3.3-1.9l2.8,1.2c-0.9-0.4-1.8-0.6-2.7-0.7l3.2,0.4c-0.7-0.1-1.3-0.1-2,0l3.2-0.4
					c-0.6,0.1-1.1,0.2-1.7,0.4l2.8-1.2c-0.6,0.3-1.2,0.6-1.7,1l2.4-1.9c-0.5,0.4-1,0.9-1.4,1.4l1.9-2.4c-0.4,0.5-0.7,1.1-1,1.7
					l1.2-2.8c-0.2,0.6-0.4,1.2-0.5,1.8c0.1-1.1,0.3-2.1,0.4-3.2c0,0.4,0,0.8,0,1.2l-0.4-3.2c0.1,0.5,0.2,1,0.4,1.5l-1.2-2.8
					c0.1,0.2,0.2,0.4,0.3,0.6c1.6,2.8,2,6.1,1.2,9.1c-0.8,3-2.8,5.5-5.5,7.1C348.2,292.7,341,290.8,337.7,285.3"/>
			</g>
			<g id="Gruppe_212" transform="translate(18.442 23.211)">
				<path id="Pfad_200" class="st1" d="M343.9,409c-1.4-5.1-2-10.3-1.7-15.6c0.4-6.2,3-12,7.3-16.4c2.3-2.2,5.1-4,8.1-5.1
					c3.4-1.2,7-1.4,10.5-0.6c5,1.1,9.4,3.9,12.4,8.1c5.8,8.1,7.8,18.4,5.5,28.2c-1.1,5.2-3.9,10-7.9,13.5c-5.2,4.6-12.2,6.5-19,5.3
					c-6.7-1.5-12.1-6.4-14.2-12.9c-2.3-6.5-0.7-13.7,4.1-18.7c4.7-4.6,12.1-4.6,16.8,0c4.5,4.7,4.5,12.1,0,16.8
					c-0.2,0.2-0.4,0.4-0.5,0.6l1.9-2.4c-0.3,0.4-0.5,0.8-0.7,1.3l1.2-2.8c-0.2,0.5-0.3,0.9-0.4,1.4c0.1-1.1,0.3-2.1,0.4-3.2
					c-0.1,0.6-0.1,1.2,0,1.8l-0.4-3.2c0.1,0.7,0.3,1.5,0.6,2.2l-1.2-2.8c0.3,0.7,0.7,1.3,1.2,2l-1.9-2.4c0.4,0.5,0.8,0.9,1.3,1.3
					l-2.4-1.9c0.4,0.3,0.8,0.5,1.3,0.8l-2.8-1.2c0.7,0.3,1.4,0.5,2.1,0.6l-3.2-0.4c0.7,0.1,1.5,0.1,2.2,0l-3.1,0.4
					c0.9-0.1,1.7-0.4,2.6-0.7l-2.8,1.2c1-0.4,1.9-0.9,2.8-1.6l-2.4,1.9c0.8-0.7,1.6-1.4,2.3-2.3l-1.9,2.4c0.7-0.9,1.2-2,1.7-3
					l-1.3,2.8c0.6-1.4,0.9-2.9,1.1-4.5c-0.1,1.1-0.3,2.1-0.4,3.2c0.3-2.3,0.3-4.5,0-6.8l0.4,3.2c-0.3-2-0.8-3.9-1.6-5.8l1.2,2.8
					c-0.6-1.3-1.3-2.5-2.1-3.7l1.9,2.4c-0.6-0.7-1.2-1.4-2-2l2.4,1.9c-0.6-0.5-1.3-0.9-2-1.2l2.8,1.2c-0.7-0.3-1.5-0.5-2.3-0.6
					l3.2,0.4c-0.7-0.1-1.4-0.1-2.1,0l3.2-0.4c-0.7,0.1-1.4,0.3-2.1,0.6l2.8-1.2c-0.6,0.3-1.2,0.7-1.8,1.2l2.4-1.9
					c-0.8,0.7-1.6,1.4-2.2,2.2l1.9-2.4c-0.7,0.9-1.2,1.8-1.7,2.8l1.2-2.8c-0.5,1.2-0.9,2.6-1,3.9c0.1-1.1,0.3-2.1,0.4-3.2
					c-0.2,2.2-0.2,4.4,0.2,6.5l-0.4-3.2c0.3,2,0.7,4,1.2,5.9c0.8,3.1,0.4,6.4-1.2,9.1c-1.6,2.7-4.1,4.6-7.1,5.5
					C352.1,418.9,345.6,415.2,343.9,409"/>
			</g>
			<g id="Gruppe_213" transform="translate(18.302 30.393)">
				<path id="Pfad_201" class="st1" d="M344.7,519.3c-2-2.2-3.5-4.9-4.3-7.8c-0.7-3-0.8-6.1-0.1-9.1c0.9-4.1,2.9-7.8,5.8-10.7
					c7.2-7.1,18.6-8.1,26.9-2.2c2.2,1.5,4.2,3.4,5.9,5.6c1.7,2.2,3.1,4.7,4.1,7.3c1.6,4.8,1.9,10,0.9,14.9
					c-0.8,4.3-2.4,8.4-4.8,12.1c-2.7,5.2-7.2,9.1-12.6,11.1c-6.8,1.8-14-0.5-18.5-5.8c-2.3-2.6-3.9-5.7-4.8-9.1
					c-0.7-2.8-1.1-5.7-1.3-8.6c0-3.1,1.2-6.1,3.4-8.4c2.2-2.2,5.3-3.4,8.4-3.4c3.1,0,6.1,1.2,8.4,3.4c2.1,2.3,3.3,5.3,3.4,8.4
					c0,0.9,0.2,1.7,0.3,2.6c0.1-1.1-0.1-2.1-0.2-3.2c0.2,1.6,0.6,3.1,1.1,4.6l-1.2-2.8c0.3,0.8,0.7,1.5,1.2,2.1l-1.9-2.4
					c0.5,0.6,1,1.1,1.6,1.6l-2.4-1.9c0.5,0.3,1,0.6,1.5,0.9l-2.8-1.2c0.5,0.2,1.1,0.4,1.7,0.5l-3.2-0.4c0.4,0,0.9,0,1.3,0l-3.2,0.4
					c0.4-0.1,0.8-0.2,1.3-0.4l-2.8,1.2c0.4-0.2,0.8-0.4,1.2-0.7l-2.4,1.9c0.7-0.6,1.4-1.3,2-2l-1.8,2.5c1.6-2.1,3-4.5,4-7l-1.2,2.8
					c0.7-1.8,1.3-3.7,1.6-5.7l-0.5,3.2c0.2-1.6,0.2-3.2,0-4.8c0.1,1.1,0.3,2.1,0.4,3.2c-0.2-1.2-0.5-2.4-1-3.5l1.2,2.8
					c-0.5-1.1-1.1-2.1-1.8-3.1l1.9,2.4c-0.8-0.9-1.6-1.8-2.5-2.5l2.4,1.9c-0.8-0.6-1.7-1.2-2.6-1.6l2.8,1.2
					c-0.8-0.3-1.6-0.5-2.4-0.6l3.2,0.4c-0.8-0.1-1.7-0.1-2.5,0l3.2-0.4c-0.6,0.1-1.1,0.3-1.7,0.5l2.8-1.2c-0.7,0.3-1.3,0.7-1.9,1.1
					l2.4-1.9c-0.7,0.5-1.4,1.1-2,1.8l1.9-2.4c-0.5,0.7-1,1.4-1.3,2.2l1.2-2.8c-0.3,0.8-0.6,1.6-0.7,2.4l0.4-3.2
					c-0.1,0.7-0.1,1.4,0,2.1l-0.5-3.2c0.1,0.6,0.2,1.2,0.5,1.7l-1.2-2.9c0.2,0.4,0.4,0.8,0.7,1.2l-1.9-2.3l0.2,0.3
					c2.1,2.3,3.3,5.3,3.4,8.4c0,3.1-1.2,6.1-3.4,8.4c-2.2,2.2-5.3,3.4-8.4,3.4C349.9,522.8,346.9,521.5,344.7,519.3"/>
			</g>
			<g id="Gruppe_214" transform="translate(26.8 9.738)">
				<path id="Pfad_202" class="st1" d="M475.8,185.6c-0.5-4.7-0.2-9.4,1-14c1.6-5.6,5.3-10.4,10.3-13.4c5.7-3.4,12.8-3.5,18.7-0.4
					c4.5,2.7,7.9,6.9,9.4,12c0.5,1.6,0.9,3.3,1,5c0.3,1.8,0.4,3.7,0.4,5.5c0,5.3-1.2,10.5-3.4,15.3c-4.7,10.1-16.6,14.5-26.7,9.9
					c-0.7-0.3-1.3-0.7-1.9-1c-2.6-1.7-4.8-4.1-6.3-6.9c-1-2-1.8-4.1-2.2-6.4c-0.7-4.9-0.6-10,0.4-14.8c0.8-3,2.8-5.5,5.5-7.1
					c2.8-1.6,6.1-2,9.1-1.2c3,0.8,5.5,2.8,7.1,5.5c1.5,2.8,1.9,6,1.2,9.1c-0.1,0.6-0.2,1.2-0.3,1.7l0.4-3.2
					c-0.3,2.3-0.3,4.5-0.1,6.8l-0.4-3.2c0.2,1.1,0.4,2.2,0.8,3.2l-1.2-2.8c0.3,0.7,0.6,1.4,1.1,2l-1.9-2.4c0.3,0.4,0.7,0.8,1.1,1.1
					l-2.4-1.9c0.5,0.4,1.1,0.7,1.7,1l-2.8-1.2c0.5,0.2,1,0.3,1.5,0.4l-3.2-0.4c0.6,0.1,1.3,0.1,1.9,0l-3.2,0.4
					c0.6-0.1,1.3-0.3,1.9-0.5l-2.8,1.2c0.9-0.4,1.7-0.9,2.4-1.4l-2.4,1.9c0.6-0.5,1.2-1.1,1.7-1.7l-1.9,2.4c0.6-0.9,1.2-1.9,1.6-2.9
					l-1.2,2.8c0.6-1.6,1-3.3,1.2-5l-0.4,3.2c0.4-2.6,0.4-5.2,0.1-7.8l0.4,3.2c-0.2-1.4-0.5-2.8-1-4.1l1.2,2.8
					c-0.3-0.8-0.8-1.6-1.3-2.3l1.9,2.4c-0.4-0.5-0.8-0.9-1.3-1.3l2.4,1.9c-0.4-0.3-0.9-0.6-1.4-0.8l2.8,1.2
					c-0.5-0.2-1.1-0.4-1.7-0.5l3.2,0.4c-0.6-0.1-1.3-0.1-1.9,0l3.2-0.4c-0.6,0.1-1.3,0.3-1.9,0.5l2.8-1.2c-0.7,0.3-1.4,0.8-2,1.2
					l2.4-1.9c-0.6,0.5-1.2,1.1-1.7,1.7l1.8-2.3c-0.6,0.8-1.1,1.6-1.5,2.4l1.2-2.8c-0.5,1.4-0.9,2.8-1.1,4.3c0.1-1.1,0.3-2.1,0.4-3.2
					c-0.2,2.6-0.2,5.3,0,7.9c0,3.1-1.2,6.1-3.4,8.4c-2.2,2.2-5.3,3.4-8.4,3.4c-3.1,0-6.1-1.3-8.3-3.5c-2.1-2.3-3.3-5.3-3.4-8.4"/>
			</g>
			<g id="Gruppe_215" transform="translate(26.723 16.365)">
				<path id="Pfad_203" class="st1" d="M485.4,306.9c-9.7-8.8-12.3-23-6.5-34.7c4.2-6.8,11.7-10.9,19.7-10.7
					c7.5,0.2,14.6,3.6,19.4,9.4c4.8,6.1,7.6,13.6,7.9,21.4c0.5,6.9-1,13.7-4.4,19.7c-3.6,6.4-9.7,11-16.9,12.6
					c-7.9,1.9-16.2-0.4-22-6.1c-5.2-6.1-8.1-13.8-8.3-21.8c-0.8-8.4,3.3-16.5,10.4-21c5.7-3.2,12.9-1.3,16.2,4.3
					c3.2,5.7,1.3,12.9-4.3,16.2c-0.4,0.2-0.7,0.4-1.1,0.6l2.4-1.7c-0.5,0.5-1,1-1.5,1.5l1.9-2.4c-0.4,0.6-0.8,1.2-1,1.9l1.2-2.8
					c-0.4,1-0.6,2-0.8,3l0.4-3.2c-0.2,1.9-0.2,3.8,0,5.6l-0.4-3.2c0.4,2.5,1.1,5,2,7.3l-1.2-2.9c0.5,1.2,1.1,2.3,1.9,3.4l-1.9-2.4
					c0.5,0.7,1.2,1.3,1.8,1.9l-2.4-1.9c0.7,0.6,1.6,1,2.4,1.4l-2.8-1.2c0.9,0.3,1.8,0.6,2.7,0.8l-3.2-0.5c1.1,0.1,2.2,0.1,3.3,0
					l-3.2,0.5c1.3-0.2,2.5-0.5,3.7-1l-2.8,1.2c1.2-0.5,2.3-1.2,3.4-1.9l-2.5,1.9c0.9-0.8,1.8-1.6,2.5-2.6l-1.9,2.5
					c0.9-1.2,1.6-2.4,2.2-3.7l-1.1,2.8c0.7-1.9,1.3-3.8,1.5-5.8c-0.1,1.1-0.3,2.1-0.4,3.2c0.3-2.6,0.3-5.1,0-7.7
					c0.1,1.1,0.3,2.1,0.4,3.2c-0.3-2.4-0.9-4.8-1.8-7l1.2,2.8c-0.7-1.5-1.5-3-2.4-4.3l1.9,2.4c-0.9-1.1-1.9-2.2-3-3.1l2.4,1.9
					c-1-0.7-2-1.2-3.1-1.7l2.8,1.2c-1.1-0.4-2.2-0.8-3.4-1l3.2,0.4c-1.2-0.1-2.3-0.1-3.5,0l3.1-0.5c-1,0.1-1.9,0.4-2.9,0.8l2.8-1.2
					c-0.7,0.3-1.4,0.7-2.1,1.2l2.4-1.9c-0.7,0.5-1.3,1.1-1.8,1.7l1.9-2.3c-0.6,0.8-1.1,1.6-1.4,2.4l1.2-2.8
					c-0.3,0.9-0.6,1.8-0.7,2.8l0.4-3.1c-0.2,1.4-0.2,2.9,0,4.3l-0.4-3.2c0.3,1.8,0.8,3.5,1.5,5.1l-1.2-2.8c0.7,1.5,1.5,3,2.5,4.3
					l-1.9-2.3c0.6,0.8,1.4,1.6,2.1,2.3c4.6,4.6,4.6,12.1,0,16.8C497.5,311.4,490.1,311.4,485.4,306.9"/>
			</g>
			<g id="Gruppe_216" transform="translate(26.766 24.459)">
				<path id="Pfad_204" class="st1" d="M476.9,426.7c-0.6-2.5-1-4.9-1.4-7.4c-0.5-3.4-0.4-6.8,0.1-10.2c0.4-2.7,1.3-5.4,2.8-7.7
					c1.8-2.9,4.2-5.3,7-7.2c0.6-0.4,1.3-0.8,1.9-1.1c1.5-0.8,3.1-1.3,4.7-1.7c3.8-0.8,7.7-0.5,11.3,1c3.1,1.3,5.8,3.5,7.9,6.2
					c1.8,2.4,3.1,5,4.1,7.8c1.6,4.3,2.6,8.8,3.1,13.3c0.3,2.8,0.1,5.7-0.6,8.5c-0.9,3.3-2.5,6.4-4.8,9c-3.5,3.9-8.2,6.3-13.4,6.9
					c-2.9,0.4-5.8,0.3-8.6-0.3c-2.3-0.5-4.5-1.5-6.4-2.9c-2.8-1.9-5.2-4.4-6.8-7.4c-1.6-3.1-2.5-6.5-2.6-9.9c0-1.8,0.1-3.6,0.5-5.4
					c0.1-0.8,0.3-1.6,0.6-2.3c1.1-3.3,2.9-6.3,5.4-8.7c2.3-2.2,5.3-3.4,8.4-3.4c3.1,0,6.1,1.2,8.4,3.4c2.2,2.2,3.4,5.3,3.4,8.4
					c0,3.1-1.2,6.1-3.4,8.4c-0.3,0.3-0.6,0.6-0.9,1l1.9-2.4c-0.5,0.6-0.9,1.3-1.2,2l1.2-2.8c-0.4,0.9-0.7,1.9-0.8,3l0.4-3.2
					c-0.1,0.9-0.1,1.8,0,2.8c-0.1-1.1-0.3-2.1-0.4-3.2c0.1,0.9,0.3,1.8,0.7,2.6l-1.2-2.8c0.4,0.8,0.8,1.6,1.4,2.3l-1.9-2.4
					c0.4,0.5,0.9,1,1.5,1.4l-2.4-1.9c0.6,0.5,1.3,0.9,2.1,1.2l-2.8-1.2c0.7,0.3,1.5,0.5,2.3,0.7l-3.1-0.4c1,0.1,2.1,0.1,3.1,0
					l-3.2,0.4c0.9-0.1,1.8-0.4,2.6-0.7l-2.8,1.2c0.9-0.4,1.7-0.8,2.4-1.4l-2.4,1.9c0.6-0.5,1.2-1.1,1.7-1.7l-1.9,2.5
					c0.4-0.6,0.8-1.3,1.1-2l-1.2,2.8c0.4-1,0.7-2,0.8-3.1l-0.4,3.2c0.2-1.5,0.2-3,0-4.5l0.4,3.2c-0.5-3.6-1.5-7.1-2.9-10.5l1.2,2.8
					c-0.5-1.1-1-2.1-1.7-3l1.9,2.4c-0.5-0.6-1-1.1-1.6-1.6l2.4,1.9c-0.5-0.4-1-0.7-1.6-1l2.8,1.2c-0.5-0.2-1.1-0.4-1.7-0.5l3.2,0.4
					c-0.5,0-1,0-1.4,0l3.1-0.4c-0.7,0.1-1.4,0.3-2.1,0.5l2.8-1.2c-0.8,0.3-1.6,0.8-2.3,1.3l2.4-1.9c-0.7,0.6-1.3,1.2-1.9,1.9
					l1.9-2.4c-0.5,0.7-1,1.5-1.4,2.3l1.2-2.8c-0.4,1.1-0.7,2.3-0.9,3.5l0.4-3.2c-0.2,1.8-0.1,3.6,0.1,5.4c-0.1-1.1-0.3-2.1-0.4-3.2
					c0.3,2,0.7,3.9,1.1,5.9c0.8,3.1,0.4,6.4-1.2,9.1c-1.6,2.7-4.1,4.6-7.1,5.5c-3.1,0.8-6.4,0.4-9.1-1.2
					C479.6,432.2,477.7,429.7,476.9,426.7"/>
			</g>
			<g id="Gruppe_217" transform="translate(26.725 31.27)">
				<path id="Pfad_205" class="st1" d="M476.4,533.1c-1.9-5.6-2.5-11.6-1.5-17.5c1.2-5.6,4.7-10.5,9.7-13.5
					c5.6-3.2,12.5-3.3,18.2-0.2c3.8,2.2,6.8,5.4,8.7,9.4c3.7,7.6,4.7,16.3,2.9,24.6c-0.9,4.4-3.1,8.5-6.3,11.7
					c-2.2,2.1-4.9,3.7-7.8,4.7c-3.2,1-6.7,1.2-10,0.5c-6.9-1.4-12.5-6.5-14.7-13.2c-2.1-6.9-0.3-14.4,4.8-19.6
					c4.6-4.6,12.1-4.6,16.8,0c4.5,4.7,4.5,12.1,0,16.8c-0.2,0.2-0.4,0.4-0.5,0.6l1.9-2.4c-0.4,0.6-0.8,1.2-1,1.8l1.2-2.8
					c-0.2,0.7-0.4,1.3-0.5,2c0.1-1.1,0.3-2.1,0.4-3.2c-0.1,0.7-0.1,1.4,0,2.1l-0.4-3.1c0.1,0.7,0.3,1.3,0.5,2l-1.2-2.8
					c0.2,0.5,0.5,1,0.8,1.4l-1.9-2.4c0.4,0.5,0.9,1,1.4,1.4l-2.4-1.9c0.5,0.4,1.1,0.7,1.7,1l-2.8-1.2c0.7,0.3,1.5,0.5,2.3,0.6
					l-3.2-0.4c0.7,0.1,1.3,0.1,2,0l-3.2,0.4c0.6-0.1,1.3-0.3,1.9-0.5l-2.8,1.2c0.7-0.3,1.3-0.7,1.9-1.1l-2.4,1.9
					c0.5-0.5,1-1,1.5-1.5l-1.9,2.4c0.6-0.8,1-1.6,1.4-2.5l-1.2,2.8c0.6-1.4,0.9-2.9,1.1-4.5l-0.4,3.2c0.3-2.3,0.3-4.6,0-7
					c0.1,1.1,0.3,2.1,0.4,3.2c-0.3-2-0.8-4-1.5-5.9l1.2,2.8c-0.5-1.3-1.2-2.4-2-3.5l1.9,2.4c-0.5-0.7-1.2-1.4-1.9-2l2.4,1.9
					c-0.5-0.4-1.1-0.7-1.7-1l2.8,1.2c-0.5-0.2-1-0.3-1.5-0.4l3.2,0.4c-0.6-0.1-1.1-0.1-1.7,0l3.1-0.4c-0.5,0.1-1,0.2-1.5,0.4
					l2.8-1.2c-0.6,0.3-1.2,0.6-1.7,1l2.4-1.9c-0.5,0.4-1,0.9-1.4,1.5l1.9-2.4c-0.5,0.7-0.9,1.4-1.3,2.2l1.2-2.8
					c-0.4,0.9-0.6,1.9-0.8,2.8l0.4-3.2c-0.1,1.3-0.1,2.6,0,3.9l-0.4-3.2c0.4,2.3,0.9,4.5,1.6,6.6c1.7,6.3-2,12.8-8.3,14.6
					C484.7,543,478.3,539.3,476.4,533.1"/>
			</g>
			<g id="Gruppe_218" transform="translate(27.448 1.737)">
				<path id="Pfad_206" class="st1" d="M489.4,48.5c0.2-0.2,0.4-0.4,0.5-0.6l-1.9,2.4c0.6-0.9,1.2-1.8,1.6-2.8l-1.2,2.8
					c1.5-3.8,2.2-7.7,4-11.4c2.5-5.1,7-8.9,12.4-10.6c3.1-0.9,6.4-0.9,9.5,0c4,1.4,7.4,4,9.6,7.6c1.3,2.1,2.3,4.4,3.1,6.8
					c0.7,2.5,1.2,5.1,1.4,7.8c0.4,4.3-0.2,8.6-1.7,12.6c-1.7,5.5-5.3,10.3-10.1,13.6c-9.9,5.4-22.3,1.8-27.7-8.1
					c-0.1-0.3-0.3-0.5-0.4-0.8c-2.8-5.6-3.5-12.1-1.8-18.1c1.4-4.8,3.5-9.3,6.2-13.5c1.6-2.6,4.1-4.6,7.1-5.5
					c3.1-0.8,6.4-0.4,9.1,1.2c5.6,3.4,7.5,10.6,4.3,16.2c-1.4,2.2-2.6,4.5-3.7,6.8l1.2-2.8c-0.8,1.9-1.4,3.9-1.7,5.9l0.4-3.2
					c-0.1,1.2-0.1,2.4,0,3.7l-0.4-3.1c0.1,0.9,0.4,1.7,0.7,2.5l-1.2-2.8c0.4,0.9,0.9,1.8,1.5,2.6l-1.9-2.4c0.6,0.8,1.3,1.5,2.1,2.1
					l-2.4-1.9c0.6,0.4,1.2,0.8,1.9,1.1l-2.8-1.2c0.7,0.3,1.3,0.5,2,0.6l-3.2-0.4c0.6,0.1,1.1,0.1,1.7,0l-3.1,0.4
					c0.6-0.1,1.2-0.3,1.7-0.5l-2.8,1.2c0.5-0.2,1-0.5,1.4-0.8l-2.4,1.9c0.8-0.6,1.4-1.3,2-2.1l-1.9,2.4c0.8-1.1,1.4-2.2,1.9-3.4
					l-1.2,2.9c0.7-1.8,1.3-3.7,1.5-5.6l-0.4,3.2c0.2-1.8,0.2-3.6,0-5.4l0.4,3.1c-0.3-1.9-0.8-3.8-1.5-5.6l1.2,2.8
					c-0.4-0.9-0.9-1.8-1.5-2.6l1.9,2.4c-0.4-0.4-0.7-0.8-1.2-1.1l2.4,1.9c-0.3-0.2-0.7-0.4-1.1-0.6l2.8,1.1
					c-0.4-0.1-0.7-0.2-1.1-0.2l3.2,0.4c-0.3,0-0.7,0-1,0l3.2-0.4c-0.5,0.1-1,0.2-1.5,0.4l2.8-1.2c-0.6,0.3-1.2,0.6-1.7,0.9l2.4-1.9
					c-0.7,0.6-1.4,1.2-2,2l1.8-2.4c-0.6,0.8-1.1,1.6-1.5,2.4l1.2-2.8c-0.8,2.1-1.3,4.3-2,6.5c-1.1,3.8-3.1,7.3-5.8,10.3
					c-4.6,4.6-12.1,4.6-16.8,0C484.9,60.6,484.9,53.2,489.4,48.5"/>
			</g>
			<g id="Gruppe_219" transform="translate(8.582 21.837)">
				<path id="Pfad_207" class="st1" d="M229.8,363.9c2.3,2.5,4,5.6,4.8,9c0.7,3.5,0.7,7.1-0.1,10.6c-1.6,6.1-5.4,11.4-10.6,14.9
					c-4,2.7-8.3,4.9-12.9,6.4c-3.7,1.4-7.7,1.7-11.5,0.7c-4.1-1.2-7.5-3.9-9.7-7.6c-2.3-4.1-3.7-8.6-4.3-13.2
					c-1.4-6-1.4-12.2,0-18.1c1.7-5.8,5.4-10.7,10.4-13.9c4.9-3.1,10.8-4.2,16.5-3.1c7,1.6,12.5,6.8,14.4,13.7
					c1,4.8,1.5,9.6,1.5,14.5l-0.4-3.2c0.2,1.2,0.4,2.3,0.8,3.4l-1.2-2.8l0.2,0.4c1.5,2.8,1.9,6,1.2,9.1c-0.8,3-2.8,5.5-5.5,7.1
					c-2.8,1.6-6.1,2.1-9.2,1.3c-3-0.8-5.6-2.8-7.1-5.5c-0.9-1.8-1.6-3.7-2.1-5.7c-0.4-2-0.6-4-0.7-6c-0.1-2.3,0-4.6-0.3-6.8l0.4,3.2
					c-0.1-1.1-0.4-2.2-0.8-3.2l1.2,2.8c-0.3-0.6-0.6-1.2-1-1.8l1.9,2.4c-0.4-0.6-0.9-1.1-1.4-1.5l2.4,1.9c-0.5-0.3-0.9-0.6-1.5-0.9
					l2.8,1.2c-0.6-0.3-1.3-0.4-2-0.5l3.2,0.4c-0.8-0.1-1.7-0.1-2.5,0l3.1-0.4c-1,0.2-1.9,0.4-2.9,0.8l2.8-1.2
					c-0.9,0.4-1.8,0.9-2.6,1.5l2.4-1.9c-0.8,0.6-1.6,1.3-2.2,2.1l1.9-2.4c-0.7,0.9-1.2,1.8-1.6,2.9l1.2-2.8
					c-0.5,1.3-0.9,2.7-1.1,4.1l0.4-3.2c-0.2,2.3-0.2,4.7,0.1,7c-0.1-1-0.3-2.1-0.4-3.1c0.4,3.7,1.3,7.3,2.5,10.7
					c-0.4-1-0.8-1.9-1.2-2.8c0.3,0.7,0.7,1.4,1.2,2.1l-1.9-2.4c0.3,0.4,0.7,0.8,1.1,1.1l-2.4-1.9c0.3,0.2,0.6,0.4,1,0.6l-2.8-1.2
					c0.4,0.2,0.8,0.3,1.3,0.3l-3.2-0.4c0.4,0,0.7,0,1.1,0l-3.2,0.4c2.2-0.4,4.4-1.2,6.4-2.1l-2.8,1.2c2.4-1,4.7-2.2,6.8-3.8
					l-2.4,1.9c1-0.8,2-1.7,2.8-2.7l-1.9,2.4c0.7-0.9,1.3-1.9,1.7-3l-1.2,2.8c0.4-1,0.7-1.9,0.9-3l-0.4,3.2c0.1-1,0.1-2,0-3l0.4,3.2
					c-0.1-0.7-0.3-1.4-0.5-2l1.2,2.8c-0.3-0.6-0.6-1.3-1-1.8l1.9,2.4l-0.3-0.3c-2.2-2.3-3.4-5.2-3.5-8.3c0-3.1,1.2-6.1,3.4-8.4
					c2.2-2.3,5.3-3.5,8.5-3.5C224.5,360.4,227.6,361.7,229.8,363.9"/>
			</g>
			<g id="Gruppe_220" transform="translate(8.582 30.318)">
				<path id="Pfad_208" class="st1" d="M229.8,499.4c2.3,2.5,4,5.6,4.8,9c0.7,3.5,0.7,7.1-0.1,10.6c-1.6,6.1-5.4,11.4-10.6,14.9
					c-4,2.7-8.3,4.9-12.9,6.4c-3.7,1.4-7.7,1.7-11.5,0.7c-4.1-1.2-7.5-3.9-9.7-7.6c-2.3-4.1-3.7-8.6-4.3-13.2
					c-1.4-6-1.4-12.2,0-18.1c1.7-5.8,5.4-10.7,10.4-13.9c4.9-3.1,10.8-4.2,16.5-3.1c7,1.6,12.5,6.8,14.4,13.7
					c1,4.8,1.5,9.6,1.5,14.5l-0.4-3.2c0.2,1.2,0.4,2.3,0.8,3.4l-1.2-2.8l0.2,0.4c1.5,2.8,1.9,6,1.2,9.1c-0.8,3-2.8,5.5-5.5,7.1
					c-2.8,1.6-6.1,2.1-9.2,1.3c-3-0.8-5.6-2.8-7.1-5.5c-0.9-1.8-1.6-3.7-2.1-5.7c-0.4-2-0.6-4-0.7-6c-0.1-2.3,0-4.6-0.3-6.8l0.4,3.2
					c-0.1-1.1-0.4-2.2-0.8-3.2l1.2,2.8c-0.3-0.6-0.6-1.2-1-1.8l1.9,2.4c-0.4-0.6-0.9-1.1-1.4-1.5l2.4,1.9c-0.5-0.3-0.9-0.6-1.5-0.9
					l2.8,1.2c-0.6-0.3-1.3-0.4-2-0.5l3.2,0.4c-0.8-0.1-1.7-0.1-2.5,0l3.1-0.4c-1,0.2-1.9,0.4-2.9,0.8l2.8-1.2
					c-0.9,0.4-1.8,0.9-2.6,1.5l2.4-1.9c-0.8,0.6-1.6,1.3-2.2,2.1l1.9-2.4c-0.7,0.9-1.2,1.8-1.6,2.9l1.2-2.8
					c-0.5,1.3-0.9,2.7-1.1,4.1l0.4-3.2c-0.2,2.3-0.2,4.7,0.1,7c-0.1-1-0.3-2.1-0.4-3.1c0.4,3.7,1.3,7.2,2.5,10.7l-1.2-2.8
					c0.3,0.7,0.7,1.4,1.2,2.1l-1.9-2.4c0.3,0.4,0.7,0.8,1.1,1.1l-2.4-1.9c0.3,0.2,0.6,0.4,1,0.6l-2.8-1.2c0.4,0.2,0.8,0.3,1.3,0.3
					l-3.2-0.4c0.4,0,0.7,0,1.1,0l-3.2,0.4c2.2-0.4,4.4-1.2,6.4-2.1l-2.8,1.2c2.4-1,4.7-2.2,6.8-3.8l-2.4,1.9c1-0.8,2-1.7,2.8-2.7
					l-1.9,2.4c0.7-0.9,1.3-1.9,1.7-3l-1.2,2.8c0.4-1,0.7-1.9,0.9-3l-0.4,3.2c0.1-1,0.1-2,0-3l0.4,3.2c-0.1-0.7-0.3-1.4-0.5-2
					l1.2,2.8c-0.3-0.6-0.6-1.3-1-1.8l1.9,2.4l-0.3-0.3c-2.2-2.2-3.4-5.2-3.5-8.3c0-3.1,1.2-6.1,3.4-8.4c2.2-2.3,5.3-3.5,8.5-3.5
					C224.5,496,227.6,497.2,229.8,499.4"/>
			</g>
			<g id="Gruppe_221" transform="translate(9.323 15.249)">
				<path id="Pfad_209" class="st1" d="M238.3,267.9c3.3,5.8,3.1,12.9-0.6,18.5c-1.8,2.7-4.2,5-7,6.6c-3,1.6-6.4,2.5-9.8,2.3
					c-6.3-0.4-12.2-3.2-16.5-7.8c-3.6-3.8-6.1-8.4-7.3-13.4c-0.6-2.6-0.9-5.2-0.7-7.8c0.3-3.5,1.2-6.9,2.7-10.1
					c1-2.2,2.5-4.1,4.2-5.7c1.7-1.7,3.6-3.1,5.7-4.1c5.1-2.6,10.9-3.3,16.4-1.9c3.1,0.9,5.9,2.5,8.3,4.6c0.7,0.7,1.4,1.5,2,2.3
					c0.7,0.9,1.3,1.8,1.8,2.8c1.5,2.9,2.3,6.1,2.3,9.4c0,1.6-0.2,3.2-0.5,4.8c-0.1,0.7-0.3,1.4-0.5,2c-1,3-2.7,5.7-4.9,8
					c-2.3,2.3-5.2,3.8-8.3,4.6c-3.1,0.8-6.3,0.3-9.1-1.2c-2.7-1.6-4.6-4.1-5.5-7.1c-0.8-3.1-0.4-6.4,1.2-9.2
					c1.5-2.7,4.1-4.7,7.1-5.5c0.4-0.1,0.9-0.2,1.3-0.3l-2.8,1.2c0.5-0.2,0.9-0.5,1.3-0.8l-2.4,1.9c0.4-0.3,0.8-0.7,1.1-1.1l-1.9,2.4
					c0.4-0.6,0.8-1.2,1.1-1.9l-1.2,2.8c0.3-0.8,0.5-1.6,0.6-2.4l-0.4,3.2c0.1-0.8,0.1-1.7,0-2.5c0.1,1.1,0.3,2.1,0.4,3.2
					c-0.1-0.8-0.3-1.5-0.5-2.2c0.4,1,0.8,1.9,1.2,2.8c-0.2-0.6-0.6-1.2-1-1.7l1.9,2.4c-0.3-0.4-0.7-0.8-1.2-1.2l2.4,1.9
					c-0.6-0.5-1.2-0.8-1.9-1.1l2.8,1.2c-0.7-0.3-1.4-0.5-2.1-0.6l3.2,0.4c-1-0.1-1.9-0.1-2.9,0l3.2-0.4c-1,0.1-1.9,0.4-2.8,0.8
					l2.8-1.2c-1,0.4-2,1-2.9,1.7l2.4-1.9c-0.7,0.6-1.3,1.2-1.9,1.9l1.9-2.4c-0.6,0.7-1,1.6-1.4,2.4l1.2-2.8
					c-0.4,1.1-0.8,2.2-0.9,3.4c0.1-1.1,0.3-2.1,0.4-3.2c-0.2,1.3-0.2,2.6,0,3.9l-0.4-3.2c0.2,1.6,0.6,3.1,1.3,4.6l-1.2-2.8
					c0.6,1.5,1.4,2.8,2.4,4.1l-1.9-2.4c0.8,1,1.7,1.9,2.6,2.6l-2.4-1.9c1,0.8,2,1.4,3.2,1.9l-2.8-1.2c0.9,0.3,1.8,0.6,2.7,0.7
					l-3.2-0.4c0.7,0.1,1.3,0.1,2,0l-3.2,0.4c0.6-0.1,1.1-0.2,1.7-0.4l-2.8,1.2c0.6-0.3,1.2-0.6,1.7-1l-2.4,1.9
					c0.5-0.4,1-0.9,1.4-1.4l-1.8,2.4c0.4-0.5,0.7-1.1,1-1.7l-1.2,2.8c0.2-0.6,0.4-1.2,0.5-1.8c-0.1,1.1-0.3,2.1-0.4,3.2
					c0-0.4,0-0.8,0-1.2l0.4,3.2c-0.1-0.5-0.2-1-0.4-1.5l1.2,2.8c-0.1-0.2-0.2-0.4-0.3-0.6c-1.6-2.8-2-6.1-1.2-9.1
					c0.9-3,2.8-5.5,5.5-7.1C227.8,260.5,235,262.4,238.3,267.9"/>
			</g>
			<g id="Gruppe_222" transform="translate(0.744 21.632)">
				<path id="Pfad_210" class="st1" d="M100,367.6c0.5,4.7,0.2,9.4-1,14c-1.6,5.6-5.3,10.4-10.3,13.4c-5.7,3.4-12.8,3.5-18.7,0.4
					c-4.5-2.7-7.9-6.9-9.4-12c-0.5-1.6-0.9-3.3-1-5c-0.3-1.8-0.4-3.7-0.4-5.5c0-5.3,1.2-10.5,3.4-15.3c4.6-10.1,16.6-14.5,26.7-9.9
					c0.7,0.3,1.3,0.6,1.9,1c2.6,1.7,4.8,4.1,6.3,6.9c1,2,1.8,4.1,2.2,6.4c0.7,4.9,0.6,10-0.4,14.8c-0.8,3-2.8,5.5-5.5,7.1
					c-2.8,1.6-6.1,2-9.1,1.2c-2.9-0.8-5.5-2.8-7-5.4c-1.5-2.8-1.9-6-1.2-9.1c0.1-0.6,0.2-1.2,0.3-1.7l-0.4,3.2
					c0.3-2.3,0.3-4.5,0.1-6.8l0.4,3.2c-0.2-1.1-0.4-2.2-0.8-3.2l1.2,2.8c-0.3-0.7-0.6-1.3-1-1.9l1.9,2.4c-0.3-0.4-0.7-0.8-1.1-1.1
					l2.4,1.9c-0.5-0.4-1.1-0.7-1.7-1l2.8,1.2c-0.5-0.2-1-0.3-1.5-0.4l3.2,0.4c-0.6-0.1-1.3-0.1-1.9,0l3.2-0.4
					c-0.6,0.1-1.3,0.3-1.9,0.5l2.8-1.2c-0.9,0.4-1.7,0.9-2.4,1.4l2.4-1.9c-0.6,0.5-1.2,1.1-1.7,1.7l1.9-2.4
					c-0.6,0.9-1.1,1.8-1.6,2.7l1.2-2.8c-0.6,1.6-1,3.3-1.3,5l0.4-3.2c-0.4,2.6-0.4,5.2-0.1,7.8l-0.4-3.2c0.2,1.4,0.6,2.8,1.1,4.1
					l-1.2-2.8c0.3,0.8,0.8,1.6,1.3,2.3l-1.9-2.4c0.4,0.5,0.8,0.9,1.3,1.3l-2.4-1.9c0.4,0.3,0.9,0.6,1.4,0.8l-2.9-1.2
					c0.5,0.2,1.1,0.4,1.7,0.5l-3.2-0.4c0.6,0.1,1.3,0.1,1.9,0l-3.2,0.4c0.6-0.1,1.3-0.3,1.9-0.5l-2.8,1.2c0.7-0.3,1.4-0.8,2-1.2
					l-2.4,1.9c0.6-0.5,1.2-1.1,1.7-1.7l-1.9,2.4c0.6-0.8,1.1-1.6,1.5-2.4l-1.2,2.8c0.5-1.4,0.9-2.8,1.1-4.3
					c-0.1,1.1-0.3,2.1-0.4,3.2c0.2-2.6,0.2-5.3,0-7.9c0-3.1,1.2-6.1,3.4-8.4c2.2-2.2,5.3-3.4,8.4-3.4c3.1,0,6.1,1.2,8.4,3.4
					c2.1,2.3,3.3,5.3,3.4,8.4"/>
			</g>
			<g id="Gruppe_223" transform="translate(0.191 14.315)">
				<path id="Pfad_211" class="st1" d="M91,247c9.7,8.8,12.4,23,6.5,34.7c-4.2,6.8-11.7,10.9-19.7,10.7c-7.5-0.2-14.6-3.6-19.4-9.4
					c-4.8-6.1-7.6-13.6-8-21.4c-0.5-6.9,1-13.7,4.4-19.7c3.6-6.4,9.7-11,16.9-12.6c7.9-1.9,16.2,0.4,22,6c5.2,6.1,8.1,13.8,8.3,21.8
					c0.8,8.4-3.3,16.5-10.5,21c-5.7,3.2-12.9,1.3-16.2-4.2c-3.2-5.7-1.3-12.9,4.3-16.2c0.4-0.2,0.7-0.5,1.1-0.7l-2.4,1.9
					c0.5-0.5,1-1,1.5-1.5l-1.9,2.4c0.4-0.6,0.8-1.2,1-1.8l-1.2,2.8c0.4-1,0.6-2,0.8-3l-0.4,3.2c0.2-1.9,0.2-3.8,0-5.6l0.4,3.2
					c-0.4-2.5-1.1-5-2.1-7.3l1.2,2.8c-0.5-1.2-1.1-2.3-1.9-3.4l1.9,2.4c-0.5-0.7-1.2-1.3-1.8-1.9l2.4,1.9c-0.7-0.6-1.6-1-2.4-1.4
					l2.8,1.2c-0.9-0.3-1.8-0.6-2.7-0.7l3.2,0.4c-1.1-0.1-2.2-0.1-3.3,0l3.2-0.4c-1.3,0.2-2.5,0.5-3.7,1l2.8-1.2
					c-1.2,0.5-2.3,1.2-3.4,1.9l2.5-1.9c-0.9,0.8-1.8,1.7-2.5,2.6l1.9-2.4c-0.9,1.2-1.6,2.4-2.2,3.7l1.2-2.8
					c-0.8,1.9-1.3,3.8-1.6,5.8c0.1-1.1,0.3-2.1,0.4-3.2c-0.3,2.6-0.3,5.1,0,7.7c-0.2-1.1-0.3-2.2-0.4-3.2c0.3,2.4,0.9,4.8,1.8,7
					l-1.2-2.8c0.7,1.5,1.5,3,2.4,4.3l-1.9-2.4c0.9,1.1,1.9,2.2,3,3.1l-2.4-1.9c1,0.7,2,1.2,3.1,1.7l-2.8-1.2c1.1,0.4,2.2,0.8,3.4,1
					l-3.1-0.4c1.2,0.1,2.3,0.1,3.5,0l-3.2,0.5c1-0.2,2-0.5,2.9-0.8l-2.8,1.2c0.7-0.3,1.4-0.7,2.1-1.2l-2.4,1.9
					c0.7-0.5,1.3-1.1,1.8-1.7l-1.9,2.4c0.6-0.8,1.1-1.6,1.4-2.4l-1.2,2.8c0.3-0.9,0.6-1.8,0.7-2.8l-0.4,3.2c0.2-1.4,0.2-2.9,0-4.3
					l0.4,3.2c-0.3-1.8-0.8-3.5-1.5-5.1L77,268c-0.7-1.6-1.5-3-2.5-4.4l1.9,2.4c-0.6-0.8-1.3-1.6-2.1-2.3c-4.6-4.6-4.6-12.1,0-16.8
					C78.9,242.5,86.3,242.5,91,247"/>
			</g>
			<g id="Gruppe_224" transform="translate(0 29.647)">
				<path id="Pfad_212" class="st1" d="M86.4,504.7c-0.2,0.2-0.4,0.4-0.5,0.6l1.9-2.4c-0.6,0.9-1.2,1.8-1.6,2.8l1.2-2.8
					c-1.5,3.8-2.2,7.7-4,11.4c-2.5,5.1-7,8.9-12.4,10.6c-3.1,0.9-6.4,0.9-9.5,0c-4-1.4-7.4-4.1-9.6-7.6c-1.3-2.1-2.3-4.4-3.1-6.8
					c-0.7-2.5-1.2-5.1-1.4-7.8c-0.4-4.3,0.2-8.6,1.7-12.6c1.7-5.5,5.3-10.3,10.1-13.6c9.9-5.4,22.3-1.8,27.7,8.1
					c0.1,0.3,0.3,0.5,0.4,0.8c2.8,5.7,3.5,12.2,1.8,18.3c-1.4,4.8-3.5,9.3-6.2,13.5c-1.6,2.6-4.1,4.6-7.1,5.5
					c-3.1,0.8-6.4,0.4-9.1-1.2c-5.6-3.4-7.5-10.6-4.3-16.2c1.4-2.2,2.6-4.5,3.7-6.8l-1.2,2.8c0.8-1.9,1.4-4,1.7-6l-0.4,3.2
					c0.1-1.2,0.1-2.4,0-3.7l0.4,3.2c-0.1-0.9-0.4-1.7-0.7-2.5l1.2,2.8c-0.4-0.9-0.9-1.8-1.5-2.6l1.9,2.4c-0.6-0.8-1.3-1.5-2.1-2.1
					l2.4,1.9c-0.6-0.4-1.2-0.8-1.9-1.1l2.8,1.2c-0.7-0.3-1.3-0.5-2-0.6l3.2,0.4c-0.6-0.1-1.1-0.1-1.7,0l3.2-0.4
					c-0.6,0.1-1.2,0.3-1.7,0.5l2.8-1.2c-0.5,0.2-1,0.5-1.4,0.8l2.4-1.9c-0.8,0.6-1.4,1.3-2,2.1l1.9-2.4c-0.8,1.1-1.4,2.2-1.9,3.4
					l1.2-2.8c-0.8,1.8-1.3,3.7-1.5,5.6l0.4-3.2c-0.2,1.8-0.2,3.6,0,5.4l-0.5-3.2c0.3,1.9,0.8,3.8,1.5,5.6c-0.4-1-0.8-1.9-1.2-2.8
					c0.4,0.9,0.9,1.8,1.5,2.6l-1.9-2.4c0.4,0.4,0.8,0.8,1.2,1.2l-2.4-1.9c0.3,0.2,0.7,0.4,1.1,0.6l-2.8-1.2c0.3,0.1,0.7,0.2,1.1,0.3
					l-3.2-0.4c0.4,0,0.7,0,1.1,0l-3.2,0.4c0.5-0.1,1-0.2,1.4-0.4l-2.8,1.2c0.6-0.2,1.2-0.6,1.7-0.9l-2.4,1.9c0.7-0.6,1.4-1.3,2-2
					l-1.9,2.4c0.6-0.7,1.1-1.5,1.4-2.4l-1.2,2.8c0.8-2.1,1.3-4.3,2-6.5c1.2-3.8,3.2-7.4,5.9-10.3c4.6-4.6,12.1-4.6,16.8,0
					C91,492.6,91,500,86.4,504.7"/>
			</g>
			<g id="Gruppe_225" transform="translate(53.529 9.237)">
				<path id="Pfad_213" class="st1" d="M908.1,189.5c-2.3-2.5-4-5.6-4.8-9c-0.7-3.5-0.7-7.1,0.1-10.6c1.6-6.1,5.4-11.4,10.7-14.9
					c4-2.7,8.3-4.8,12.9-6.2c3.7-1.4,7.7-1.7,11.5-0.7c4.1,1.2,7.5,3.9,9.7,7.6c2.3,4.1,3.7,8.5,4.3,13.1c1.4,6,1.4,12.2,0,18.1
					c-1.7,5.8-5.4,10.7-10.4,13.9c-4.9,3.1-10.8,4.2-16.5,3.1c-7-1.6-12.5-6.8-14.4-13.7c-1-4.8-1.5-9.6-1.6-14.5l0.4,3.2
					c-0.2-1.2-0.4-2.3-0.8-3.4l1.2,2.8l-0.2-0.4c-1.5-2.8-1.9-6-1.2-9.1c0.8-3,2.8-5.5,5.5-7.1c2.8-1.6,6.1-2,9.1-1.2
					c3,0.8,5.6,2.7,7.1,5.5c0.9,1.8,1.6,3.8,2.1,5.7c0.4,2,0.6,4,0.7,6c0.1,2.3,0,4.6,0.3,6.8l-0.4-3c0.1,1.1,0.4,2.2,0.8,3.2
					l-1.2-2.8c0.3,0.6,0.6,1.2,1,1.8l-1.9-2.4c0.4,0.5,0.8,1,1.3,1.4L931,181c0.5,0.3,1,0.6,1.5,0.9l-2.8-1.2c0.6,0.3,1.3,0.4,2,0.5
					l-3.1-0.4c0.8,0.1,1.7,0.1,2.5,0l-3.2,0.4c1-0.2,1.9-0.4,2.9-0.8l-2.8,1.2c0.9-0.4,1.8-1,2.6-1.6l-2.4,1.9
					c0.8-0.6,1.6-1.3,2.2-2.1l-1.9,2.4c0.6-0.8,1.2-1.8,1.6-2.8l-1.2,2.8c0.5-1.3,0.9-2.7,1.1-4.1l-0.4,3.2c0.3-2.3,0.2-4.7-0.1-7
					c0.1,1.1,0.3,2.1,0.4,3.2c-0.4-3.7-1.3-7.3-2.5-10.7l1.2,2.8c-0.3-0.7-0.7-1.4-1.2-2.1l1.8,2.4c-0.3-0.4-0.7-0.8-1.1-1.1
					l2.4,1.9c-0.3-0.2-0.6-0.4-1-0.6l2.8,1.2c-0.4-0.2-0.8-0.3-1.3-0.3l3.2,0.4c-0.4,0-0.7,0-1.1,0l3.2-0.4
					c-2.2,0.4-4.4,1.2-6.4,2.1l2.8-1.2c-2.4,1-4.7,2.2-6.8,3.8l2.4-1.9c-1,0.8-1.9,1.7-2.8,2.7l1.9-2.4c-0.7,0.9-1.3,1.9-1.7,3
					l1.2-2.8c-0.4,0.9-0.6,1.9-0.8,2.9l0.4-3.2c-0.1,1-0.1,2,0,3l-0.6-3.2c0.1,0.7,0.3,1.4,0.5,2l-1.2-2.8c0.3,0.6,0.6,1.3,1.1,1.8
					l-1.9-2.4l0.3,0.3c2.1,2.3,3.3,5.3,3.4,8.4c0,3.1-1.2,6.1-3.4,8.4c-2.2,2.2-5.3,3.4-8.4,3.4C913.3,193,910.3,191.7,908.1,189.5"
					/>
			</g>
			<g id="Gruppe_226" transform="translate(53.529 0.757)">
				<path id="Pfad_214" class="st1" d="M908.1,54c-2.3-2.5-4-5.6-4.8-9c-0.7-3.5-0.7-7.1,0.1-10.6c1.6-6.1,5.4-11.4,10.7-14.9
					c4-2.7,8.3-4.8,12.9-6.2c3.7-1.4,7.7-1.7,11.5-0.7c4.1,1.2,7.5,3.9,9.7,7.6c2.3,4.1,3.7,8.5,4.3,13.1c1.4,6,1.4,12.2,0,18.1
					c-1.7,5.8-5.4,10.7-10.4,13.9c-4.9,3.1-10.8,4.2-16.5,3.1c-7-1.6-12.5-6.8-14.4-13.7c-1-4.8-1.5-9.6-1.6-14.4l0.4,3.2
					c-0.2-1.2-0.4-2.3-0.8-3.4l1.2,2.8l-0.2-0.4c-1.5-2.8-1.9-6-1.2-9.1c0.8-3,2.8-5.5,5.5-7.1c2.8-1.6,6.1-2,9.1-1.2
					c3,0.8,5.6,2.7,7.1,5.5c0.9,1.8,1.6,3.8,2.1,5.7c0.4,2,0.6,4,0.7,6c0.1,2.3,0,4.6,0.3,6.8l-0.4-3c0.1,1.1,0.4,2.2,0.8,3.2
					l-1.2-2.8c0.3,0.6,0.6,1.2,1,1.8l-1.9-2.4c0.4,0.5,0.8,1,1.3,1.4l-2.4-1.9c0.5,0.4,1,0.7,1.5,0.9l-2.8-1.2
					c0.6,0.3,1.3,0.4,2,0.5l-3.1-0.4c0.8,0.1,1.7,0.1,2.5,0l-3.2,0.4c1-0.2,1.9-0.4,2.9-0.8l-2.8,1.2c0.9-0.4,1.8-1,2.6-1.6
					l-2.4,1.9c0.8-0.6,1.6-1.3,2.2-2.1l-1.9,2.4c0.6-0.8,1.2-1.8,1.6-2.8l-1.2,2.8c0.5-1.3,0.9-2.7,1.1-4.1l-0.4,3.2
					c0.3-2.3,0.2-4.7-0.1-7c0.1,1.1,0.3,2.1,0.4,3.2c-0.4-3.7-1.3-7.3-2.5-10.7l1.2,2.8c-0.3-0.7-0.7-1.4-1.2-2.1l1.8,2.4
					c-0.3-0.4-0.7-0.8-1.1-1.1l2.4,1.9c-0.3-0.2-0.6-0.4-1-0.6l2.8,1.2c-0.4-0.2-0.8-0.3-1.3-0.3l3.2,0.4c-0.4,0-0.7,0-1.1,0
					l3.2-0.4c-2.2,0.4-4.4,1.2-6.4,2.1l2.8-1.2c-2.4,1-4.7,2.3-6.8,3.8l2.4-1.9c-1,0.8-1.9,1.7-2.8,2.7l1.9-2.4
					c-0.7,0.9-1.3,1.9-1.7,3l1.2-2.8c-0.4,0.9-0.6,1.9-0.8,2.9l0.4-3.2c-0.1,1-0.1,2,0,3l-0.6-3.2c0.1,0.7,0.3,1.4,0.5,2l-1.2-2.8
					c0.3,0.6,0.6,1.3,1.1,1.8l-1.9-2.4l0.3,0.3c2.1,2.3,3.3,5.3,3.4,8.4c0,3.1-1.2,6.1-3.4,8.4c-2.2,2.2-5.3,3.4-8.4,3.4
					C913.3,57.4,910.3,56.2,908.1,54"/>
			</g>
			<g id="Gruppe_227" transform="translate(53.165 16.136)">
				<path id="Pfad_215" class="st1" d="M899.2,285.3c-3.3-5.8-3.1-12.9,0.6-18.4c1.7-2.7,4.1-5,7-6.6c3-1.6,6.4-2.5,9.8-2.3
					c6.3,0.4,12.2,3.2,16.5,7.8c3.6,3.8,6.1,8.4,7.3,13.4c0.6,2.6,0.9,5.2,0.7,7.8c-0.3,3.5-1.2,6.9-2.8,10.1
					c-1,2.1-2.5,4.1-4.2,5.7c-1.6,1.6-3.5,3-5.6,4.1c-5,2.6-10.9,3.3-16.4,2c-3.1-0.9-5.9-2.5-8.3-4.6c-0.7-0.7-1.4-1.5-2-2.3
					c-0.7-0.8-1.3-1.8-1.8-2.7c-1.5-2.9-2.3-6.1-2.3-9.4c0-1.6,0.2-3.2,0.5-4.8c0.1-0.7,0.3-1.4,0.5-2c1-3,2.7-5.7,4.9-8
					c2.3-2.3,5.2-3.8,8.3-4.6c3.1-0.8,6.3-0.3,9.1,1.2c2.7,1.6,4.6,4.1,5.5,7.1c0.8,3.1,0.4,6.4-1.2,9.2c-1.6,2.7-4.1,4.6-7.1,5.5
					c-0.4,0.1-0.9,0.2-1.3,0.4l2.8-1.2c-0.5,0.2-0.9,0.5-1.4,0.8l2.4-1.9c-0.4,0.3-0.8,0.7-1.1,1.1l1.9-2.4
					c-0.4,0.6-0.8,1.2-1.1,1.9l1.2-2.8c-0.3,0.8-0.5,1.6-0.6,2.4l0.4-3.2c-0.1,0.8-0.1,1.7,0,2.5c-0.2-1.1-0.3-2.1-0.4-3.2
					c0.1,0.7,0.3,1.4,0.6,2.1l-1.2-2.8c0.2,0.6,0.6,1.2,1,1.7l-1.9-2.4c0.3,0.4,0.7,0.8,1.2,1.2l-2.4-1.9c0.6,0.5,1.2,0.8,1.9,1.1
					l-2.8-1.2c0.7,0.3,1.4,0.5,2.1,0.6l-3.2-0.4c1,0.1,1.9,0.1,2.9,0l-3.2,0.4c1-0.1,1.9-0.4,2.8-0.8l-2.8,1.2c1-0.4,2-1,2.9-1.7
					l-2.4,1.9c0.7-0.5,1.3-1.2,1.9-1.9l-1.9,2.4c0.5-0.7,1-1.6,1.4-2.4l-1.2,2.8c0.4-1.1,0.8-2.2,0.9-3.4c-0.1,1.1-0.2,2.1-0.4,3.2
					c0.2-1.3,0.2-2.6,0-3.9l0.4,3.2c-0.2-1.6-0.6-3.1-1.3-4.6l1.2,2.8c-0.6-1.5-1.4-2.8-2.4-4.1l1.9,2.4c-0.8-1-1.6-1.9-2.5-2.6
					l2.4,1.9c-1-0.8-2.1-1.4-3.3-1.9l2.8,1.2c-0.9-0.4-1.8-0.6-2.7-0.7l3.2,0.4c-0.7-0.1-1.3-0.1-2,0l3.2-0.4
					c-0.6,0.1-1.1,0.2-1.7,0.4l2.8-1.2c-0.6,0.3-1.2,0.6-1.7,1l2.4-1.9c-0.5,0.4-1,0.9-1.4,1.4l1.9-2.4c-0.4,0.5-0.7,1.1-1,1.7
					l1.2-2.8c-0.2,0.6-0.4,1.2-0.5,1.8c0.1-1.1,0.3-2.1,0.4-3.2c0,0.4,0,0.8,0,1.2l-0.4-3.2c0.1,0.5,0.2,1,0.4,1.5l-1.2-2.8
					c0.1,0.2,0.2,0.4,0.3,0.6c1.6,2.8,2,6.1,1.2,9.1c-0.8,3-2.8,5.5-5.5,7.1C909.7,292.7,902.5,290.8,899.2,285.3"/>
			</g>
			<g id="Gruppe_228" transform="translate(53.582 23.211)">
				<path id="Pfad_216" class="st1" d="M905.4,409c-1.4-5.1-2-10.3-1.7-15.6c0.4-6.2,3-12,7.3-16.4c2.3-2.2,5.1-4,8.1-5.1
					c3.4-1.2,7-1.4,10.5-0.6c5,1.1,9.4,3.9,12.4,8.1c5.8,8.1,7.8,18.4,5.5,28.2c-1.1,5.2-3.9,10-7.9,13.5c-5.2,4.6-12.2,6.5-19,5.3
					c-6.7-1.5-12.1-6.4-14.2-12.9c-2.3-6.5-0.7-13.7,4.1-18.7c4.7-4.6,12.1-4.6,16.8,0c4.5,4.7,4.5,12.1,0,16.8
					c-0.2,0.2-0.4,0.4-0.5,0.6l1.9-2.4c-0.3,0.4-0.5,0.8-0.7,1.3l1.2-2.8c-0.2,0.5-0.3,0.9-0.4,1.4c0.1-1.1,0.3-2.1,0.4-3.2
					c-0.1,0.6-0.1,1.2,0,1.8l-0.4-3.2c0.1,0.7,0.3,1.5,0.6,2.2l-1.2-2.8c0.3,0.7,0.7,1.3,1.2,2l-1.9-2.4c0.4,0.5,0.8,0.9,1.3,1.3
					l-2.4-1.9c0.4,0.3,0.8,0.5,1.3,0.8l-2.8-1.2c0.7,0.3,1.4,0.5,2.1,0.6l-3.2-0.4c0.7,0.1,1.5,0.1,2.2,0l-3.1,0.4
					c0.9-0.1,1.7-0.4,2.6-0.7l-2.8,1.2c1-0.4,1.9-0.9,2.8-1.6l-2.4,1.9c0.8-0.7,1.6-1.4,2.3-2.3l-1.9,2.4c0.7-0.9,1.2-2,1.7-3
					l-1.3,2.8c0.6-1.4,0.9-2.9,1.1-4.5c-0.1,1.1-0.3,2.1-0.4,3.2c0.3-2.3,0.3-4.5,0-6.8l0.4,3.2c-0.3-2-0.8-3.9-1.6-5.8l1.2,2.8
					c-0.6-1.3-1.3-2.5-2.1-3.7l1.9,2.4c-0.6-0.7-1.2-1.4-2-2l2.4,1.9c-0.6-0.5-1.3-0.9-2-1.2l2.8,1.2c-0.7-0.3-1.5-0.5-2.3-0.6
					l3.2,0.4c-0.7-0.1-1.4-0.1-2.1,0l3.2-0.4c-0.7,0.1-1.4,0.3-2.1,0.6l2.8-1.2c-0.6,0.3-1.2,0.7-1.8,1.2l2.4-1.9
					c-0.8,0.7-1.6,1.4-2.2,2.2l1.9-2.4c-0.7,0.9-1.2,1.8-1.7,2.8l1.2-2.8c-0.5,1.2-0.9,2.6-1,3.9c0.1-1.1,0.3-2.1,0.4-3.2
					c-0.2,2.2-0.2,4.4,0.2,6.5c-0.1-1.1-0.3-2.1-0.4-3.2c0.3,2,0.7,4,1.1,5.9c0.8,3.1,0.4,6.4-1.2,9.1c-1.6,2.7-4.1,4.6-7.1,5.5
					C913.6,418.9,907.2,415.2,905.4,409"/>
			</g>
			<g id="Gruppe_229" transform="translate(53.441 30.393)">
				<path id="Pfad_217" class="st1" d="M906.2,519.3c-2-2.2-3.5-4.9-4.3-7.8c-0.7-3-0.8-6.1-0.1-9.1c0.9-4.1,2.9-7.8,5.8-10.7
					c7.2-7.1,18.6-8.1,26.9-2.2c2.2,1.5,4.2,3.4,5.9,5.6c1.7,2.2,3.1,4.7,4.1,7.3c1.6,4.8,1.9,10,0.9,14.9
					c-0.8,4.3-2.4,8.4-4.8,12.1c-2.7,5.2-7.2,9.1-12.6,11.1c-6.8,1.8-14-0.5-18.5-5.8c-2.3-2.6-3.9-5.7-4.8-9.1
					c-0.7-2.8-1.1-5.7-1.3-8.6c0-3.1,1.2-6.1,3.4-8.4c2.2-2.2,5.3-3.4,8.4-3.4c3.1,0,6.1,1.2,8.4,3.4c2.1,2.3,3.3,5.3,3.4,8.4
					c0,0.9,0.2,1.7,0.3,2.6c0.1-1.1-0.1-2.1-0.2-3.2c0.2,1.6,0.6,3.1,1.1,4.6l-1.2-2.8c0.3,0.8,0.7,1.5,1.2,2.1l-1.9-2.4
					c0.5,0.6,1,1.1,1.6,1.6l-2.4-1.9c0.5,0.3,1,0.6,1.5,0.9l-2.8-1.2c0.5,0.2,1.1,0.4,1.7,0.5l-3.2-0.4c0.4,0,0.9,0,1.3,0l-3.2,0.4
					c0.4-0.1,0.8-0.2,1.3-0.4l-2.8,1.2c0.4-0.2,0.8-0.4,1.2-0.7l-2.4,1.9c0.7-0.6,1.4-1.3,2-2l-1.8,2.5c1.6-2.1,3-4.5,4-7l-1.2,2.8
					c0.7-1.8,1.3-3.7,1.6-5.7l-0.5,3.2c0.2-1.6,0.2-3.2,0-4.8c0.1,1.1,0.3,2.1,0.4,3.2c-0.2-1.2-0.5-2.4-1-3.5l1.2,2.8
					c-0.5-1.1-1.1-2.1-1.8-3.1l1.9,2.4c-0.8-0.9-1.6-1.8-2.5-2.5l2.4,1.9c-0.8-0.6-1.7-1.2-2.6-1.6l2.8,1.2
					c-0.8-0.3-1.6-0.5-2.4-0.6l3.2,0.4c-0.8-0.1-1.7-0.1-2.5,0l3.2-0.4c-0.6,0.1-1.1,0.3-1.7,0.5l2.8-1.2c-0.7,0.3-1.3,0.7-1.9,1.1
					l2.4-1.9c-0.7,0.5-1.4,1.1-2,1.8l1.9-2.4c-0.5,0.7-1,1.4-1.3,2.2l1.2-2.8c-0.3,0.8-0.6,1.6-0.7,2.4l0.4-3.2
					c-0.1,0.7-0.1,1.4,0,2.1l-0.5-3.2c0.1,0.6,0.2,1.2,0.5,1.7l-1.2-2.9c0.2,0.4,0.4,0.8,0.7,1.2l-1.9-2.3l0.2,0.3
					c2.1,2.3,3.3,5.3,3.4,8.4c0,3.1-1.2,6.1-3.4,8.4c-2.2,2.2-5.3,3.4-8.4,3.4C911.4,522.8,908.4,521.5,906.2,519.3"/>
			</g>
			<g id="Gruppe_230" transform="translate(61.939 9.738)">
				<path id="Pfad_218" class="st1" d="M1037.3,185.6c-0.5-4.7-0.2-9.4,1-14c1.6-5.6,5.3-10.4,10.3-13.4c5.7-3.4,12.8-3.5,18.7-0.4
					c4.5,2.7,7.9,6.9,9.4,12c0.5,1.6,0.9,3.3,1,5c0.3,1.8,0.4,3.7,0.4,5.5c0,5.3-1.2,10.5-3.4,15.3c-4.7,10.1-16.6,14.5-26.7,9.8
					c-0.7-0.3-1.3-0.6-1.9-1c-2.6-1.7-4.8-4.1-6.3-6.9c-1-2-1.8-4.1-2.2-6.4c-0.7-4.9-0.6-10,0.4-14.8c0.8-3,2.8-5.5,5.5-7.1
					c2.8-1.6,6.1-2,9.1-1.2c3,0.8,5.5,2.8,7.1,5.5c1.5,2.8,1.9,6,1.2,9.1c-0.1,0.6-0.2,1.2-0.3,1.7l0.4-3.2
					c-0.3,2.3-0.3,4.5-0.1,6.8l-0.4-3.2c0.2,1.1,0.4,2.2,0.8,3.2l-1.2-2.8c0.3,0.7,0.6,1.4,1.1,2l-1.9-2.4c0.3,0.4,0.7,0.8,1.1,1.1
					l-2.4-1.9c0.5,0.4,1.1,0.7,1.7,1l-2.8-1.2c0.5,0.2,1,0.3,1.5,0.4l-3.2-0.4c0.6,0.1,1.3,0.1,1.9,0l-3.2,0.4
					c0.6-0.1,1.3-0.3,1.9-0.5l-2.8,1.2c0.9-0.4,1.7-0.9,2.4-1.4l-2.4,1.9c0.6-0.5,1.2-1.1,1.7-1.7l-1.9,2.4c0.6-0.9,1.2-1.9,1.6-2.9
					l-1.2,2.8c0.6-1.6,1-3.3,1.2-5l-0.4,3.2c0.4-2.6,0.4-5.2,0.1-7.8l0.4,3.2c-0.2-1.4-0.5-2.8-1-4.1l1.2,2.8
					c-0.3-0.8-0.8-1.6-1.3-2.3l1.9,2.4c-0.4-0.5-0.8-0.9-1.3-1.3l2.4,1.9c-0.4-0.3-0.9-0.6-1.4-0.8l2.8,1.2
					c-0.5-0.2-1.1-0.4-1.7-0.5l3.2,0.4c-0.6-0.1-1.3-0.1-1.9,0l3.2-0.4c-0.6,0.1-1.3,0.3-1.9,0.5l2.8-1.2c-0.7,0.3-1.4,0.8-2,1.2
					l2.4-1.9c-0.6,0.5-1.2,1.1-1.7,1.7l1.8-2.3c-0.6,0.8-1.1,1.6-1.5,2.4l1.2-2.8c-0.5,1.4-0.9,2.8-1.1,4.3c0.1-1.1,0.3-2.1,0.4-3.2
					c-0.2,2.6-0.2,5.3,0,7.9c0,3.1-1.2,6.1-3.4,8.4c-2.2,2.2-5.3,3.4-8.4,3.4c-3.1,0-6.1-1.3-8.3-3.5c-2.1-2.3-3.3-5.3-3.4-8.4"/>
			</g>
			<g id="Gruppe_231" transform="translate(61.863 16.365)">
				<path id="Pfad_219" class="st1" d="M1047,306.9c-9.7-8.8-12.3-23-6.5-34.7c4.2-6.8,11.7-10.9,19.7-10.7
					c7.5,0.2,14.6,3.6,19.4,9.4c4.8,6.1,7.6,13.6,7.9,21.4c0.5,6.9-1,13.7-4.4,19.7c-3.6,6.4-9.7,11-16.9,12.6
					c-7.9,1.9-16.2-0.4-22-6.1c-5.2-6.1-8.1-13.8-8.3-21.8c-0.8-8.4,3.3-16.5,10.4-21c5.7-3.2,12.9-1.3,16.2,4.3
					c3.2,5.7,1.3,12.9-4.3,16.2c-0.4,0.2-0.7,0.4-1.1,0.6l2.4-1.7c-0.5,0.5-1,1-1.5,1.5l1.9-2.4c-0.4,0.6-0.8,1.2-1,1.9l1.2-2.8
					c-0.4,1-0.6,2-0.8,3l0.4-3.2c-0.2,1.9-0.2,3.8,0,5.6l-0.4-3.2c0.4,2.5,1.1,5,2,7.3c-0.4-0.9-0.8-1.9-1.2-2.9
					c0.5,1.2,1.1,2.3,1.9,3.4l-1.9-2.4c0.5,0.7,1.2,1.3,1.8,1.9l-2.4-1.9c0.7,0.6,1.6,1,2.4,1.4l-2.8-1.2c0.9,0.3,1.8,0.6,2.7,0.8
					l-3.2-0.5c1.1,0.1,2.2,0.1,3.3,0l-3.2,0.5c1.3-0.2,2.5-0.5,3.7-1l-2.8,1.2c1.2-0.5,2.3-1.2,3.4-1.9l-2.5,1.9
					c0.9-0.8,1.8-1.6,2.5-2.6l-1.9,2.5c0.9-1.2,1.6-2.4,2.2-3.7l-1.1,2.8c0.7-1.9,1.3-3.8,1.5-5.8c-0.1,1.1-0.3,2.1-0.4,3.2
					c0.3-2.6,0.3-5.1,0-7.7c0.1,1.1,0.3,2.1,0.4,3.2c-0.3-2.4-0.9-4.8-1.8-7l1.2,2.8c-0.7-1.5-1.5-3-2.4-4.3l1.9,2.4
					c-0.9-1.1-1.9-2.2-3-3.1l2.4,1.9c-1-0.7-2-1.2-3.1-1.7l2.8,1.2c-1.1-0.4-2.2-0.8-3.4-1l3.2,0.4c-1.2-0.1-2.3-0.1-3.5,0l3.1-0.5
					c-1,0.1-1.9,0.4-2.9,0.8l2.8-1.2c-0.7,0.3-1.4,0.7-2.1,1.2l2.4-1.9c-0.7,0.5-1.3,1.1-1.8,1.7l1.9-2.3c-0.6,0.8-1.1,1.6-1.4,2.4
					l1.2-2.8c-0.3,0.9-0.6,1.8-0.7,2.8l0.4-3.1c-0.2,1.4-0.2,2.9,0,4.3l-0.4-3.2c0.3,1.8,0.8,3.5,1.5,5.1l-1.2-2.8
					c0.7,1.5,1.5,3,2.5,4.3l-1.9-2.3c0.6,0.8,1.4,1.6,2.1,2.3c4.6,4.6,4.6,12.1,0,16.8C1059.1,311.4,1051.6,311.4,1047,306.9"/>
			</g>
			<g id="Gruppe_232" transform="translate(61.905 24.459)">
				<path id="Pfad_220" class="st1" d="M1038.4,426.7c-0.6-2.5-1-4.9-1.4-7.4c-0.5-3.4-0.4-6.8,0.1-10.2c0.4-2.7,1.4-5.4,2.8-7.7
					c1.8-2.9,4.2-5.3,6.9-7.2c0.6-0.4,1.3-0.8,1.9-1.1c1.5-0.8,3.1-1.3,4.7-1.7c3.8-0.8,7.7-0.5,11.3,1c3.1,1.3,5.8,3.5,7.9,6.2
					c1.8,2.4,3.1,5,4.1,7.8c1.6,4.3,2.6,8.8,3.1,13.3c0.3,2.8,0.1,5.7-0.6,8.5c-0.9,3.3-2.5,6.4-4.8,9c-3.5,3.9-8.2,6.3-13.4,6.9
					c-2.9,0.4-5.8,0.3-8.6-0.3c-2.3-0.5-4.5-1.5-6.4-2.9c-2.8-1.9-5.2-4.4-6.8-7.4c-1.6-3.1-2.5-6.5-2.6-9.9c0-1.8,0.1-3.6,0.5-5.4
					c0.1-0.8,0.3-1.6,0.6-2.3c1.1-3.3,2.9-6.3,5.4-8.7c2.3-2.2,5.3-3.4,8.4-3.4c3.1,0,6.1,1.2,8.4,3.4c2.2,2.2,3.4,5.3,3.4,8.4
					c0,3.1-1.2,6.1-3.4,8.4c-0.3,0.3-0.6,0.6-0.9,1l1.9-2.4c-0.5,0.6-0.9,1.3-1.2,2l1.2-2.8c-0.4,0.9-0.7,1.9-0.8,3l0.4-3.2
					c-0.1,0.9-0.1,1.8,0,2.8c-0.1-1.1-0.3-2.1-0.4-3.2c0.1,0.9,0.4,1.8,0.7,2.6l-1.2-2.8c0.4,0.8,0.8,1.6,1.4,2.3l-1.9-2.4
					c0.4,0.5,0.9,1,1.5,1.4l-2.4-1.9c0.6,0.5,1.3,0.9,2.1,1.2l-2.8-1.2c0.7,0.3,1.5,0.5,2.3,0.7l-3.1-0.4c1,0.1,2.1,0.1,3.1,0
					l-3.2,0.4c0.9-0.1,1.8-0.4,2.6-0.7l-2.8,1.2c0.9-0.4,1.7-0.8,2.4-1.4l-2.4,1.9c0.6-0.5,1.2-1.1,1.7-1.7l-1.9,2.5
					c0.4-0.6,0.8-1.3,1.1-2l-1.2,2.8c0.4-1,0.7-2,0.8-3.1l-0.4,3.2c0.2-1.5,0.2-3,0-4.5l0.4,3.2c-0.5-3.6-1.5-7.1-2.9-10.5l1.2,2.8
					c-0.5-1.1-1-2.1-1.7-3l1.9,2.4c-0.5-0.6-1-1.1-1.6-1.6l2.4,1.9c-0.5-0.4-1-0.7-1.6-1l2.8,1.2c-0.5-0.2-1.1-0.4-1.7-0.5l3.2,0.4
					c-0.5,0-1,0-1.4,0l3.1-0.4c-0.7,0.1-1.4,0.3-2.1,0.5l2.8-1.2c-0.8,0.3-1.6,0.8-2.3,1.3l2.4-1.9c-0.7,0.6-1.3,1.2-1.9,1.9
					l1.9-2.4c-0.5,0.7-1,1.5-1.4,2.3l1.2-2.8c-0.4,1.1-0.7,2.3-0.9,3.5l0.4-3.2c-0.2,1.8-0.1,3.6,0.1,5.4c-0.1-1.1-0.3-2.1-0.4-3.2
					c0.3,2,0.7,3.9,1.1,5.9c0.8,3.1,0.4,6.4-1.2,9.1c-1.6,2.7-4.1,4.6-7.1,5.5c-3.1,0.8-6.4,0.4-9.1-1.2
					C1041.2,432.2,1039.2,429.7,1038.4,426.7"/>
			</g>
			<g id="Gruppe_233" transform="translate(61.864 31.27)">
				<path id="Pfad_221" class="st1" d="M1037.9,533.1c-1.9-5.6-2.5-11.6-1.5-17.5c1.2-5.6,4.7-10.5,9.7-13.5
					c5.6-3.2,12.5-3.3,18.2-0.2c3.8,2.2,6.8,5.4,8.7,9.4c3.7,7.6,4.7,16.3,2.9,24.6c-0.9,4.4-3.1,8.5-6.3,11.7
					c-2.2,2.1-4.9,3.7-7.8,4.7c-3.2,1-6.7,1.2-10,0.5c-6.9-1.4-12.5-6.5-14.7-13.2c-2.1-6.9-0.3-14.4,4.8-19.6
					c4.6-4.6,12.1-4.6,16.8,0c4.5,4.7,4.5,12.1,0,16.8c-0.2,0.2-0.4,0.4-0.5,0.6l1.9-2.4c-0.4,0.6-0.8,1.2-1,1.8l1.2-2.8
					c-0.2,0.7-0.4,1.3-0.5,2c0.1-1.1,0.3-2.1,0.4-3.2c-0.1,0.7-0.1,1.4,0,2.1l-0.4-3.1c0.1,0.7,0.3,1.3,0.5,2l-1.2-2.8
					c0.2,0.5,0.5,1,0.8,1.4l-1.9-2.4c0.4,0.5,0.9,1,1.4,1.4l-2.4-1.9c0.5,0.4,1.1,0.7,1.7,1l-2.8-1.2c0.7,0.3,1.5,0.5,2.3,0.6
					l-3.2-0.4c0.7,0.1,1.3,0.1,2,0l-3.2,0.4c0.6-0.1,1.3-0.3,1.9-0.5l-2.8,1.2c0.7-0.3,1.3-0.7,1.9-1.1l-2.4,1.9
					c0.5-0.5,1-1,1.5-1.5l-1.9,2.4c0.6-0.8,1-1.6,1.4-2.5l-1.2,2.8c0.6-1.4,0.9-2.9,1.1-4.5l-0.4,3.2c0.3-2.3,0.3-4.6,0-7
					c0.1,1.1,0.3,2.1,0.4,3.2c-0.3-2-0.8-4-1.5-5.9l1.2,2.8c-0.5-1.3-1.2-2.4-2-3.5l1.9,2.4c-0.5-0.7-1.2-1.4-1.9-2l2.4,1.9
					c-0.5-0.4-1.1-0.7-1.7-1l2.8,1.2c-0.5-0.2-1-0.3-1.5-0.4l3.2,0.4c-0.6-0.1-1.1-0.1-1.7,0l3.2-0.4c-0.5,0.1-1,0.2-1.5,0.4
					l2.8-1.2c-0.6,0.3-1.2,0.6-1.7,1l2.4-1.9c-0.5,0.4-1,0.9-1.4,1.5l1.8-2.4c-0.5,0.7-0.9,1.4-1.3,2.2l1.2-2.8
					c-0.4,0.9-0.6,1.9-0.8,2.8l0.4-3.2c-0.1,1.3-0.1,2.6,0,3.9l-0.4-3.2c0.4,2.3,0.9,4.5,1.6,6.6c1.7,6.3-2,12.8-8.3,14.6
					C1046.2,543,1039.8,539.3,1037.9,533.1"/>
			</g>
			<g id="Gruppe_234" transform="translate(62.587 1.737)">
				<path id="Pfad_222" class="st1" d="M1050.9,48.5l0.5-0.6l-1.9,2.4c0.6-0.9,1.2-1.8,1.6-2.8l-1.2,2.8c1.5-3.8,2.2-7.7,4-11.4
					c2.5-5.1,7-8.9,12.4-10.6c3.1-0.9,6.4-0.9,9.5,0c4,1.4,7.4,4,9.6,7.6c1.3,2.1,2.3,4.4,3.1,6.8c0.7,2.5,1.2,5.1,1.4,7.8
					c0.4,4.3-0.2,8.6-1.7,12.6c-1.7,5.5-5.3,10.3-10.1,13.6c-9.9,5.4-22.3,1.8-27.7-8.1c-0.2-0.3-0.3-0.6-0.4-0.8
					c-2.8-5.6-3.5-12.1-1.8-18.1c1.4-4.8,3.5-9.3,6.2-13.5c1.6-2.6,4.1-4.6,7.1-5.5c3.1-0.8,6.4-0.4,9.1,1.2
					c5.6,3.4,7.5,10.6,4.3,16.2c-1.4,2.2-2.6,4.5-3.7,6.8l1.2-2.8c-0.8,1.9-1.4,3.9-1.7,5.9c0.1-1.1,0.3-2.1,0.4-3.2
					c-0.1,1.2-0.1,2.4,0,3.7l-0.4-3.1c0.1,0.9,0.4,1.7,0.7,2.5l-1.2-2.8c0.4,0.9,0.9,1.8,1.5,2.6l-1.9-2.4c0.6,0.8,1.3,1.5,2.1,2.1
					l-2.4-1.9c0.6,0.4,1.2,0.8,1.9,1.1l-2.8-1.2c0.7,0.3,1.3,0.5,2,0.6l-3.2-0.4c0.6,0.1,1.1,0.1,1.7,0l-3.1,0.4
					c0.6-0.1,1.2-0.3,1.7-0.5l-2.8,1.2c0.5-0.2,1-0.5,1.4-0.8l-2.4,1.9c0.8-0.6,1.4-1.3,2-2.1l-1.9,2.4c0.8-1.1,1.4-2.2,1.9-3.4
					l-1.2,2.9c0.7-1.8,1.3-3.7,1.5-5.6l-0.4,3.2c0.2-1.8,0.2-3.6,0-5.4l0.4,3.1c-0.3-1.9-0.8-3.8-1.5-5.6l1.2,2.8
					c-0.4-0.9-0.9-1.8-1.5-2.6l1.9,2.4c-0.4-0.4-0.8-0.8-1.2-1.1l2.4,1.9c-0.3-0.2-0.7-0.4-1.1-0.6l2.8,1.1
					c-0.4-0.1-0.7-0.2-1.1-0.2l3.2,0.4c-0.3,0-0.7,0-1,0l3.2-0.4c-0.5,0.1-1,0.2-1.5,0.4l2.8-1.2c-0.6,0.3-1.2,0.6-1.7,0.9l2.4-1.9
					c-0.7,0.6-1.4,1.2-2,2l1.8-2.4c-0.6,0.8-1.1,1.6-1.4,2.4l1.2-2.8c-0.8,2.1-1.3,4.3-2,6.5c-1.1,3.8-3.1,7.3-5.8,10.3
					c-4.6,4.6-12.1,4.6-16.8,0C1046.4,60.6,1046.4,53.2,1050.9,48.5"/>
			</g>
			<g id="Gruppe_235" transform="translate(43.722 21.837)">
				<path id="Pfad_223" class="st1" d="M791.4,363.9c2.3,2.5,4,5.6,4.8,9c0.7,3.5,0.7,7.1-0.1,10.6c-1.6,6.1-5.4,11.4-10.6,14.9
					c-4,2.7-8.3,4.9-12.9,6.4c-3.7,1.4-7.7,1.7-11.5,0.7c-4.1-1.2-7.5-3.9-9.7-7.6c-2.3-4.1-3.7-8.6-4.3-13.2
					c-1.4-6-1.4-12.2,0-18.1c1.7-5.8,5.4-10.7,10.4-13.9c4.9-3.1,10.8-4.2,16.5-3.1c7,1.6,12.5,6.8,14.4,13.7
					c1,4.8,1.5,9.6,1.5,14.5l-0.4-3.2c0.2,1.2,0.4,2.3,0.8,3.4l-1.2-2.8l0.2,0.4c1.5,2.8,1.9,6,1.2,9.1c-0.8,3-2.8,5.5-5.5,7.1
					c-2.8,1.6-6.1,2.1-9.2,1.3c-3-0.8-5.6-2.8-7.1-5.5c-0.9-1.8-1.6-3.7-2.1-5.7c-0.4-2-0.6-4-0.7-6c-0.1-2.3,0-4.6-0.3-6.8l0.4,3.2
					c-0.1-1.1-0.4-2.2-0.8-3.2l1.2,2.8c-0.3-0.6-0.6-1.2-1-1.8l1.9,2.4c-0.4-0.5-0.9-1-1.4-1.5l2.4,1.9c-0.5-0.3-0.9-0.6-1.5-0.9
					l2.8,1.2c-0.6-0.3-1.3-0.4-2-0.5l3.2,0.4c-0.8-0.1-1.7-0.1-2.5,0l3.1-0.4c-1,0.2-1.9,0.4-2.9,0.8l2.8-1.2
					c-0.9,0.4-1.8,0.9-2.6,1.5l2.4-1.9c-0.8,0.6-1.6,1.3-2.2,2.1l1.9-2.4c-0.6,0.9-1.2,1.8-1.6,2.9l1.2-2.8
					c-0.5,1.3-0.9,2.7-1.1,4.1c0.1-1.1,0.3-2.1,0.4-3.2c-0.2,2.3-0.2,4.7,0.1,7c-0.1-1-0.3-2.1-0.4-3.1c0.4,3.7,1.3,7.3,2.5,10.7
					l-1.2-2.8c0.3,0.7,0.7,1.4,1.2,2.1l-1.9-2.4c0.3,0.4,0.7,0.8,1.1,1.1l-2.4-1.9c0.3,0.2,0.6,0.4,1,0.6l-2.8-1.2
					c0.4,0.2,0.8,0.3,1.3,0.3l-3.2-0.4c0.4,0,0.7,0,1.1,0l-3.2,0.4c2.2-0.4,4.4-1.2,6.4-2.1l-2.8,1.2c2.4-1,4.7-2.2,6.8-3.8
					l-2.4,1.9c1-0.8,2-1.7,2.8-2.7l-1.9,2.4c0.7-0.9,1.3-1.9,1.7-3l-1.2,2.8c0.4-1,0.7-1.9,0.9-3l-0.4,3.2c0.1-1,0.1-2,0-3l0.4,3.2
					c-0.1-0.7-0.3-1.4-0.5-2l1.2,2.8c-0.3-0.6-0.6-1.3-1-1.8l1.9,2.4l-0.3-0.3c-2.2-2.3-3.4-5.2-3.5-8.3c0-3.1,1.2-6.1,3.4-8.4
					c2.2-2.3,5.3-3.5,8.5-3.5C786.1,360.4,789.1,361.7,791.4,363.9"/>
			</g>
			<g id="Gruppe_236" transform="translate(43.722 30.318)">
				<path id="Pfad_224" class="st1" d="M791.4,499.4c2.3,2.5,4,5.6,4.8,9c0.7,3.5,0.7,7.1-0.1,10.6c-1.6,6.1-5.4,11.4-10.6,14.9
					c-4,2.7-8.3,4.9-12.9,6.4c-3.7,1.4-7.7,1.7-11.5,0.7c-4.1-1.2-7.5-3.9-9.7-7.6c-2.3-4.1-3.7-8.6-4.3-13.2
					c-1.4-6-1.4-12.2,0-18.1c1.7-5.8,5.4-10.7,10.4-13.9c4.9-3.1,10.8-4.2,16.5-3.1c7,1.6,12.5,6.8,14.4,13.7
					c1,4.8,1.5,9.6,1.5,14.5l-0.4-3.2c0.2,1.2,0.4,2.3,0.8,3.4l-1.2-2.8l0.2,0.4c1.5,2.8,1.9,6,1.2,9.1c-0.8,3-2.8,5.5-5.5,7.1
					c-2.8,1.6-6.1,2.1-9.2,1.3c-3-0.8-5.6-2.8-7.1-5.5c-0.9-1.8-1.6-3.7-2.1-5.7c-0.4-2-0.6-4-0.7-6c-0.1-2.3,0-4.6-0.3-6.8l0.4,3.2
					c-0.1-1.1-0.4-2.2-0.8-3.2l1.2,2.8c-0.3-0.6-0.6-1.2-1-1.8l1.9,2.4c-0.4-0.5-0.9-1-1.4-1.5l2.4,1.9c-0.5-0.3-0.9-0.6-1.5-0.9
					l2.8,1.2c-0.6-0.3-1.3-0.4-2-0.5l3.2,0.4c-0.8-0.1-1.7-0.1-2.5,0l3.1-0.4c-1,0.2-1.9,0.4-2.9,0.8l2.8-1.2
					c-0.9,0.4-1.8,0.9-2.6,1.5l2.4-1.9c-0.8,0.6-1.6,1.3-2.2,2.1l1.9-2.4c-0.6,0.9-1.2,1.8-1.6,2.9l1.2-2.8
					c-0.5,1.3-0.9,2.7-1.1,4.1c0.1-1.1,0.3-2.1,0.4-3.2c-0.2,2.3-0.2,4.7,0.1,7c-0.1-1-0.3-2.1-0.4-3.1c0.4,3.7,1.3,7.2,2.5,10.7
					l-1.2-2.8c0.3,0.7,0.7,1.4,1.2,2.1l-1.9-2.4c0.3,0.4,0.7,0.8,1.1,1.1l-2.4-1.9c0.3,0.2,0.6,0.4,1,0.6l-2.8-1.2
					c0.4,0.2,0.8,0.3,1.3,0.3l-3.2-0.4c0.4,0,0.7,0,1.1,0l-3.2,0.4c2.2-0.4,4.4-1.2,6.4-2.1l-2.8,1.2c2.4-1,4.7-2.2,6.8-3.8
					l-2.4,1.9c1-0.8,2-1.7,2.8-2.7l-1.9,2.4c0.7-0.9,1.3-1.9,1.7-3l-1.2,2.8c0.4-1,0.7-1.9,0.9-3l-0.4,3.2c0.1-1,0.1-2,0-3l0.4,3.2
					c-0.1-0.7-0.3-1.4-0.5-2l1.2,2.8c-0.3-0.6-0.6-1.3-1-1.8l1.9,2.4l-0.3-0.3c-2.2-2.2-3.4-5.2-3.5-8.3c0-3.1,1.2-6.1,3.4-8.4
					c2.2-2.3,5.3-3.5,8.5-3.5C786.1,496,789.1,497.2,791.4,499.4"/>
			</g>
			<g id="Gruppe_237" transform="translate(44.463 15.249)">
				<path id="Pfad_225" class="st1" d="M799.8,267.9c3.3,5.8,3.1,12.9-0.6,18.5c-1.7,2.7-4.1,5-7,6.6c-3,1.6-6.4,2.5-9.8,2.3
					c-6.3-0.4-12.2-3.2-16.5-7.8c-3.6-3.8-6.1-8.4-7.3-13.4c-0.6-2.6-0.9-5.2-0.7-7.8c0.3-3.5,1.2-6.9,2.7-10.1
					c1-2.1,2.5-4.1,4.2-5.7c1.7-1.7,3.6-3.1,5.7-4.1c5-2.6,10.9-3.3,16.4-1.9c3.1,0.9,6,2.5,8.3,4.6c0.7,0.7,1.4,1.5,2,2.3
					c0.7,0.9,1.3,1.8,1.8,2.8c1.5,2.9,2.3,6.1,2.3,9.4c0,1.6-0.2,3.2-0.5,4.8c-0.1,0.7-0.3,1.4-0.5,2c-1,3-2.7,5.7-4.9,8
					c-2.3,2.3-5.2,3.8-8.3,4.6c-3.1,0.8-6.3,0.3-9.1-1.2c-2.7-1.6-4.6-4.1-5.5-7.1c-0.8-3.1-0.4-6.4,1.2-9.2
					c1.5-2.7,4.1-4.7,7.1-5.5c0.4-0.1,0.9-0.2,1.3-0.3l-2.8,1.2c0.5-0.2,0.9-0.5,1.3-0.8l-2.4,1.9c0.4-0.3,0.8-0.7,1.1-1.1l-1.9,2.4
					c0.4-0.6,0.8-1.2,1.1-1.9l-1.2,2.8c0.3-0.8,0.5-1.6,0.6-2.4l-0.4,3.2c0.1-0.8,0.1-1.7,0-2.5c0.1,1.1,0.3,2.1,0.4,3.2
					c-0.1-0.8-0.3-1.5-0.5-2.2l1.2,2.8c-0.2-0.6-0.6-1.2-1-1.7l1.9,2.4c-0.3-0.4-0.7-0.8-1.2-1.2l2.4,1.9c-0.6-0.5-1.2-0.8-1.9-1.1
					l2.8,1.2c-0.7-0.3-1.4-0.5-2.1-0.6l3.2,0.4c-1-0.1-1.9-0.1-2.9,0l3.1-0.4c-1,0.1-1.9,0.4-2.8,0.8l2.8-1.2c-1,0.4-2,1-2.9,1.7
					l2.4-1.9c-0.7,0.5-1.3,1.2-1.9,1.9l1.9-2.4c-0.6,0.7-1,1.6-1.4,2.4l1.2-2.8c-0.4,1.1-0.8,2.2-0.9,3.4c0.1-1.1,0.3-2.1,0.4-3.2
					c-0.2,1.3-0.2,2.6,0,3.9l-0.4-3.2c0.2,1.6,0.6,3.1,1.3,4.6l-1.2-2.8c0.6,1.5,1.4,2.8,2.4,4.1l-1.9-2.4c0.8,1,1.7,1.9,2.6,2.6
					l-2.4-1.9c1,0.8,2,1.4,3.2,1.9l-2.8-1.2c0.9,0.3,1.8,0.6,2.7,0.7l-3.2-0.4c0.7,0.1,1.3,0.1,2,0l-3.2,0.4
					c0.6-0.1,1.1-0.2,1.7-0.4l-2.8,1.2c0.6-0.3,1.2-0.6,1.7-1l-2.4,1.9c0.5-0.4,1-0.9,1.4-1.4l-1.8,2.4c0.4-0.5,0.7-1.1,1-1.7
					l-1.2,2.8c0.2-0.6,0.4-1.2,0.5-1.8c-0.1,1.1-0.3,2.1-0.4,3.2c0-0.4,0-0.8,0-1.2l0.4,3.2c-0.1-0.5-0.2-1-0.4-1.5l1.2,2.8
					c-0.1-0.2-0.2-0.4-0.3-0.6c-1.6-2.8-2-6.1-1.2-9.1c0.9-3,2.8-5.5,5.5-7.1C789.3,260.5,796.5,262.4,799.8,267.9"/>
			</g>
			<g id="Gruppe_238" transform="translate(44.009 7.93)">
				<path id="Pfad_226" class="st1" d="M793.7,144.4c1.4,5.1,2,10.4,1.7,15.7c-0.4,6.2-3,12-7.3,16.4c-2.3,2.2-5.1,4-8.1,5.1
					c-3.4,1.2-7,1.4-10.5,0.6c-5-1.1-9.4-3.9-12.4-8.1c-5.9-8.2-7.9-18.5-5.6-28.2c1.1-5.2,3.9-10,7.9-13.5
					c5.2-4.6,12.2-6.5,19.1-5.3c6.7,1.5,12.1,6.4,14.2,12.9c2.3,6.5,0.7,13.7-4.1,18.7c-4.7,4.6-12.1,4.6-16.8,0
					c-4.5-4.7-4.5-12.1,0-16.8c0.2-0.2,0.4-0.4,0.5-0.6l-1.9,2.4c0.3-0.4,0.5-0.8,0.7-1.3l-1.2,2.8c0.2-0.5,0.3-0.9,0.4-1.4
					c-0.1,1.1-0.3,2.1-0.4,3.2c0.1-0.6,0.1-1.2,0-1.8l0.4,3.2c-0.1-0.7-0.3-1.5-0.6-2.2l1.2,2.8c-0.3-0.7-0.7-1.3-1.2-2l1.9,2.4
					c-0.4-0.5-0.9-0.9-1.4-1.3l2.4,1.9c-0.4-0.3-0.8-0.5-1.3-0.8l2.8,1.2c-0.7-0.3-1.4-0.5-2.1-0.6l3.2,0.4c-0.7-0.1-1.5-0.1-2.2,0
					l3.1-0.4c-0.9,0.1-1.7,0.4-2.6,0.7l2.8-1.2c-1,0.4-1.9,0.9-2.8,1.6l2.4-1.9c-0.8,0.7-1.6,1.4-2.3,2.3l1.9-2.4
					c-0.7,0.9-1.2,2-1.7,3l1.2-2.8c-0.6,1.4-0.9,3-1.1,4.5c0.1-1.1,0.3-2.1,0.4-3.2c-0.3,2.3-0.3,4.5,0,6.8l-0.4-3.2
					c0.3,2,0.8,4,1.6,5.8l-1.2-2.8c0.6,1.3,1.3,2.5,2.1,3.7l-1.9-2.4c0.6,0.7,1.2,1.4,2,2l-2.4-1.9c0.6,0.5,1.3,0.9,2,1.2l-2.8-1.2
					c0.7,0.3,1.5,0.5,2.3,0.6l-3.2-0.4c0.7,0.1,1.4,0.1,2.1,0l-3.1,0.4c0.7-0.1,1.4-0.3,2-0.6l-2.8,1.2c0.7-0.3,1.3-0.7,1.9-1.1
					l-2.4,1.9c0.8-0.6,1.6-1.4,2.2-2.2l-1.9,2.4c0.7-0.9,1.2-1.8,1.7-2.8l-1.2,2.8c0.5-1.3,0.8-2.6,1-3.9c-0.1,1.1-0.3,2.1-0.4,3.2
					c0.2-2.2,0.2-4.4-0.1-6.5l0.4,3.2c-0.4-2-0.8-4-1.2-5.9c-0.8-3.1-0.4-6.4,1.2-9.1c1.6-2.7,4.1-4.6,7.1-5.5
					C785.4,134.5,791.8,138.2,793.7,144.4"/>
			</g>
			<g id="Gruppe_239" transform="translate(44.174 0.767)">
				<path id="Pfad_227" class="st1" d="M792.8,34.1c2,2.2,3.5,4.9,4.3,7.8c0.7,3,0.8,6.1,0.1,9.1c-0.9,4.1-2.9,7.8-5.8,10.7
					c-7.2,7.1-18.5,8-26.8,2.2c-2.2-1.5-4.2-3.4-5.9-5.6c-1.7-2.2-3.1-4.7-4.1-7.3c-1.6-4.8-1.9-10-0.9-14.9
					c0.8-4.3,2.4-8.4,4.8-12.1c2.7-5.2,7.2-9.1,12.6-11.1c6.8-1.8,14,0.5,18.5,5.8c2.3,2.6,3.9,5.7,4.8,9.1c0.6,2.8,1.1,5.7,1.2,8.6
					c0,3.1-1.2,6.1-3.4,8.4c-2.2,2.2-5.3,3.4-8.4,3.4c-3.1,0-6.1-1.2-8.4-3.4c-2.1-2.3-3.3-5.3-3.4-8.4c0-0.9-0.2-1.7-0.3-2.6
					c0.1,1.1,0.3,2.1,0.4,3.2c-0.2-1.6-0.6-3.1-1.1-4.6l1.2,2.8c-0.3-0.8-0.7-1.5-1.2-2.1l1.9,2.4c-0.5-0.6-1-1.1-1.6-1.6l2.4,1.9
					c-0.5-0.3-1-0.6-1.5-0.9l2.8,1.2c-0.5-0.2-1.1-0.4-1.7-0.5l3.1,0.5c-0.4,0-0.9,0-1.3,0l3.2-0.4c-0.4,0.1-0.9,0.2-1.3,0.4
					l2.8-1.2c-0.4,0.2-0.8,0.4-1.2,0.7l2.4-1.9c-0.7,0.6-1.4,1.3-2,2l1.9-2.4c-1.6,2.1-3,4.5-4,6.9l1.2-2.8
					c-0.8,1.8-1.3,3.6-1.7,5.5l0.4-3.2c-0.2,1.6-0.2,3.2,0,4.8c-0.1-1.1-0.3-2.1-0.4-3.2c0.2,1.2,0.5,2.4,1,3.5l-1-2.8
					c0.4,1.1,1,2.1,1.7,3.1l-1.9-2.4c0.7,0.9,1.6,1.8,2.5,2.5l-2.4-1.9c0.8,0.6,1.7,1.1,2.6,1.5l-2.8-1.2c0.8,0.3,1.6,0.5,2.5,0.7
					l-3.2-0.4c0.8,0.1,1.7,0.1,2.5,0l-3.2,0.4c0.6-0.1,1.1-0.3,1.7-0.5l-2.8,1.2c0.7-0.3,1.3-0.7,1.9-1.1l-2.4,1.9
					c0.7-0.5,1.3-1.1,1.9-1.8l-1.9,2.4c0.5-0.7,1-1.4,1.3-2.2l-1.2,2.8c0.3-0.8,0.6-1.6,0.7-2.4l-0.4,3.2c0.1-0.7,0.1-1.4,0-2.1
					l0.4,3.2c-0.1-0.6-0.2-1.2-0.5-1.7L775,50c-0.2-0.4-0.4-0.8-0.7-1.2l1.9,2.4l-0.2-0.3c-2.1-2.3-3.3-5.3-3.4-8.4
					c0-3.1,1.2-6.1,3.4-8.4c2.2-2.2,5.3-3.4,8.4-3.4c3.1-0.1,6.2,1.2,8.4,3.4"/>
			</g>
			<g id="Gruppe_240" transform="translate(35.883 21.632)">
				<path id="Pfad_228" class="st1" d="M661.5,367.6c0.5,4.7,0.2,9.4-1,14c-1.6,5.6-5.3,10.4-10.3,13.4c-5.7,3.4-12.8,3.5-18.7,0.4
					c-4.5-2.7-7.9-6.9-9.4-12c-0.5-1.6-0.9-3.3-1-5c-0.3-1.8-0.4-3.7-0.4-5.5c0-5.3,1.2-10.5,3.4-15.3c4.6-10.1,16.6-14.5,26.7-9.9
					c0.7,0.3,1.3,0.6,1.9,1c2.6,1.7,4.8,4.1,6.3,6.9c1,2,1.8,4.1,2.2,6.4c0.7,4.9,0.6,10-0.4,14.8c-0.8,3-2.8,5.5-5.5,7.1
					c-2.8,1.6-6.1,2-9.1,1.2c-2.9-0.8-5.5-2.8-7-5.4c-1.5-2.8-1.9-6-1.2-9.1c0.1-0.6,0.2-1.2,0.3-1.7l-0.4,3.2
					c0.3-2.3,0.3-4.5,0.1-6.8l0.4,3.2c-0.2-1.1-0.4-2.2-0.8-3.2l1.2,2.8c-0.3-0.7-0.6-1.3-1-1.9l1.9,2.4c-0.3-0.4-0.7-0.8-1.1-1.1
					l2.4,1.9c-0.5-0.4-1.1-0.7-1.7-1l2.8,1.2c-0.5-0.2-1-0.3-1.5-0.4l3.2,0.4c-0.6-0.1-1.3-0.1-1.9,0l3.2-0.4
					c-0.6,0.1-1.3,0.3-1.9,0.5l2.8-1.2c-0.9,0.4-1.7,0.9-2.4,1.4l2.4-1.9c-0.6,0.5-1.2,1.1-1.7,1.7l1.9-2.4
					c-0.6,0.9-1.1,1.8-1.6,2.7l1.2-2.8c-0.6,1.6-1,3.3-1.3,5l0.4-3.2c-0.4,2.6-0.4,5.2-0.1,7.8l-0.4-3.2c0.2,1.4,0.6,2.8,1.1,4.1
					l-1.2-2.8c0.3,0.8,0.8,1.6,1.3,2.3l-1.9-2.4c0.4,0.5,0.8,0.9,1.3,1.3l-2.4-1.9c0.4,0.3,0.9,0.6,1.4,0.8l-2.9-1.2
					c0.5,0.2,1.1,0.4,1.7,0.5l-3.2-0.4c0.6,0.1,1.3,0.1,1.9,0l-3.2,0.4c0.6-0.1,1.3-0.3,1.9-0.5l-2.8,1.2c0.7-0.3,1.4-0.8,2-1.2
					l-2.4,1.9c0.6-0.5,1.2-1.1,1.7-1.7l-1.9,2.4c0.6-0.8,1.1-1.6,1.5-2.4l-1.2,2.8c0.5-1.4,0.9-2.8,1.1-4.3
					c-0.1,1.1-0.3,2.1-0.4,3.2c0.2-2.6,0.2-5.3,0-7.9c0-3.1,1.2-6.1,3.4-8.4c2.2-2.2,5.3-3.4,8.4-3.4c3.1,0,6.1,1.2,8.4,3.4
					c2.1,2.3,3.3,5.3,3.4,8.4"/>
			</g>
			<g id="Gruppe_241" transform="translate(35.33 14.315)">
				<path id="Pfad_229" class="st1" d="M652.5,247c9.7,8.8,12.4,23,6.5,34.7c-4.2,6.8-11.7,10.9-19.7,10.7
					c-7.5-0.2-14.6-3.6-19.4-9.4c-4.8-6.1-7.6-13.6-8-21.4c-0.5-6.9,1-13.7,4.4-19.7c3.6-6.4,9.7-11,16.9-12.6
					c7.9-1.9,16.2,0.4,22,6c5.2,6.1,8.1,13.8,8.3,21.8c0.8,8.4-3.3,16.5-10.5,21c-5.7,3.2-12.9,1.3-16.2-4.2
					c-3.2-5.7-1.3-12.9,4.3-16.2c0.4-0.2,0.7-0.5,1.1-0.7l-2.4,1.9c0.5-0.5,1-1,1.5-1.5l-1.9,2.4c0.4-0.6,0.8-1.2,1-1.8l-1.2,2.8
					c0.4-1,0.6-2,0.8-3l-0.4,3.2c0.2-1.9,0.2-3.8,0-5.6l0.4,3.2c-0.4-2.5-1.1-5-2.1-7.3l1.2,2.8c-0.5-1.2-1.1-2.3-1.9-3.4l1.9,2.4
					c-0.5-0.7-1.2-1.3-1.8-1.9l2.4,1.9c-0.7-0.6-1.6-1-2.4-1.4l2.8,1.2c-0.9-0.3-1.8-0.6-2.7-0.7l3.2,0.4c-1.1-0.1-2.2-0.1-3.3,0
					l3.2-0.4c-1.3,0.2-2.5,0.5-3.7,1l2.8-1.2c-1.2,0.5-2.3,1.2-3.4,1.9l2.5-1.9c-0.9,0.8-1.8,1.7-2.5,2.6l1.9-2.4
					c-0.9,1.2-1.6,2.4-2.2,3.7l1.2-2.8c-0.8,1.9-1.3,3.8-1.6,5.8c0.1-1.1,0.3-2.1,0.4-3.2c-0.3,2.6-0.3,5.1,0,7.7
					c-0.2-1.1-0.3-2.2-0.4-3.2c0.3,2.4,0.9,4.8,1.8,7l-1.2-2.8c0.7,1.5,1.5,3,2.4,4.3l-1.9-2.4c0.9,1.1,1.9,2.2,3,3.1l-2.4-1.9
					c1,0.7,2,1.2,3.1,1.7l-2.8-1.2c1.1,0.4,2.2,0.8,3.4,1l-3.1-0.4c1.2,0.1,2.3,0.1,3.5,0l-3.2,0.5c1-0.2,2-0.5,2.9-0.8l-2.8,1.2
					c0.7-0.3,1.4-0.7,2.1-1.2l-2.4,1.9c0.7-0.5,1.3-1.1,1.8-1.7l-1.9,2.4c0.6-0.8,1.1-1.6,1.4-2.4l-1.2,2.8c0.3-0.9,0.6-1.8,0.7-2.8
					l-0.4,3.2c0.2-1.4,0.2-2.9,0-4.3l0.4,3.2c-0.3-1.8-0.8-3.5-1.5-5.1l1.2,2.8c-0.7-1.6-1.5-3-2.5-4.4l1.9,2.4
					c-0.6-0.8-1.3-1.6-2.1-2.3c-4.6-4.6-4.6-12.1,0-16.8C640.4,242.5,647.8,242.5,652.5,247"/>
			</g>
			<g id="Gruppe_242" transform="translate(35.774 6.824)">
				<path id="Pfad_230" class="st1" d="M660.6,126.6c0.6,2.5,1,4.9,1.4,7.4c0.5,3.4,0.4,6.8-0.1,10.2c-0.4,2.7-1.4,5.4-2.8,7.7
					c-1.8,2.8-4.2,5.2-6.9,7.1c-0.6,0.4-1.3,0.8-1.9,1.1c-1.5,0.8-3.1,1.3-4.7,1.7c-3.8,0.8-7.7,0.5-11.3-1
					c-3.1-1.3-5.8-3.4-7.9-6.1c-1.7-2.4-3.1-5-4.1-7.8c-1.6-4.3-2.6-8.8-3.1-13.3c-0.3-2.8-0.1-5.7,0.6-8.5c0.9-3.3,2.5-6.4,4.8-9
					c3.5-3.9,8.2-6.3,13.4-6.9c2.9-0.4,5.8-0.3,8.6,0.4c2.3,0.5,4.4,1.5,6.4,2.8c2.8,1.9,5.2,4.4,6.8,7.4c1.6,3.1,2.5,6.5,2.6,10
					c0,1.8-0.1,3.6-0.5,5.4c-0.1,0.8-0.3,1.6-0.6,2.3c-1.1,3.3-2.9,6.3-5.4,8.7c-2.3,2.2-5.3,3.4-8.4,3.4c-3.1,0-6.1-1.2-8.4-3.4
					c-2.2-2.2-3.4-5.3-3.4-8.4c0-3.1,1.2-6.1,3.4-8.4c0.3-0.3,0.6-0.7,0.9-1.1l-1.9,2.4c0.5-0.6,0.9-1.3,1.2-2l-1.2,2.8
					c0.4-1,0.7-2,0.8-3l-0.4,3.2c0.1-0.9,0.1-1.8,0-2.8c0.1,1.1,0.3,2.1,0.4,3.2c-0.1-0.9-0.4-1.8-0.7-2.6l1.2,2.8
					c-0.4-0.8-0.8-1.6-1.4-2.3l1.9,2.4c-0.4-0.5-0.9-1-1.5-1.4l2.4,1.9c-0.6-0.5-1.3-0.9-2.1-1.2l2.8,1.2c-0.7-0.3-1.5-0.5-2.3-0.6
					l3.2,0.4c-1-0.1-2.1-0.1-3.1,0l3.2-0.4c-0.9,0.1-1.8,0.4-2.7,0.7l2.8-1.2c-0.8,0.4-1.6,0.8-2.4,1.4l2.4-1.9
					c-0.6,0.5-1.2,1.1-1.7,1.7l1.9-2.4c-0.4,0.6-0.8,1.3-1.1,2l1.2-2.8c-0.4,1-0.6,1.9-0.7,3l0.4-3.2c-0.2,1.5-0.2,3,0,4.5l-0.4-3.1
					c0.5,3.6,1.5,7.1,2.9,10.5l-1.2-2.8c0.5,1.1,1,2.1,1.7,3l-1.9-2.4c0.4,0.6,1,1.1,1.5,1.6l-2.4-1.9c0.5,0.4,1,0.7,1.6,0.9
					l-2.8-1.3c0.5,0.2,1.1,0.4,1.7,0.5l-3.1-0.5c0.5,0,1,0,1.4,0l-3.2,0.4c0.7-0.1,1.4-0.2,2.1-0.4l-2.8,1.2
					c0.8-0.3,1.6-0.8,2.3-1.3l-2.4,1.8c0.7-0.6,1.3-1.2,1.9-1.9l-1.9,2.4c0.5-0.7,1-1.5,1.4-2.3l-1.2,2.8c0.5-1.2,0.8-2.4,1-3.6
					l-0.4,3.2c0.2-1.8,0.1-3.6-0.1-5.4c0.1,1.1,0.3,2.1,0.4,3.2c-0.3-2-0.7-3.9-1.1-5.9c-0.8-3.1-0.4-6.4,1.2-9.1
					c1.6-2.6,4.1-4.6,7-5.4c3.1-0.8,6.4-0.4,9.1,1.2C657.8,121.1,659.8,123.6,660.6,126.6"/>
			</g>
			<g id="Gruppe_243" transform="translate(35.965 0)">
				<path id="Pfad_231" class="st1" d="M660.9,20.2c1.9,5.6,2.4,11.6,1.5,17.5c-1.2,5.6-4.7,10.5-9.7,13.5
					c-5.6,3.2-12.5,3.3-18.2,0.2c-3.8-2.2-6.9-5.5-8.8-9.5c-3.7-7.6-4.7-16.3-2.9-24.6c0.9-4.4,3.1-8.5,6.3-11.7
					c2.2-2.1,4.9-3.7,7.8-4.7c3.2-1,6.7-1.2,10-0.5c6.9,1.4,12.5,6.5,14.7,13.2c2.1,6.9,0.2,14.4-4.8,19.6c-4.6,4.6-12.1,4.6-16.8,0
					c-4.5-4.7-4.5-12.1,0-16.8c0.2-0.2,0.4-0.4,0.5-0.6l-1.9,2.4c0.4-0.6,0.8-1.2,1-1.8l-1.2,2.8c0.2-0.7,0.4-1.3,0.5-2
					c-0.1,1.1-0.3,2.1-0.4,3.2c0.1-0.7,0.1-1.4,0-2.1l0.4,3.2c-0.1-0.7-0.3-1.3-0.5-2l1.2,2.8c-0.2-0.5-0.5-1-0.8-1.4l1.9,2.4
					c-0.4-0.5-0.9-1-1.4-1.4l2.4,1.9c-0.5-0.4-1.1-0.7-1.7-1l2.8,1.2c-0.8-0.3-1.5-0.5-2.4-0.7l3.2,0.4c-0.7-0.1-1.3-0.1-2,0
					l3.2-0.4c-0.6,0.1-1.3,0.3-1.9,0.5l2.8-1.2c-0.7,0.3-1.3,0.7-1.9,1.1l2.4-1.9c-0.5,0.5-1,1-1.5,1.5l1.9-2.4
					c-0.6,0.8-1,1.6-1.4,2.5l1.2-2.8c-0.6,1.4-0.9,2.9-1.1,4.5l0.4-3.2c-0.3,2.3-0.3,4.6,0,7c-0.1-1.1-0.2-2.1-0.4-3.1
					c0.3,2,0.8,4,1.5,5.9l-1.2-2.8c0.5,1.3,1.2,2.4,2,3.5l-1.9-2.4c0.5,0.7,1.2,1.4,1.9,2l-2.4-1.9c0.5,0.4,1.1,0.7,1.7,1l-2.8-1.2
					c0.5,0.2,1,0.3,1.5,0.4l-3.2-0.4c0.6,0.1,1.1,0.1,1.7,0l-3.1,0.4c0.5-0.1,1-0.2,1.5-0.4l-2.8,1.2c0.6-0.3,1.2-0.6,1.7-1
					l-2.4,1.9c0.5-0.4,1-0.9,1.4-1.5l-1.8,2.4c0.5-0.7,0.9-1.4,1.3-2.2l-1.2,2.8c0.4-0.9,0.6-1.9,0.8-2.8l-0.4,3.2
					c0.1-1.3,0.1-2.6,0-3.9l0.4,3.2c-0.4-2.2-1-4.5-1.7-6.6c-1.7-6.3,2-12.8,8.3-14.6C652.6,10.3,659.1,13.9,660.9,20.2"/>
			</g>
			<g id="Gruppe_244" transform="translate(35.139 29.647)">
				<path id="Pfad_232" class="st1" d="M648,504.7l-0.5,0.6l1.9-2.4c-0.6,0.9-1.2,1.8-1.6,2.8l1.2-2.8c-1.5,3.8-2.2,7.7-4,11.4
					c-2.5,5.1-7,8.9-12.4,10.6c-3.1,0.9-6.4,0.9-9.5,0c-4-1.4-7.4-4.1-9.6-7.6c-1.3-2.1-2.3-4.4-3.1-6.8c-0.7-2.5-1.2-5.1-1.4-7.8
					c-0.4-4.3,0.2-8.6,1.7-12.6c1.7-5.5,5.3-10.3,10.1-13.6c9.9-5.4,22.3-1.8,27.7,8.1c0.1,0.3,0.3,0.5,0.4,0.8
					c2.8,5.7,3.5,12.2,1.8,18.3c-1.4,4.8-3.5,9.3-6.2,13.5c-1.6,2.6-4.1,4.6-7.1,5.5c-3.1,0.8-6.4,0.4-9.1-1.2
					c-5.6-3.4-7.5-10.6-4.3-16.2c1.4-2.2,2.6-4.5,3.7-6.8l-1.2,2.8c0.8-1.9,1.4-4,1.7-6c-0.1,1.1-0.3,2.1-0.4,3.2
					c0.1-1.2,0.1-2.4,0-3.7l0.4,3.2c-0.1-0.9-0.4-1.7-0.7-2.5l1.2,2.8c-0.4-0.9-0.9-1.8-1.5-2.6l1.9,2.4c-0.6-0.8-1.3-1.5-2.1-2.1
					l2.4,1.9c-0.6-0.4-1.2-0.8-1.9-1.1l2.8,1.2c-0.7-0.3-1.3-0.5-2-0.6l3.2,0.4c-0.6-0.1-1.1-0.1-1.7,0l3.2-0.4
					c-0.6,0.1-1.2,0.3-1.7,0.5l2.8-1.2c-0.5,0.2-1,0.5-1.4,0.8l2.4-1.9c-0.8,0.6-1.4,1.3-2,2.1l1.9-2.4c-0.8,1.1-1.4,2.2-1.9,3.4
					l1.2-2.8c-0.7,1.8-1.3,3.7-1.5,5.6l0.4-3.2c-0.2,1.8-0.2,3.6,0,5.4l-0.5-3.2c0.3,1.9,0.8,3.8,1.5,5.6l-1.2-2.8
					c0.4,0.9,0.9,1.8,1.5,2.6l-1.9-2.4c0.4,0.4,0.8,0.8,1.2,1.2l-2.4-1.9c0.3,0.2,0.7,0.4,1.1,0.6l-2.8-1.2c0.3,0.1,0.7,0.2,1.1,0.3
					l-3.2-0.4c0.4,0,0.7,0,1.1,0l-3.2,0.4c0.5-0.1,1-0.2,1.4-0.4l-2.8,1.2c0.6-0.3,1.2-0.6,1.7-0.9l-2.4,1.9c0.8-0.6,1.4-1.3,2-2
					l-1.9,2.4c0.6-0.7,1-1.5,1.4-2.4l-1.2,2.8c0.8-2.1,1.3-4.3,2-6.5c1.2-3.8,3.2-7.4,5.9-10.3c4.6-4.6,12.1-4.6,16.8,0
					C652.5,492.6,652.5,500,648,504.7"/>
			</g>
		</g>
	</g>
</g>
</svg>
