<?xml version="1.0" encoding="utf-8"?>
<!-- Generator: Adobe Illustrator 25.2.1, SVG Export Plug-In . SVG Version: 6.00 Build 0)  -->
<svg version="1.1" id="Ebene_1" xmlns="http://www.w3.org/2000/svg" xmlns:xlink="http://www.w3.org/1999/xlink" x="0px" y="0px"
	 viewBox="0 0 1200 1200" style="enable-background:new 0 0 1200 1200;" xml:space="preserve">
<style type="text/css">
	.st0{fill:#9BD2C3;}
</style>
<g>
	<path class="st0" d="M839.7,667.2c0.1-0.5,0.1-1,0.1-1.5c-0.1-2.9-0.6-5.8-1.2-8.6c-0.9-3.4-2.5-6.5-4.8-9.1
		c-4.5-5.3-11.7-7.6-18.5-5.8c-5.4,2-9.9,5.9-12.6,11.1c-2.4,3.7-4,7.8-4.8,12.1c-1,4.9-0.7,10.1,0.9,14.9c1,2.6,2.4,5.1,4.1,7.3
		c1.7,2.2,3.7,4.1,5.9,5.6c8.3,5.8,19.6,4.9,26.8-2.2c2.9-2.9,4.9-6.6,5.8-10.7c0.7-3,0.6-6.1-0.1-9.1
		C840.9,669.8,840.3,668.5,839.7,667.2z M815.9,663.3L815.9,663.3c0-0.1,0-0.1,0-0.2C815.9,663.2,815.9,663.2,815.9,663.3z
		 M818.5,678.6l-0.1-0.3c0.4,0.7,0.9,1.3,1.4,1.9l0.2,0.3L818.5,678.6z"/>
	<path class="st0" d="M698.8,899.9c-0.2-8.1-3.1-15.8-8.3-21.9c-5.8-5.6-14.1-7.9-22-6c-7.2,1.6-13.3,6.2-16.9,12.6
		c-3.4,6-4.9,12.8-4.4,19.7c0.4,7.8,3.2,15.3,8,21.4c4.8,5.8,11.9,9.2,19.4,9.4c8,0.2,15.5-3.9,19.7-10.7c2.3-4.6,3.3-9.5,3.1-14.4
		C698.6,906.9,699.2,903.4,698.8,899.9z"/>
	<path class="st0" d="M238.4,1014.2c-1-1.1-2.3-1.9-3.6-2.4c-2.3-6-7.4-10.4-13.8-11.9c-5.7-1.1-11.6,0-16.5,3.1
		c-5,3.2-8.7,8.1-10.4,13.9c-1.4,5.9-1.4,12.1,0,18.1c0.6,4.6,2,9.1,4.3,13.2c2.2,3.7,5.6,6.4,9.7,7.6c3.8,1,7.8,0.7,11.5-0.7
		c4.6-1.5,8.9-3.7,12.9-6.4c5.2-3.5,9-8.8,10.6-14.9c0.8-3.5,0.8-7.1,0.1-10.6C242.4,1019.8,240.7,1016.7,238.4,1014.2z M218,1022.3
		l-0.6,0.5C217.6,1022.6,217.8,1022.4,218,1022.3C218,1022.3,218,1022.3,218,1022.3z"/>
	<path class="st0" d="M93.9,878c-5.8-5.6-14.1-7.9-22-6c-7.2,1.6-13.3,6.2-16.9,12.6c-3.4,6-4.9,12.8-4.4,19.7
		c0.4,7.8,3.2,15.3,8,21.4c4.8,5.8,11.9,9.2,19.4,9.4c8,0.2,15.5-3.9,19.7-10.7c2.3-4.6,3.3-9.5,3.1-14.4c1.2-3.2,1.8-6.6,1.4-10.1
		C102,891.8,99.1,884.1,93.9,878z"/>
	<path class="st0" d="M405.1,649.4c-2.2-3.7-5.7-6.3-9.7-7.6c-3.8-1-7.8-0.7-11.5,0.7c-4.6,1.4-8.9,3.5-12.9,6.2
		c-5.3,3.5-9.1,8.8-10.7,14.9c-0.8,3.5-0.8,7.1-0.1,10.6c0.8,3.4,2.5,6.5,4.8,9c1.1,1.1,2.3,2,3.7,2.5c2.3,6,7.4,10.4,13.8,11.9
		c5.7,1.1,11.6,0,16.5-3.1c5-3.2,8.7-8.1,10.4-13.9c1.4-5.9,1.4-12.1,0-18.1C408.8,657.9,407.4,653.5,405.1,649.4z M385.7,675
		c-0.2,0.2-0.4,0.3-0.6,0.5L385.7,675z"/>
	<path class="st0" d="M360.3,948.8c2.4,2.1,5.2,3.7,8.3,4.6c5.5,1.3,11.4,0.6,16.4-2c2.1-1.1,4-2.5,5.6-4.1c1.7-1.6,3.2-3.5,4.2-5.7
		c1.6-3.2,2.5-6.6,2.8-10.1c0.2-2.6-0.1-5.2-0.7-7.8c-1.2-5-3.7-9.6-7.3-13.4c-4.3-4.6-10.2-7.4-16.5-7.8c-3.4-0.2-6.8,0.7-9.8,2.3
		c-2.9,1.6-5.3,3.9-7,6.6c-3.4,5.1-3.8,11.5-1.3,17c-0.1,0.4-0.2,0.8-0.3,1.2c-0.3,1.6-0.5,3.2-0.5,4.8c0,3.3,0.8,6.5,2.3,9.4
		c0.5,0.9,1.1,1.9,1.8,2.7C358.9,947.3,359.6,948.1,360.3,948.8z"/>
	<path class="st0" d="M397.2,1153.9c-1.7-2.2-3.7-4.1-5.9-5.6c-8.3-5.9-19.7-4.9-26.9,2.2c-2.9,2.9-4.9,6.6-5.8,10.7
		c-0.7,3-0.6,6.1,0.1,9.1c0.4,1.4,0.9,2.7,1.6,4c-0.1,0.5-0.1,1-0.1,1.5c0.2,2.9,0.6,5.8,1.3,8.6c0.9,3.4,2.5,6.5,4.8,9.1
		c4.5,5.3,11.7,7.6,18.5,5.8c5.4-2,9.9-5.9,12.6-11.1c2.4-3.7,4-7.8,4.8-12.1c1-4.9,0.7-10.1-0.9-14.9
		C400.3,1158.6,398.9,1156.1,397.2,1153.9z M381.5,1162.7l0.2,0.5c-0.4-0.7-0.9-1.4-1.5-2l-0.2-0.3L381.5,1162.7z M384,1177.9
		l0.1,0.1c0,0.1,0,0.3,0,0.4C384.1,1178.2,384.1,1178.1,384,1177.9z"/>
	<path class="st0" d="M361.5,556c0.9,3.4,2.5,6.5,4.8,9.1c4.5,5.3,11.7,7.6,18.5,5.8c5.4-2,9.9-5.9,12.6-11.1
		c2.4-3.7,4-7.8,4.8-12.1c1-4.9,0.7-10.1-0.9-14.9c-1-2.6-2.4-5.1-4.1-7.3c-1.7-2.2-3.7-4.1-5.9-5.6c-8.3-5.9-19.7-4.9-26.9,2.2
		c-2.9,2.9-4.9,6.6-5.8,10.7c-0.7,3-0.6,6.1,0.1,9.1c0.4,1.4,0.9,2.7,1.6,4c-0.1,0.5-0.1,1-0.1,1.5
		C360.4,550.3,360.8,553.2,361.5,556z M384,549.5l0.1,0.1c0,0.1,0,0.3,0,0.4C384.1,549.8,384.1,549.6,384,549.5z M381.5,534.3
		l0.2,0.5c-0.4-0.7-0.9-1.4-1.5-2l-0.2-0.3L381.5,534.3z"/>
	<path class="st0" d="M502.9,200.9c0.4,2.3,1.2,4.4,2.2,6.4c1.5,2.8,3.7,5.2,6.3,6.9c0.6,0.3,1.2,0.7,1.9,1
		c10.1,4.6,22,0.2,26.7-9.9c2.2-4.8,3.4-10,3.4-15.3c0-1.8-0.1-3.7-0.4-5.5c-0.1-1.7-0.5-3.4-1-5c-1.5-5.1-4.9-9.3-9.4-12
		c-5.9-3.1-13-3-18.7,0.4c-5,3-8.7,7.8-10.3,13.4c-1.1,4.1-1.4,8.2-1.1,12.4C502.4,196.1,502.6,198.6,502.9,200.9z"/>
	<path class="st0" d="M545.2,444.2c-0.5-4.5-1.5-9-3.1-13.3c-1-2.8-2.3-5.4-4.1-7.8c-2.1-2.7-4.8-4.9-7.9-6.2
		c-3.6-1.5-7.5-1.8-11.3-1c-1.6,0.4-3.2,0.9-4.7,1.7c-0.6,0.3-1.3,0.7-1.9,1.1c-2.8,1.9-5.2,4.3-7,7.2c-1.5,2.3-2.4,5-2.8,7.7
		c-0.5,3.4-0.6,6.8-0.1,10.2c-0.2,1.4-0.3,2.9-0.3,4.3c0.1,3.4,1,6.8,2.6,9.9c1.6,3,4,5.5,6.8,7.4c1.9,1.4,4.1,2.4,6.4,2.9
		c2.8,0.6,5.7,0.7,8.6,0.3c5.2-0.6,9.9-3,13.4-6.9c2.3-2.6,3.9-5.7,4.8-9C545.3,449.9,545.5,447,545.2,444.2z"/>
	<path class="st0" d="M100.4,383.6c-0.4-2.3-1.2-4.4-2.2-6.4c-1.5-2.8-3.7-5.2-6.3-6.9c-0.6-0.4-1.2-0.7-1.9-1
		c-10.1-4.6-22.1-0.2-26.7,9.9c-2.2,4.8-3.4,10-3.4,15.3c0,1.8,0.1,3.7,0.4,5.5c0.1,1.7,0.5,3.4,1,5c1.5,5.1,4.9,9.3,9.4,12
		c5.9,3.1,13,3,18.7-0.4c5-3,8.7-7.8,10.3-13.4c1.1-4.1,1.4-8.2,1.1-12.4C100.9,388.4,100.8,386,100.4,383.6z"/>
	<path class="st0" d="M48.8,540.1c0.8,2.4,1.8,4.7,3.1,6.8c2.2,3.5,5.6,6.2,9.6,7.6c3.1,0.9,6.4,0.9,9.5,0c1.7-0.5,3.2-1.3,4.7-2.2
		c0,0,0.1,0,0.1,0c3-0.9,5.5-2.9,7.1-5.5c2.7-4.2,4.8-8.7,6.2-13.5c1.7-6.1,1-12.6-1.8-18.3c-0.1-0.3-0.3-0.5-0.4-0.8
		c-5.4-9.9-17.8-13.5-27.7-8.1c-4.8,3.3-8.4,8.1-10.1,13.6c-1.5,4-2.1,8.3-1.7,12.6C47.6,535,48.1,537.6,48.8,540.1z M63,532.7
		C63,532.8,63,532.8,63,532.7C63,532.8,63,532.8,63,532.7L63,532.7L63,532.7z M62.7,532.8C62.7,532.8,62.7,532.8,62.7,532.8
		c-0.1,0-0.2,0.1-0.2,0.1L62.7,532.8z"/>
	<path class="st0" d="M1001.7,164.9c-2.2-3.7-5.6-6.4-9.7-7.6c-3.8-1-7.8-0.7-11.5,0.7c-4.6,1.4-8.9,3.5-12.9,6.2
		c-5.3,3.5-9.1,8.8-10.7,14.9c-0.8,3.5-0.8,7.1-0.1,10.6c0.8,3.4,2.5,6.5,4.8,9c1.1,1.1,2.3,1.9,3.7,2.5c2.3,6,7.4,10.4,13.8,11.9
		c5.7,1.1,11.6,0,16.5-3.1c5-3.2,8.7-8.1,10.4-13.9c1.4-5.9,1.4-12.1,0-18.1C1005.4,173.4,1004,169,1001.7,164.9z M982.4,190.6
		c-0.2,0.2-0.4,0.3-0.6,0.5L982.4,190.6z"/>
	<path class="st0" d="M983.2,394.5c-3.5-0.8-7.1-0.6-10.5,0.6c-3,1.1-5.8,2.9-8.1,5.1c-4.3,4.4-6.9,10.2-7.3,16.4
		c-0.3,5.3,0.3,10.5,1.7,15.6c0,0.1,0,0.1,0.1,0.2c0.1,1.5,0.4,2.9,0.9,4.3c2.1,6.5,7.5,11.4,14.2,12.9c6.8,1.2,13.8-0.7,19-5.3
		c4-3.5,6.8-8.3,7.9-13.5c2.3-9.8,0.3-20.1-5.5-28.2C992.6,398.4,988.2,395.6,983.2,394.5z"/>
	<path class="st0" d="M956.8,547.4c0.2,2.9,0.6,5.8,1.3,8.6c0.9,3.4,2.5,6.5,4.8,9.1c4.5,5.3,11.7,7.6,18.5,5.8
		c5.4-2,9.9-5.9,12.6-11.1c2.4-3.7,4-7.8,4.8-12.1c1-4.9,0.7-10.1-0.9-14.9c-1-2.6-2.4-5.1-4.1-7.3s-3.7-4.1-5.9-5.6
		c-8.3-5.9-19.7-4.9-26.9,2.2c-2.9,2.9-4.9,6.6-5.8,10.7c-0.7,3-0.6,6.1,0.1,9.1c0.4,1.4,0.9,2.7,1.6,4
		C956.9,546.4,956.8,546.9,956.8,547.4z M980.7,549.5l0.1,0.1c0,0.1,0,0.3,0,0.4C980.7,549.8,980.7,549.6,980.7,549.5z M978.1,534.3
		l0.2,0.5c-0.4-0.7-0.9-1.4-1.5-2l-0.2-0.3L978.1,534.3z"/>
	<path class="st0" d="M1099.5,200.8c0.4,2.3,1.2,4.4,2.2,6.4c1.5,2.8,3.7,5.2,6.3,6.9c0.6,0.4,1.2,0.7,1.9,1
		c10.1,4.7,22,0.3,26.7-9.8c2.2-4.8,3.4-10,3.4-15.3c0-1.8-0.1-3.7-0.4-5.5c-0.1-1.7-0.5-3.4-1-5c-1.5-5.1-4.9-9.3-9.4-12
		c-5.9-3.1-13-3-18.7,0.4c-5,3-8.7,7.8-10.3,13.4c-1.1,4.1-1.4,8.2-1.1,12.4C1099.1,196.1,1099.2,198.5,1099.5,200.8z"/>
	<path class="st0" d="M795.1,419.7c2.2,3.7,5.6,6.4,9.7,7.6c3.8,1,7.8,0.7,11.5-0.7c4.6-1.5,8.9-3.7,12.9-6.4
		c5.2-3.5,9-8.8,10.6-14.9c0.8-3.5,0.8-7.1,0.1-10.6c-0.8-3.4-2.5-6.5-4.8-9c-1.1-1-2.3-1.8-3.6-2.4c-2.3-6-7.4-10.5-13.8-11.9
		c-5.7-1.1-11.6,0-16.5,3.1c-5,3.2-8.7,8.1-10.4,13.9c-1.4,5.9-1.4,12.1,0,18.1C791.4,411.1,792.8,415.6,795.1,419.7z M814.8,393.8
		l-0.6,0.5C814.4,394.1,814.6,393.9,814.8,393.8C814.8,393.8,814.8,393.8,814.8,393.8z"/>
	<path class="st0" d="M802.9,59.1c1.7,2.2,3.7,4.1,5.9,5.6c8.3,5.8,19.6,4.9,26.8-2.2c2.9-2.9,4.9-6.6,5.8-10.7
		c0.7-3,0.6-6.1-0.1-9.1c-0.4-1.4-0.9-2.7-1.6-4c0.1-0.5,0.1-1,0.1-1.5c-0.1-2.9-0.6-5.8-1.2-8.6c-0.9-3.4-2.5-6.5-4.8-9.1
		c-4.5-5.3-11.7-7.6-18.5-5.8c-5.4,2-9.9,5.9-12.6,11.1c-2.4,3.7-4,7.8-4.8,12.1c-1,4.9-0.7,10.1,0.9,14.9
		C799.8,54.4,801.2,56.9,802.9,59.1z M818.6,49.8c0.2,0.3,0.4,0.7,0.6,1L818.6,49.8z M818.5,49.6l-0.6-1l-0.1-0.5
		c0.6,1.3,1.3,2.5,2.3,3.6l0.2,0.3L818.5,49.6z M815.9,34.8L815.9,34.8c0-0.1,0-0.1,0-0.2C815.9,34.6,815.9,34.7,815.9,34.8z"/>
	<path class="st0" d="M690.5,249.6c-5.8-5.6-14.1-7.9-22-6c-7.2,1.6-13.3,6.2-16.9,12.6c-3.4,6-4.9,12.8-4.4,19.7
		c0.4,7.8,3.2,15.3,8,21.4c4.8,5.8,11.9,9.2,19.4,9.4c8,0.2,15.5-3.9,19.7-10.7c2.3-4.6,3.3-9.6,3.1-14.5c1.3-3.2,1.8-6.6,1.4-10.1
		C698.6,263.4,695.7,255.7,690.5,249.6z"/>
	<path class="st0" d="M670.5,51.4c5.7,3.1,12.6,3,18.2-0.2c5-3,8.5-7.9,9.7-13.5c0.7-4.6,0.5-9.4-0.5-13.9c0.8-3.3,0.7-6.8-0.3-10.2
		c-2.2-6.7-7.8-11.8-14.7-13.2c-3.3-0.7-6.8-0.5-10,0.5c-2.9,1-5.6,2.6-7.8,4.7c-3.2,3.2-5.4,7.3-6.3,11.7c-1.8,8.3-0.8,17,2.9,24.6
		C663.6,45.9,666.7,49.2,670.5,51.4z M675.3,16.9l0.2-0.5C675.5,16.6,675.4,16.8,675.3,16.9z"/>
</g>
</svg>
