<?xml version="1.0" encoding="utf-8"?>
<!-- Generator: Adobe Illustrator 25.2.1, SVG Export Plug-In . SVG Version: 6.00 Build 0)  -->
<svg version="1.1" id="Ebene_1" xmlns="http://www.w3.org/2000/svg" xmlns:xlink="http://www.w3.org/1999/xlink" x="0px" y="0px"
	 viewBox="0 0 1468.3 1200" style="enable-background:new 0 0 1468.3 1200;" xml:space="preserve">
<style type="text/css">
	.st0{clip-path:url(#SVGID_2_);}
	.st1{fill:#9BD2C3;}
	.st2{fill:#FFFFFF;}
	.st3{fill:#FFCD9F;}
</style>
<g id="Gruppe_29" transform="translate(0)">
	<g>
		<defs>
			<rect id="SVGID_1_" width="1468.3" height="1200"/>
		</defs>
		<clipPath id="SVGID_2_">
			<use xlink:href="#SVGID_1_"  style="overflow:visible;"/>
		</clipPath>
		<g id="Gruppe_28" transform="translate(0 0)" class="st0">
			<g id="Gruppe_12" transform="translate(10.411 15.94)">
				<path id="Pfad_9" class="st1" d="M445.3,710.1c-11.4,19.7-18.6,41.7-20.9,64.4c-1.2,20.6,6.1,40.9,20,56.1
					c31.2,29.5,79.3,31.8,113.1,5.3c28.6-21.6,44.3-56.1,41.8-91.9c-0.8-39.7-24.4-75.3-60.6-91.5c-24.5-6.3-50.5,2.4-66.2,22.3
					c-17.2,16.5-31.2,36-41.3,57.6c-5.8,10.2-2.4,23.1,7.6,29.2c10.2,6.2,23.5,3.3,30.1-6.7c6-13.3,13.7-25.8,22.9-37.1
					c4.8-5.5,9.9-10.7,15.4-15.6c2.7-2.5,5.4-4.8,8.4-7c5-3.6,2.2-1.5,1.6-1.2c0.4-0.3,5.1-2.3,4-2c-0.5,0-4.8-1.5,1.9,0
					c-1.1-0.2-2.8-1,1.6,0.4c2.3,0.7,4.4,1.8,6.3,3.3c2.1,1.4,4,3.1,5.7,5c1.1,1.1,2.2,2.4,3.3,3.5l1.4,1.7c-0.9-1.2-0.9-1.2,0,0
					c3.7,5,6.8,10.5,9.2,16.2c-1.2-2.9,1.5,4.6,1.7,5.2c0.9,3.1,1.7,6.3,2.3,9.5c0,0.4,0.8,4.8,0.5,2.6c-0.3-2.2,0,2.2,0.2,2.7
					c0.2,2.9,0.3,5.8,0.3,8.6c0,2.9-0.4,5.7-0.8,8.4c0,3.6,0.7-2.7,0,0.8c-0.3,1.8-0.7,3.5-1.1,5.3c-0.7,3.1-1.6,6.2-2.7,9.3
					c-0.4,1.3-1,2.9-1.5,4c-1.4,3.3,1.3-2.5-0.4,0.7c-1.4,2.4-2.7,5.1-4.3,7.5c-0.8,1.2-1.6,2.4-2.5,3.5s-2.9,3.9-1.3,2
					c-7.3,8.9-17.1,15.4-28.1,18.6c-10.1,2.9-21,1.5-30.1-3.8c-9.5-5.9-15.1-16.6-14.4-27.9c1.4-16.4,6.4-32.3,14.8-46.5
					c5.8-10.2,2.4-23.2-7.6-29.2C465.3,697.2,452,700.2,445.3,710.1"/>
			</g>
			<g id="Gruppe_13" transform="translate(14.706 12.237)">
				<path id="Pfad_10" class="st2" d="M648.8,555.2c-12.3,20.7-19.6,44.1-21.3,68.1c0.6,23.4,10.5,45.6,27.5,61.7
					c17.3,19.1,41.5,30.5,67.2,31.6c22.4-0.9,43.4-11,58.1-27.9c15.4-18.9,25.2-41.6,28.4-65.7c4.8-23,3.1-46.9-5-68.9
					c-8.2-21.2-24.1-38.5-44.7-48.3c-21.3-9.3-45.5-9.3-66.8,0c-20.9,9.4-39.5,23.2-54.6,40.4c-21.1,19.2-34.6,45.4-38.2,73.7
					c0.4,11.9,10.1,21.5,22,21.7c11.8,0.3,21.6-9.1,22-20.9c2.5-14.9,9.8-28.6,20.9-39c9.4-10.9,20-20.8,31.7-29.2
					c5.6-3.8,11.6-7,18-9.4c5.2-1.9,10.7-2.7,16.2-2.3c5.3,0.3,10.4,2,14.8,4.9c4.7,3,8.9,6.9,12.1,11.5
					c14.2,27.1,14.3,59.4,0.4,86.6c-4.9,12.7-14.6,23-27,28.5c-2.7,0.9-5.5,1.6-8.4,2c-2,0.1-3.9,0.1-5.9-0.2
					c-8.2-2-15.9-5.9-22.3-11.4c-12-8.1-20.1-20.8-22.4-35.1c0.5-17.6,5.8-34.8,15.1-49.8c5.8-10.2,2.4-23.2-7.6-29.2
					C668.7,542.3,655.4,545.2,648.8,555.2"/>
			</g>
			<g id="Gruppe_14" transform="translate(14.011 20.943)">
				<path id="Pfad_11" class="st3" d="M619.7,898.7c-13.6,18.5-24.8,38.6-33.4,59.9c-4.1,22.1,2.3,44.8,17.5,61.4
					c28,33.6,74.8,44.4,114.7,26.6c39.8-22.2,40-80.6,26.8-118.8c-6.5-19.8-17.7-37.7-32.4-52.3c-7.3-7.2-15.6-13.4-24.6-18.2
					c-13.7-6.6-30.1-4.2-41.4,6.1c-42.3,29.3-69.9,75.4-75.7,126.5c-1.4,11.4,11.1,21.5,22,21.7c11.8,0.2,21.6-9.1,22-20.9
					c4.4-30,18.6-57.6,40.5-78.5c5-4.8,10.4-9.2,16-13.2c1.9-1,3.8-2.2,5.4-3.6l1.9-1.1l-11,0.5c1.8,1.3,3.8,2.5,5.8,3.6
					c0.6,0.4,5.4,4.2,2.7,1.9c10.7,8.6,19.1,19.8,24.3,32.6c-0.4-1-1.1-3.1,0.5,1c0.7,1.8,1.3,3.5,1.9,5.3c1.1,3.2,2,6.4,2.8,9.6
					c1.8,6.5,2.7,13.2,2.7,19.9c0,3.3,0,6.6,0,9.9c0,2.2-0.3,4.4-0.5,6.6c0,0.5-0.7,4.2,0,0.9c-0.6,4.4-1.7,8.8-3.1,13
					c0-0.5-1.4,3.4-1,2.5c-0.2,0.5-4.8,6.7-2.1,3.6c-1.4,1.5-2.8,2.9-4.5,4.2c1-0.7,2.8-1.4-0.6,0c0.4,0-5.6,2.7-3,1.6
					c2.7-1.1-3.6,1-3.3,1c-1.4,0.3-2.8,0.6-4.2,0.9c-5.9,1.3,3.3,0.3-2.9,0.3c-3.7,0-7.3,0-10.9-0.3c-6.8-0.6,2.2,0.5-1.8-0.3
					c-1.8-0.4-3.6-0.9-5.4-1.3c-1.8-0.4-2.8-0.8-4.2-1.3c-0.3,0-6.8-2.9-2.8-1c-3-1.4-6-3-8.8-4.8c-1.6-1-3.1-2-4.6-3.1
					c2.8,2.2-2.3-2-2.3-2c-1.4-1.2-2.7-2.5-3.9-3.8c-0.6-0.6-4.9-5.8-2.8-3c-2.1-2.8-3.9-5.9-5.3-9.1c1.5,3.2-0.3-0.8-0.5-1.6
					c-0.2-0.9-1.7-7.5-1.2-3.5c-0.2-1.3-0.2-2.6-0.2-3.9c0,0,0.6-6.1,0-3.1c3-17.5,20.4-33,28.7-49.7c5.8-10.2,2.4-23.2-7.6-29.2
					C639.6,885.8,626.3,888.8,619.7,898.7"/>
			</g>
			<g id="Gruppe_15" transform="translate(17.675 17.887)">
				<path id="Pfad_12" class="st2" d="M742.3,780.7c-1.1,8.8-3.1,17.4-6,25.8c-3.6,11.7-4.5,24-2.4,36c5.5,20.2,19.4,36.9,38.3,45.9
					c39.3,23.5,89,20.6,125.3-7.4c16.5-15.7,25.7-37.6,25.3-60.3c1.6-22.3-5-44.5-18.5-62.3c-31-30.9-78.2-38.9-117.7-19.9
					c-22.9,7-43.2,20.6-58.5,39.1c-14,20.2-8.9,47.8,11.2,61.8c0.8,0.5,1.6,1.1,2.4,1.5c10.3,6,23.4,3.1,30.2-6.7
					c6-10.1,2.6-23.1-7.5-29.1c-0.1,0-0.1-0.1-0.2-0.1c-4.8-2.6,0,0,0,0.3l0.6,1.5c-0.8-1.9-1.1-2.2-0.5-0.8c0,2.9-0.4-3.1,0,0
					s0-3.2,0-3c-0.4,4.6,1.7-4.1,0.2-0.8c0,0,2.1-3.4,0.7-1.6c1.6-1.9,3.4-3.6,5.3-5.1c4.6-3.5,9.4-6.5,14.5-9.1
					c6.6-3.7,13.5-6.9,20.6-9.7c12.2-4.9,25.4-6.7,38.5-5.3c-3.1-0.4,0.7,0,1.1,0.3c1.5,0.4,3,0.7,4.6,1.1s3.8,1.2,5.6,1.8
					c3.7,1.3-2.4-1.3,1,0.4c3.1,1.5,6.2,3.2,9,5.2c-0.7-0.5-2.5-2.4,0.9,0.7c1.4,1.3,2.8,2.6,4.2,4.2c2.7,2.8-2.1-3.8,1.5,1.8
					c0.8,1.3,1.6,2.5,2.3,3.9c1,2.1,1.8,4.3,2.3,6.5c1.7,6.5,2.4,13.2,2.2,20c0.4,7.3-0.8,14.7-3.5,21.5c-1.9,4.4-4.8,8.3-8.6,11.1
					c-8.2,7.1-18.4,11.2-29.2,11.7c-6.8,0.5-13.5,0-20.2-1.5c-3.6-0.8-7.2-1.8-10.6-2.8l-5.3-2c-5.7-2,0.8,0.8-3.5-1.4
					c-3.5-1.8-6.8-3.7-10.1-5.7c-2.2-1.5-4.3-3.2-6.2-5.1c-3.2-2.9-5-7-5-11.4c0.3-7,1.7-13.9,4.2-20.5c3.1-9.6,4.9-19.5,5.4-29.6
					c-0.4-11.9-10.1-21.4-22-21.7c-11.8-0.3-21.7,8.9-22,20.7c0,0,0,0.1,0,0.1"/>
			</g>
			<g id="Gruppe_16" transform="translate(20.101 23.27)">
				<path id="Pfad_13" class="st3" d="M871.6,996.2c-22.3,12.8-39.6,32.8-49.1,56.7c-6.7,24.2-1.1,50.2,15,69.5
					c28.1,44.3,82.7,63.8,132.5,47.4c21.5-9.4,38.6-26.7,47.9-48.3c12.7-23.5,18.9-50,17.8-76.7c-3.1-23.7-13.8-45.9-30.5-63.1
					c-8-8.6-16.7-16.4-26.1-23.4c-11.9-9.1-27.3-12.3-41.8-8.6c-60.7,12.5-87.7,72.1-107.5,122.3c-2.9,11.5,3.9,23.3,15.4,26.4
					c11.4,3.3,23.3-3,27.1-14.2c9-34.3,29.3-64.5,57.6-85.8c5.7-3.8,12.2-6.4,19-7.4c5.1,0,7.8,3.3,12.5,7.3
					c11.9,9.5,21.4,21.6,27.6,35.5c5,16.5,4,34.3-3,50.1c-3.9,15.1-11.7,28.9-22.6,40.1c-24.9,16.6-58.3,11.9-77.7-10.9
					c-10.9-10.6-24.6-26.9-22.1-42.6c4.8-15.8,15.6-29,30.1-37c10.2-5.6,14-18.4,8.4-28.7c0,0,0,0,0,0
					C895.8,994.2,882.4,990.4,871.6,996.2"/>
			</g>
			<g id="Gruppe_17" transform="translate(23.726 17.322)">
				<path id="Pfad_14" class="st3" d="M1031,738.3c-38.5,33.5-49.5,88.8-26.8,134.5c26.7,40,80.7,50.9,120.8,24.2
					c2.4-1.6,4.8-3.4,7-5.2c36.3-35.4,42.7-91.5,15.2-134.2c-11.8-22.3-31.5-39.5-55.2-48.1c-23.2-6.9-48.3-3.5-68.8,9.4
					c-40.5,24.4-77.6,81.4-41.8,124.9c8.5,8.5,22.1,8.9,31.1,1c8.4-7.9,8.8-21.1,0.8-29.5c-0.1-0.2-0.3-0.3-0.5-0.5
					c2.7,3.3-0.9-1.8-1.1-2.2c0.5,0.8,1,3.7,0-0.3c0-0.5-1.4-6.6-0.8-2c-0.1-1.3-0.2-2.6-0.2-3.9c0-1.7,0-3.3,0.2-4.9
					c0.4-3.5-1.6,4.6,0.4-1.3c1-4,2.3-7.9,3.9-11.8c-0.5,1-1.7,3,0.4-0.5c1-1.9,2.1-3.7,3.1-5.5c1.6-2.6,3.4-5.2,5.3-7.6
					s-3.4,3.7,1.5-1.8c1.3-1.4,2.6-2.8,4-4.2c3-3,6.2-5.9,9.5-8.6c9.7-8.5,22.5-12.7,35.3-11.8c-1.1,0-3.5-1,1.2,0.3
					c2,0.5,4,1.1,6,1.8c3.9,1.4-3.8-2.4,2.5,1.2c1.5,0.8,2.9,1.6,4.2,2.5c5.9,4,11.2,9.1,15.4,14.8c9.2,12.8,14.9,27.8,16.3,43.6
					c1.6,14.7-2.6,29.4-11.7,41c1.4-1.8-1,1.1-1.1,1.2c-1.6,1.8-3.3,3.4-5.1,5c-2.1,2.1-4.6,3.7-7.3,4.9c-4.9,2.4-10.1,4-15.5,4.6
					c-3.8,0.2-7.6,0.1-11.4-0.4c4.2,0.5-3.2-0.8-3.3-0.8c-1.5-0.4-2.9-0.9-4.4-1.3c-6.6-1.9,1.6,1-2-0.7c-1.7-0.8-3.4-1.8-5-2.8
					c-3-1.8-5.7-4.1-7.9-6.9c0,0-2.5-3.2-1-1c-1.6-2.2-3-4.5-4.2-6.8c-1.5-2.8-2.6-5.7-3.3-8.8c-0.6-2.2-1.1-4.5-1.5-6.8
					c0.5,3.1-0.2-3.8-0.2-3.7c0-1.5,0-3,0-4.6c0-0.8,0.7-8.7,0.3-5.8c3.6-18.8,12.7-36.2,26.3-49.7c8.4-8.2,8.6-21.6,0.4-30
					c0,0,0,0,0,0C1053.6,730.9,1040,730.4,1031,738.3"/>
			</g>
			<g id="Gruppe_18" transform="translate(21.081 11.486)">
				<path id="Pfad_15" class="st2" d="M912.7,508.6c-18.3,16.4-32.6,36.8-41.8,59.6c-7.5,21-4.8,44.2,7.2,62.9
					c26.3,33.9,73.9,42.4,110.4,19.9c36.2-25.7,53.7-70.5,44.5-113.9c-3.4-20-13.5-38.3-28.7-51.8c-18.6-15.6-43.7-21-67.1-14.2
					c-25.8,9-47.7,26.5-62.1,49.7c-8.8,11.2-14.3,24.6-15.9,38.8c-0.9,13.9,4.8,27.4,15.3,36.5c8.6,8.2,22,8.6,31.2,1
					c8.4-7.9,8.7-21.2,0.7-29.5c-0.1-0.1-0.3-0.3-0.4-0.4l-1.5-1.3c-1.7-1.8-1.9-1.8-0.4,0l-0.9-1.7l0.7,1.5l-0.7-1.8
					c0,2.3,0,2.1,0-0.4c-0.1-1.3-0.1-2.6,0-3.9c-0.7,4.2,1.4-3.3,1.5-3.3c-0.9,2.3,0.7-1.3,0.8-1.5c2.5-4.2,5.3-8.3,8.2-12.3
					c7.9-12.6,19.2-22.7,32.7-29.2c-2.8,1.2,1.6-0.5,2.3-0.8c1.8-0.5,3.7-0.9,5.5-1.4c6.5-1.6-1.6,0,2.2-0.3c1.9,0,3.8,0,5.6,0
					c6.6,0-1.7-0.6,2,0.3c1.7,0.4,3.3,0.9,5,1.5c-4.1-1.4-0.2-0.3,1,0.4c2,1.1,4,2.3,5.8,3.7c-3.3-2.5-0.5-0.4,0,0.3
					c1.3,1.4,2.8,2.8,4.2,4.2c2.8,3,0.8,1.1,0.3,0.3c1,1.7,2.3,3.3,3.1,5.1c0.8,1.8,1.3,2.3,1.9,3.5c0,0.3,2.5,6.3,1.1,2.4
					c1.4,3.8,2.6,7.8,3.5,11.8c2.3,11.7,1.8,23.8-1.5,35.3c-0.9,3.1-2,6.1-3,9c-2.1,6.3,1.9-3.3-1.1,2.6c-0.6,1.3-1.3,2.5-2,3.8
					c-1.7,3.1-3.7,5.9-5.6,8.9c-3.4,5.3,2.6-2.3-1.8,2.3c-1.4,1.5-2.9,3-4.4,4.5s-3.2,2.8-4.8,4.2c0.8-0.6,2.9-1.7-0.8,0.4
					c-2.8,1.7-5.7,3.2-8.8,4.5c4.2-1.7-4.2,1-5.5,1.3c-0.7,0-6.8,0.8-1.8,0.4c-1.9,0-3.8,0.2-5.7,0c-1.9-0.2-3.2,0-4.7,0
					s-5.4-0.8-0.7,0c-3.1-0.6-6.1-1.4-9.1-2.3c0,0-5.6-2.4-2.5-0.9s-2.1-1.3-2.1-1.3c-1.3-0.9-2.7-1.7-4.2-2.4
					c-1.3-0.9-1-0.7,0.8,0.8c-0.8-0.8-1.7-1.6-2.5-2.4c-0.8-0.8-1.7-1.8-2.5-2.6c-1.6-1.9-1.6-1.8,0,0c-0.7-1-1.3-2-1.9-3
					c-0.6-1.1-1.2-2.1-1.7-3.3c1.3,3-0.8-3.3-0.9-4.2c-0.9-3.6,0,4.5-0.3-1.9c0-2.1,0-4.2,0-6.4c0-0.3,1.1-6.9,0.3-2.9
					c0.4-2.1,0.9-4.2,1.5-6.3s1.3-4.2,2.1-6.1c-1.5,3.9,1.3-2.4,1.5-2.8c2.5-4.5,5.3-8.8,8.4-12.9c5.8-7.4,12.1-14.3,18.9-20.9
					c8.4-8.1,8.5-21.5,0.4-29.9c0,0,0,0-0.1-0.1C935.3,501.1,921.7,500.7,912.7,508.6"/>
			</g>
			<g id="Gruppe_19" transform="translate(12.293 7.066)">
				<path id="Pfad_16" class="st1" d="M597.7,306.1c-37.2,11.8-66.8,40.1-80.2,76.8c-7.5,18-6.4,38.5,3,55.6
					c13.7,18.7,37,27.7,59.8,23c40.8-7.1,71.6-40.8,75.2-82.1c4.8-43.6-25-83.4-68.1-91.2c-23.2-0.7-45.4,9.4-60.3,27.2
					c-15.9,17.8-25.2,40.7-26.1,64.6c0.4,11.9,10.1,21.5,22,21.7c11.8,0.3,21.7-9,22-20.9c0-2.1,0-4.2,0.5-6.4c0,1-0.7,3.5,0-0.7
					c0.7-3.5,1.6-6.9,2.8-10.2c0.5-1.3,1-2.7,1.5-4.2c-1.3,3.2,0,0,0.3-0.6c2-3.7,4.3-7.3,6.8-10.6c3.2-4.1,6.8-7.9,10.9-11.1
					c4.7-4.2-1.9,1,1.2-0.9c1.4-0.9,2.9-1.7,4.2-2.5c1.3-0.8,2.4-1.2,3.6-1.7c-3.7,1.7,1.4-0.4,2.4-0.7c0,0,6.1-1.1,3-0.7
					c-3.1,0.4,3.3,0,3.1,0c4.2,0,1.2,0,0,0c-0.4,0,6.4,1.8,3.5,0.8s3.2,1.7,3.1,1.7c1.3,0.7,2.5,1.5,3.6,2.4
					c-2.8-2.2,0.7,0.8,1.3,1.4c1.9,1.7,3.7,3.5,5.4,5.4c-2.1-2.7,1.8,3,2.5,4.2c1,1.8,2,3.6,2.9,5.4c0.3,0.6,1.3,3.7,0.2,0.6
					c1.1,3.2,2.1,6.4,2.9,9.7c0.3,1.3,0.5,2.6,0.8,4c-0.7-4.2,0,2.3,0,2.5c0.2,3.3,0.2,6.7,0,10c0,0.9-0.8,3.9,0,0.3
					c-0.4,1.6-0.7,3.3-1.1,4.8c-0.8,2.8-1.7,5.6-2.9,8.4c1.6-3.8-0.2,0.2-0.7,1.1c-1,1.8-2,3.5-3.1,5.2c-1.1,1.7-1.9,2.8-2.9,4.2
					c2.1-2.8,0,0-0.3,0.4c-2.3,2.5-4.7,4.8-7.3,7c-1,0.9-2.1,1.7-3.2,2.5c3-2.2-0.6,0.3-1.4,0.8c-3.2,1.9-6.6,3.6-10.1,5
					c3.2-1.3,0,0-0.5,0l-5.8,1.4c-0.7,0-4.2,0.5-0.4,0c-1.3,0-2.7,0-4.2,0s-7.1-0.7-2.1,0c-1.3-0.2-2.5-0.6-3.8-0.9
					c-3.9-0.9-1-0.3,0,0.3c-1.1-0.6-2.2-1.2-3.3-1.9c1.7,1.4,1.9,1.6,0.8,0.5l-0.7-0.7c-1.7-1.9-1.8-1.9,0,0c0,0-2.2-4.7-0.3,0
					c-0.6-1.4-0.8-2.9-1.3-4.2c-1-2.8-0.2,4.2,0-0.9c0-1.2,0-2.5,0-3.7c0,0,0.6-6,0-2.8c-0.6,3.2,0.6-2.8,0.6-2.7
					c0.4-1.8,1-3.7,1.5-5.5c0.5-1.8,0.8-2.5,1.3-3.7c0.4-1.2,2.3-5.6,0.7-2.1c1.6-3.6,3.5-7.1,5.6-10.4c1.8-2.8,3.7-5.5,5.6-8.4
					c3.6-5.1-1.6,1.7,0.9-1.1c1.5-1.8,3.1-3.5,4.8-5.1c2.4-2.3,4.8-4.6,7.4-6.7c1.3-1.1,2.6-2.1,4-3.1c1.3-1,1.1-0.8-0.4,0.3
					l2.5-1.6c3.2-1.7,6.5-3.2,9.9-4.6l3.6-1.7l3.8-1.5c-2,0.8-1.9,0.7,0.5,0c11.3-2.7,18.4-14.1,15.6-25.5c0-0.1,0-0.2-0.1-0.3
					C621.1,310.2,609.4,303.4,597.7,306.1"/>
			</g>
			<g id="Gruppe_20" transform="translate(7.198 10.857)">
				<path id="Pfad_17" class="st2" d="M364.5,476.4c-16.3,10.6-29.8,24.9-39.4,41.8c-10.1,18.4-10,40.7,0.2,59.1
					c20.8,30.3,61.1,40.2,93.5,22.8c32.7-20.7,48.8-59.8,40-97.5c-3.9-20-15.6-37.7-32.4-49.2c-18.3-12.2-41.4-14.3-61.6-5.7
					c-17.8,8.8-33.1,22.1-44.2,38.5c-15.6,18.4-25.1,41.1-27.2,65.1c0.4,11.9,10.1,21.5,22,21.7c11.8,0.3,21.6-9.1,22-20.9
					c0-0.4,0.8-7,0-2.5c0.3-2,0.8-4,1.3-5.9c0.9-3.3,2-6.5,3.2-9.6c-1.7,4.2,0.9-1.8,1.1-2.2c0.9-1.8,1.9-3.6,3-5.4
					c2.1-3.5,4.2-7.1,6.8-10.4c2.6-3.4,4.2-5.6,6.2-8.4c0.5-0.7,4.7-6.1,1.1-1.5c1-1.3,2.1-2.5,3.2-3.7c4.1-4.5,8.5-8.7,13.2-12.5
					c4.2-3.4-3.8,2.1,0.8-0.6c1.4-0.8,2.7-1.7,4.2-2.4c1.5-0.8,1.9-0.9,2.9-1.4c4.5-2.3-4.2,0.8,0.8-0.3l4.7-1.1c4.8-1.1-3-0.3,0,0
					c1.4,0,3,0,4.4,0c-5.4,0,1.5,0.6,3,0.9c5.3,1.1-2.4-1.5,0.4,0c1.3,0.7,2.7,1.4,4.2,2.2s5.4,4.2,1.4,0.7c1.4,1.2,2.7,2.4,4.2,3.7
					c1.5,1.3,1.6,1.8,2.4,2.7c-3.3-3.6,0.3,0.6,0.8,1.4c0.9,1.5,1.7,3,2.6,4.6c2.7,4.8-1.1-3.8,0.7,1.4c1.1,3.4,2,6.8,2.8,10.2
					c0.8,3.4,0,0.6,0-0.3c0,1.8,0.4,3.5,0.5,5.3c0.2,3.1,0.2,6.2,0,9.4c0,1.4-0.1,2.8-0.4,4.2c1.5-4.9-0.6,1.7-0.9,2.9
					c-0.6,2.7-1.4,5.3-2.3,7.9c-0.5,1.6-1.1,3.2-1.9,4.6c2.5-4.2,0.5-1.2,0,0c-1.4,2.7-3,5.2-4.7,7.6l-1,1.2
					c-1.5,1.9-1.3,1.7,0.5-0.5c-0.5,1.3-2.4,2.6-3.4,3.5c-1,0.9-2.5,2.1-3.7,3.2c-3.9,3.4,3.8-1.9-0.9,0.6c-1.8,0.9-5.2,3.8-7.2,3.6
					l2.5-1l-2.8,0.8l-2.8,0.6c-5.1,1,0,0.4,0,0c-1.9,0.3-3.9,0.4-5.9,0.3c-1,0-1.9,0-2.9,0c-5-0.2,5,1.3,0,0
					c-2.5-0.6-5.2-1.8-7.6-2.2c-2.5-0.4,4.9,2.6,0.8,0.4c-1.3-0.7-2.5-1.3-3.8-2c-0.3,0-3.4-2.4-3.5-2.3c0.6-0.4,4.2,3.6,0.3,0
					c-0.2,0-2.7-3-2.8-3c2,2.6,2.3,3,1,1.1c-0.4-0.6-0.7-1.2-1-1.8c-2.5-3.7,0.7,0.7,0,0.7c-0.8-2-1.4-4-1.7-6.1c0.9,3.9,0,1.2,0,0
					s1-8.4,0-3.2c0.4-1.8,0.9-3.5,1.5-5.3c0-0.7,2.4-6.2,0.3-1.5c1.8-3.9,4.1-7.6,6.6-11c0.3-0.7,2.7-3,0.3-0.4
					c1.8-1.9,3.5-3.8,5.4-5.7c6.4-5.8,13-11.3,20-16.4c8.4-7.9,8.8-21.1,0.8-29.5c-0.1-0.2-0.3-0.3-0.5-0.5
					C387.1,469.2,373.6,468.7,364.5,476.4"/>
			</g>
			<g id="Gruppe_21" transform="translate(16.617 1.992)">
				<path id="Pfad_18" class="st1" d="M695.7,162.2c-2.1,34.5,24.2,64.2,58.8,66.3c1.2,0.1,2.3,0.1,3.5,0.1
					c37.2,0.2,67.8-29.2,69.1-66.4c0.5-33.7-20.1-64.1-51.6-76c-31.1-11.6-66.2-1.6-86.6,24.6c-10.3,14.5-14.1,32.7-10.6,50.1
					c3.3,17.8,13.5,33.5,28.4,43.8c10.2,6.2,23.5,3.3,30.1-6.7c5.8-10.2,2.4-23.2-7.6-29.2c5.3,3.9-0.7-0.8-1.9-2.1l-0.9-1
					c-1.5-1.8-1.2-1.4,0.8,1.1c0,0-1.7-2.5-1.6-2.3c-1.3-1.9-2.4-4-3.3-6.1c0.4-0.3,1.5,4.4,0.6,1.2c-0.5-1.8-1.1-3.5-1.5-5.3
					c-0.1-0.9-0.3-1.8-0.5-2.7c1.6,4.2,0.3,2.9,0,0.7c-0.1-2-0.1-4.1,0-6.1c0-0.5,0-0.9,0-1.4c0.3-2.3,0-1.8-0.2,1.5
					c0.3-0.9,0.5-1.8,0.6-2.7c0.3-1.3,0.8-2.6,1.2-3.9c1.1-4.2-2.4,4.2,0,0c1.2-2.1,2.4-4.2,3.7-6c2.3-3.5-0.8,1.1-0.8,1
					c-0.1-0.1,2.8-2.8,3-3l2.3-1.8c3.7-3.2-4.2,2.2,0,0c2.1-1.2,4.2-2.4,6.4-3.5l1.5-0.7c2.2-0.8,1.8-0.7-1.1,0.4
					c0.9-0.4,1.9-0.7,2.9-0.8c2.5-0.3,4.9-0.8,7.3-1.5c-3,1.6-3.3,0.3-0.5,0c1.2,0,2.5,0,3.7,0h3l3,0.3c-3.4-0.5-3.9-0.6-1.5,0
					c2.4,0.6,4.2,1.1,6.5,1.9c2.9,1,1.8,2.1-0.5-0.3c0.8,0.5,1.7,1,2.7,1.4c1.3,0.7,5.8,2.7,6.3,4.2l-2.1-1.7l2.3,2
					c1.1,1,2.2,2.1,3.2,3.2c1,1.1,1.6,1.9,2.5,2.8c2.1,2.3-2.9-4.2,0-0.2c1.4,2.1,2.7,4.2,3.9,6.4c0.2,1,0.5,2,1,2.9l-1-2.5
					c0.4,0.9,0.7,1.8,1,2.8c0.8,2.3,1.3,4.7,1.9,7.1c1.2,4.8,0-4.6,0,0.4c0,1,0,2,0,3s0,3.2,0,4.8s0.7,3.2,0-0.8
					c-0.2,2.7-0.8,5.3-1.9,7.8c-0.2,1.1-0.6,2.1-1.1,3c1.3-2.7,1.4-3,0.3-0.8c-0.5,0.9-1,1.9-1.6,2.8c-0.5,0.9-1.1,1.8-1.8,2.7
					s-3.5,3.9-1.2,1.7c2.4-2.2-1.4,1.2-1.5,1.4c-0.8,0.8-1.7,1.4-2.4,2.1c-3.8,3.5,3.8-2-0.6,0.4l-2.7,1.5l-1.4,0.7
					c-2.2,0.9-1.9,0.9,0.9,0c-1.4,0.7-2.9,1.1-4.5,1.3l-3,0.6c-2.4,0.3-2,0.3,1,0h-3.1h-3.1c-4.8,0,4.2,1.2-0.3,0l-4.3-1.3
					c-4.7-1.1,3.9,2.4-0.3,0c-1.1-0.8-2.2-1.3-3.3-1.9c-4.7-3,2,2.5-0.8-0.6c-0.7-0.7-1.5-1.4-2.1-2.1c-0.6-0.7-1.3-1.5-2-2.3
					c1.7,2.3,2.1,2.8,1.2,1.5c-0.9-1.3-1.3-2.1-2-3.1c-0.6-1-0.7-1.3-1.1-2c-0.7-1.5-0.5-0.9,0.7,1.7c-0.7-0.4-0.7-2.7-1-3.5
					c-0.4-0.8-0.4-1.4-0.5-2.1c-0.4-2.3-0.4-1.9,0,1.2c0.2-2.9,0.2-5.8,0-8.6c-0.3-12-10-21.5-22-21.7c-11.8-0.2-21.6,9.1-22,20.9"
					/>
			</g>
			<g id="Gruppe_22" transform="translate(7.793 0)">
				<path id="Pfad_19" class="st2" d="M371.5,14.4c-29.5,19.3-43.3,55.5-34.2,89.6c6.4,17.5,19.9,31.5,37.2,38.3
					c16.4,5.9,34.6,3.7,49.1-5.9c15.3-10.1,26-25.9,29.6-43.9c3.7-16.9,3.3-34.4-1.2-51.1c-5-18.6-19.2-33.3-37.6-39
					c-18.3-5-37.8-1.9-53.7,8.4c-28.8,18.3-57.5,58-35,91.9c6.3,10.2,19.3,13.9,30,8.6c10.2-5.4,14-18.1,8.6-28.2
					c-0.1-0.2-0.2-0.3-0.3-0.5c0-0.3-1.9-3.5-2.1-3.5c1.3,0,1.4,4.4,0.7,1.5c-0.2-1.3-0.6-2.6-1.1-3.8c1.7,1.9,0.3,4.2,0.4,1.7
					c0-1.3,0-2.5,0-3.8c0-3.7,0,1.5-0.3,1.8c1-0.7,1.7-6.2,2.3-7.7c1.6-4.5-2.5,4.2,0,0c0.5-0.8,0.9-1.7,1.3-2.5
					c1.2-1.9,2.5-3.8,3.9-5.6l0.8-1.1c1.4-1.8,1.1-1.5-0.9,1c0.6-0.7,1.2-1.4,1.9-2c2.1-2.2,4.3-4.3,6.6-6.3c1-0.9,2.1-1.8,3.2-2.7
					c1.1-0.9,3.6-3.4,0.3-0.3c2.2-1.7,4.6-3.1,7.2-4.2c0,0,5.1-2.3,2-1s2-0.5,2.2-0.5c1.3-0.3,2.7-0.5,4-0.8c1.3-0.3,1.1,0-1.6,0
					h3.3c1.1-0.1,2.2-0.1,3.3,0l-2.6-0.3c1.1,0,2.1,0.4,3.2,0.7c1.1,0.2,2.1,0.6,3.1,1l-2.5-1c1,0.5,1.9,1,2.8,1.6
					c4.2,2.2-1-0.6-0.7-0.7c1.1,0.9,2.2,2,3,3.1c0,0.3-2.4-3.9-0.8-0.9c0.5,0.8,1,1.7,1.5,2.5c1,2.1,0.9,1.7-0.1-1
					c1.1,2.1,1.8,4.5,2,6.8c0.2,1,0.4,1.9,0.6,2.9c1.1,5-0.3-4.7,0,0.4c0.5,5.9,0.7,11.7,0.4,17.6c0,1.5-0.1,3-0.4,4.5
					c1.2-4.2,0-1.2,0-0.3c-0.7,2.9-1.3,5.8-2.2,8.7l-0.6,1.7c-0.9,2.3-0.9,2.2,0-0.3c-0.4,1.1-1,2.2-1.7,3.2
					c-0.8,1.3-1.6,2.4-2.4,3.6c-2.5,3.9,3.3-3,0,0c-2,1.4-3.8,3-5.5,4.8l2.1-1.5c-0.8,0.5-1.7,1-2.5,1.5l-2.4,1.5
					c-4.2,2.1,4.5-0.8-0.3,0c-0.9,0-1.9,0.4-2.8,0.6c-4.6,1,4.6,0.5,0,0h-1.8c-2.5-0.2-2,0,1.5,0.4c0,0-3.1-0.8-3.5-0.9
					c-4.2-1.3,0.7-0.5,0.8,0.5c-1-0.7-2-1.3-3.1-1.8c-3.8-2.4,0.3,0.6,0.4,0.6c0.1,0-4.8-4.5-5.1-5.1c-3.3-3.5,1.8,3,0.3,0.3
					c-0.8-1.5-1.8-2.9-2.6-4.4c-0.5-0.8-0.9-1.7-1.3-2.6c1.2,2.8,1.4,3.2,0.6,1c-0.3-0.9-0.6-1.9-0.8-2.8s-0.4-1.9-0.6-2.8
					c-0.9-4.2,0,4.4,0-1c0-1.2,0-2.4,0-3.5c0-4.8-1,3.2,0-1c0.3-1.3,1.3-9.1,2.9-9.6l-0.8,2c0.5-1,1-2,1.5-3c0.8-1.5,1.7-3,2.5-4.4
					s1.6-2.3,2.4-3.5c0.8-1.1,3.9-6.1,1.3-1.7c4.2-5.6,9.3-10.5,15.1-14.5c8.4-7.9,8.8-21.1,0.9-29.5c-0.2-0.2-0.3-0.3-0.5-0.5
					C394,7.2,380.6,6.7,371.5,14.4"/>
			</g>
			<g id="Gruppe_23" transform="translate(1.061 2.33)">
				<path id="Pfad_20" class="st2" d="M105.3,117.8c-17.2,13.4-31,30.7-40.3,50.4c-8.1,18.9-6.3,40.5,4.8,57.8
					c22.8,30.5,65,38.9,97.8,19.5c33.5-23.5,46.6-66.9,31.7-105.1c-6.8-21.3-23.7-37.9-45.3-44.1c-21.9-3.6-44.2,2.4-61.4,16.4
					c-20.3,13.2-36.1,32.3-45.1,54.7c-7.8,23.2-4.6,48.7,8.6,69.3c6.3,10.2,19.3,13.9,30,8.6c10.2-5.4,14-18.1,8.6-28.2
					c-0.1-0.2-0.2-0.3-0.3-0.5c-1.1-1.8-2.1-3.5-3.1-5.3c-2-3.4-0.8-1.4-0.4-0.5c-1.4-3.4-2.4-7-3.2-10.6c-0.8-3.6,0,4.7-0.3-1.5
					c0-1.7,0-3.3,0-5s0-3.3,0-5c0.2-4.8-0.9,2,0.4-2.3c0.8-3.3,1.9-6.6,3.1-9.8c-1.8,4.2,1.3-2,1.4-2.3c0.9-1.5,1.8-3,2.8-4.4
					c1-1.5,2-2.9,3-4.2c4-5.3-1.4,1.5,1.2-1.4c2.6-2.9,5.4-5.7,8.4-8.4c2.9-2.7,5.4-4.7,8.4-6.9c0.2,0,5.9-4.2,2.2-1.7
					c1.2-1,2.6-2.2,4.1-2.8c2.9-1.8,5.8-3.4,8.9-4.8c0.8-0.4,5-1.9,1.3-0.7c1.9-0.7,3.7-1,5.7-1.6c5.1-1.6-3.3-0.6,2.2-0.3
					c1.3,0,2.6,0,3.9,0c-5.1-0.3,0.8,0.6,1.8,0.8c-4.2-1.1-0.8-0.4,0.6,0.4c1.5,0.8,4.2,3,0.9,0.3c1.2,1,2.4,2.1,3.5,3.3
					c0.7,0.8,3.3,4.2,0.9,0.8c1.1,1.6,2.2,3.2,3.1,4.9c1,1.7,2,3.4,2.6,5.2c-1.6-3.6,0,0.3,0.3,1.3c1,3,1.5,6.1,2.3,9.2
					c0.9,3-0.3-4.7,0.2,1c0,1.5,0.3,3.1,0.3,4.7c0,3.5,0,6.9-0.3,10.3c-0.3,6,1.2-4-0.3,1.8c-0.4,1.5-0.6,3.1-1,4.6
					c-0.8,3-1.8,5.9-2.9,8.8c-1.2,3.2,2.6-4.2-0.4,0.6c-0.8,1.3-1.5,2.7-2.3,4c-0.8,1.3-1.7,2.5-2.5,3.8c-2.7,3.9,2.1-1.6-1.2,1.3
					c-1.4,1.2-2.8,2.5-4.2,3.8c-3.8,3.8,2-0.8-0.8,0.7c-1.2,0.6-2.3,1.4-3.5,2l-1.7,1c2.8-1.5-1.4,0.4-1.9,0.6
					c-1.3,0.4-2.6,0.6-3.9,0.9c-1.3,0.3-5.1,0.6,0,0c-1.9,0-3.8,0.2-5.6,0c-1.8-0.2-2.7,0-4.2,0c-5.1,0,3.3,1.1,0.3,0
					c-3-1.1-4.8-0.9-7.3-1.6c-2.5-0.7-3.5,0.2,0.3,0.3c-1.2-0.4-2.4-1-3.5-1.8c-1.1-0.6-2.2-1.4-3.3-2c-3.6-2,2.7,3.1-0.9-0.8
					c-0.8-0.9-1.8-1.8-2.6-2.7c-3.2-3.1,1.6,3.2-0.3-0.5c-0.7-1.3-1.5-2.7-2.2-4.2c2.5,5,0-0.5,0-1.6c-1.5-5.1-0.5,3-0.3-2.3
					c0-2,0-3.9,0-5.9c-0.4,4.7,0.4-1.6,0.6-2.2c0.5-1.9,1.2-3.8,1.8-5.7c1.8-5.6-1.4,1.7,0.5-1.2c1.3-2,2.3-4.2,3.6-6.2
					c0.8-1.2,1.6-2.4,2.5-3.6s1.8-2.3,2.7-3.5c-1.2,1.5-0.9,1.2,0.8-0.7c6.2-6.3,12.5-12.5,19.2-18.2c8.3-8,8.5-21.2,0.5-29.5
					c-0.1-0.1-0.2-0.3-0.4-0.4c-8.6-8.3-22.1-8.8-31.2-1"/>
			</g>
			<g id="Gruppe_24" transform="translate(5.794 4.904)">
				<path id="Pfad_21" class="st2" d="M272.8,249.7c-29.2,25.5-32.1,69.8-6.6,99c1.9,2.2,4,4.3,6.2,6.3
					c28.7,24.8,70.5,27.1,101.7,5.6c15.2-12.1,26.1-28.8,30.9-47.6c5.9-18.3,6.9-37.8,2.8-56.5c-12-38.7-50.7-62.6-90.7-56
					c-41.2,7.1-73.5,39.5-80.5,80.8c-2.8,11.5,4,23.2,15.4,26.4c11.4,3.4,23.4-3,27-14.2c1.3-6.2,3.2-12.3,5.5-18.3
					c1.2-3.3-2.5,4.4,0.3-0.6c0.7-1.3,1.4-2.7,2.1-4.2c1.8-3.1,3.8-6.1,6-9c0.7-0.9,3.3-4.2,0.4-0.7c1-1.1,2-2.3,3.1-3.3
					c2.3-2.4,4.8-4.5,7.4-6.7c0.7-0.6,3.3-2.3,0,0c1.4-1,3-2,4.6-2.9s2.1-1.2,3.4-1.7c1.3-0.5,6.8-2.7,4.2-1.9
					c-2.6,0.8,2.4-0.6,2.4-0.6c1.7-0.5,3.4-0.8,5.1-1.1l3.5-0.5c-5.3,0.7,0.5,0,1.4,0c3,0,5.9,0.4,8.9,0.4c-4.2,0-2-0.4-0.6,0
					c2.3,0.5,4.6,1,6.8,1.7l3.3,1.1c5.5,1.8-4.2-2.3,1,0.4c2.5,1.4,5,2.8,7.4,4.4c3.4,2.2,0,0-0.4-0.3c1.3,1.2,2.5,2.3,3.7,3.5
					s1.5,1.7,2.3,2.5c-3.5-4.2,1,1.8,1.6,2.8c0.6,1,1.2,2.2,1.7,3.3c-2-4.2,0.3,1.2,0.5,1.9c0.2,0.7,0.7,2.4,1,3.5
					c0.3,1.2,1.1,6.6,0.5,1.8c0.4,3.1,0.5,6.2,0.5,9.3c0,1.5,0,3.1,0,4.7c0,1.5-0.9,7.6,0,2.8c-1,6.4-2.5,12.6-4.6,18.7
					c-0.5,1.6-1.3,3.1-1.7,4.7c-1.1,3.5,2.4-4.2-0.5,1.2c-2.5,3.6-4.6,6.9-6.8,10.3c-3.2,4.9,1.7-1.3-0.8,1.1
					c-1.2,1.1-2.3,2.4-3.5,3.5c-1.3,1.1-2.6,2.3-4,3.3c0.5-0.5,3.8-2.2,0.5-0.5c-2.4,1.3-4.7,2.5-7.2,3.5c5.1-2.1,0,0-0.9,0
					c-0.9,0-3.1,0.9-4.7,1.1c-1.6,0.3-6.4,0.5-0.8,0.3l-3.3,0.3c-2.8,0-5.5-0.3-8.1-0.5c-5.4-0.4,4.6,1.3-0.6,0l-3.3-0.9
					c-1.6-0.5-3.1-1-4.7-1.5c-5.1-1.5,4.1,2.3-0.6-0.2c-2.9-1.6-5.7-3.3-8.4-5.2c4.6,3.2,0.4,0-0.5-0.7c-0.9-0.7-2.4-2.3-3.6-3.5
					c-3.8-4.2,0.8,1.8-0.7-1.1c-0.9-2-2.3-3.9-3.4-5.8c1.8,3.5,0,0-0.4-1.2c-0.7-2.1-1.1-4.2-1.6-6.3c0.8,3.8,0,1,0,0
					c0-2.4,0-4.9,0-7.3c0,3.9-0.3,1.4,0,0c0.9-2.2,1.5-4.6,2.2-6.9c0.3-1.1,1.9-3.4,0,0c1.2-2.1,2.5-4.2,3.7-6.3c0.5-0.8,2.6-3,0,0
					c1.6-1.8,3.3-3.5,5.1-5.1c8.4-7.9,8.8-21.1,1-29.5c-0.2-0.2-0.3-0.3-0.5-0.5C295.3,242.4,281.8,242,272.8,249.7"/>
			</g>
			<g id="Gruppe_25" transform="translate(0 9.729)">
				<path id="Pfad_22" class="st2" d="M54,421.9c-28.5,24.9-41.1,63.3-33.1,100.2c3.4,18.9,15.1,35.3,32,44.5
					c19.9,9.4,43.1,8.3,62-2.9c31.7-20.2,49.7-56.2,47-93.7c-0.7-19.7-7.8-38.7-20.2-54c-14.3-15.7-35.8-22.8-56.6-18.8
					c-42,11-74.5,44.3-84.3,86.5c-2.9,11.5,3.9,23.2,15.4,26.4c11.4,3.3,23.3-3,27.1-14.2c0.9-3.3,1.9-6.5,3.1-9.7
					c0-0.4,1.8-4.7,1-2.7c-0.9,2,1.9-4.2,1.9-3.6c3.1-6.1,6.7-11.9,10.8-17.3c0,0,2.5-3.1,0.8-1.1c1-1.2,2-2.3,3.1-3.4
					c2.1-2.2,4.3-4.4,6.6-6.6c1.3-1.1,2.7-2.2,4.1-3.3c0.3-0.3,3.9-2.8,2-1.6c-1.9,1.3,1.9-1.1,2.3-1.3c1.8-1.1,3.8-2.1,5.7-3
					c0.4,0,4.4-2,2.3-1.2c-2.1,0.8,2-0.6,2.5-0.8c1.7-0.5,3.4-0.8,5.1-1.3c0.7,0,4.2-0.5,0.5-0.2c1.5,0,8.6,0.4,4.2-0.3
					c1.4,0.3,2.7,0.5,4,1c5.3,1.3-2.6-1.9,2.2,1c3.5,2.1,1.4,0.9,0.6,0c1.1,1,1.8,2,3,3c4.4,4.2-0.8-1.6,1.1,1.3
					c0.8,1.2,1.5,2.3,2.2,3.5c0.7,1.2,1.3,2.4,1.9,3.7c1.6,3.3-1.2-4.4,0.6,1.7c0.9,3.1,1.9,6.2,2.5,9.2c0.2,0.8,1,5.3,0.5,2
					c0.2,1.4,0.3,2.9,0.4,4.2c0.1,2.8,0.1,5.6,0,8.4c0,2.8-0.3,5.6-0.6,8.4c0.5-3.7-0.3,0.9-0.5,1.7c-0.2,2.3-0.6,4-1,5.8
					c-2.8,10.2-8,19.5-15.4,27.1c-2,2-4.2,3.9-6.5,5.6c2.5-1.8-0.4,0-0.9,0.4c-1.2,0.7-2.5,1.3-3.8,2.1c-5.3,3.1,1.6-0.2-1.8,0.9
					c-1.4,0.4-2.8,0.7-4.2,1.1c-3.5,0.8,2.7,0-0.9,0.2c-0.8,0-6.6,0-4.8,0s-1.9-0.5-2.5-0.6c-0.5-0.1-5.1-2.3-1.7-0.5
					c-1.3-0.6-2.5-1.4-3.7-2.3c1,0.8,2,2-0.3-0.7c-0.5-0.5-2.3-3.2-0.5-0.5c-0.9-1.2-1.6-2.4-2.3-3.8c-2-3.2-1-1.4-0.5-0.4
					c-0.8-1.9-1.4-3.9-2-5.9c-0.4-1.3-0.7-2.7-1-4.2c0,0-1-6.6-0.6-2.9c-0.4-3.5-0.5-7-0.4-10.5c0-1.4,0-2.8,0-4.2
					c0.3-6.5-0.9,3.6,0.3-2.7c0.7-3.4,1.6-6.8,2.8-10.1c0.4-1.3,0.9-2.7,1.3-4s2.8-6.1,1-2.5c1.4-2.9,2.9-5.7,4.6-8.4
					c0.9-1.3,1.8-2.7,2.9-4.2c2-3-0.3,0.1,1.1-1.5c2.6-2.9,5.4-5.6,8.4-8.1c8.4-7.9,8.8-21.1,0.8-29.5c-0.1-0.2-0.3-0.3-0.5-0.5
					C76.6,414.6,63.1,414.2,54,421.9"/>
			</g>
			<g id="Gruppe_26" transform="translate(6.255 22.165)">
				<path id="Pfad_23" class="st2" d="M324.1,928.3c-35,26.5-49.4,72.3-35.7,114c10.2,19.4,30,31.9,51.9,32.7
					c20.8,1.4,41.2-6.2,56.1-20.9c14.3-14.8,24-33.3,28.1-53.5c6.3-21.1,3.5-43.9-7.5-62.9c-11.2-17.3-28.9-29.4-49.1-33.4
					c-21.5-3.4-43.5,1.9-61,14.9c-18.7,14.7-33.8,33.4-44.1,54.9c-8.1,11.7-10,26.6-5,40c4.8,11.8,9.7,23.6,14.6,35.3
					c3.6,11.3,15.3,18.1,26.9,15.6c11.2-2.6,18.3-13.7,15.7-25c0-0.2-0.1-0.4-0.1-0.6l-9.7-23.6c-1.6-3.9-3.3-7.9-4.8-11.8
					c-0.5-1.5-1.1-2.9-1.8-4.3c-0.8-3.7-1.1-2.9-0.8,2.5c0.8-2.5,0.8-2.7,0-0.7c3-6.3,6.5-12.5,10.3-18.4c2-3.4,4.1-6.7,6.3-10
					c1.3-2,2.8-3.8,4.2-5.8c0.7-1.1,1.5-2.2,2.5-3c2.5-2.7,5.1-5.2,7.9-7.6l3-2.6c4.7-4-3.2,1.5,2.2-1.5c3.1-1.7,6.1-3.5,9.2-4.8
					c0.7-0.3,3.8-1.3,0.5-0.2c1.9-0.6,3.9-1.2,5.9-1.6c0.5,0,6.9-0.7,2.5-0.5c1.4,0,2.8,0,4.2,0c1.4,0,6.9,1,1.7,0
					c1.3,0.3,2.5,0.5,3.7,0.9s3,1,4.6,1.5c3.3,1-4.2-2.5,0.7,0.4c1.1,0.7,2.2,1.2,3.3,1.9c1.1,0.7,2.1,1.3,3.3,2c-2-1.6-2-1.5,0,0
					c0.7,1.2,1.6,1.8,2.5,2.7c0,0,4.2,4.5,2,2.1c-2.2-2.4,1.6,2.5,1.5,2.4c0.6,1,1.2,2.3,1.8,3.2c2.8,4.8-0.6-3.4,0.5,1.8
					c0.5,1.2,0.8,2.4,1.1,3.6c1.3,5.4,0.5-1.9,0.4,3.6c0,2.3,0,4.6,0,6.8c-0.6,6.2-1.8,12.4-3.8,18.4c-1,3.4-2.2,6.8-3.5,10.1
					c0.4-0.9,1.7-3.3-0.3,0.7c-0.9,1.9-1.9,3.8-3,5.6c-1.7,3.1-3.7,6-6,8.7c2.7-3.1-2.1,1.9-2.2,2c-1,1-2.1,1.9-3.2,2.8
					c-4.8,4.2,1.4-0.6-1.5,1.1c-1.3,0.8-2.7,1.5-4.2,2.3c-3.3,1.8-1,0.6,0,0.2c-2.4,0.9-4.9,1.3-7.3,2c-0.8,0-4.2,0.6,0,0
					c-1.6,0.2-3.2,0.3-4.8,0.4c-1.6,0-3.1,0-4.7-0.2c4.2,0,1.6,0.4,0.3,0c-1.3-0.4-3.6-1.1-5.3-1.5c3.7,0.8,1.8,1,0.4,0
					c-1.4-1-3.2-1.8-4.6-2.9c3.1,2.3,0.3,0-0.9-1.4c2.5,2.7,0.4,0.6,0-0.3c-0.4-0.9-1.3-2.3-1.9-3.4c0.9,2.1,0.9,2,0-0.3
					c-0.3-1.2-0.7-2.5-1-3.7c-1.1-4.4-0.4,2-0.2-2.3c0-2,0-3.9,0-5.9c0-0.5,1-6.6,0-2.2c0.8-4.1,1.8-8.1,3-12c0.5-1.4,1-2.9,1.5-4.2
					c0.5-1.3,1.1-2.8,1.7-4.2c-0.6,1.4-0.5,1.4,0,0c1.9-3.7,4-7.4,6.3-10.9c4.5-6.9,10-13,16.5-18c8.4-7.9,8.8-21.1,0.8-29.5
					c-0.1-0.2-0.3-0.3-0.5-0.5C346.7,921,333.2,920.6,324.1,928.3"/>
			</g>
			<g id="Gruppe_27" transform="translate(30.867 17.557)">
				<path id="Pfad_24" class="st2" d="M1281.2,767.8c-10.1,17.5-16.3,37-18.1,57.2c-0.5,23.5,11.6,45.5,31.8,57.5
					c37,22,84.2,16.7,115.4-12.9c30.7-32.6,35.8-81.6,12.5-119.8c-12.4-22.5-36.7-35.7-62.3-33.8c-22.2,4.1-42.8,14.6-59.1,30.2
					c-22,15.8-37.3,39.2-42.7,65.8c-3.2,25.4,6.1,50.7,25.1,67.9c8.6,8.3,22.1,8.8,31.2,1c8.3-8,8.6-21.2,0.6-29.5
					c-0.1-0.2-0.3-0.3-0.5-0.5c-1.6-1.5-3.1-3-4.6-4.6c-0.3-0.4-2.5-3.2-0.7-0.7c-2.1-2.9-4-6-5.4-9.3c1.4,3-0.3-1.2-0.5-2
					c-0.5-1.9-1-3.4-1.4-5.1c-1-3.8-0.4-1.9-0.3-0.9c-0.3-2.4-0.3-4.9-0.2-7.3c0-0.8,0.5-5.2,0-2.1c0.3-1.6,0.7-3.2,1.1-4.8
					c0.6-2.9,1.7-5.8,3.3-8.4c4.1-7.1,9.2-13.6,15.2-19.2c10.6-10.6,22.7-19.4,36.1-26.1c5.9-3-1.6,0.3,2-0.9
					c1.7-0.6,3.5-0.9,5.2-1.4c3.8-1,1.9-0.3,0.7-0.3c2.2-0.2,4.3-0.1,6.5,0.2c-1.6-0.3-2.5-0.8,0.8,0.5c-3.3-1.3,1.2,0.5,1.9,1
					c0.8,0.5,4.5,3.2,2.1,1.2c1.8,1.5,3.5,3.2,5,5c7.4,9.5,11.5,21.2,11.6,33.3c0,3.3,0,6.5-0.3,9.7c-0.5,6.5,1.1-3.4-0.5,2.8
					c-0.3,1.4-0.6,2.8-1,4.2c-0.8,3.5-1.9,6.9-3.2,10.2c1.4-3.4-0.5,0.8-0.9,1.5c-1.2,2.2-2.5,4.3-3.9,6.4
					c-6.3,8.4-15.1,14.5-25.1,17.5c-3.3,0.9-6.7,1.7-10.1,2.2c3.5-0.5,0,0-0.6,0c-2.1,0-4.2,0-6.2,0h-4.2c0,0-6.4-0.8-3.3-0.3
					s-3.3-0.9-3.1-0.8c-2-0.5-3.9-1.2-5.9-1.8c-5.9-1.8,3.2,2.2-2.2-0.9l-5.5-3.1c-2.5-1.6-4.7-3.6-6.5-5.9c1.3,1.8-2.3-3.5-1.8-3
					c-2.5-3.9,0,2.2-1-2.1c-0.4-1.9-1-3.7-1.3-5.6c0.5,3.7,0-1.1,0-2.2s0-2.6,0-3.9c0.6-2.5,0.6-2.6,0.3-0.3c0.2-1,0.3-2,0.5-3
					c0.8-3.7,1.8-7.3,3-10.9c1.3-3.9,2.8-7.9,4.5-11.7c-1.5,3.3,0,0,0.3-0.5c1.2-2.5,2.4-4.9,3.6-7.3c5.8-10.2,2.4-23.2-7.6-29.2
					C1301.2,754.9,1287.9,757.8,1281.2,767.8"/>
			</g>
		</g>
	</g>
</g>
</svg>
