<?xml version="1.0" encoding="utf-8"?>
<!-- Generator: Adobe Illustrator 25.2.1, SVG Export Plug-In . SVG Version: 6.00 Build 0)  -->
<svg version="1.1" id="Ebene_1" xmlns="http://www.w3.org/2000/svg" xmlns:xlink="http://www.w3.org/1999/xlink" x="0px" y="0px"
	 viewBox="0 0 1200 1200" style="enable-background:new 0 0 1200 1200;" xml:space="preserve">
<style type="text/css">
	.st0{fill:#FFCD9F;}
	.st1{fill:#9BD2C3;}
</style>
<g>
	<path class="st0" d="M244.6,671.2c-0.4-1.4-0.9-2.7-1.6-4c0.1-0.5,0.1-1,0.1-1.5c-0.1-2.9-0.6-5.8-1.2-8.6
		c-0.9-3.4-2.5-6.5-4.8-9.1c-4.5-5.3-11.7-7.6-18.5-5.8c-5.4,2-9.9,5.9-12.6,11.1c-2.4,3.7-4,7.8-4.8,12.1c-1,4.9-0.7,10.1,0.9,14.9
		c1,2.6,2.4,5.1,4.1,7.3c1.7,2.2,3.7,4.1,5.9,5.6c8.3,5.8,19.6,4.9,26.8-2.2c2.9-2.9,5-6.6,5.8-10.7
		C245.4,677.3,245.3,674.2,244.6,671.2z M219.3,663.3L219.3,663.3c0-0.1,0-0.1,0-0.2C219.2,663.2,219.3,663.2,219.3,663.3z
		 M221.8,678.6l-0.1-0.3c0.4,0.7,0.9,1.3,1.4,1.9l0.2,0.3L221.8,678.6z"/>
	<path class="st1" d="M695.6,755c-1.6-3-4-5.5-6.8-7.4c-2-1.3-4.1-2.3-6.4-2.8c-2.8-0.7-5.7-0.8-8.6-0.4c-5.2,0.6-9.9,3-13.4,6.9
		c-2.3,2.6-3.9,5.7-4.8,9c-0.7,2.8-0.9,5.7-0.6,8.5c0.5,4.5,1.5,9,3.1,13.3c1,2.8,2.4,5.4,4.1,7.8c2.1,2.7,4.8,4.8,7.9,6.1
		c3.6,1.5,7.5,1.8,11.3,1c1.6-0.4,3.2-0.9,4.7-1.7c0.6-0.3,1.3-0.7,1.9-1.1c2.7-1.9,5.1-4.3,6.9-7.1c1.4-2.3,2.4-5,2.8-7.7
		c0.5-3.3,0.6-6.6,0.1-9.8c0.3-1.6,0.4-3.1,0.4-4.7C698.1,761.5,697.2,758.1,695.6,755z"/>
	<path class="st1" d="M98.8,755c-1.6-3-4-5.5-6.8-7.4c-2-1.3-4.1-2.3-6.4-2.8c-2.8-0.7-5.7-0.8-8.6-0.4c-5.2,0.6-9.9,3-13.4,6.9
		c-2.3,2.6-3.9,5.7-4.8,9c-0.7,2.8-0.9,5.7-0.6,8.5c0.5,4.5,1.5,9,3.1,13.3c1,2.8,2.4,5.4,4.1,7.8c2,2.7,4.8,4.9,7.9,6.2
		c3.6,1.5,7.5,1.8,11.3,1c1.6-0.4,3.2-0.9,4.7-1.7c0.6-0.3,1.3-0.7,1.9-1.1c2.8-1.9,5.2-4.3,7-7.2c1.5-2.3,2.4-5,2.8-7.7
		c0.5-3.4,0.6-6.8,0.1-10.2c0.2-1.4,0.3-2.9,0.3-4.3C101.3,761.5,100.4,758.1,98.8,755z"/>
	<path class="st1" d="M86.9,1142.7c-5.4-9.9-17.8-13.5-27.7-8.1c-4.8,3.3-8.4,8.1-10.1,13.6c-1.5,4-2.1,8.3-1.7,12.6
		c0.2,2.7,0.7,5.3,1.4,7.8c0.8,2.4,1.8,4.7,3.1,6.8c2.2,3.5,5.6,6.2,9.6,7.6c3.1,0.9,6.4,0.9,9.5,0c1.9-0.6,3.8-1.5,5.4-2.6
		c2.7-1,5-2.9,6.5-5.3c2.7-4.2,4.8-8.7,6.2-13.5c1.7-6,1-12.5-1.8-18.1C87.2,1143.2,87,1143,86.9,1142.7z M63,1161.1
		C63,1161.1,63,1161.1,63,1161.1C63,1161.1,63,1161.1,63,1161.1L63,1161.1L63,1161.1z M62.7,1161.2
		C62.7,1161.2,62.7,1161.2,62.7,1161.2c-0.1,0-0.2,0.1-0.2,0.1L62.7,1161.2z"/>
	<path class="st1" d="M405.1,793.4c-2.2-3.7-5.7-6.3-9.7-7.6c-3.8-1-7.8-0.7-11.5,0.7c-4.6,1.4-8.9,3.5-12.9,6.2
		c-5.3,3.5-9.1,8.8-10.7,14.9c-0.8,3.5-0.8,7.1-0.1,10.6c0.8,3.4,2.5,6.5,4.8,9c1.1,1.1,2.3,1.9,3.7,2.4c2.3,6,7.4,10.5,13.8,12
		c5.7,1.1,11.6,0,16.5-3.1c5-3.2,8.7-8.1,10.4-13.9c1.4-5.9,1.4-12.1,0-18.1C408.8,801.9,407.4,797.5,405.1,793.4z M385.7,818.9
		c-0.2,0.2-0.4,0.3-0.6,0.5L385.7,818.9z"/>
	<path class="st1" d="M386.5,1022.9c-3.5-0.8-7.1-0.6-10.5,0.6c-3,1.1-5.8,2.9-8.1,5.1c-4.3,4.4-6.9,10.2-7.3,16.4
		c-0.3,5.3,0.3,10.5,1.7,15.6c0,0.1,0,0.1,0.1,0.2c0.1,1.5,0.4,2.9,0.9,4.3c2.1,6.5,7.5,11.4,14.2,12.9c6.8,1.2,13.8-0.7,19-5.3
		c4-3.5,6.8-8.3,7.9-13.5c2.3-9.8,0.3-20.1-5.5-28.2C395.9,1026.8,391.5,1024,386.5,1022.9z"/>
	<path class="st1" d="M554.4,672.9c-0.8-2.4-1.8-4.7-3.1-6.8c-2.2-3.6-5.6-6.2-9.6-7.6c-3.1-0.9-6.4-0.9-9.5,0
		c-1.9,0.6-3.8,1.5-5.4,2.6c-2.7,1-5,2.9-6.5,5.3c-2.7,4.2-4.8,8.7-6.2,13.5c-1.7,6-1,12.5,1.8,18.1c0.1,0.3,0.3,0.5,0.4,0.8
		c5.4,9.9,17.8,13.5,27.7,8.1c4.8-3.3,8.4-8.1,10.1-13.6c1.5-4,2.1-8.3,1.7-12.6C555.6,678,555.1,675.4,554.4,672.9z"/>
	<path class="st1" d="M354.7,301.2c-0.3,1.6-0.5,3.2-0.5,4.8c0,3.3,0.8,6.5,2.3,9.4c0.5,0.9,1.1,1.9,1.8,2.7c0.6,0.8,1.3,1.6,2,2.3
		c2.4,2.1,5.2,3.7,8.3,4.6c5.5,1.3,11.4,0.6,16.4-2c2.1-1.1,4-2.5,5.6-4.1c1.7-1.6,3.2-3.5,4.2-5.7c1.6-3.2,2.5-6.6,2.8-10.1
		c0.2-2.6-0.1-5.2-0.7-7.8c-1.2-5-3.7-9.6-7.3-13.4c-4.3-4.6-10.2-7.4-16.5-7.8c-3.4-0.2-6.8,0.7-9.8,2.3c-2.9,1.6-5.3,3.9-7,6.6
		c-3.4,5.1-3.8,11.5-1.3,17C354.9,300.4,354.8,300.8,354.7,301.2z"/>
	<path class="st1" d="M386.5,394.5c-3.5-0.8-7.1-0.6-10.5,0.6c-3,1.1-5.8,2.9-8.1,5.1c-4.3,4.4-6.9,10.2-7.3,16.4
		c-0.3,5.3,0.3,10.5,1.7,15.6c0,0.1,0,0.1,0.1,0.2c0.1,1.5,0.4,2.9,0.9,4.3c2.1,6.5,7.5,11.4,14.2,12.9c6.8,1.2,13.8-0.7,19-5.3
		c4-3.5,6.8-8.3,7.9-13.5c2.3-9.8,0.3-20.1-5.5-28.2C395.9,398.4,391.5,395.6,386.5,394.5z"/>
	<path class="st1" d="M198.4,419.7c2.2,3.7,5.6,6.4,9.7,7.6c3.8,1,7.8,0.7,11.5-0.7c4.6-1.5,8.9-3.7,12.9-6.4
		c5.2-3.5,9-8.8,10.6-14.9c0.8-3.5,0.8-7.1,0.1-10.6c-0.8-3.4-2.5-6.5-4.8-9c-1-1-2.3-1.8-3.6-2.4c-2.3-6-7.4-10.5-13.8-11.9
		c-5.7-1.1-11.6,0-16.5,3.1c-5,3.2-8.7,8.1-10.4,13.9c-1.4,5.9-1.4,12.1,0,18.1C194.7,411.1,196.1,415.6,198.4,419.7z M218,393.8
		l-0.6,0.5C217.6,394.1,217.8,393.9,218,393.8C218,393.8,218,393.8,218,393.8z"/>
	<path class="st1" d="M93.9,249.6c-5.8-5.6-14.1-7.9-22-6c-7.2,1.6-13.3,6.2-16.9,12.6c-3.4,6-4.9,12.8-4.4,19.7
		c0.4,7.8,3.2,15.3,8,21.4c4.8,5.8,11.9,9.2,19.4,9.4c8,0.2,15.5-3.9,19.7-10.7c2.3-4.6,3.3-9.6,3.1-14.5c1.3-3.2,1.8-6.6,1.4-10.1
		C102,263.4,99.1,255.7,93.9,249.6z"/>
	<path class="st1" d="M1001.7,21c-2.2-3.7-5.6-6.4-9.7-7.6c-3.8-1-7.8-0.7-11.5,0.7c-4.6,1.4-8.9,3.5-12.9,6.2
		c-5.3,3.5-9.1,8.8-10.7,14.9c-0.8,3.5-0.8,7.1-0.1,10.6c0.8,3.4,2.5,6.5,4.8,9c1.1,1.1,2.3,1.9,3.7,2.5c2.3,6,7.4,10.5,13.8,11.9
		c5.7,1.1,11.6,0,16.5-3.1c5-3.2,8.7-8.1,10.4-13.9c1.4-5.9,1.4-12.1,0-18.1C1005.4,29.5,1004,25.1,1001.7,21z M982.4,46.5
		c-0.2,0.2-0.4,0.3-0.6,0.5L982.4,46.5z"/>
	<path class="st1" d="M1101.1,458c1.6,3,4,5.5,6.8,7.4c1.9,1.4,4.1,2.4,6.4,2.9c2.8,0.6,5.7,0.7,8.6,0.3c5.2-0.6,9.9-3,13.4-6.9
		c2.3-2.6,3.9-5.7,4.8-9c0.7-2.8,0.9-5.7,0.6-8.5c-0.5-4.5-1.5-9-3.1-13.3c-1-2.8-2.3-5.4-4.1-7.8c-2.1-2.7-4.8-4.9-7.9-6.2
		c-3.6-1.5-7.5-1.8-11.3-1c-1.6,0.4-3.2,0.9-4.7,1.7c-0.6,0.3-1.3,0.7-1.9,1.1c-2.7,1.9-5.1,4.3-6.9,7.2c-1.4,2.3-2.4,5-2.8,7.7
		c-0.5,3.3-0.6,6.6-0.1,9.8c-0.3,1.6-0.4,3.1-0.4,4.7C1098.6,451.5,1099.5,454.9,1101.1,458z"/>
	<path class="st1" d="M804.8,571.3c3.8,1,7.8,0.7,11.5-0.7c4.6-1.5,8.9-3.7,12.9-6.4c5.2-3.5,9-8.8,10.6-14.9
		c0.8-3.5,0.8-7.1,0.1-10.6c-0.8-3.4-2.5-6.5-4.8-9c-1.1-1-2.3-1.8-3.6-2.3c-2.3-6-7.4-10.5-13.8-12c-5.7-1.1-11.6,0-16.5,3.1
		c-5,3.2-8.7,8.1-10.4,13.9c-1.4,5.9-1.4,12.1,0,18.1c0.6,4.6,2,9.1,4.3,13.2C797.3,567.4,800.7,570.1,804.8,571.3z M814.8,537.8
		l-0.6,0.5C814.4,538.1,814.6,537.9,814.8,537.8C814.8,537.8,814.8,537.8,814.8,537.8z"/>
	<path class="st1" d="M845.3,283.6c0.3-1.6,0.5-3.2,0.5-4.8c0-3.3-0.8-6.5-2.3-9.4c-0.5-1-1.1-1.9-1.8-2.8c-0.6-0.8-1.3-1.6-2-2.3
		c-2.3-2.1-5.2-3.7-8.3-4.6c-5.5-1.4-11.4-0.7-16.4,1.9c-2.1,1-4,2.4-5.7,4.1c-1.7,1.6-3.2,3.6-4.2,5.7c-1.5,3.2-2.4,6.6-2.7,10.1
		c-0.2,2.6,0.1,5.2,0.7,7.8c1.2,5,3.7,9.6,7.3,13.4c4.3,4.6,10.2,7.4,16.5,7.8c3.4,0.2,6.8-0.7,9.8-2.3c2.9-1.6,5.3-3.9,7-6.6
		c3.4-5.1,3.8-11.5,1.4-16.9C845.1,284.4,845.2,284,845.3,283.6z"/>
	<path class="st1" d="M658.2,554.5c3.1,0.9,6.4,0.9,9.5,0c1.7-0.5,3.2-1.3,4.7-2.2c0,0,0.1,0,0.1,0c3-0.9,5.5-2.9,7.1-5.5
		c2.7-4.2,4.8-8.7,6.2-13.5c1.7-6.1,1-12.6-1.8-18.3c-0.1-0.3-0.3-0.5-0.4-0.8c-5.4-9.9-17.8-13.5-27.7-8.1
		c-4.8,3.3-8.4,8.1-10.1,13.6c-1.5,4-2.1,8.3-1.7,12.6c0.2,2.7,0.7,5.3,1.4,7.8c0.8,2.4,1.8,4.7,3.1,6.8
		C650.8,550.4,654.2,553.1,658.2,554.5z"/>
</g>
</svg>
