<?xml version="1.0" encoding="utf-8"?>
<!-- Generator: Adobe Illustrator 25.2.1, SVG Export Plug-In . SVG Version: 6.00 Build 0)  -->
<svg version="1.1" id="Ebene_1" xmlns="http://www.w3.org/2000/svg" xmlns:xlink="http://www.w3.org/1999/xlink" x="0px" y="0px"
	 viewBox="0 0 434.4 1200" style="enable-background:new 0 0 434.4 1200;" xml:space="preserve">
<style type="text/css">
	.st0{clip-path:url(#SVGID_2_);}
	.st1{fill:#FFCD9F;}
	.st2{fill:#FFFFFF;}
</style>
<g>
	<defs>
		<rect id="SVGID_1_" width="434.4" height="1200"/>
	</defs>
	<clipPath id="SVGID_2_">
		<use xlink:href="#SVGID_1_"  style="overflow:visible;"/>
	</clipPath>
	<g id="Gruppe_10" transform="translate(0 0)" class="st0">
		<g id="Gruppe_7" transform="translate(5.721 0)">
			<path id="Pfad_5" class="st1" d="M263,1194.1c9.3-9.4,16.1-21,19.9-33.6c5.2-14.6,8.7-29.8,10.5-45.2c5.9-46.8,4.5-94.3-4-140.7
				c-4.5-26-11.2-51.7-19.8-76.7c-10-27.7-21.7-54.7-35-80.9c-20.1-40.9-41.9-80.8-62.2-121.5c-8.7-17.4-17.1-35.1-24.6-53.1
				c-0.4-0.9-0.8-1.7-1.1-2.6c1.4,4.9,0.7,1.7,0.2,0.4c-0.8-2-1.6-3.9-2.3-5.9c-1.8-4.6-3.5-9.2-5.1-13.9c-3-8.7-5.8-17.4-8.3-26.2
				c-2.6-9.2-4.8-18.5-6.7-28c-1-4.8-1.8-9.7-2.7-14.6c-0.4-2.2-0.7-4.5-1-6.7c-0.2-1.3-0.4-2.5-0.5-3.8c-0.8-5.2,0.5,4.8,0-0.5
				c-2.6-22.1-3.6-44.3-3.2-66.5c0.2-12.3,0.8-24.6,1.7-36.9c0.5-6.4,1-12.8,1.6-19.3c0.3-3.3,0.7-6.6,1-9.9c0.1-1,0.2-2,0.4-3.1
				c0.5-4.8-0.6,3.8,0.1-0.6c3.1-20.9,7.9-41.6,14.3-61.8c1.5-4.7,3.1-9.3,4.7-13.9c1-2.6,1.9-5.2,2.9-7.7c0.5-1.3,1-2.6,1.4-3.9
				c0.4-1,2.7-6.7,0.7-1.9c4.1-10.1,8.6-20,13.4-29.8c9.9-20.2,21.2-39.8,33.6-58.6c3-4.6,6.1-9.1,9.3-13.6c1.4-2.1,3-4.3,4.5-6.4
				c1-1.4,2-2.8,3.1-4.2c-2.1,2.9,0.2-0.2,1-1.3c7-9.3,14.3-18.3,21.9-27.1c14.8-17.2,30.5-33.4,47.3-48.6c4.3-3.8,8.6-7.7,13-11.4
				c1.9-1.7,3.9-3.3,5.9-5l3.3-2.7c-3.5,2.9,0.9-0.7,1.3-1c8.9-7.1,18.1-13.8,27.4-20.2c18.1-12.4,37.2-23.5,57-33
				c2.2-1.1,4.4-2.1,6.7-3.1c0.7-0.3,5.8-2.5,1.2-0.5l3-1.3c5-2.1,10-4.1,15.1-6c10.7-3.5,16.8-14.8,14-25.7
				C425,4.7,414-1.8,403.2,1c0,0-0.1,0-0.1,0C316.4,35.6,240.9,93.5,185,168.3c-28.8,36.7-52.7,76.9-71.3,119.7
				c-9.2,21.1-16.7,42.9-22.6,65.2c-5.6,22.6-9.4,45.6-11.3,68.9c-4.9,46.8-3.7,94.1,3.4,140.6c6.9,38.8,18.7,76.6,35.1,112.5
				c16.8,38.2,36.8,74.8,56,111.8c11.5,22.3,22.9,44.7,33.8,67.4c3.1,6.4,6.2,12.8,9.1,19.3c1.5,3.3,2.9,6.7,4.3,10.1
				c0.6,1.3,1.1,2.7,1.7,4c-1.2-2.9,1,2.5,1.2,3.1c5.1,13.1,9.7,26.5,13.7,40.1c3.8,13,7.1,26.1,9.8,39.3c1.3,6.4,2.5,12.8,3.6,19.2
				c0.5,2.9,0.9,5.7,1.3,8.5c0.2,1.6,0.4,3.1,0.7,4.7c0.1,0.6,0.2,1.2,0.2,1.9c2.8,22.9,3.9,46,3.3,69c-0.3,10-1,20-2.1,30
				c0,0.3-0.3,2.8-0.3,2.8s0.7-5.1,0.1-0.8c-0.3,2-0.6,4-0.9,6c-0.7,4.3-1.4,8.8-2.4,13.1c-1.5,7.3-3.5,14.5-5.9,21.5
				c-0.5,1.4-1,2.8-1.4,4.2c-1.2,3.6,2.2-4.9,0.6-1.4c-0.3,0.5-0.5,1.1-0.7,1.7c-1.1,2.6-2.4,5-3.7,7.5c-0.6,1.1-1.3,2.1-1.9,3.2
				c-2.7,4.3,2.1-2.3,0.7-0.9c-1.3,1.5-2.7,3-4.2,4.3c-7.8,8.3-7.8,21.2,0,29.5c7.8,7.8,20.5,7.8,28.3,0
				C262.9,1194.2,262.9,1194.2,263,1194.1"/>
		</g>
		<g id="Gruppe_8" transform="translate(10.864 10.112)">
			<path id="Pfad_6" class="st1" d="M356.7,966.2c-5.7-64.1-20.8-127.1-45-186.7c-18.6-45.5-42.8-88-65.2-131.6
				c-5.5-10.7-10.8-21.4-15.9-32.3c-2.5-5.4-5-10.8-7.4-16.3c-1.2-2.7-2.3-5.3-3.4-8c-0.6-1.3-1-2.8-1.7-4.1
				c2.7,5.5,0.2,0.6-0.3-0.9c-10.9-27.4-19.3-55.8-25.1-84.7c-0.9-4.5-1.8-9-2.5-13.6c-0.4-2.3-0.8-4.5-1.1-6.8
				c-0.1-1-0.3-1.9-0.4-2.9c0,0.1-0.8-5.6-0.4-3.1c0.3,2.5-0.2-1.5-0.2-2.1c-0.1-1-0.2-1.9-0.3-2.9c-0.2-2.3-0.4-4.6-0.6-6.9
				c-0.4-4.9-0.7-9.8-0.9-14.7c-0.4-9.8-0.2-19.5,0.5-29.3c0.2-2.3,0.4-4.5,0.6-6.8c0.1-1,0.2-1.9,0.3-2.9c-0.4,3.8,0,0.5,0-0.3
				c0.8-4.8,1.6-9.7,2.6-14.4c1.7-7.9,3.9-15.7,6.5-23.4c1.2-3.7,2.6-7.2,4-10.9c-1.8,4.7,0.8-1.7,1.2-2.6c0.9-2,1.8-4,2.7-6
				c6.9-14.4,15.1-28.2,24.4-41.1c2.2-3.1,0.2-0.4-0.2,0.2l1.4-2c1.2-1.5,2.3-3.1,3.6-4.6c2.7-3.5,5.6-6.9,8.4-10.2
				c5.2-6.1,10.6-11.9,16.3-17.5c5.6-5.6,11.5-11.2,17.7-16.5c3.2-2.8,6.5-5.6,9.8-8.3l2.9-2.3c-0.3,0.2-2.3,1.8-0.5,0.4
				c2.2-1.7,4.3-3.4,6.5-5.1c28.6-21.2,58.5-40.4,89.7-57.6c7.6-4.4,15.3-8.7,23-13c9.6-6.1,12.7-18.6,7.2-28.5
				c-5.4-9.6-17.7-13-27.3-7.6c0,0-0.1,0.1-0.1,0.1c-61.9,35-125.7,71.3-173.3,126.5c-23.3,26.5-41.6,57-54.1,90.1
				c-12.6,36.3-16.9,75-12.6,113.1c7,61.5,24.9,121.3,52.6,176.7c21.3,44.2,46.3,86.4,66.6,131.2c2.6,5.8,5.2,11.6,7.7,17.5
				c0.7,1.6,1.4,3.3,2.1,5c1.4,3.4-1.7-4.2,0.3,0.6c1.3,3.2,2.5,6.3,3.7,9.5c5.1,13.3,9.7,26.8,13.8,40.4
				c9,30.5,15.7,61.7,19.9,93.3c0.5,4,0,0.5,0-0.2l0.4,3.6c0.3,2.1,0.5,4.2,0.7,6.3c0.5,4.6,1,9.3,1.4,13.9c0,11.2,8.9,20.4,20,20.9
				C348,986.6,356.9,977.4,356.7,966.2"/>
		</g>
		<g id="Gruppe_9" transform="translate(0 20.954)">
			<path id="Pfad_7" class="st2" d="M29.4,291.6C1.8,341.4-7.1,399.4,4.5,455.2c2.7,10.8,13.5,17.3,24.3,14.7c0.1,0,0.2-0.1,0.4-0.1
				c10.6-3.6,16.7-14.8,14-25.7c-0.6-3.2-1-6.4-1.6-9.6c-0.5-3.2,0.5,5.1-0.1-0.6c-0.2-1.4-0.3-2.9-0.5-4.3
				c-0.6-6.2-1-12.3-1.2-18.5c-0.2-6.2-0.1-12.4,0.3-18.5c0.2-2.9,0.4-5.8,0.6-8.8c0.1-1.4,0.3-2.9,0.5-4.3c0.6-5.8-0.7,4.3,0.2-1.4
				c1.8-11.8,4.5-23.4,8.2-34.8c1-3,2.1-6,3.3-9c-1,2.7-0.5,1.1,0.3-0.6c0.6-1.3,1.2-2.7,1.8-4c2.7-5.8,5.7-11.5,9-17
				c5.5-9.9,2.3-22.4-7.2-28.5c-9.6-5.5-21.8-2.3-27.3,7.3C29.5,291.5,29.4,291.5,29.4,291.6"/>
		</g>
	</g>
</g>
</svg>
