<?xml version="1.0" encoding="utf-8"?>
<!-- Generator: Adobe Illustrator 25.2.0, SVG Export Plug-In . SVG Version: 6.00 Build 0)  -->
<svg version="1.1" id="Ebene_1" xmlns="http://www.w3.org/2000/svg" xmlns:xlink="http://www.w3.org/1999/xlink" x="0px" y="0px"
	 viewBox="0 0 1191.4 1151.8" style="enable-background:new 0 0 1191.4 1151.8;" xml:space="preserve">
<style type="text/css">
	.st0{clip-path:url(#SVGID_2_);}
	.st1{fill:#FFCD9F;}
</style>
<g id="Gruppe_256" transform="translate(0 17.468)">
	<g>
		<g>
			<defs>
				<rect id="SVGID_1_" x="0.4" y="-17" width="1191.2" height="1151.3"/>
			</defs>
			<clipPath id="SVGID_2_">
				<use xlink:href="#SVGID_1_"  style="overflow:visible;"/>
			</clipPath>
			<g id="Gruppe_255" class="st0">
				<g id="Gruppe_253" transform="translate(7.977 -0.885)">
					<path id="Pfad_238" class="st1" d="M518.2,1076.9c-2.4-8-4.5-16.2-6.3-24.5c-0.7-3.6-1.5-7.2-2-10.8c-0.8-4.7-1.8-10.3-0.5-2.3
						c-2.3-15.7-3.4-31.6-3.2-47.5c-0.2-12.8,0.3-25.7,1.6-38.4c0.5-5.4,4-10.6-0.4,1.7c0.5-2,0.8-3.9,1.1-5.9c1-5.1,6.1-17.9-1.5,0
						c7.8-14.4,7.8-31.8,0-46.1c-8.3-14-23.3-22.6-39.5-22.7c-15.7,0-31.4,0.4-47-0.4c-7.1,0-14.2-0.9-21.3-1.7c6.6,0.8,1,0-2.6-0.7
						s-6.6-1.2-9.4-1.9c-6.6-1.6-13.2-4.2-19.8-5.9c-5.3-1.5,6.6,3.4-1.1-0.4c-3.4-1.6-6.6-3.3-9.9-5.1s-5.3-3.2-7.8-4.9
						c-4-2.6-5.4-4.8-1.1-0.6c-4.5-4.4-8.9-8.8-13.2-13.2s6.1,9.1,0.5,0.5c-1.5-2.2-3-4.3-4.4-6.6c-3.2-4.9-6.1-9.9-9-15
						c-5.5-9.7-10.6-19.8-16.3-29.1c-13.3-24.5-32.9-45-56.8-59.3l-23.1,85.7c11.5,0.9-5.2-1.9,0.9,0c3,1,6.1,1.7,9.2,2.4
						c8.1,1.8-2.9-2.1,1.4,0c2.7,1.6,5.6,2.8,8.3,4.5c2.7,1.6,4.2,2.8,6.3,4.2c-7.6-5.5-0.7,0,0.8,1.5c4.5,4.5,8.7,9.2,12.7,14.2
						c15.6,21,34.4,39.3,55.8,54.4c45.4,29.1,101.1,37.9,153.4,24.2c19.8-5.6,33.6-23.6,33.7-44.2c-0.5-3.8-0.6-7.1-0.7-10.8
						c0-9.9-2.8,7.4,0.4-1.9c0.5-1.2,3.4-10.9,1.2-4.7c-2.2,6.1,2.6-4.7,3.4-6.1c3.5-6,7.3-11.8,11.5-17.3c-4.8,6.6,0,0,2.4-2.6
						s4.9-5.7,7.4-8.5c12.9-13.3,16.6-33,9.5-50.1c-7.4-16.6-23.6-27.6-41.9-28.2c11.1,1.5-3.4-0.6-6.6-1.1c-4.9-0.9-9.8-1.9-14.7-3
						c-9.8-2.2-19.4-5-28.9-8.2c-4.7-1.6-9.5-3.2-14.2-5.1l-7-2.8c1.6,0.7,8.4,3.8,0.7,0c-9-4.3-18-8.6-26.8-13.6
						s-17.1-10.3-25.3-16.1c-2.4-1.7-13.2-10.5-5.7-4.1c-3.8-3.2-7.7-6.6-11.5-9.7c-7.8-6.7-15.1-13.9-21.9-21.6
						c-1.6-2-3.4-4-4.9-5.9c1.2,1.5,4.6,7,0,0c-3-5-5.7-10.1-8.6-15.1c-2.8-5,0.6,1.5,0.9,2.1c-0.9-2.4-1.8-4.7-2.6-7.2
						c-1.6-4.9-2.9-9.8-4.1-14.8s-2-10.2-3-15.2c-0.3-2-1.1-9,0,0.7c-0.4-3.2-0.8-6.6-1.1-9.8c-2.2-22.1-4.3-44.6-4.4-67
						c0-5.1,0-10.2,0-15.2c0-2.9,0.4-5.7,0.7-8.6c0.8-9.3,0.4-2.6,0-0.7c0.9-4.7,1.8-9.4,3-14.1c0.7-2.4,1.4-4.7,2.1-6.9
						s4.2-10.7,1.6-4.7c-2.6,6.1,1.9-1.3,2.4-2.6s2.2-4.2,3.5-6.6s1.9-3,2.9-4.5c5.3-8.4-0.7,0.7-0.7,0.8c0-2.3,8.4-8.7,10.1-10.1
						c5.1-4.2,9.8-8.8,13.9-14c13.9-19.8,14.9-46,2.4-66.8c-0.6-1.3-4-8.8-1.6-3.3c2.3,5.5-1.4-4.2-1.8-5.3
						c-1.8-5.5-3.2-11-4.3-16.7c-0.3-1.5-1.3-9.6-0.7-3.4c0.6,6.2,0-4.1,0-5.3c-0.3-5.8-0.3-11.5,0-17.3c0-1.5,1.4-9.5,0-3.4
						s0.9-4,1.3-5.2c0.5-2.5,1.2-5,1.9-7.4l1.1-3.6c2.8-7.8,1.2-5.1-4.9,8.1l-20.4,11.6c-7.6,2.9-8.4,0-2.4,0.5c3.2,0,6.6,0,9.5,0.5
						c1.3,0,11.9,1.5,5.3,0.5c-6.7-1,5,1,5.1,1c11.8,2.3,23.4,5.5,34.7,9.7c2,0.7,10.2,4.5,1.4,0.4c2.3,1.1,4.6,2,6.6,3.2
						c5.7,2.8,11.3,5.7,16.7,9s10.7,6.6,15.9,10.3c3.8,2.6,2.9,2.4,0,0c2.9,2.5,5.9,4.9,8.7,7.4c18.1,17.4,46.7,17.4,64.9,0
						c17.5-18.1,17.5-46.8,0-64.9c-24.7-22-53.2-39.4-84-51.5c-28.2-11.6-58.4-17.4-88.9-17.1c-50.4,1.7-62.9,55.7-64.3,96.8
						c-0.3,16.3,1.3,32.5,5,48.4c1.6,6.8,3.6,13.6,6.1,20.1c2.3,6.1,4.8,12.1,7.6,18c3.8,8-1.5-2.6-1.2-5.1
						c2.1-7.7,4.2-15.4,6.6-23.1c0.7-1.5,7.6-6.6,0.9-1.3l-4.2,3.3c-3.2,2.6-6.3,5.5-9.1,8.5c-7.5,8.1-14.1,16.9-19.8,26.4
						c-10.2,17.7-17.1,37.1-20.4,57.2c-5.4,42.3-4.8,85.2,2,127.3c3.6,44.2,21.2,86.2,50.4,119.6c26.4,28.2,57.6,51.5,91.9,69.1
						c41.2,21.1,85.8,34.7,131.8,39.9l-32.1-78.1C435,795.7,416,838.3,416,882.9c11.2-14.7,22.4-29.5,33.7-44.2
						c-2.8,0.7-5.5,1.4-8.4,2l-3.4,0.7c-3.5,0.6-2.2,0.5,3.7-0.4c-2.8-1.5-11.9,0.9-15.4,1c-5.1,0-10.3-0.3-15.4-0.7
						c-10.9-0.9,6.6,1.5,0,0c-2.8-0.7-5.6-1.1-8.4-1.8c-5-1.2-10-2.7-14.8-4.4c-5.4-1.8-5.6-1.1,0,0c-2.8-0.8-5.4-2-7.9-3.5
						c-4.5-2.4-8.9-4.9-13.2-7.8c-1.1-0.7-9.1-6.6-3.7-2.4c5.4,4.2-2.9-2.7-2.9-3c-17.3-15.4-28.5-36.2-45.7-51.7
						c-24.5-22.1-55.9-35.2-88.9-37.1c-20.6,0.1-38.6,13.9-44.2,33.7c-5.2,20,3.4,41,21,51.7c2.8,1.4,5.4,2.9,7.9,4.7
						c0-0.9-8-7.1,0,0.4c2.4,2.3,9.6,7.8,10.2,11.1c-3.7-4.9-4.5-5.9-2.6-3.2c0.9,1.3,1.8,2.5,2.6,3.8c1.7,2.6,3.4,5.2,4.9,7.8
						c2.8,4.5,5.3,9.1,7.9,13.7c11.8,24.1,27.1,46.4,45.5,65.9c53.6,41.4,121.3,60.1,188.5,51.9l-39.5-69
						c-10.1,27.4-14.6,56.5-13.2,85.7c-0.5,38.3,4.7,76.4,15.2,113.2c7,24.2,32,38.3,56.4,32
						C510.3,1126.2,524.5,1101.2,518.2,1076.9"/>
				</g>
				<g id="Gruppe_254" transform="translate(7.76 -11.556)">
					<path id="Pfad_239" class="st1" d="M504.1,384.2c6.6-7.4-8,4.2,0.7-0.6c-9.4,5.1-1.8,1.3,1.6,0.6c7.4-2,15-3.3,22.5-4.7
						c4.4-0.8,8.6-1.5,13-1.9c3.2-0.7,9.7-1.5,3-0.7c8.8-1.1,17.6-1.9,26.4-2.6c33.5-2.5,67.1-1.9,100.5,1.8c1.9,0,14.5,2,5.2,0.6
						c3.6,0.5,7.2,1.1,10.8,1.7c12.9,3.5,26.3,4.4,39.5,2.7c9.7-3.7,18.8-8.6,27.3-14.6c3.5-1.8,7-3.6,10.5-5.3
						c2-0.9,12.8-5.4,3.4-1.7c13.4-5.4,27.2-9.6,41.3-12.7c4-0.9,7.9-1.5,11.8-2.2c12.7-2.4-9.5,0.7,3.4-0.5
						c7.8-0.7,15.7-1.2,23.5-1.3l-44.2-33.7c1.4,5.3,2.4,10.5,3.6,15.9c2.8,12.7-0.5-9,0.7,4c0.9,9.5,1.2,19,0.9,28.5
						c0,4.1-0.6,8.1-0.9,12.2c0.9-10.8-1.1,5.9-1.5,8c-2,9.3-4.7,18.5-7.9,27.4c-5.1,20,3.5,41,21.2,51.5c3.6,2.6,4.7,0.7-0.8-0.9
						c1.2,0.4,3.1,2.6,4,3.4c3.1,2.7,6.1,5.5,9,8.5c2.8,3,5.5,6.1,8.2,9.2c3.6,4.1-1.8-2.2-1.8-2.3c1.1,0,3.4,4.9,4,5.9
						c2.2,3.4,13.2,18.1,12,21.7c0,0-3.8-10.3-0.5-1.2c0.6,1.7,1.3,3.4,1.8,5c1.6,4.5,2.9,9,4.2,13.6c1.3,4.5,1.9,8.4,2.8,12.7
						c0,0.6,1.3,7.4,0.5,2s0,2.8,0.4,4.2c0.8,9.6,0.9,19.3,0.3,28.9c0,4.8-0.7,9.7-1.3,14.5c1.1-9.1-0.8,3.4-1.4,6.6
						c-2.1,10.2-4.7,20.3-8,30.1c-1.3,3.9-2.7,7.8-4.2,11.7c-0.4,1-2,3.6-1.8,4.6c0,0,3.6-8,1.4-3.4c-3.6,7.5-7.1,15-11.2,22.2
						c-4.1,7.3-8,13.2-12.3,19.8c-2.2,3.2-4.5,6.6-6.6,9.4c-3.1,4.3,2-2.8,2-2.7c-1.5,1.6-2.9,3.3-4.2,5.1
						c-10.3,12.3-21.7,23.6-34,33.8c-1.3,1.1-2.6,2.1-3.8,3.2c-7.2,5.9,1.1-1.3,1.5-1.1c-3.3,1.9-6.5,4.1-9.4,6.6
						c-6.6,4.3-13.2,8.4-19.8,12.1c-3.8,2.1-7.7,4.2-11.7,6.1l-5.9,2.8c-1.2,0.5-8.1,3.2-2,1s-0.6,0-2.1,0.7l-6.1,2.2
						c-4.2,1.5-8.3,2.8-12.5,4c-8.4,2.4-16.9,4-25.5,5.7c-5.1,1.1,3.9-0.5,4-0.5c-2.7,0.1-5.5,0.4-8.2,0.9
						c-4.9,0.4-9.8,0.7-14.8,0.8c-25.5,0.4-45.8,21.4-45.4,46.8c0.2,11.7,4.8,23,13,31.4c2.7,2.6,5.3,5.1,7.8,7.9
						c1.3,1.4,8.2,11,2.1,2.2c4.3,6.1,7.8,12.5,11.5,19c5.8,10.3-2.4-8.6,1.2,2.7c1.1,3.6,2.4,7,3.4,10.6s1.6,7.2,2.4,10.8
						c2.4,10.4-0.9-10.9,0,3c1.6,28.3,1.3,56.7-0.9,85c-2.2,27.6-2,55.4,0.5,83c0.9,21.4,9,41.8,23,57.9c16,15.2,37.7,23,59.8,21.4
						c30.9-2.8,61-11.3,88.8-25c23.1-10,45.6-21.6,67.6-33.7c51.2-28.5,96.7-66.2,134.3-111.1c77.3-93.6,126.4-207.1,141.6-327.5
						c8.7-59.4,8.9-119.7,0.7-179.1c-12.6-67.9-37.7-132.8-73.9-191.6c-31.2-57.4-72.5-108.8-121.9-151.6
						c-49.8-39.8-105.8-71.2-165.8-93c-59.9-23.1-123.3-36-187.5-38c-66.5-2.5-133,4-197.7,19.2c-66,17-129.1,44-186.9,80.1
						C193.7,125,148.8,164.6,111.8,211C27.7,320.5-14.3,456.1-7,593.6c4.4,138.7,56,271.8,146.3,377.2
						c39.7,45.1,86.5,83.5,138.4,113.7c40.7,23,84.6,39.9,130.2,50.3c23.9,6.5,48.6,10.3,73.4,11.3c25.5,0,46.1-20.7,46.1-46.1
						c-0.5-25.2-20.9-45.5-46.1-45.8c-4.6,0-9.1-0.5-13.7-0.9c-9.5-0.7,11.7,2,1.8,0c-2.7-0.5-5.5-0.9-8.2-1.4
						c-11.7-2-23.3-4.7-34.8-7.6c-19.3-4.9-38.5-10.5-57.3-16.9l-8.8-3.2c-4.4-1.5-5.9-4.7,7.3,3.2c-2.5-1.5-5.4-2.5-8-3.8
						c-13.2-6.3-26.1-13.1-38.7-20.6c-11.1-6.6-21.9-13.2-32.5-20.8c-5.9-3.8-11.6-7.9-17-12.4c1.1,1,7.5,6,1,0.7
						c-3.7-3-7.3-5.9-10.9-8.8c-21.1-17.7-40.8-36.9-58.9-57.7c-4.2-4.8-8.4-9.8-12.4-14.8c-1.2-1.5-8.8-10.7-1.5-1.8
						c-2.2-2.7-4.2-5.6-6.3-8.4c-8.3-11.3-16.1-23-23.5-34.9c-6.6-10.9-13.2-22.1-19-33.6c-3.2-6.2-6.3-12.5-9.2-18.9
						c-1.5-3.2-2.9-6.6-4.4-9.6c-4.1-9.2,3.4,9.2-1.1-2.8c-12.6-32.7-22.6-66.4-29.9-100.6c-1.5-7.3-2.8-14.5-4.1-21.8
						c-0.7-4.4-1.4-8.7-2.1-13.2c-2.2-14.4,0.9,9.1-0.7-5.3c-1.8-16.3-3.3-33-3.9-49.2c-0.6-15.1-0.6-30.2,0-45.3
						c0.3-8.2,0.8-16.4,1.5-24.7c0.3-4.1,0.7-8.2,1.1-12.3c0-1.8,2.3-19,0.8-8.2c4.3-31.3,11.3-62.2,20.9-92.3
						c2.5-7.8,5.2-15.6,8.1-23.2c1-2.6,1.9-5.1,3-7.6c0.4-1.1,5.6-13.6,1.6-4.3c5.9-13.2,12.3-26.7,19.2-39.5s13.2-23.7,21-35.1
						c3.1-4.7,6.3-9.4,9.6-14c2-2.8,4-5.5,6-8.2c3-4,2.6-3.6-1.1,1.2c1.4-1.8,2.8-3.6,4.2-5.3c16.3-20.3,34.4-39.2,54-56.4
						c5.2-4.6,10.5-9,15.9-13.2c1.6-1.3,10.2-9,1.8-1.4c2.2-1.9,4.6-3.7,7.1-5.3c12-8.8,24.5-16.9,37.2-24.7
						c26-15.3,52.9-28.9,80.5-41c12.1-5.4-8.6,3.3,3.8-1.6c3.7-1.5,7.3-3,11.1-4.4c6.1-2.4,12.3-4.7,18.5-6.6
						c15.5-5.4,31.2-10.1,47.1-14c14.9-3.7,29.9-6.6,45-9c13.2-2.3-9.6,0.9,4-0.6l8.2-0.9c8.4-0.9,16.9-1.6,25.4-2.3
						c29.5-2.4,59.1-3.2,88.7-2.6c15.5,0.4,31,1.3,46.1,3c2.4,0,5.1,0.4,7.4,0.9c-11.5-2.5,0,0,2.4,0.5c8.2,1.4,16.3,3.1,24.4,5.1
						c26.8,6.4,53.2,14.5,79.1,24c6.6,2.5,13.2,5.2,19.8,7.8c11.3,4.5-8.8-4.1,2.2,1l6.6,2.9c14.1,6.6,27.9,13.2,41.5,20.8
						c11.3,6.6,22.5,13.2,33.3,20.4c4.9,3.3,9.8,6.6,14.6,10.2c2.8,2,5.8,4.1,8.5,6.6l4.6,3.8c21,17.5,40.2,37,57.4,58.3
						c7.6,9.4-5.4-7.8,1.6,2.2c2.2,3,4.4,6,6.6,9.1c4.6,6.6,9.1,13.2,13.2,19.8c9,13.2,17.6,27.2,25.8,41.3
						c7.6,13.2,14.7,26.4,21.6,39.5c3.7,7.3,7.3,14.8,10.7,22.2c1.4,3.1,2.7,6.3,4.2,9.4s1.8,2.2,0.1-1.7l3.1,7.5
						c11.9,29.8,20.8,60.7,26.4,92.3c1.5,8.8,0,1.3,0-0.5c0.4,3.5,0.8,7,1.1,10.5c0.5,5.8,0.9,11.5,1.2,17.3c0.6,13.2,0.7,26,0.4,39
						c-0.5,27.2-2.5,54.4-5.7,81.5c0,2.3-1.1,14.2,0,1.7c0,3.4-1,6.6-1.5,10.2c-1.1,6.6-2.2,13.2-3.4,19.8
						c-2.2,11.9-5,23.7-8.3,35.3c-6.6,26-15.4,51.4-26.4,75.9c5.2-10.6,0,0-0.9,1.8c-1.4,3.2-2.8,6.6-4.2,9.5
						c-2.7,5.8-5.4,11.5-8.2,17.2c-6.4,12.9-13.2,25.6-20.5,38c-6.4,10.8-13.2,21.4-20.3,31.8c-3.9,5.6-7.9,11.1-11.9,16.6
						c-1.3,1.8-5.1,7.1,0.9-1.1c-2.6,3.7-5.6,7.2-8.5,10.7c-17.3,21.1-36.5,40.5-57.2,58.2c-4.4,3.7-8.7,7.5-13.2,10.8
						c9.6-6.6,0,0-1.6,1.1c-2.8,2-5.6,4-8.4,6c-11.4,7.9-23.2,15.3-35.3,22.1c-19.8,11-39.9,21.5-60.5,30.8c-3,1.4-6.1,2.9-9.2,4
						c11.5-4.2,0.9-0.4-1.3,0.4c-5.9,2.4-12,4.5-18.1,6.6c-4.7,1.5-9.6,2.9-14.4,4.1l-8.2,1.7c-8.4,1.8,12-0.7-0.4,0
						c-2.8,0.4-5.6,0.4-8.4,0c2.6,1.3,5.7,0.7,8.8,2.2c1.5,1.1,3,2.2,4.6,3.3c2.9,2.5,4.8,5.9,5.6,9.7c-1.4-0.7-2-7.6-2.4-9.1
						c-2.8-10.5,0.8,10.9,0,0.5c0-3-0.5-6-0.7-9c-0.4-6.6-0.5-12.9-0.6-19.3c5.5-56.3,4.4-113.1-3.2-169.1
						c-8.3-33-25.9-63-50.6-86.5l-32.4,78.3c167.5-8.5,296.3-151.1,287.8-318.5c-0.6-11.5-1.8-23-3.7-34.3
						c-11.3-50.6-41.3-95.1-83.8-124.7c7,17.3,14,34.5,21.1,51.8c16.3-46.7,18.1-97.3,5.1-145c-5.7-19.7-23.7-33.4-44.2-33.6
						c-55.6,0.7-109.9,16.6-157.1,46.1l35.3-4.6c-47.7-9.5-96.4-13.2-145-10.9c-25.2,1.5-50.3,4.4-75.2,8.8
						c-25.1,1.7-48.9,12-67.4,29.1c-17.4,18.1-17.4,46.8,0,64.9C457.3,401.8,486.1,401.8,504.1,384.2"/>
				</g>
			</g>
		</g>
	</g>
</g>
</svg>
