<?xml version="1.0" encoding="utf-8"?>
<!-- Generator: Adobe Illustrator 25.2.0, SVG Export Plug-In . SVG Version: 6.00 Build 0)  -->
<svg version="1.1" id="Ebene_1" xmlns="http://www.w3.org/2000/svg" xmlns:xlink="http://www.w3.org/1999/xlink" x="0px" y="0px"
	 viewBox="0 0 1189.3 1199.6" style="enable-background:new 0 0 1189.3 1199.6;" xml:space="preserve">
<style type="text/css">
	.st0{clip-path:url(#SVGID_2_);}
	.st1{fill:#FFCD9F;}
	.st2{fill:none;stroke:#FFCD9F;stroke-width:34.9547;}
</style>
<g id="Gruppe_270" transform="translate(0 17.468)">
	<g>
		<g>
			<defs>
				<rect id="SVGID_1_" y="-17.5" width="1189.3" height="1199.6"/>
			</defs>
			<clipPath id="SVGID_2_">
				<use xlink:href="#SVGID_1_"  style="overflow:visible;"/>
			</clipPath>
			<g id="Gruppe_269" class="st0">
				<g id="Gruppe_263" transform="translate(1.642 -11.795)">
					<path id="Pfad_246" class="st1" d="M111.1,383.9H110l7.6-0.8c-3.3,0.4-6.7,0.4-10,0l7.6,0.8c-10.7-2.7-21.8-2.7-32.5,0
						c-13.6,4.9-24.1,15.9-28.3,29.8c-2.3,8.2-3.3,16.6-3.2,25.1c0,8.7-0.6,17.2-1,25.8c-1.1,33.6-2,67.3-2.7,100.9
						c-1.4,67.7-2.1,135.3-2.8,202.9l-2.3,202.7l-1,102.1c0,8.4,0,16.8,0,25.1c-0.9,9.7-0.3,19.6,1.7,29.1
						c8.2,26.2,37.4,31.6,61.3,32.1c16.4,0.3,32.9-0.8,49.3-1.2l49.8-1.5c18.2,0.3,36.5-0.7,54.6-3c20.7-4.8,36.7-21.2,41.2-42
						c3.1-16.5,4.3-33.3,3.8-50.1c0.4-16.4,0.8-32.9,1-49.3c0.4-31.5,0.5-63,0.4-94.6c0-60.9-1.3-121.8-1.7-182.7
						c0-30.4,0-60.8,0-91.3c0-31.2,1.4-62.4,2.1-93.6c1-31.6-0.9-63.3-5.6-94.6c-0.9-18.9-7.1-37.1-17.9-52.7
						c-11.6-10.7-27-16.3-42.7-15.5c-34.7-2.4-69.6-4-104.3-4.7c-5.2,0-10.4,0-15.7,0c-7.7,0.1-15,3.1-20.6,8.4
						c-5.2,5.4-8.1,12.7-8,20.2c-0.1,7.7,3,15.1,8.4,20.6s12.9,8.5,20.6,8.4c15.3-0.8,30.9,0,46.2,0.9c20,0.8,40,1.7,60,2.9
						c7.5,0.4,15,0.7,22.5,1.6l-8-1.2c2.6,0.3,5.2,0.9,7.7,1.9l-6.9-2.9c1.4,0.6,2.6,1.4,3.8,2.3l-5.8-4.5c0.8,0.7,1.6,1.4,2.3,2.3
						l-4.5-5.8c1.1,1.4,2,3,2.7,4.6l-2.9-6.9c2.5,6.8,4.4,13.9,5.5,21.1c1.5,7.6,2.7,15.1,3.8,22.7l-1-7.6c4,39.5,4.7,79.3,2.2,119
						c-1.2,40.5-1.3,81.7-1.2,122c0,80.8,2,161.6,1.9,242.3c0,23.5,0,47-0.6,70.5c0,12.1-0.3,24.2-0.8,36.3c0,11.7,0,23.8-1.4,35.5
						l1-7.6c-0.6,4.4-1.6,8.7-3.2,12.8l2.9-6.9c-1,2.4-2.3,4.7-3.8,6.9l4.5-5.8c-1.4,1.8-3,3.4-4.7,4.8l5.8-4.5
						c-1.5,1.1-3.1,2-4.8,2.7l6.9-2.9c-2.6,1-5.3,1.7-8,2.1l7.4-0.8c-12.5,1.5-25.5,1.1-38.1,1.5l-40.5,1.2l-39.8,1.2
						c-12.8,0.9-25.6,0.8-38.3-0.4l7.6,1c-4.9-0.7-9.8-2-14.4-3.8l6.9,2.9c-1.3-0.6-2.5-1.3-3.6-2.2l5.8,4.5c-0.5-0.5-1-1-1.5-1.5
						l4.5,5.8c-0.5-0.6-0.9-1.2-1.2-1.9l2.9,6.9c-0.7-1.4-1.2-2.8-1.4-4.3l1,7.6c-0.9-11,0-22.4,0-33.4s0-22.5,0.3-33.8
						c0-22.7,0.5-45.5,0.8-68.3L101,846c0.9-89.8,1.6-179.7,3.4-269.5c0.5-25.3,1.1-50.6,1.9-75.9c0.3-12.4,0.8-24.8,1.2-37.2
						s0-24,1.6-35.7l-1,7.6c0.5-2.7,1.2-5.3,2.3-7.8l-2.9,6.9c0.7-1.5,1.5-2.8,2.4-4.1l-4.5,5.8c0.8-1,1.7-1.8,2.7-2.6l-5.8,4.5
						c0.8-0.6,1.7-1.1,2.7-1.5l-6.9,2.9c1.3-0.5,2.7-0.9,4.1-1.1l-7.6,1c3.3-0.2,6.6-0.1,9.8,0.4l-7.6-0.8c4.9,0.7,9.9,1.6,14.9,1.9
						c5,0,10-0.7,14.8-1.9c7.1-1.9,13.3-6.5,17.1-12.8c3.8-6.7,4.8-14.6,2.9-22.1c-2-7.2-6.7-13.3-13.2-17.1
						C126.4,383.2,118.6,382.2,111.1,383.9"/>
				</g>
				<g id="Gruppe_264" transform="translate(1.642 -11.795)">
					<path id="Pfad_247" class="st2" d="M111.1,383.9H110l7.6-0.8c-3.3,0.4-6.7,0.4-10,0l7.6,0.8c-10.7-2.7-21.8-2.7-32.5,0
						c-13.6,4.9-24.1,15.9-28.3,29.8c-2.3,8.2-3.3,16.6-3.2,25.1c0,8.7-0.6,17.2-1,25.8c-1.1,33.6-2,67.3-2.7,100.9
						c-1.4,67.7-2.1,135.3-2.8,202.9l-2.3,202.7l-1,102.1c0,8.4,0,16.8,0,25.1c-0.9,9.7-0.3,19.6,1.7,29.1
						c8.2,26.2,37.4,31.6,61.3,32.1c16.4,0.3,32.9-0.8,49.3-1.2l49.8-1.5c18.2,0.3,36.5-0.7,54.6-3c20.7-4.8,36.7-21.2,41.2-42
						c3.1-16.5,4.3-33.3,3.8-50.1c0.4-16.4,0.8-32.9,1-49.3c0.4-31.5,0.5-63,0.4-94.6c0-60.9-1.3-121.8-1.7-182.7
						c0-30.4,0-60.8,0-91.3c0-31.2,1.4-62.4,2.1-93.6c1-31.6-0.9-63.3-5.6-94.6c-0.9-18.9-7.1-37.1-17.9-52.7
						c-11.6-10.7-27-16.3-42.7-15.5c-34.7-2.4-69.6-4-104.3-4.7c-5.2,0-10.4,0-15.7,0c-7.7,0.1-15,3.1-20.6,8.4
						c-5.2,5.4-8.1,12.7-8,20.2c-0.1,7.7,3,15.1,8.4,20.6s12.9,8.5,20.6,8.4c15.3-0.8,30.9,0,46.2,0.9c20,0.8,40,1.7,60,2.9
						c7.5,0.4,15,0.7,22.5,1.6l-8-1.2c2.6,0.3,5.2,0.9,7.7,1.9l-6.9-2.9c1.4,0.6,2.6,1.4,3.8,2.3l-5.8-4.5c0.8,0.7,1.6,1.4,2.3,2.3
						l-4.5-5.8c1.1,1.4,2,3,2.7,4.6l-2.9-6.9c2.5,6.8,4.4,13.9,5.5,21.1c1.5,7.6,2.7,15.1,3.8,22.7l-1-7.6c4,39.5,4.7,79.3,2.2,119
						c-1.2,40.5-1.3,81.7-1.2,122c0,80.8,2,161.6,1.9,242.3c0,23.5,0,47-0.6,70.5c0,12.1-0.3,24.2-0.8,36.3c0,11.7,0,23.8-1.4,35.5
						l1-7.6c-0.6,4.4-1.6,8.7-3.2,12.8l2.9-6.9c-1,2.4-2.3,4.7-3.8,6.9l4.5-5.8c-1.4,1.8-3,3.4-4.7,4.8l5.8-4.5
						c-1.5,1.1-3.1,2-4.8,2.7l6.9-2.9c-2.6,1-5.3,1.7-8,2.1l7.4-0.8c-12.5,1.5-25.5,1.1-38.1,1.5l-40.5,1.2l-39.8,1.2
						c-12.8,0.9-25.6,0.8-38.3-0.4l7.6,1c-4.9-0.7-9.8-2-14.4-3.8l6.9,2.9c-1.3-0.6-2.5-1.3-3.6-2.2l5.8,4.5c-0.5-0.5-1-1-1.5-1.5
						l4.5,5.8c-0.5-0.6-0.9-1.2-1.2-1.9l2.9,6.9c-0.7-1.4-1.2-2.8-1.4-4.3l1,7.6c-0.9-11,0-22.4,0-33.4s0-22.5,0.3-33.8
						c0-22.7,0.5-45.5,0.8-68.3L101,846c0.9-89.8,1.6-179.7,3.4-269.5c0.5-25.3,1.1-50.6,1.9-75.9c0.3-12.4,0.8-24.8,1.2-37.2
						s0-24,1.6-35.7l-1,7.6c0.5-2.7,1.2-5.3,2.3-7.8l-2.9,6.9c0.7-1.5,1.5-2.8,2.4-4.1l-4.5,5.8c0.8-1,1.7-1.8,2.7-2.6l-5.8,4.5
						c0.8-0.6,1.7-1.1,2.7-1.5l-6.9,2.9c1.3-0.5,2.7-0.9,4.1-1.1l-7.6,1c3.3-0.2,6.6-0.1,9.8,0.4l-7.6-0.8c4.9,0.7,9.9,1.6,14.9,1.9
						c5,0,10-0.7,14.8-1.9c7.1-1.9,13.3-6.5,17.1-12.8c3.8-6.7,4.8-14.6,2.9-22.1c-2-7.2-6.7-13.3-13.2-17.1
						C126.4,383.2,118.6,382.2,111.1,383.9z"/>
				</g>
				<g id="Gruppe_265" transform="translate(2.266 -17.198)">
					<path id="Pfad_248" class="st1" d="M153.4,18.3C117.1,25.2,83.8,43.2,58,69.7C30.3,98.5,14.9,137,15.2,177
						c0.4,21,5.5,41.7,15,60.4c9.2,17.7,21.8,33.4,36.9,46.3c30.6,27.2,69.4,43.6,110.3,46.5c38.2,1.9,75.6-11,104.4-36.1
						c21.9-18.5,36.7-44,41.9-72.2c6.6-41,0.4-83-17.6-120.3c-10.9-21.8-26.8-40.6-46.4-54.9c-22.9-16.2-49.6-26-77.5-28.4
						c-7-0.8-14.1-1.1-21.2-1c-15.7,0.2-28.4,12.8-28.6,28.5c0.1,15.8,12.9,28.6,28.6,28.8c8,0,16,0.5,23.9,1.6l-7.6-1
						c12.2,1.6,24.1,4.7,35.4,9.4l-6.9-2.9c9.3,4,18.1,9.1,26.1,15.2l-5.8-4.5c7.7,6,14.6,12.9,20.6,20.6l-4.1-5.4
						c7.1,9.3,12.9,19.5,17.4,30.2l-2.9-6.9c5.7,13.8,9.6,28.3,11.5,43.1c0-2.5-0.6-5.1-1-7.6c2,14.9,2,30,0,44.8l1.2-7.6
						c-1.1,8.4-3.2,16.6-6.5,24.4l2.9-6.9c-3.3,7.9-7.6,15.3-12.8,22l4.5-5.8c-5.7,7.3-12.3,13.9-19.6,19.6l5.8-4.5
						c-8.3,6.3-17.3,11.6-26.9,15.7l6.9-2.9c-9.2,3.8-18.8,6.4-28.6,7.8l7.3-0.8c-11.2,1.4-22.5,1.4-33.6,0l7.6,1
						c-13.1-1.8-25.9-5.4-38.1-10.6l6.9,2.9c-12.6-5.4-24.5-12.3-35.4-20.6l5.8,4.5c-10.2-7.8-19.4-16.9-27.5-26.9l4.5,5.8
						c-6.2-7.9-11.3-16.6-15.2-25.8l2.9,6.9c-3.4-8.4-5.7-17.2-6.9-26.2l1,7.6c-1.4-10.5-1.4-21.2,0-31.7l-1,7.6
						c1.5-10.9,4.3-21.6,8.4-31.9l-2.9,6.9c4.2-9.8,9.5-19,16-27.5l-4.5,5.8c7-9,15.1-17,24.1-24l-5.8,4.5
						c10.5-8.1,22.1-14.9,34.3-20.1l-6.9,2.9c10.6-4.5,21.6-8,32.9-10.3c7.1-1.9,13.3-6.5,17.1-12.8c3.8-6.7,4.8-14.6,2.9-22.1
						c-2-7.2-6.7-13.3-13.2-17.1C168.6,17.6,160.8,16.5,153.4,18.3"/>
				</g>
				<g id="Gruppe_266" transform="translate(2.266 -17.198)">
					<path id="Pfad_249" class="st2" d="M153.4,18.3C117.1,25.2,83.8,43.2,58,69.7C30.3,98.5,14.9,137,15.2,177
						c0.4,21,5.5,41.7,15,60.4c9.2,17.7,21.8,33.4,36.9,46.3c30.6,27.2,69.4,43.6,110.3,46.5c38.2,1.9,75.6-11,104.4-36.1
						c21.9-18.5,36.7-44,41.9-72.2c6.6-41,0.4-83-17.6-120.3c-10.9-21.8-26.8-40.6-46.4-54.9c-22.9-16.2-49.6-26-77.5-28.4
						c-7-0.8-14.1-1.1-21.2-1c-15.7,0.2-28.4,12.8-28.6,28.5c0.1,15.8,12.9,28.6,28.6,28.8c8,0,16,0.5,23.9,1.6l-7.6-1
						c12.2,1.6,24.1,4.7,35.4,9.4l-6.9-2.9c9.3,4,18.1,9.1,26.1,15.2l-5.8-4.5c7.7,6,14.6,12.9,20.6,20.6l-4.1-5.4
						c7.1,9.3,12.9,19.5,17.4,30.2l-2.9-6.9c5.7,13.8,9.6,28.3,11.5,43.1c0-2.5-0.6-5.1-1-7.6c2,14.9,2,30,0,44.8l1.2-7.6
						c-1.1,8.4-3.2,16.6-6.5,24.4l2.9-6.9c-3.3,7.9-7.6,15.3-12.8,22l4.5-5.8c-5.7,7.3-12.3,13.9-19.6,19.6l5.8-4.5
						c-8.3,6.3-17.3,11.6-26.9,15.7l6.9-2.9c-9.2,3.8-18.8,6.4-28.6,7.8l7.3-0.8c-11.2,1.4-22.5,1.4-33.6,0l7.6,1
						c-13.1-1.8-25.9-5.4-38.1-10.6l6.9,2.9c-12.6-5.4-24.5-12.3-35.4-20.6l5.8,4.5c-10.2-7.8-19.4-16.9-27.5-26.9l4.5,5.8
						c-6.2-7.9-11.3-16.6-15.2-25.8l2.9,6.9c-3.4-8.4-5.7-17.2-6.9-26.2l1,7.6c-1.4-10.5-1.4-21.2,0-31.7l-1,7.6
						c1.5-10.9,4.3-21.6,8.4-31.9l-2.9,6.9c4.2-9.8,9.5-19,16-27.5l-4.5,5.8c7-9,15.1-17,24.1-24l-5.8,4.5
						c10.5-8.1,22.1-14.9,34.3-20.1l-6.9,2.9c10.6-4.5,21.6-8,32.9-10.3c7.1-1.9,13.3-6.5,17.1-12.8c3.8-6.7,4.8-14.6,2.9-22.1
						c-2-7.2-6.7-13.3-13.2-17.1C168.6,17.6,160.8,16.5,153.4,18.3z"/>
				</g>
				<g id="Gruppe_267" transform="translate(6.12 -11.118)">
					<path id="Pfad_250" class="st1" d="M414.2,429.7c50.3-4.1,100.7-5.2,151.1-3.5c6.9,0,13.3,0,19.9-0.5c6.6-0.5,13.2-0.5,19.8,0
						l-7.8-1.3c1.9,0.3,3.7,0.8,5.5,1.5l-6.8-3c1.3,0.7,2.6,1.5,3.7,2.4c-1.9-1.5-3.8-3-5.8-4.5c1.2,0.9,2.2,2,3.1,3.2
						c-1.2-2-2.7-3.9-4.1-5.8c1.1,1.5,1.9,3.1,2.7,4.8l-2.7-6.9c1.7,5.3,2.8,10.9,3.2,16.5l2.9,21.2c2,14,4,28.1,5.8,42.2l54.9-15.2
						c0-0.8,0-1.6-0.5-2.4l1,7.6c-0.2-2-0.2-4,0-6l-0.8,7.6c0.4-2.9,1.1-5.7,2.1-8.4l-2.9,6.9c2-4.3,4.5-8.4,7.5-12.1l-4.6,5.8
						c8.8-10.9,18.9-20.7,30-29.1l-5.8,4.4c15-11.5,31.5-20.9,48.9-28.2l-6.9,3.2c22.9-9.5,47-16,71.6-19.2l-7.3,1
						c21.7-2.7,43.5-3.8,65.4-3.4c21.3,0.3,42.5,1.7,63.6,4.4l-7.9-1c15.7,1.8,31.1,5.6,45.9,11.3l-6.9-2.9
						c11.5,5.1,22.3,11.7,32.2,19.6l-5.7-4.5c11.5,8.9,22.5,18.7,33.2,28.6c10.8,9.8,20.8,20.4,29.9,31.9l-4.5-5.8
						c8.8,11.8,16,24.6,21.6,38.1l-2.9-6.9c6.9,16.8,13.1,34.3,19,51.2c6.3,17.5,10.9,35.5,13.7,53.8l-1.3-7.6
						c2.3,31.8,2.9,63.7,2,95.5c0.7,31.1,2.8,62.1,5.4,93.2c5.3,62.6,12.6,125.2,13.7,188.2c0.8,35.1-1,70.2-5.4,105l1-7.6
						c-0.8,8-2.6,15.8-5.4,23.3l2.9-6.9c-1.2,2.8-2.7,5.4-4.5,7.8l4.5-5.8c-1.5,1.9-3.2,3.7-5,5.2l5.8-4.5c-2.1,1.6-4.4,2.9-6.9,4
						l6.9-2.9c-5.2,2-10.6,3.3-16.1,4l7.6-1c-35.3,4.1-71,3.8-106.2-1.1l7.6,1c-8.5-1.2-17-2.5-25.5-4.2c-7.6-1.1-15.1-3-22.4-5.6
						l6.9,3c-1.7-0.8-3.4-1.8-4.9-2.9l5.8,4.5c-1.2-1-2.3-2.1-3.4-3.3l4.5,5.8c-1.7-2.2-3-4.7-4.1-7.3l2.9,6.9
						c-11.1-30.2-18.6-61.6-22.2-93.5l1,7.6c-6.4-77.6-8.5-155.4-6.2-233.2c-0.1-41.7-5.2-83.2-15.2-123.6
						c-7.9-34.4-24.9-65.9-49.2-91.5c-14.4-14.1-32-24.3-51.4-29.9c-20-5.3-40.8-6.5-61.3-3.5c-40,2.8-77.6,19.8-106,48.1
						c-24.4,31-39.3,68.4-43,107.7c-6.4,42.1-8.2,84.7-5.4,127.1c2.4,41.2,6.9,81.9,6.9,123s-2.6,82.4-5.8,123.3
						c-0.7,8.9-1.2,17.7-2.3,26.5l1-7.6c-0.7,6.3-2.3,12.5-4.6,18.3l2.9-6.9c-1.2,2.7-2.7,5.3-4.5,7.7l4.5-5.8
						c-1.3,1.5-2.7,2.9-4.2,4.2l5.8-4.5c-1.8,1.4-3.7,2.5-5.7,3.4l6.9-2.9c-3.3,1.3-6.7,2.1-10.2,2.5l7.6-1
						c-11.7,1.4-23.6,1.6-35.3,2.3l-37.3,2.3l-36.5,2.3c-11.4,1.5-23,1.9-34.5,1.4l7.6,1c-3.4-0.5-6.8-1.5-10-2.9l6.9,3
						c-2.4-1-4.7-2.3-6.9-3.8l5.8,4.5c-2.7-2.1-5.2-4.6-7.3-7.3l4.7,5.6c-2.7-3.8-5.1-7.8-6.9-12.1l2.9,6.9
						c-3.3-7.5-5.6-15.3-6.9-23.3l1.1,8c-1.1-10.1-1.7-20.3-1.8-30.6c-0.6-18.7-1-37.3-1.2-55.9c0-24.9-0.5-49.8-0.6-74.7
						c0-29.1,0-58.2,0-87.4c0-31.3,0-62.6,0-93.9s0.2-62.7,0.6-94.2c0-29.5,0.3-59,0.8-88.5c0.3-25.4,0.6-50.6,0.9-75.6
						c0.3-19.2,0.5-38.5,1-57.8c0-10.9,0.4-21.9,1-32.8v-3.5c0.1-7.7-2.9-15.1-8.4-20.6c-5.4-5.2-12.6-8-20.1-8
						c-7.6,0-14.9,3-20.3,8.4c-5.2,5.6-8.2,13-8.4,20.6c-1.2,14.6-1,29.4-1.3,44.2c-0.6,30.3-1.1,60.6-1.4,91
						c-0.5,40.1-0.8,80.2-1.1,120.3c-0.3,44.4-0.5,88.8-0.7,133.2c0,42.4,0,84.8,0,127.1c0,35,0,70,0.8,104.9
						c0,21.6,0.5,43.3,2,64.9c0.7,11.9,3,23.7,6.9,35c6.5,22.9,23.7,41.2,46.1,49.2c11,2.8,22.4,3.6,33.6,2.4l31.1-1.9l63.1-3.8
						c24.7,2.9,49.5-3.9,69.2-19c13-16.4,20-36.8,19.8-57.7c1.7-20.6,3.4-41.8,4.7-62.7c2.8-41.6,2.9-83.4,0.4-125
						c-2.6-41.7-7.3-83.4-6.9-125.2c0.3-19.8,1.7-39.6,4.3-59.3l-1,7.6c2.7-25.4,8.6-50.4,17.7-74.2l-2.9,6.9
						c4-9.6,9.2-18.7,15.5-27l-4.5,5.8c5.1-6.5,11-12.3,17.5-17.3l-5.8,4.5c8.2-6.1,17.1-11.2,26.5-15.1l-6.9,2.9
						c14.8-5.9,30.2-9.8,46-11.7l-7.6,1c12.9-1.8,26-2,39-0.5l-7.6-1c8.4,1.1,16.6,3.3,24.5,6.5l-6.9-2.9c7.3,3,14.3,7,20.6,11.8
						l-5.8-4.5c7.2,5.7,13.7,12.3,19.4,19.6l-4.5-5.8c8.3,10.9,15.2,22.8,20.6,35.4l-3.5-6.8c9.9,24.9,16.5,51,19.6,77.6l-1-7.6
						c5.6,61,7,122.3,4.4,183.4c-1.5,61.8,4.7,123.5,18.5,183.8c3.4,16,8.6,31.5,15.6,46.4c6.2,10.9,16.1,19.2,28,23.3
						c6.7,2.4,13.6,4.1,20.6,5.2c32.4,6.6,65.4,9.7,98.5,9.4c17.3-0.1,34.6-1.4,51.8-3.8c18.6-2.2,35.3-12.5,45.6-28.2
						c7.9-15.3,12.4-32.1,12.9-49.3c1.9-15.6,3.2-31.2,3.9-46.9c1.6-62.3-1.1-124.6-8.1-186.4c-6.7-62.2-10.2-124.7-10.4-187.2
						c0.5-16,0.1-32.1-1.1-48.1c-1.6-17.3-4.8-34.4-9.7-51c-4.3-14.8-9.5-29.3-14.8-43.7c-5.4-15.8-11.8-31.2-19.1-46.1
						c-15.1-26.7-35.1-50.4-58.9-69.8c-11.9-11-24.4-21.2-37.6-30.6c-13.6-9.3-28.5-16.4-44.2-21.2c-15.7-4.5-31.8-7.5-48.1-9
						c-14.7-1.6-29.6-2.5-44.4-3.1c-32.9-1.4-65.9,0.6-98.3,6.2c-28.7,5.1-56.5,14.6-82.4,28.1c-25,12.5-47.2,29.9-65.4,51.1
						c-6.9,8.2-12.4,17.5-16.2,27.5c-3.9,10.3-4.5,21.5-1.7,32.1c4.2,15.2,20,24.2,35.2,20c7.2-2,13.4-6.7,17.1-13.2l2.9-6.9
						c1.4-5,1.4-10.3,0-15.2c-3.2-22.5-6.1-44.3-9.3-66.6c-1.1-12.5-6.5-24.3-15.3-33.3c-11.2-9.7-25.8-14.4-40.6-13
						c-38.9,1.9-77.7,0.5-116.7,0.9c-21.3-0.1-42.7,1.2-63.9,3.6c-7.5,0.3-14.7,3.3-20.3,8.4c-5.4,5.5-8.4,12.9-8.4,20.6
						c0,7.6,3,14.9,8.4,20.3C399.3,427,406.6,430,414.2,429.7"/>
				</g>
				<g id="Gruppe_268" transform="translate(6.12 -11.118)">
					<path id="Pfad_251" class="st2" d="M414.2,429.7c50.3-4.1,100.7-5.2,151.1-3.5c6.9,0,13.3,0,19.9-0.5c6.6-0.5,13.2-0.5,19.8,0
						l-7.8-1.3c1.9,0.3,3.7,0.8,5.5,1.5l-6.8-3c1.3,0.7,2.6,1.5,3.7,2.4c-1.9-1.5-3.8-3-5.8-4.5c1.2,0.9,2.2,2,3.1,3.2
						c-1.2-2-2.7-3.9-4.1-5.8c1.1,1.5,1.9,3.1,2.7,4.8l-2.7-6.9c1.7,5.3,2.8,10.9,3.2,16.5l2.9,21.2c2,14,4,28.1,5.8,42.2l54.9-15.2
						c0-0.8,0-1.6-0.5-2.4l1,7.6c-0.2-2-0.2-4,0-6l-0.8,7.6c0.4-2.9,1.1-5.7,2.1-8.4l-2.9,6.9c2-4.3,4.5-8.4,7.5-12.1l-4.6,5.8
						c8.8-10.9,18.9-20.7,30-29.1l-5.8,4.4c15-11.5,31.5-20.9,48.9-28.2l-6.9,3.2c22.9-9.5,47-16,71.6-19.2l-7.3,1
						c21.7-2.7,43.5-3.8,65.4-3.4c21.3,0.3,42.5,1.7,63.6,4.4l-7.9-1c15.7,1.8,31.1,5.6,45.9,11.3l-6.9-2.9
						c11.5,5.1,22.3,11.7,32.2,19.6l-5.7-4.5c11.5,8.9,22.5,18.7,33.2,28.6c10.8,9.8,20.8,20.4,29.9,31.9l-4.5-5.8
						c8.8,11.8,16,24.6,21.6,38.1l-2.9-6.9c6.9,16.8,13.1,34.3,19,51.2c6.3,17.5,10.9,35.5,13.7,53.8l-1.3-7.6
						c2.3,31.8,2.9,63.7,2,95.5c0.7,31.1,2.8,62.1,5.4,93.2c5.3,62.6,12.6,125.2,13.7,188.2c0.8,35.1-1,70.2-5.4,105l1-7.6
						c-0.8,8-2.6,15.8-5.4,23.3l2.9-6.9c-1.2,2.8-2.7,5.4-4.5,7.8l4.5-5.8c-1.5,1.9-3.2,3.7-5,5.2l5.8-4.5c-2.1,1.6-4.4,2.9-6.9,4
						l6.9-2.9c-5.2,2-10.6,3.3-16.1,4l7.6-1c-35.3,4.1-71,3.8-106.2-1.1l7.6,1c-8.5-1.2-17-2.5-25.5-4.2c-7.6-1.1-15.1-3-22.4-5.6
						l6.9,3c-1.7-0.8-3.4-1.8-4.9-2.9l5.8,4.5c-1.2-1-2.3-2.1-3.4-3.3l4.5,5.8c-1.7-2.2-3-4.7-4.1-7.3l2.9,6.9
						c-11.1-30.2-18.6-61.6-22.2-93.5l1,7.6c-6.4-77.6-8.5-155.4-6.2-233.2c-0.1-41.7-5.2-83.2-15.2-123.6
						c-7.9-34.4-24.9-65.9-49.2-91.5c-14.4-14.1-32-24.3-51.4-29.9c-20-5.3-40.8-6.5-61.3-3.5c-40,2.8-77.6,19.8-106,48.1
						c-24.4,31-39.3,68.4-43,107.7c-6.4,42.1-8.2,84.7-5.4,127.1c2.4,41.2,6.9,81.9,6.9,123s-2.6,82.4-5.8,123.3
						c-0.7,8.9-1.2,17.7-2.3,26.5l1-7.6c-0.7,6.3-2.3,12.5-4.6,18.3l2.9-6.9c-1.2,2.7-2.7,5.3-4.5,7.7l4.5-5.8
						c-1.3,1.5-2.7,2.9-4.2,4.2l5.8-4.5c-1.8,1.4-3.7,2.5-5.7,3.4l6.9-2.9c-3.3,1.3-6.7,2.1-10.2,2.5l7.6-1
						c-11.7,1.4-23.6,1.6-35.3,2.3l-37.3,2.3l-36.5,2.3c-11.4,1.5-23,1.9-34.5,1.4l7.6,1c-3.4-0.5-6.8-1.5-10-2.9l6.9,3
						c-2.4-1-4.7-2.3-6.9-3.8l5.8,4.5c-2.7-2.1-5.2-4.6-7.3-7.3l4.7,5.6c-2.7-3.8-5.1-7.8-6.9-12.1l2.9,6.9
						c-3.3-7.5-5.6-15.3-6.9-23.3l1.1,8c-1.1-10.1-1.7-20.3-1.8-30.6c-0.6-18.7-1-37.3-1.2-55.9c0-24.9-0.5-49.8-0.6-74.7
						c0-29.1,0-58.2,0-87.4c0-31.3,0-62.6,0-93.9s0.2-62.7,0.6-94.2c0-29.5,0.3-59,0.8-88.5c0.3-25.4,0.6-50.6,0.9-75.6
						c0.3-19.2,0.5-38.5,1-57.8c0-10.9,0.4-21.9,1-32.8v-3.5c0.1-7.7-2.9-15.1-8.4-20.6c-5.4-5.2-12.6-8-20.1-8
						c-7.6,0-14.9,3-20.3,8.4c-5.2,5.6-8.2,13-8.4,20.6c-1.2,14.6-1,29.4-1.3,44.2c-0.6,30.3-1.1,60.6-1.4,91
						c-0.5,40.1-0.8,80.2-1.1,120.3c-0.3,44.4-0.5,88.8-0.7,133.2c0,42.4,0,84.8,0,127.1c0,35,0,70,0.8,104.9
						c0,21.6,0.5,43.3,2,64.9c0.7,11.9,3,23.7,6.9,35c6.5,22.9,23.7,41.2,46.1,49.2c11,2.8,22.4,3.6,33.6,2.4l31.1-1.9l63.1-3.8
						c24.7,2.9,49.5-3.9,69.2-19c13-16.4,20-36.8,19.8-57.7c1.7-20.6,3.4-41.8,4.7-62.7c2.8-41.6,2.9-83.4,0.4-125
						c-2.6-41.7-7.3-83.4-6.9-125.2c0.3-19.8,1.7-39.6,4.3-59.3l-1,7.6c2.7-25.4,8.6-50.4,17.7-74.2l-2.9,6.9
						c4-9.6,9.2-18.7,15.5-27l-4.5,5.8c5.1-6.5,11-12.3,17.5-17.3l-5.8,4.5c8.2-6.1,17.1-11.2,26.5-15.1l-6.9,2.9
						c14.8-5.9,30.2-9.8,46-11.7l-7.6,1c12.9-1.8,26-2,39-0.5l-7.6-1c8.4,1.1,16.6,3.3,24.5,6.5l-6.9-2.9c7.3,3,14.3,7,20.6,11.8
						l-5.8-4.5c7.2,5.7,13.7,12.3,19.4,19.6l-4.5-5.8c8.3,10.9,15.2,22.8,20.6,35.4l-3.5-6.8c9.9,24.9,16.5,51,19.6,77.6l-1-7.6
						c5.6,61,7,122.3,4.4,183.4c-1.5,61.8,4.7,123.5,18.5,183.8c3.4,16,8.6,31.5,15.6,46.4c6.2,10.9,16.1,19.2,28,23.3
						c6.7,2.4,13.6,4.1,20.6,5.2c32.4,6.6,65.4,9.7,98.5,9.4c17.3-0.1,34.6-1.4,51.8-3.8c18.6-2.2,35.3-12.5,45.6-28.2
						c7.9-15.3,12.4-32.1,12.9-49.3c1.9-15.6,3.2-31.2,3.9-46.9c1.6-62.3-1.1-124.6-8.1-186.4c-6.7-62.2-10.2-124.7-10.4-187.2
						c0.5-16,0.1-32.1-1.1-48.1c-1.6-17.3-4.8-34.4-9.7-51c-4.3-14.8-9.5-29.3-14.8-43.7c-5.4-15.8-11.8-31.2-19.1-46.1
						c-15.1-26.7-35.1-50.4-58.9-69.8c-11.9-11-24.4-21.2-37.6-30.6c-13.6-9.3-28.5-16.4-44.2-21.2c-15.7-4.5-31.8-7.5-48.1-9
						c-14.7-1.6-29.6-2.5-44.4-3.1c-32.9-1.4-65.9,0.6-98.3,6.2c-28.7,5.1-56.5,14.6-82.4,28.1c-25,12.5-47.2,29.9-65.4,51.1
						c-6.9,8.2-12.4,17.5-16.2,27.5c-3.9,10.3-4.5,21.5-1.7,32.1c4.2,15.2,20,24.2,35.2,20c7.2-2,13.4-6.7,17.1-13.2l2.9-6.9
						c1.4-5,1.4-10.3,0-15.2c-3.2-22.5-6.1-44.3-9.3-66.6c-1.1-12.5-6.5-24.3-15.3-33.3c-11.2-9.7-25.8-14.4-40.6-13
						c-38.9,1.9-77.7,0.5-116.7,0.9c-21.3-0.1-42.7,1.2-63.9,3.6c-7.5,0.3-14.7,3.3-20.3,8.4c-5.4,5.5-8.4,12.9-8.4,20.6
						c0,7.6,3,14.9,8.4,20.3C399.3,427,406.6,430,414.2,429.7z"/>
				</g>
			</g>
		</g>
	</g>
</g>
</svg>
