<?xml version="1.0" encoding="utf-8"?>
<!-- Generator: Adobe Illustrator 25.2.0, SVG Export Plug-In . SVG Version: 6.00 Build 0)  -->
<svg version="1.1" id="Ebene_1" xmlns="http://www.w3.org/2000/svg" xmlns:xlink="http://www.w3.org/1999/xlink" x="0px" y="0px"
	 viewBox="0 0 1032.8 1200" style="enable-background:new 0 0 1032.8 1200;" xml:space="preserve">
<style type="text/css">
	.st0{fill:#FFCD9F;}
</style>
<g id="Gruppe_273" transform="translate(0 10.827)">
	<g>
		<g>
			<g id="Gruppe_272" transform="translate(0 -10.827)">
				<g id="Gruppe_271" transform="translate(0 0)">
					<path id="Pfad_253" class="st0" d="M693.2,388.1c-188.7-231.7-582.6,96-384.5,307.6c71.3,65.4,174.4,82.6,263.1,44
						C687.4,690,721.3,568,707.4,451.6c-1-26.8-23.5-47.7-50.3-46.6c-25.3,1-45.7,21.3-46.6,46.6c-1.2,88.5-11.2,181.7,44.7,256.6
						c50.8,64.5,138.5,87,214,54.9c193.3-76.3,191.9-342.9,115.9-498.3c-164.3-335.6-643-342.6-855.2-61.6
						C-55.8,449-54.6,839.7,202.7,1037.9c194,149.6,647.7,286.1,745.2-40.4c3.8-26.8-14.9-51.5-41.6-55.3c-22-3.1-43.3,9-51.9,29.4
						c-68.8,230.7-406.7,104.9-546,22.1C107.7,874.4,57.3,625.1,125,414.4c63.5-225.1,293.8-359.5,521-304.1
						C811.4,152,930.3,296.5,939.6,466.8c2.3,83.9-62.9,258-178.5,204.1c-76.5-35.4-54.7-152-53.7-219.5h-97
						c15,125.1-62.2,265.1-205.6,195C248,569.6,488.8,290,624.7,456.6C664.2,505.1,732.3,436.2,693.2,388.1"/>
				</g>
			</g>
		</g>
	</g>
</g>
</svg>
