<?xml version="1.0" encoding="utf-8"?>
<!-- Generator: Adobe Illustrator 25.2.0, SVG Export Plug-In . SVG Version: 6.00 Build 0)  -->
<svg version="1.1" id="Ebene_1" xmlns="http://www.w3.org/2000/svg" xmlns:xlink="http://www.w3.org/1999/xlink" x="0px" y="0px"
	 viewBox="0 0 1111.8 1200" style="enable-background:new 0 0 1111.8 1200;" xml:space="preserve">
<style type="text/css">
	.st0{clip-path:url(#SVGID_2_);}
	.st1{fill:#FFCD9F;}
</style>
<g id="Gruppe_262" transform="translate(0 17.468)">
	<g>
		<g>
			<defs>
				<rect id="SVGID_1_" y="-17.9" width="1111.8" height="1200.4"/>
			</defs>
			<clipPath id="SVGID_2_">
				<use xlink:href="#SVGID_1_"  style="overflow:visible;"/>
			</clipPath>
			<g id="Gruppe_261" class="st0">
				<g id="Gruppe_257" transform="translate(6.239 -10.803)">
					<path id="Pfad_241" class="st1" d="M422.5,451l-88,158.7c-14.6,26.4-29.3,52.8-43.7,79.4c-12.4,23-23.4,46.9-37.9,68.7
						l-5.2,7.4c-5.6,8,5.4-5.4-1.2,1.4c-1.9,1.9-3.6,4.1-5.6,6s-8,4.5,0,0c2.3-1.2,12.6-0.8,5.2-1.6c-1.7,0-12.2-0.7-2,0
						c-9.6-0.8-19.2-2.7-28.7-3.9c-29.6-3.7-59.5-5.7-89.3-5.8c-14.8,0-29.8,0-44.7,1.2c-6.9,0.3-13.7,1.1-20.6,1.3h-5.6
						c-4.4,0-3.8,0,1.9,0c2.9,0.9,5.5,2.6,7.5,4.9c1,1.1,5.7,13.3,4.1,6.9c0.3,1.8,0.6,3.6,1,5.4c0-4.2,0-3.4-0.5,2.5
						c0.6-2.7,1.4-5.3,2.4-7.8l-1.6,4.1c0.8-1.6,1.6-3.3,2.5-4.9c6.9-12.6,15.1-24.8,22.7-37.2l96.4-156.1l48.1-78.1
						c9.9-13.5,18.2-28.1,24.6-43.5c4.4-19.9-0.7-40.7-13.7-56.4c-15-24.5-31-48.4-48.1-71.7c-9.1-12.4-18.3-24.7-28.2-36.4
						c-3.2-3.8-6.5-7.6-9.8-11.5l-5.8-7c-1.1-1.4-9.1-11.8-3.3-4c-3.6-4.9-6.9-9.8-10.1-14.9c-1.6-2.6-3-5.2-4.4-8
						c-0.9-1.6-3.8-10.6-1.2-2.1c-1-3.4-2.1-12.6-1.9-0.7c0.6,5.7-1.3,11.4-5.4,15.5l-4.3,3.4c3.6-1.9,2.6-1.6-2.9,0.8
						c-8.2,3.7,9.3-2.3,9.4-2.5l-5.4,0.7l6-0.5c3.8-0.4,7.6-0.7,11.3-1l22.7-1.9c15.1-1.1,30.2-2.1,45.4-3
						c33.7-1.9,67.8-1.2,101.4-3.6h3.2c-5.4,0.1-10.5-2.1-14.2-6c2.8,3.2,2.7,2.9,0-0.8l4.1,5.7c4.2,5.7,8.2,11.5,12.3,17.3
						c9.4,13.7,18.6,27.5,27.5,41.2c17.1,26.8,33.2,54.3,48.1,82.5c7.2,13.7,14.2,27.5,20.6,40.9l4.7,9.3l2.9,6
						c-1.8-4.5-2-4.7-0.5-0.4c2.5,6.9,0-3,0-5.2c-1.4,4.1-1.2,4.1,0,0C424.6,447.2,423.6,449.1,422.5,451
						c-10.3,18.3-4.2,41.6,13.7,52.5c18.3,10.3,41.6,4.2,52.5-13.7c11.3-17.6,14.9-39,10.1-59.4c-5.6-16.5-12.8-32.4-21.4-47.5
						c-13.7-27.5-28.5-54.3-44.3-80.4s-33.1-52.2-51.9-78.3c-9.7-18.4-25.1-33.2-43.8-42.3c-17.2-4.1-34.9-5.1-52.4-2.8
						c-32.8,0.9-65.7,2.5-98.5,4.7c-17,1.2-34.4,2.5-51.1,4.1c-16,0.4-31.7,4.5-45.9,12c-20.2,12.1-30.7,35.5-26.2,58.6
						c3.4,16.1,10.2,31.3,19.8,44.6c8.7,12.6,18.1,24.7,28.2,36.1c4.3,5,8.6,10,12.7,15c2,2.3,5.6,6.9,1.6,1.8
						c3,3.8,5.8,7.7,8.6,11.5c18.3,25,35.6,50.9,51.8,77.6c1.9,3,3.4,6.5,5.6,9.3l1.6,2.8c0-8.1-0.5-16.2-0.7-24.3
						c-0.9,1.3-1.6,2.7-2.2,4.1c-4.6,7.6-9.3,15.2-13.7,22.7l-26,42.3l-105,171.2l-26.9,43.9c-9,13.1-16.2,27.4-21.6,42.4
						c-5.9,17.8-3.9,37.3,5.6,53.5c12.7,18.3,33.9,28.7,56.1,27.5c15.2,0,30.4-1.9,45.6-2.3c15.2-0.4,32.3,0,48.4,0.3
						s33.5,1.9,50.1,3.7l11.1,1.3c4.5,0.5,0,0-1,0l5.5,0.8c9.7,2,19.6,3.1,29.5,3.4c34.7-5.8,63.9-29,77.4-61.4
						c15.3-25.4,28.2-52.4,42.4-78.5c32-58.6,64.7-116.8,97-175.2c7.9-14.2,15.9-28.4,23.8-42.7c10.4-18.3,4.3-41.6-13.7-52.5
						C456.7,426.9,433.5,432.9,422.5,451"/>
				</g>
				<g id="Gruppe_258" transform="translate(12.956 -17.396)">
					<path id="Pfad_242" class="st1" d="M877.4,4.5c-36.9-7.6-74,12-88.6,46.7L781.2,65l-24,43l-79.7,143.8L487.9,592.5
						c-18.9,33.9-37.8,67.9-56.7,101.8c-10.4,18.3-4.3,41.6,13.7,52.5c18.3,10.3,41.6,4.2,52.5-13.7
						c43.9-78.5,87.7-157.1,131.3-235.9C689.4,387.8,750.2,278.6,811,169.4c10.2-18.3,20.5-36.7,30.8-55l9.3-16.7
						c1.9-3.4,3.7-6.9,5.6-10s3.3-5.3,4.9-7.9c-4.7,7.4,1.6-2.7,4.1-3.8c-12.2,6,8.5-2.5-4.6,3c4.3-1,3.6-1-2,0
						c-5.6-1.2-6.3-1.2-2.1,0c20.5,5.4,41.6-6.7,47.2-27.2C909.4,31.3,897.6,10.5,877.4,4.5"/>
				</g>
				<g id="Gruppe_259" transform="translate(6.38 -7.075)">
					<path id="Pfad_243" class="st1" d="M432.1,703.4c2.3,20.8,9.5,40.8,21.1,58.3c8.6,15.4,17.1,30.9,25.6,46.5
						c17.2,31.4,34.2,62.9,51.1,94.4c34.4,63.1,67.8,126.2,102.3,189c16.3,29.7,31.5,67.8,63.8,83.4c31.4,9.8,64.7,12.2,97.2,6.9
						c29-0.4,57.9,1,86.7,4.1c1.8,0,3.6,0.3,5.4,0.7c-0.6,0-9.4-1.4-2.5,0l7.4,1.2c11.3,2.3,23,2.5,34.4,0.7
						c23.7-4.3,41.2-24.6,41.9-48.7c-3.3-21.7-11.3-42.5-23.3-61c-12.2-24.6-24.3-49.2-36.2-73.8c-32.5-66.2-64.9-132.4-97.2-198.6
						c-21.4-43.8-42.7-87.5-64.2-131.1l-1.7-3.5c-10.8-18.2-34.2-24.3-52.5-13.7c-17.9,11-23.9,34.1-13.7,52.5
						c17,34.4,33.5,68.3,50.2,102.5l93.1,190.4c22,44.8,44,89.7,65.9,134.6c1,2,1.9,4,3,6c0.2,0.5,0.5,1.1,0.8,1.6c0,0,0,0.4,0,0.5
						s-3.8-1.6-0.5-1.3c-1.6-3.4-1.1-7.5,1.2-10.4c-0.7-5.6,2-11,6.9-13.7c2.7-3.2,6.2-5.6,10.2-6.9c-6,2.1,3-1,3.6-0.3
						c-2.3-0.2-4.6-0.2-6.9,0c3.3-1.2,8.4,1.2,3.4,0.3l-3.7-0.5c-5.9-0.9-11.9-1.7-17.9-2.5c-12.9-1.6-25.8-2.7-38.8-3.5
						c-27.5-1.8-55-2-82.5-0.5l-18.3,1.2c-3.6,0-7.4,0-11,0h-4.6c-4.9,0,8,2.5-0.4-0.4c-0.9,0-5.2-2.3-1.1,0c4.1,2.3,0-0.3-0.8-0.8
						c5.9,4.9,0-0.4-2.1-2.4s1.4,2.1,1.4,2.1c-1.1-1.3-1.9-2.8-2.5-4.5c-2.2-3.3-4.2-6.9-6.1-10.2C653,973.9,591.1,853,525.6,734.1
						l-12.4-22.3c-1.6-3-3.1-5.9-4.6-8.9c3.4,6.9,0.8,1,0,0s-0.4-6.9,0,0.5c-0.3-21-17.2-38-38.2-38.4
						C449.4,665.4,432.4,682.4,432.1,703.4"/>
				</g>
				<g id="Gruppe_260" transform="translate(11.001 -7.049)">
					<path id="Pfad_244" class="st1" d="M745,705.2c1.3-4.7,2.7-9.4,4.4-13.7c0.8-2.1,1.6-4.1,2.4-6.2c2.1-5.5-2.6,5.1,0,0
						c4.9-9.6,9.3-19,14.3-28.2c9.8-17.3,20.3-34.4,29.8-51.5c21.3-38.3,42.9-76.6,64.7-114.6c42.5-73.7,85.7-146.9,128.8-220.2
						c21.2-36.1,42.1-72.4,61.8-109.3c10-18.6,19.8-37.4,29.2-56.3c10.4-15.9,17.4-33.9,20.3-52.7c1.4-55.3-70.3-60.9-110-62.5
						c-40.7-1.6-81.1,2.3-121.8,3.2c-21.1,0.3-38.1,17.3-38.3,38.3c0.3,21,17.3,38,38.3,38.3c33.4-0.6,66.6-3.7,100-3.6
						c10.7,0,21.3,0,31.9,1c4.7,0,9.3,0.7,13.7,1.2c3.4,0.3,11.5,2.1-2.1-0.4l6.9,1.1c3.6,0.7,7.4,1.4,10.9,2.5
						c1.6,0.4,3.2,1,4.8,1.4c8,2.5-7.3-3.9-3.4-1.5c1.1,0.8,2.3,1.4,3.5,1.9c3.2,1.1-8.5-7.3-4.3-3.2c4.2,4.1-5.7-8.8-3.6-4.7
						s-3.4-8.6-2.9-6.9c1.3,3.6-0.9,5.2-0.8-7.4c0,6.2,1.9-10.2,1-6.3c-1.6,6.5,6.5-13.1,1.1-2.5c-4.6,9.2-8.9,18.6-13.7,27.5
						c-8.9,17.9-18.1,35.6-27.5,53.2c-19.5,36.4-40.1,72.2-61,107.7c-40.8,69.8-82.5,139.7-122.8,210.3
						c-23.4,40.8-46.6,81.6-69.6,122.8c-24.8,37.7-45.1,78.2-60.3,120.7c-5.5,20.5,6.4,41.5,26.8,47.4
						C718.2,737.2,739.1,725.4,745,705.2"/>
				</g>
			</g>
		</g>
	</g>
</g>
</svg>
